<svg xmlns="http://www.w3.org/2000/svg" viewBox="0 0 162.92 271.98"><defs><style>.cls-1{fill:#fbddea;}.cls-2{fill:#221e1f;}.cls-3{fill:#3fba8d;}.cls-4{fill:none;stroke:#221e1f;stroke-linecap:round;stroke-miterlimit:10;stroke-width:4.05px;}</style></defs><g id="레이어_2" data-name="레이어 2"><g id="BI"><path class="cls-1" d="M156.57,257.21c0,8.15-30.44,14.77-68,14.77s-68-6.62-68-14.77,30.43-14.78,68-14.78S156.57,249.05,156.57,257.21Z"/><path class="cls-2" d="M124.05,251.36a39.68,39.68,0,0,1-9.14-1.07c4.06-21.49,3.51-64.84,3.49-67.53a5.15,5.15,0,0,0-5.14-5.09h-.05a5.14,5.14,0,0,0-5.09,5.19c.18,17.32-.08,45.8-3,63.65a18.41,18.41,0,0,1-1.67-1.06,5.14,5.14,0,0,0-6.24,8.16c.43.33,10.62,8,26.8,8a5.14,5.14,0,1,0,0-10.27Z"/><path class="cls-2" d="M72.5,245.55c-1.72.78-3.53,1.57-5.35,2.34-10.74-28.44-3.88-58.95-3.81-59.44a5.14,5.14,0,0,0-10.16-1.54c-.32,2.12-7.35,33.79,4.44,64.82-4.34,1.63-7.84,2.75-9.09,2.78a5.14,5.14,0,0,0-.74,10.25h.5c5.74,0,20.19-6.13,28.44-9.86a5.14,5.14,0,1,0-4.23-9.36Z"/><path class="cls-3" d="M79.11,36.33A76.37,76.37,0,0,0,31.54,58.91L27.23,12.39A13.64,13.64,0,0,0,.06,14.9L9.93,121.6a12.75,12.75,0,0,0,.2,1.4,76.74,76.74,0,1,0,69-86.67ZM90.73,162a49.45,49.45,0,1,1,44.68-53.79A49.49,49.49,0,0,1,90.73,162Z"/><line class="cls-4" x1="93.95" y1="119.33" x2="105.97" y2="111.13"/><line class="cls-4" x1="93.95" y1="119.33" x2="106.58" y2="126.56"/><line class="cls-4" x1="94.27" y1="119.47" x2="108.76" y2="118.16"/><line class="cls-4" x1="74.33" y1="122.46" x2="62.31" y2="130.66"/><line class="cls-4" x1="74.33" y1="122.46" x2="61.7" y2="115.23"/><line class="cls-4" x1="74.01" y1="122.32" x2="59.52" y2="123.63"/></g></g></svg>