<svg xmlns="http://www.w3.org/2000/svg" viewBox="0 0 139.8 231.73"><defs><style>.cls-1{fill:#b8da92;}.cls-2{fill:#ffe1b0;}.cls-3{fill:#221e1f;}</style></defs><g id="레이어_2" data-name="레이어 2"><g id="BI"><path class="cls-1" d="M125.42,139.79a12.26,12.26,0,0,1-11.9-12.64l1.7-56.75a44.5,44.5,0,1,0-89-2.67l-1.71,56.75A12.28,12.28,0,1,1,0,123.74L1.71,67a69.06,69.06,0,0,1,138.06,4.14l-1.71,56.76A12.26,12.26,0,0,1,125.42,139.79Z"/><path class="cls-2" d="M134.65,217.84c0,7.67-28.62,13.89-63.91,13.89S6.83,225.51,6.83,217.84s28.61-13.9,63.91-13.9S134.65,210.17,134.65,217.84Z"/><path class="cls-3" d="M104.08,212.34a36.91,36.91,0,0,1-8.6-1c3.82-20.2,3.3-61,3.28-63.5a4.84,4.84,0,0,0-4.83-4.78h-.05a4.82,4.82,0,0,0-4.78,4.88c.16,16.28-.08,43.06-2.79,59.85-1-.56-1.52-1-1.57-1a4.83,4.83,0,0,0-5.87,7.67c.41.31,10,7.54,25.21,7.54a4.83,4.83,0,1,0,0-9.66Z"/><path class="cls-3" d="M55.6,206.88c-1.62.73-3.32,1.47-5,2.2-10.1-26.74-3.65-55.44-3.58-55.9a4.83,4.83,0,1,0-9.56-1.44c-.3,2-6.91,31.77,4.18,60.95-4.09,1.53-7.37,2.59-8.55,2.61a4.83,4.83,0,0,0-.69,9.64l.46,0c5.4,0,19-5.77,26.75-9.28a4.83,4.83,0,1,0-4-8.8Z"/><circle class="cls-3" cx="51.44" cy="69.9" r="5.62"/><circle class="cls-3" cx="86.34" cy="69.9" r="5.62"/></g></g></svg>