<svg xmlns="http://www.w3.org/2000/svg" viewBox="0 0 127.83 288.92"><defs><style>.cls-1{fill:#dfeaf7;}.cls-2{fill:#221e1f;}.cls-3{fill:#939598;}.cls-4{fill:none;stroke:#221e1f;stroke-linecap:round;stroke-miterlimit:10;stroke-width:3.41px;}</style></defs><g id="레이어_2" data-name="레이어 2"><g id="BI"><path class="cls-1" d="M127.83,275c0,7.67-28.62,13.89-63.91,13.89S0,282.7,0,275s28.61-13.9,63.92-13.9S127.83,267.35,127.83,275Z"/><path class="cls-2" d="M97.25,269.53a37.29,37.29,0,0,1-8.59-1c3.81-20.21,3.3-61,3.27-63.5a4.82,4.82,0,0,0-4.83-4.78h0a4.83,4.83,0,0,0-4.78,4.87c.17,16.29-.08,43.07-2.78,59.86a16.18,16.18,0,0,1-1.57-1,4.83,4.83,0,0,0-5.87,7.68c.4.31,10,7.54,25.2,7.54a4.83,4.83,0,0,0,0-9.66Z"/><path class="cls-2" d="M48.78,264.06c-1.63.74-3.33,1.48-5,2.21-10.09-26.75-3.65-55.44-3.58-55.9a4.83,4.83,0,1,0-9.55-1.45c-.3,2-6.92,31.78,4.17,61-4.08,1.54-7.37,2.6-8.54,2.62a4.83,4.83,0,1,0-.7,9.64H26c5.41,0,19-5.76,26.75-9.27a4.83,4.83,0,1,0-4-8.81Z"/><path class="cls-3" d="M94.16,109.11a59.85,59.85,0,1,0-34,10.64,38.59,38.59,0,1,1-38.58,38.59,10.65,10.65,0,1,0-21.29,0,59.88,59.88,0,1,0,93.91-49.23ZM21.54,59.88A38.58,38.58,0,1,1,60.12,98.46,38.63,38.63,0,0,1,21.54,59.88Z"/><line class="cls-4" x1="75.94" y1="54.51" x2="90.38" y2="48.86"/><line class="cls-4" x1="42.58" y1="52.09" x2="21.54" y2="42.89"/></g></g></svg>