<svg xmlns="http://www.w3.org/2000/svg" viewBox="0 0 135.69 238.08"><defs><style>.cls-1{fill:#221e1f;}.cls-2{fill:#faf8cc;}.cls-3{fill:#94bde5;}</style></defs><g id="레이어_2" data-name="레이어 2"><g id="BI"><path class="cls-1" d="M30.43,42.54C20.83,35.76,15.77,23.61,16.67,12A31.83,31.83,0,0,1,19,2.41,1.89,1.89,0,0,0,17.69.08,1.93,1.93,0,0,0,15.36,1.4c-4.94,12-2.58,26.51,5.23,36.76a36,36,0,0,0,7.93,7.66c2,1.41,3.89-1.88,1.91-3.28Z"/><path class="cls-1" d="M67.64,46c-1.13-8.68,1.93-17.45,7.51-24.1S88.22,10.71,96.21,7.71c5.27-2,10.79-3.33,16.46-2.81,2.43.22,2.41-3.57,0-3.79A38,38,0,0,0,96.91,3.44a64.22,64.22,0,0,0-12.8,6c-8.09,5-14.78,12-18.25,21a32.08,32.08,0,0,0-2,15.66,2,2,0,0,0,1.89,1.89A1.91,1.91,0,0,0,67.64,46Z"/><path class="cls-2" d="M135.69,224.18c0,7.68-28.62,13.9-63.91,13.9s-63.92-6.22-63.92-13.9,28.62-13.89,63.92-13.89S135.69,216.51,135.69,224.18Z"/><path class="cls-1" d="M105.11,218.68a37.32,37.32,0,0,1-8.59-1c3.81-20.21,3.3-61,3.27-63.51A4.82,4.82,0,0,0,95,149.39h0a4.84,4.84,0,0,0-4.78,4.88c.17,16.29-.08,43.07-2.78,59.85a17.55,17.55,0,0,1-1.57-1,4.83,4.83,0,0,0-5.87,7.68c.4.3,10,7.54,25.2,7.54a4.84,4.84,0,0,0,0-9.67Z"/><path class="cls-1" d="M56.64,213.22c-1.63.73-3.33,1.48-5,2.2C41.51,188.68,48,160,48,159.52a4.83,4.83,0,0,0-9.55-1.44c-.3,2-6.92,31.78,4.17,60.95-4.08,1.54-7.37,2.59-8.54,2.62a4.83,4.83,0,1,0-.7,9.63l.47,0c5.4,0,19-5.77,26.75-9.28a4.83,4.83,0,1,0-4-8.8Z"/><path class="cls-3" d="M72.76,159.82a66.76,66.76,0,1,1,60.5-72.48,11.86,11.86,0,0,1-10.76,12.88l-52,4.69a11.87,11.87,0,1,1-2.13-23.65l38.56-3.47a43,43,0,1,0-9,45.19,11.87,11.87,0,0,1,17.21,16.36A66.72,66.72,0,0,1,72.76,159.82Z"/></g></g></svg>