<svg xmlns="http://www.w3.org/2000/svg" viewBox="0 0 229.08 161.57"><defs><style>.cls-1{fill:#939598;}.cls-2{fill:#3fba8d;}.cls-3{fill:#b8da92;}.cls-4{fill:#94bde5;}</style></defs><g id="레이어_2" data-name="레이어 2"><g id="BI"><path class="cls-1" d="M130.56,47.41a11.86,11.86,0,1,1,11.85-11.86,2.11,2.11,0,0,1-2.1,2.11H131a2.11,2.11,0,0,1,0-4.22h6.87a7.64,7.64,0,1,0-2.3,7.85,2.11,2.11,0,0,1,2.78,3.17A11.84,11.84,0,0,1,130.56,47.41Z"/><path class="cls-1" d="M157.34,47.41A11.86,11.86,0,1,1,169.2,35.55a2.11,2.11,0,0,1-2.11,2.11h-9.28a2.11,2.11,0,0,1,0-4.22h6.88a7.65,7.65,0,1,0-2.31,7.85,2.11,2.11,0,0,1,2.79,3.17A11.87,11.87,0,0,1,157.34,47.41Z"/><path class="cls-1" d="M105.88,47.41a2.11,2.11,0,0,1-2.11-2.11V35.55a11.87,11.87,0,0,1,11.85-11.86,2.11,2.11,0,0,1,0,4.22A7.65,7.65,0,0,0,108,35.55V45.3A2.11,2.11,0,0,1,105.88,47.41Z"/><path class="cls-1" d="M194.35,47.41a2.11,2.11,0,0,1-2.11-2.11V35.55a7.64,7.64,0,0,0-15.28,0V45.3a2.11,2.11,0,0,1-4.22,0V35.55a11.86,11.86,0,1,1,23.71,0V45.3A2.11,2.11,0,0,1,194.35,47.41Z"/><path class="cls-1" d="M217.23,23.69a11.82,11.82,0,0,0-7.64,2.8V19.27a2.11,2.11,0,0,0-4.22,0V35.83c0,.07,0,.15,0,.22a11.86,11.86,0,1,0,11.85-12.36Zm0,19.5a7.64,7.64,0,1,1,7.64-7.64A7.65,7.65,0,0,1,217.23,43.19Z"/><path class="cls-1" d="M95.57,45.3a11.84,11.84,0,1,0-6.74,2.11,7.64,7.64,0,1,1-7.63,7.64,2.11,2.11,0,0,0-4.22,0A11.86,11.86,0,1,0,95.57,45.3ZM81.2,35.55a7.64,7.64,0,1,1,7.63,7.64A7.64,7.64,0,0,1,81.2,35.55Z"/><path class="cls-2" d="M23.17,12.76A23.08,23.08,0,0,0,8.24,18.23V4.12A4.12,4.12,0,0,0,0,4.12V36.48c0,.14,0,.28,0,.42A23.18,23.18,0,1,0,23.17,12.76Zm0,38.11A14.94,14.94,0,1,1,38.1,35.93,15,15,0,0,1,23.17,50.87Z"/><path class="cls-2" d="M54.53,20.24a10.06,10.06,0,1,1,10-10.06A10.07,10.07,0,0,1,54.53,20.24Zm0-16.46a6.4,6.4,0,1,0,6.39,6.4A6.41,6.41,0,0,0,54.53,3.78Z"/><path class="cls-3" d="M130.56,142.07a11.86,11.86,0,1,1,11.85-11.86,2.1,2.1,0,0,1-2.1,2.11H131a2.11,2.11,0,1,1,0-4.21h6.87a7.62,7.62,0,1,0-2.3,7.85,2.1,2.1,0,0,1,2.78,3.16A11.84,11.84,0,0,1,130.56,142.07Z"/><path class="cls-3" d="M157.34,142.07a11.86,11.86,0,1,1,11.86-11.86,2.1,2.1,0,0,1-2.11,2.11h-9.28a2.11,2.11,0,1,1,0-4.21h6.88a7.63,7.63,0,1,0-2.31,7.85,2.11,2.11,0,1,1,2.79,3.16A11.87,11.87,0,0,1,157.34,142.07Z"/><path class="cls-3" d="M105.88,142.07a2.1,2.1,0,0,1-2.11-2.11v-9.75a11.87,11.87,0,0,1,11.85-11.85,2.11,2.11,0,0,1,0,4.22,7.64,7.64,0,0,0-7.64,7.63V140A2.1,2.1,0,0,1,105.88,142.07Z"/><path class="cls-3" d="M194.35,142.07a2.1,2.1,0,0,1-2.11-2.11v-9.75a7.64,7.64,0,0,0-15.28,0V140a2.11,2.11,0,1,1-4.22,0v-9.75a11.86,11.86,0,0,1,23.71,0V140A2.1,2.1,0,0,1,194.35,142.07Z"/><path class="cls-3" d="M217.23,118.36a11.76,11.76,0,0,0-7.64,2.8v-7.22a2.11,2.11,0,0,0-4.22,0v16.55c0,.08,0,.15,0,.22a11.86,11.86,0,1,0,11.85-12.35Zm0,19.49a7.64,7.64,0,1,1,7.64-7.64A7.65,7.65,0,0,1,217.23,137.85Z"/><path class="cls-3" d="M95.57,140a11.84,11.84,0,1,0-6.74,2.11,7.64,7.64,0,1,1-7.63,7.64,2.11,2.11,0,0,0-4.22,0A11.86,11.86,0,1,0,95.57,140ZM81.2,130.21a7.64,7.64,0,1,1,7.63,7.64A7.64,7.64,0,0,1,81.2,130.21Z"/><path class="cls-4" d="M23.17,107.43a23.07,23.07,0,0,0-14.93,5.46V98.78a4.12,4.12,0,0,0-8.24,0v32.36c0,.15,0,.29,0,.43a23.18,23.18,0,1,0,23.15-24.14Zm0,38.1A14.93,14.93,0,1,1,38.1,130.6,15,15,0,0,1,23.17,145.53Z"/><path class="cls-4" d="M54.53,114.9a10.06,10.06,0,1,1,10-10.06A10.07,10.07,0,0,1,54.53,114.9Zm0-16.46a6.4,6.4,0,1,0,6.39,6.4A6.41,6.41,0,0,0,54.53,98.44Z"/></g></g></svg>