<svg xmlns="http://www.w3.org/2000/svg" viewBox="0 0 405.73 118.49"><defs><style>.cls-1{fill:#3fba8d;}.cls-2{fill:#b8da92;}</style></defs><g id="레이어_2" data-name="레이어 2"><g id="BI"><path class="cls-1" d="M231.23,84a21,21,0,1,1,21-21,3.74,3.74,0,0,1-3.74,3.74H232.06a3.74,3.74,0,0,1,0-7.47h12.18a13.54,13.54,0,1,0-4.09,13.9,3.73,3.73,0,0,1,4.93,5.61A21,21,0,0,1,231.23,84Z"/><path class="cls-1" d="M278.67,84a21,21,0,1,1,21-21,3.75,3.75,0,0,1-3.74,3.74H279.5a3.74,3.74,0,1,1,0-7.47h12.17a13.53,13.53,0,1,0-4.08,13.9,3.73,3.73,0,0,1,4.93,5.61A21,21,0,0,1,278.67,84Z"/><path class="cls-1" d="M187.51,84a3.73,3.73,0,0,1-3.73-3.73V63a21,21,0,0,1,21-21,3.73,3.73,0,0,1,0,7.46A13.55,13.55,0,0,0,191.25,63V80.23A3.73,3.73,0,0,1,187.51,84Z"/><path class="cls-1" d="M344.2,84a3.73,3.73,0,0,1-3.73-3.73V63a13.53,13.53,0,0,0-27.06,0V80.23a3.74,3.74,0,0,1-7.47,0V63a21,21,0,0,1,42,0V80.23A3.74,3.74,0,0,1,344.2,84Z"/><path class="cls-1" d="M384.73,42a20.9,20.9,0,0,0-13.53,5V34.14a3.74,3.74,0,1,0-7.47,0V63.46c0,.13,0,.26,0,.38a21,21,0,1,0,21-21.87Zm0,34.52A13.53,13.53,0,1,1,398.26,63,13.55,13.55,0,0,1,384.73,76.49Z"/><path class="cls-1" d="M169.27,80.23A21,21,0,1,0,157.33,84,13.53,13.53,0,1,1,143.8,97.49a3.73,3.73,0,0,0-7.46,0,21,21,0,1,0,32.93-17.26ZM143.8,63a13.53,13.53,0,1,1,13.53,13.53A13.55,13.55,0,0,1,143.8,63Z"/><path class="cls-1" d="M41,22.6A40.86,40.86,0,0,0,14.6,32.28V7.3A7.3,7.3,0,0,0,0,7.3V64.61a6.28,6.28,0,0,0,0,.75A41,41,0,1,0,41,22.6Zm0,67.49A26.45,26.45,0,1,1,67.49,63.64,26.48,26.48,0,0,1,41,90.09Z"/><path class="cls-2" d="M96.57,35.84A17.82,17.82,0,1,1,114.38,18,17.84,17.84,0,0,1,96.57,35.84Zm0-29.15A11.33,11.33,0,1,0,107.9,18,11.35,11.35,0,0,0,96.57,6.69Z"/></g></g></svg>