<svg xmlns="http://www.w3.org/2000/svg" viewBox="0 0 695.41 1393.71"><defs><style>.cls-1{font-size:19.89px;}.cls-1,.cls-6,.cls-8{fill:#3c9;}.cls-1,.cls-10,.cls-11,.cls-4{font-family:Pretendard-Bold, Pretendard;font-weight:700;}.cls-2{letter-spacing:-0.06em;}.cls-3{letter-spacing:0em;}.cls-4{font-size:25.05px;}.cls-5{font-size:18.79px;fill:#333;font-family:Pretendard-Regular, Pretendard;}.cls-6,.cls-7{stroke:#4d4d4d;stroke-miterlimit:10;}.cls-7{fill:none;}.cls-9{fill:#33b380;}.cls-10{font-size:25.15px;fill:#fff;}.cls-11{font-size:37.23px;}.cls-12{letter-spacing:0em;}.cls-13{letter-spacing:0em;}.cls-14{letter-spacing:0em;}.cls-15{letter-spacing:-0.03em;}</style></defs><g id="레이어_2" data-name="레이어 2"><g id="레이어_1-2" data-name="레이어 1"><text class="cls-1" transform="translate(579.75 551.92)">매출 59억</text><text class="cls-1" transform="translate(579.75 903)">매출 523억</text><text class="cls-1" transform="translate(0 726.93)">매출 4<tspan class="cls-2" x="52.04" y="0">7</tspan><tspan class="cls-3" x="62.36" y="0">4억</tspan></text><text class="cls-4" transform="translate(484.12 596.9)">해외 선급금 계약</text><text class="cls-5" transform="translate(484.12 629.11)">대한전선 펀딩 무역보험공사<tspan x="0" y="23.26">지원 해외 선급금</tspan><tspan x="0" y="46.52">1000만불 계약</tspan></text><text class="cls-4" transform="translate(486.37 947.9)">그린비 사업부 출범</text><text class="cls-5" transform="translate(486.37 980.11)">친환경 사업 출범<tspan x="0" y="23.26">생분해 플라스틱 사업성 분석</tspan></text><text class="cls-4" transform="translate(107.25 769.24)">싱가폴 법인 설립</text><text class="cls-5" transform="translate(107.25 801.44)">해외사업 다변화<tspan x="0" y="23.26">코트라 해외 인큐베이터</tspan><tspan x="0" y="46.52">사업지원</tspan></text><text class="cls-4" transform="translate(106.8 1125.24)">그린비 제조시설 투자</text><text class="cls-5" transform="translate(106.8 1157.44)">경기도 김포 공장설립<tspan x="0" y="23.26">생분해성 플라스틱생산시스템</tspan></text><line class="cls-6" x1="469.16" y1="194.93" x2="335.02" y2="194.93"/><line class="cls-6" x1="469.16" y1="546.53" x2="335.02" y2="546.53"/><line class="cls-6" x1="469.16" y1="897.6" x2="335.02" y2="897.6"/><line class="cls-7" x1="335.02" y1="370.46" x2="200.88" y2="370.46"/><line class="cls-7" x1="335.02" y1="721.54" x2="200.88" y2="721.54"/><line class="cls-7" x1="335.02" y1="1073.66" x2="200.88" y2="1073.66"/><rect class="cls-8" x="-327.12" y="669.04" width="1323.03" height="6.44" transform="translate(1006.65 337.87) rotate(90)"/><circle class="cls-9" cx="334.48" cy="11.16" r="11.16"/><circle class="cls-8" cx="334.64" cy="1073.29" r="11.4"/><circle class="cls-8" cx="334.64" cy="897.59" r="11.4"/><circle class="cls-8" cx="334.64" cy="721.9" r="11.4"/><circle class="cls-8" cx="334.64" cy="546.2" r="11.4"/><circle class="cls-8" cx="334.64" cy="370.5" r="11.4"/><circle class="cls-8" cx="334.64" cy="194.8" r="11.4"/><circle class="cls-8" cx="334.39" cy="1349.08" r="44.63"/><text class="cls-10" transform="translate(311.69 1358.71)">현재</text><text class="cls-11" transform="translate(482.59 205.02)">2010</text><text class="cls-11" transform="translate(482.59 556.62)">2016</text><text class="cls-11" transform="translate(482.59 907.7)">2016</text><text class="cls-4" transform="translate(483.79 241.53)">(주)코마글로벌 설립</text><text class="cls-5" transform="translate(483.79 273.73)">무역업<tspan x="0" y="23.26">원자재 수출입 및 유통수</tspan><tspan x="0" y="46.52">광물 수출입</tspan></text><text class="cls-4" transform="translate(107.12 418.86)">국내 기업 계약</text><text class="cls-5" transform="translate(107.12 451.07)">대한전선<tspan class="cls-12" x="64.97" y="0">.</tspan><tspan x="69.72" y="0" xml:space="preserve"> 풍산</tspan><tspan class="cls-13" x="106.91" y="0">.</tspan><tspan class="cls-14" x="111.66" y="0" xml:space="preserve"> 일진</tspan><tspan class="cls-13" x="148.86" y="0">.</tspan><tspan x="153.61" y="0"> </tspan><tspan class="cls-15" x="158.31" y="0">L</tspan><tspan x="167.81" y="0">G Int</tspan><tspan class="cls-13" x="207.25" y="0">.</tspan><tspan x="212" y="0"> </tspan><tspan x="0" y="23.26">대우 Int</tspan><tspan class="cls-13" x="58.61" y="23.26">.</tspan><tspan class="cls-14" x="63.36" y="23.26" xml:space="preserve"> 삼성물산</tspan><tspan class="cls-13" x="133.04" y="23.26">.</tspan><tspan class="cls-14" x="137.79" y="23.26" xml:space="preserve"> LS </tspan><tspan x="0" y="46.52">Global</tspan><tspan class="cls-13" x="53.31" y="46.52">.</tspan><tspan class="cls-14" x="58.06" y="46.52" xml:space="preserve"> 그 외 다수</tspan></text><text class="cls-11" transform="translate(105.13 380.56)">2011</text><text class="cls-11" transform="translate(105.13 731.64)">2017</text><text class="cls-11" transform="translate(105.13 1083.76)">2019</text></g></g></svg>