<svg xmlns="http://www.w3.org/2000/svg" viewBox="0 0 1393.71 374.7"><defs><style>.cls-1,.cls-2,.cls-7{fill:#3c9;}.cls-1{stroke:#4d4d4d;stroke-miterlimit:10;}.cls-3{font-size:25.15px;fill:#fff;}.cls-3,.cls-4,.cls-5,.cls-7{font-family:Pretendard-Bold, Pretendard;font-weight:700;}.cls-4{font-size:37.23px;}.cls-5{font-size:25.05px;}.cls-6{font-size:18.79px;fill:#333;font-family:Pretendard-Regular, Pretendard;}.cls-7{font-size:19.89px;}.cls-8{letter-spacing:-0.06em;}.cls-9{letter-spacing:0em;}.cls-10{letter-spacing:0em;}.cls-11{letter-spacing:0em;}.cls-12{letter-spacing:0em;}.cls-13{letter-spacing:-0.03em;}</style></defs><g id="레이어_2" data-name="레이어 2"><g id="레이어_1-2" data-name="레이어 1"><line class="cls-1" x1="194.93" y1="50.58" x2="194.93" y2="184.72"/><line class="cls-1" x1="546.53" y1="50.58" x2="546.53" y2="184.72"/><line class="cls-1" x1="897.6" y1="50.58" x2="897.6" y2="184.72"/><line class="cls-1" x1="370.46" y1="184.72" x2="370.46" y2="318.86"/><line class="cls-1" x1="721.54" y1="184.72" x2="721.54" y2="318.86"/><line class="cls-1" x1="1073.66" y1="184.72" x2="1073.66" y2="318.86"/><rect class="cls-2" x="10.74" y="182.12" width="1323.03" height="6.44"/><circle class="cls-2" cx="11.16" cy="185.26" r="11.16"/><circle class="cls-2" cx="1073.29" cy="185.1" r="11.4"/><circle class="cls-2" cx="897.59" cy="185.1" r="11.4"/><circle class="cls-2" cx="721.9" cy="185.1" r="11.4"/><circle class="cls-2" cx="546.2" cy="185.1" r="11.4"/><circle class="cls-2" cx="370.5" cy="185.1" r="11.4"/><circle class="cls-2" cx="194.8" cy="185.1" r="11.4"/><circle class="cls-2" cx="1349.08" cy="185.26" r="44.63"/><text class="cls-3" transform="translate(1326.38 194.89)">현재</text><text class="cls-4" transform="translate(150.26 31.78)">2010</text><text class="cls-5" transform="translate(216.46 77.4)">(주)코마글로벌 설립</text><text class="cls-6" transform="translate(216.46 109.6)">무역업<tspan x="0" y="23.26">원자재 수출입 및 유통수</tspan><tspan x="0" y="46.52">광물 수출입</tspan></text><text class="cls-5" transform="translate(571.59 77.4)">해외 선급금 계약</text><text class="cls-7" transform="translate(601.11 27.07)">매출 59억</text><text class="cls-7" transform="translate(954.16 27.07)">매출 523억</text><text class="cls-7" transform="translate(773.47 358.42)">매출 4<tspan class="cls-8" x="52.04" y="0">7</tspan><tspan class="cls-9" x="62.36" y="0">4억</tspan></text><text class="cls-6" transform="translate(571.59 109.6)">대한전선 펀딩 무역보험공사<tspan x="0" y="23.26">지원 해외 선급금</tspan><tspan x="0" y="46.52">1000만불 계약</tspan></text><text class="cls-5" transform="translate(925.84 77.4)">그린비 사업부 출범</text><text class="cls-6" transform="translate(925.84 109.6)">친환경 사업 출범<tspan x="0" y="23.26">생분해 플라스틱 사업성 분석</tspan></text><text class="cls-5" transform="translate(391.79 235.74)">국내 기업 계약</text><text class="cls-6" transform="translate(391.79 267.94)">대한전선<tspan class="cls-10" x="64.97" y="0">.</tspan><tspan x="69.72" y="0" xml:space="preserve"> 풍산</tspan><tspan class="cls-11" x="106.91" y="0">.</tspan><tspan class="cls-12" x="111.66" y="0" xml:space="preserve"> 일진</tspan><tspan class="cls-11" x="148.86" y="0">.</tspan><tspan x="153.61" y="0"> </tspan><tspan class="cls-13" x="158.31" y="0">L</tspan><tspan x="167.81" y="0">G Int</tspan><tspan class="cls-11" x="207.25" y="0">.</tspan><tspan x="212" y="0" xml:space="preserve"> 대우</tspan><tspan x="0" y="23.26">Int</tspan><tspan class="cls-11" x="21.42" y="23.26">.</tspan><tspan x="26.17" y="23.26" xml:space="preserve"> 삼성물산</tspan><tspan class="cls-11" x="95.85" y="23.26">.</tspan><tspan x="100.6" y="23.26" xml:space="preserve"> LS Global</tspan><tspan class="cls-11" x="184.74" y="23.26">.</tspan><tspan x="189.49" y="23.26" xml:space="preserve"> 그 외 다수</tspan></text><text class="cls-5" transform="translate(748.71 235.74)">싱가폴 법인 설립</text><text class="cls-6" transform="translate(748.71 267.94)">해외사업 다변화<tspan x="0" y="23.26">코트라 해외 인큐베이터 사업지원</tspan></text><text class="cls-5" transform="translate(1100.27 235.74)">그린비 제조시설 투자</text><text class="cls-6" transform="translate(1100.27 267.94)">경기도 김포 공장설립<tspan x="0" y="23.26">생분해성 플라스틱 생산시스템</tspan></text><text class="cls-4" transform="translate(501.86 31.78)">2016</text><text class="cls-4" transform="translate(852.93 31.78)">2018</text><text class="cls-4" transform="translate(325.8 363.12)">2011</text><text class="cls-4" transform="translate(676.87 363.12)">2017</text><text class="cls-4" transform="translate(1029 363.12)">2019</text></g></g></svg>