<svg xmlns="http://www.w3.org/2000/svg" viewBox="0 0 462.05 204.8"><defs><style>.cls-1{fill:none;stroke:#3ab483;stroke-miterlimit:10;stroke-width:0.71px;}.cls-2{fill:#3ab483;}.cls-3{fill:#595757;}</style></defs><g id="레이어_2" data-name="레이어 2"><g id="레이어_1-2" data-name="레이어 1"><line class="cls-1" y1="0.35" x2="121.89" y2="0.35"/><line class="cls-1" x1="121.89" y1="0.35" x2="206.93" y2="0.35"/><line class="cls-1" x1="121.89" y1="22.68" x2="121.89" y2="0.71"/><line class="cls-1" x1="206.93" y1="0.35" x2="291.97" y2="0.35"/><line class="cls-1" x1="206.93" y1="22.68" x2="206.93" y2="0.71"/><line class="cls-1" x1="291.97" y1="0.35" x2="377.01" y2="0.35"/><line class="cls-1" x1="291.97" y1="22.68" x2="291.97" y2="0.71"/><line class="cls-1" x1="377.01" y1="0.35" x2="462.05" y2="0.35"/><line class="cls-1" x1="377.01" y1="22.68" x2="377.01" y2="0.71"/><line class="cls-1" y1="23.03" x2="121.89" y2="23.03"/><line class="cls-1" x1="121.89" y1="23.03" x2="206.93" y2="23.03"/><line class="cls-1" x1="121.89" y1="45.35" x2="121.89" y2="23.39"/><line class="cls-1" x1="206.93" y1="23.03" x2="291.97" y2="23.03"/><line class="cls-1" x1="206.93" y1="45.35" x2="206.93" y2="23.39"/><line class="cls-1" x1="291.97" y1="23.03" x2="377.01" y2="23.03"/><line class="cls-1" x1="291.97" y1="45.35" x2="291.97" y2="23.39"/><line class="cls-1" x1="377.01" y1="23.03" x2="462.05" y2="23.03"/><line class="cls-1" x1="377.01" y1="45.35" x2="377.01" y2="23.39"/><line class="cls-1" y1="45.71" x2="121.89" y2="45.71"/><line class="cls-1" x1="121.89" y1="45.71" x2="206.93" y2="45.71"/><line class="cls-1" x1="121.89" y1="68.03" x2="121.89" y2="46.06"/><line class="cls-1" x1="206.93" y1="45.71" x2="291.97" y2="45.71"/><line class="cls-1" x1="206.93" y1="68.03" x2="206.93" y2="46.06"/><line class="cls-1" x1="291.97" y1="45.71" x2="377.01" y2="45.71"/><line class="cls-1" x1="291.97" y1="68.03" x2="291.97" y2="46.06"/><line class="cls-1" x1="377.01" y1="45.71" x2="462.05" y2="45.71"/><line class="cls-1" x1="377.01" y1="68.03" x2="377.01" y2="46.06"/><line class="cls-1" y1="68.39" x2="121.89" y2="68.39"/><line class="cls-1" x1="121.89" y1="68.39" x2="206.93" y2="68.39"/><line class="cls-1" x1="121.89" y1="90.71" x2="121.89" y2="68.74"/><line class="cls-1" x1="206.93" y1="68.39" x2="291.97" y2="68.39"/><line class="cls-1" x1="206.93" y1="90.71" x2="206.93" y2="68.74"/><line class="cls-1" x1="291.97" y1="68.39" x2="377.01" y2="68.39"/><line class="cls-1" x1="291.97" y1="90.71" x2="291.97" y2="68.74"/><line class="cls-1" x1="377.01" y1="68.39" x2="462.05" y2="68.39"/><line class="cls-1" x1="377.01" y1="90.71" x2="377.01" y2="68.74"/><line class="cls-1" y1="91.06" x2="121.89" y2="91.06"/><line class="cls-1" x1="121.89" y1="91.06" x2="206.93" y2="91.06"/><line class="cls-1" x1="121.89" y1="113.39" x2="121.89" y2="91.42"/><line class="cls-1" x1="206.93" y1="91.06" x2="291.97" y2="91.06"/><line class="cls-1" x1="206.93" y1="113.39" x2="206.93" y2="91.42"/><line class="cls-1" x1="291.97" y1="91.06" x2="377.01" y2="91.06"/><line class="cls-1" x1="291.97" y1="113.39" x2="291.97" y2="91.42"/><line class="cls-1" x1="377.01" y1="91.06" x2="462.05" y2="91.06"/><line class="cls-1" x1="377.01" y1="113.39" x2="377.01" y2="91.42"/><line class="cls-1" y1="113.74" x2="121.89" y2="113.74"/><line class="cls-1" x1="121.89" y1="113.74" x2="206.93" y2="113.74"/><line class="cls-1" x1="121.89" y1="136.06" x2="121.89" y2="114.09"/><line class="cls-1" x1="206.93" y1="113.74" x2="291.97" y2="113.74"/><line class="cls-1" x1="206.93" y1="136.06" x2="206.93" y2="114.09"/><line class="cls-1" x1="291.97" y1="113.74" x2="377.01" y2="113.74"/><line class="cls-1" x1="291.97" y1="136.06" x2="291.97" y2="114.09"/><line class="cls-1" x1="377.01" y1="113.74" x2="462.05" y2="113.74"/><line class="cls-1" x1="377.01" y1="136.06" x2="377.01" y2="114.09"/><line class="cls-1" y1="136.42" x2="121.89" y2="136.42"/><line class="cls-1" x1="121.89" y1="136.42" x2="206.93" y2="136.42"/><line class="cls-1" x1="121.89" y1="158.74" x2="121.89" y2="136.77"/><line class="cls-1" x1="206.93" y1="136.42" x2="291.97" y2="136.42"/><line class="cls-1" x1="206.93" y1="158.74" x2="206.93" y2="136.77"/><line class="cls-1" x1="291.97" y1="136.42" x2="377.01" y2="136.42"/><line class="cls-1" x1="291.97" y1="158.74" x2="291.97" y2="136.77"/><line class="cls-1" x1="377.01" y1="136.42" x2="462.05" y2="136.42"/><line class="cls-1" x1="377.01" y1="158.74" x2="377.01" y2="136.77"/><line class="cls-1" y1="159.09" x2="121.89" y2="159.09"/><line class="cls-1" x1="121.89" y1="159.09" x2="206.93" y2="159.09"/><line class="cls-1" x1="121.89" y1="181.42" x2="121.89" y2="159.45"/><line class="cls-1" x1="206.93" y1="159.09" x2="291.97" y2="159.09"/><line class="cls-1" x1="206.93" y1="181.42" x2="206.93" y2="159.45"/><line class="cls-1" x1="291.97" y1="159.09" x2="377.01" y2="159.09"/><line class="cls-1" x1="291.97" y1="181.42" x2="291.97" y2="159.45"/><line class="cls-1" x1="377.01" y1="159.09" x2="462.05" y2="159.09"/><line class="cls-1" x1="377.01" y1="181.42" x2="377.01" y2="159.45"/><line class="cls-1" y1="181.77" x2="121.89" y2="181.77"/><line class="cls-1" x1="121.89" y1="181.77" x2="206.93" y2="181.77"/><line class="cls-1" x1="121.89" y1="204.09" x2="121.89" y2="182.13"/><line class="cls-1" x1="206.93" y1="181.77" x2="291.97" y2="181.77"/><line class="cls-1" x1="206.93" y1="204.09" x2="206.93" y2="182.13"/><line class="cls-1" x1="291.97" y1="181.77" x2="377.01" y2="181.77"/><line class="cls-1" x1="291.97" y1="204.09" x2="291.97" y2="182.13"/><line class="cls-1" x1="377.01" y1="181.77" x2="462.05" y2="181.77"/><line class="cls-1" x1="377.01" y1="204.09" x2="377.01" y2="182.13"/><line class="cls-1" y1="204.45" x2="121.89" y2="204.45"/><line class="cls-1" x1="121.89" y1="204.45" x2="206.93" y2="204.45"/><line class="cls-1" x1="206.93" y1="204.45" x2="291.97" y2="204.45"/><line class="cls-1" x1="291.97" y1="204.45" x2="377.01" y2="204.45"/><line class="cls-1" x1="377.01" y1="204.45" x2="462.05" y2="204.45"/><path class="cls-2" d="M54.34,12.36H51.72v1.38h-.89V12.36H48V11.6h6.34Zm-5.58-4.3h.86v.76H52.7V8.06h.87v2.73c0,.17-.06.23-.22.23H49c-.16,0-.21-.06-.21-.23ZM49,15c-.16,0-.21-.06-.21-.23V12.86h.88v1.4h4.1V15Zm3.7-4.76V9.56H49.62v.71Z"/><path class="cls-2" d="M58.14,11.93a4.13,4.13,0,0,1-1.59-1.4A3.45,3.45,0,0,1,55,12.11l-.68-.61a2.76,2.76,0,0,0,1.78-2.44v-.9H57v.89a2.45,2.45,0,0,0,1.67,2.2ZM60,12.6c.16,0,.21.05.21.22V15.2h-.87V13.35H55.51V12.6ZM58,9.2h1.4V8h.86v4.3h-.86V10H58Z"/><path class="cls-2" d="M61,9.06h4v.67H61Zm.21,2c0-.62.64-1.12,1.79-1.12s1.79.5,1.79,1.12-.65,1.13-1.79,1.13S61.25,11.72,61.25,11.1Zm5.36,2.83c0,.8-.84,1.35-2.44,1.35s-2.44-.55-2.44-1.35.84-1.36,2.44-1.36S66.61,13.12,66.61,13.93ZM62,8H64.1v.67H62Zm.18,3.12c0,.35.36.5.9.5s.9-.15.9-.5-.36-.51-.9-.51S62.14,10.77,62.14,11.1Zm.52,2.83c0,.45.6.67,1.51.67s1.49-.21,1.49-.67-.57-.68-1.49-.68S62.66,13.47,62.66,13.93Zm4.61-3.3h-.82v1.89h-.86V8h.86V9.86h.82Z"/><path class="cls-2" d="M72.54,8.18c.16,0,.21.06.21.23v2.07c0,.17,0,.22-.21.22H70.8v.72h2.73v.79H67.2v-.79h2.71V10.7H68.17c-.16,0-.21,0-.21-.21V8.41c0-.17.06-.23.22-.23Zm0,4.63c.16,0,.22,0,.22.22V15.2h-.89V13.58H67.9v-.77ZM71.89,10v-1H68.82v1Z"/><path class="cls-2" d="M161.72,8.3v.76h-2.41v2h.94a16.63,16.63,0,0,0,2.25-.25v.75a14.54,14.54,0,0,1-2.54.28h-1.3c-.16,0-.21-.06-.21-.22V8.52c0-.17.05-.22.21-.22ZM159.33,15c-.16,0-.21-.06-.21-.23V12.6h.9v1.66h3.79V15Zm5.18-4.51h-.9v2.67h-.86V8h.86V9.75h.9Z"/><path class="cls-2" d="M164.62,11.87h2a20.83,20.83,0,0,0,2.61-.18v.77a14.11,14.11,0,0,1-2.05.16V15h-.86V12.64h-1.71Zm2.2-3.8a1.6,1.6,0,1,1-1.76,1.59A1.63,1.63,0,0,1,166.82,8.07Zm0,2.47a.88.88,0,1,0-.9-.88A.85.85,0,0,0,166.82,10.54ZM170.33,8v7.15h-.86V8Z"/><path class="cls-2" d="M243,12.36H240.4v1.38h-.89V12.36h-2.83V11.6H243Zm-5.58-4.3h.86v.76h3.08V8.06h.87v2.73c0,.17-.05.23-.22.23h-4.38c-.16,0-.21-.06-.21-.23Zm.24,7c-.16,0-.2-.06-.2-.23V12.86h.87v1.4h4.11V15Zm3.7-4.76V9.56H238.3v.71Z"/><path class="cls-2" d="M246.82,11.93a4.13,4.13,0,0,1-1.59-1.4,3.47,3.47,0,0,1-1.56,1.58L243,11.5a2.74,2.74,0,0,0,1.78-2.44v-.9h.93v.89a2.45,2.45,0,0,0,1.67,2.2Zm1.89.67c.16,0,.21.05.21.22V15.2h-.86V13.35h-3.87V12.6Zm-2-3.4h1.39V8h.86v4.3h-.86V10h-1.39Z"/><path class="cls-2" d="M253.11,11.55c0,.17-.05.22-.21.22h-2.85c-.16,0-.21,0-.21-.22V8.22h.87v1h1.56v-1h.84Zm2.12,2.32c0,.93-1,1.42-2.44,1.42s-2.42-.5-2.42-1.42,1.07-1.43,2.42-1.43S255.23,13,255.23,13.87Zm-3-2.85V10h-1.56v1Zm-1,2.84c0,.43.62.73,1.49.73s1.5-.3,1.5-.73-.58-.71-1.5-.71S251.3,13.42,251.3,13.86ZM255.06,8V9.57h.88v.76h-.88v2.08h-.88V8Z"/><path class="cls-2" d="M256.36,8.22h.86v1h1.53v-1h.86V9.38h1.22V8h.86v3.9h-.86V10.14h-1.22v1.23c0,.17-.06.23-.22.23h-2.82c-.16,0-.21-.06-.21-.23Zm.7,3.95h.85v.72h2.92v-.72h.86v2.7c0,.17-.06.22-.22.22h-4.2c-.16,0-.21-.05-.21-.22Zm1.69-1.33v-.9h-1.53v.9Zm2.08,3.53v-.75h-2.92v.75Z"/><path class="cls-2" d="M325.25,8.3c.17,0,.22,0,.22.22a4.06,4.06,0,0,1-3.07,3.58l-.54-.65a3.29,3.29,0,0,0,2.63-2.39h-2.22V8.3Zm2.12,4c.16,0,.22.06.22.23v2.3c0,.17-.06.22-.22.22H323.2c-.16,0-.22-.05-.22-.22v-2.3c0-.17.06-.23.22-.23Zm-.64,2V13.08h-2.89v1.27ZM327.6,8v4.05h-.86V10.52h-1.39V9.74h1.39V8Z"/><path class="cls-2" d="M328.12,11.14h6.33v.64h-2.71v.56h1.69c.16,0,.22.06.22.23v1.22c0,.17-.06.22-.22.22h-3.58v.48h4v.63h-4.69c-.16,0-.22-.06-.22-.23V13.65c0-.16.06-.22.22-.22h3.59V13h-3.81v-.63h1.89v-.56h-2.68Zm.66-2.26h5V9.5H332c.29.38,1,.61,2.17.7l-.48.67a3.9,3.9,0,0,1-2.36-.92,4,4,0,0,1-2.37.92l-.49-.66c1.19-.12,1.91-.35,2.17-.71h-1.81Zm1.15-1h2.7v.64h-2.7Z"/><path class="cls-2" d="M334.76,9.1h4v.69h-4Zm.21,2.23c0-.69.64-1.23,1.79-1.23s1.79.54,1.79,1.23-.65,1.24-1.79,1.24S335,12,335,11.33ZM335.68,8h2.14v.68h-2.14Zm.21,7c-.16,0-.2-.06-.2-.23V13h.89v1.27h3.79V15Zm0-3.7c0,.38.36.56.9.56s.9-.18.9-.56-.36-.56-.9-.56S335.86,11,335.86,11.33ZM340.18,8v2.1h.89v.8h-.89v2.41h-.87V8Z"/><path class="cls-2" d="M343.64,8.48c.16,0,.22.06.22.22s0,.53-.05.78h.83V8.13h.84v6.7h-.84V12.2h-1.07v-.79h1.07V10.26h-.95a5.54,5.54,0,0,1-2,3.46l-.76-.54a4.59,4.59,0,0,0,2-3.95h-1.68V8.48ZM346,15.16V8h.85v7.15Z"/><path class="cls-2" d="M413.1,12.36h-2.62v1.38h-.89V12.36h-2.83V11.6h6.34Zm-5.58-4.3h.86v.76h3.08V8.06h.87v2.73c0,.17-.06.23-.22.23h-4.38c-.16,0-.21-.06-.21-.23Zm.24,7c-.16,0-.21-.06-.21-.23V12.86h.88v1.4h4.11V15Zm3.7-4.76V9.56h-3.08v.71Z"/><path class="cls-2" d="M416.9,11.93a4.13,4.13,0,0,1-1.59-1.4,3.45,3.45,0,0,1-1.57,1.58l-.68-.61a2.76,2.76,0,0,0,1.78-2.44v-.9h.93v.89a2.45,2.45,0,0,0,1.67,2.2Zm1.89.67c.16,0,.21.05.21.22V15.2h-.87V13.35h-3.86V12.6Zm-2-3.4h1.39V8H419v4.3h-.86V10h-1.39Z"/><path class="cls-2" d="M423.09,8.3c.16,0,.21,0,.21.22-.17,1.51-1.09,2.65-3.07,3.3l-.53-.65c1.49-.39,2.35-1.09,2.59-2.12H420.1V8.3ZM421,15.12c-.16,0-.22-.06-.22-.23V13.46c0-.17.06-.22.22-.22h3.49v-.5h-3.71V12h4.41c.16,0,.21.05.21.22v1.39c0,.16-.05.22-.21.22h-3.48v.54h3.85v.71ZM425.43,8v3.75h-.86V11h-1.33v-.72h1.33V9.6h-1.2V8.88h1.2V8Z"/><path class="cls-2" d="M426,13h1.24V10.67h.86V13c.52,0,1.83-.1,2.39-.19v.76a30.89,30.89,0,0,1-3.65.21H426Zm3.71-4.53c.16,0,.21.05.21.22a27.16,27.16,0,0,1-.28,3.52h-.89a22.65,22.65,0,0,0,.26-3h-2.67V8.42Zm2.75,3.27h-.92v3.47h-.86V8h.86v2.89h.92Z"/><path class="cls-3" d="M28.62,31.07h.63V32.9h2V31.07h.61v4.82c0,.13,0,.17-.16.17H28.79c-.13,0-.17,0-.17-.17Zm.63,4.44h2v-2h-2Zm4.66-4.78v7.08h-.62V30.73Z"/><path class="cls-3" d="M41.58,36.91h-6.5v-.54H38V34.59h.65v1.78h2.93ZM38.67,31.6c0,1.28,1.42,2.42,2.61,2.76l-.44.48a4.42,4.42,0,0,1-2.5-2.14,4.43,4.43,0,0,1-2.51,2.15l-.47-.49C36.64,34,38,32.92,38,31.6V31h.68Z"/><path class="cls-3" d="M46.39,30.39h.48a6,6,0,0,0,0,7.68h-.48a5.82,5.82,0,0,1-1.62-3.84A5.8,5.8,0,0,1,46.39,30.39Z"/><path class="cls-3" d="M52.06,37.07h-.65l-.58-1.6H48.16l-.57,1.6h-.66l2.18-5.9a.14.14,0,0,1,.14-.08h.49c.08,0,.13,0,.14.08Zm-3.7-2.15h2.27l-.87-2.44-.26-.82-.27.82Z"/><path class="cls-3" d="M54.21,32.88c.78,0,1.43.27,1.53,1.19h-.66c0-.54-.45-.68-.91-.68s-.82.15-.82.61.64.48,1.73.88a.94.94,0,0,1,.79,1c0,.95-.82,1.35-1.75,1.35a1.39,1.39,0,0,1-1.56-1.28h.65c0,.63.51.76,1,.76s1-.2,1-.75-.58-.62-1.22-.77-1.28-.32-1.28-1.11S53.5,32.88,54.21,32.88Z"/><path class="cls-3" d="M60.45,33h-.82v-.83h.82Zm0,3.26h-.82v-.82h.82Z"/><path class="cls-3" d="M68.94,37.07h-.65l-.58-1.6H65l-.57,1.6h-.66L66,31.17a.14.14,0,0,1,.14-.08h.49c.08,0,.13,0,.14.08Zm-3.7-2.15h2.27l-.87-2.44-.26-.82-.27.82Z"/><path class="cls-3" d="M70.32,34.71v2.36h-.6V33h.62l0,.52a1.2,1.2,0,0,1,1.07-.64,1.11,1.11,0,0,1,.38,0v.63a1,1,0,0,0-.35-.06A1.09,1.09,0,0,0,70.32,34.71Z"/><path class="cls-3" d="M73.82,32.88c.77,0,1.43.27,1.53,1.19h-.66c0-.54-.45-.68-.91-.68S73,33.54,73,34s.65.48,1.74.88a.93.93,0,0,1,.78,1c0,.95-.81,1.35-1.74,1.35a1.4,1.4,0,0,1-1.57-1.28h.66c0,.63.51.76,1,.76s1-.2,1-.75-.59-.62-1.22-.77-1.29-.32-1.29-1.11S73.11,32.88,73.82,32.88Z"/><path class="cls-3" d="M79.89,35.18H77c0,.84.37,1.49,1.29,1.49a1.1,1.1,0,0,0,1.06-1H80a1.73,1.73,0,0,1-1.88,1.48c-1.22,0-1.79-1-1.79-2.15a1.92,1.92,0,0,1,1.83-2.16c1.33,0,1.88.9,1.88,2.15C80,35.14,80,35.18,79.89,35.18Zm-.5-.51a1.19,1.19,0,0,0-1.23-1.28A1.22,1.22,0,0,0,77,34.67Z"/><path class="cls-3" d="M81.76,33v.52a1.5,1.5,0,0,1,1.3-.64c.9,0,1.34.52,1.34,1.49v2.7h-.61V34.54c0-.79-.26-1.15-.94-1.15a1.18,1.18,0,0,0-1.09,1.32v2.36h-.58V33Z"/><path class="cls-3" d="M86.38,31.11v.68H85.7v-.68Zm-.65,1.81h.62v4.15h-.62Z"/><path class="cls-3" d="M90.14,34.33a.9.9,0,0,0-1-.94c-.68,0-1.12.7-1.12,1.64s.44,1.64,1.12,1.64a.94.94,0,0,0,1-1h.66a1.55,1.55,0,0,1-1.65,1.48c-1.23,0-1.81-1-1.81-2.15a1.93,1.93,0,0,1,1.85-2.16,1.5,1.5,0,0,1,1.6,1.45Z"/><path class="cls-3" d="M91.61,38.07h-.48a6,6,0,0,0,0-7.68h.48a5.36,5.36,0,0,1,0,7.68Z"/><path class="cls-3" d="M153.18,34.54c0-.79-.25-1.15-.9-1.15s-1.05.45-1.05,1.32v2.36h-.58V33h.59v.52a1.44,1.44,0,0,1,1.25-.64,1.12,1.12,0,0,1,1.19.79l.06-.15a1.44,1.44,0,0,1,1.26-.64c.87,0,1.29.52,1.29,1.49v2.7h-.6V34.54c0-.79-.24-1.15-.89-1.15a1.1,1.1,0,0,0-1,1.06v2.62h-.58Z"/><path class="cls-3" d="M157.73,37.47h.69c0,.51.58.67,1.06.67.73,0,1.13-.4,1.13-1.24l0-.39a1.56,1.56,0,0,1-1.32.68c-1.24,0-1.71-1-1.71-2.14s.5-2.17,1.72-2.17a1.49,1.49,0,0,1,1.3.62l0-.5h.58v4a1.53,1.53,0,0,1-1.74,1.63C158.48,38.63,157.83,38.29,157.73,37.47Zm2.9-2.36c0-.93-.32-1.71-1.28-1.71s-1.1.93-1.1,1.69.31,1.59,1.15,1.59S160.63,36,160.63,35.11Z"/><path class="cls-3" d="M165,38h-.67L167,30.47h.63Z"/><path class="cls-3" d="M171.48,31.06v3.49L173.26,33h.81l-2,1.76,2.19,2.31h-.79L171.48,35v2.08h-.57v-6Z"/><path class="cls-3" d="M174.77,37.47h.69c0,.51.58.67,1.06.67.73,0,1.13-.4,1.13-1.24l0-.39a1.56,1.56,0,0,1-1.32.68c-1.24,0-1.71-1-1.71-2.14s.5-2.17,1.72-2.17a1.49,1.49,0,0,1,1.3.62l0-.5h.58v4a1.53,1.53,0,0,1-1.74,1.63C175.52,38.63,174.87,38.29,174.77,37.47Zm2.9-2.36c0-.93-.32-1.71-1.28-1.71s-1.1.93-1.1,1.69.31,1.59,1.15,1.59S177.67,36,177.67,35.11Z"/><path class="cls-3" d="M230.94,37.13h-.58v-6h.58v2.47l2.38-2.47h.81l-2.66,2.69,2.92,3.28h-.82l-2.63-3Z"/><path class="cls-3" d="M234.93,32.6A1.71,1.71,0,0,1,236.79,31a2.18,2.18,0,0,1,1.17.28,1.33,1.33,0,0,1,.71,1.19H238c0-.68-.6-.92-1.18-.92a1.12,1.12,0,0,0-1.24,1c0,.83.7,1,1.61,1.34s1.58.57,1.58,1.61a1.57,1.57,0,0,1-.6,1.34,2.27,2.27,0,0,1-1.47.38c-1.22,0-1.92-.63-1.93-1.72h.69c0,.9.6,1.16,1.32,1.16a1.2,1.2,0,0,0,1.33-1.11c0-.73-.56-.88-1.63-1.28C235.69,34,234.93,33.62,234.93,32.6Z"/><path class="cls-3" d="M247,31.2a.15.15,0,0,1,.16-.11h.6c.1,0,.13,0,.13.16v5.82h-.59V32.56l0-.74L245.5,37a.12.12,0,0,1-.13.08h-.43a.11.11,0,0,1-.12-.08L243,31.83l0,.73v4.51h-.59V31.25c0-.12,0-.16.13-.16h.6a.16.16,0,0,1,.16.11l1.55,4.27.3.8.3-.8Z"/><path class="cls-3" d="M255.3,34.08c0,1.49-.34,3.1-2,3.1s-1.89-1.61-1.89-3.1.32-3.13,1.89-3.13S255.3,32.57,255.3,34.08Zm-3.17,0c0,.88.09,2.54,1.22,2.54s1.29-1.66,1.29-2.54-.13-2.58-1.29-2.58S252.13,33.18,252.13,34.08Z"/><path class="cls-3" d="M259.89,34.08c0,1.49-.35,3.1-1.95,3.1s-1.89-1.61-1.89-3.1.31-3.13,1.89-3.13S259.89,32.57,259.89,34.08Zm-3.18,0c0,.88.09,2.54,1.23,2.54s1.28-1.66,1.28-2.54-.13-2.58-1.28-2.58S256.71,33.18,256.71,34.08Z"/><path class="cls-3" d="M262.37,34.28h-.32c-.12,0-.13,0-.13-.13v-.3c0-.13,0-.16.13-.16h.26c.66,0,1.25-.3,1.25-1a1,1,0,0,0-1.17-1,1.07,1.07,0,0,0-1.17,1.06h-.64a1.64,1.64,0,0,1,1.84-1.61c.95,0,1.78.47,1.78,1.57A1.4,1.4,0,0,1,263,34a1.47,1.47,0,0,1,1.31,1.48c0,1.18-.95,1.68-1.95,1.68a1.69,1.69,0,0,1-1.88-1.72h.64a1.17,1.17,0,0,0,1.27,1.17,1.14,1.14,0,0,0,1.28-1.2C263.69,34.61,263,34.3,262.37,34.28Z"/><path class="cls-3" d="M265.22,36.43c.76-.72,2.84-2.79,2.84-3.79a1,1,0,0,0-1.08-1,1.06,1.06,0,0,0-1.05,1.16h-.66A1.65,1.65,0,0,1,267,31.05a1.53,1.53,0,0,1,1.73,1.55c0,1.35-1.92,3-2.77,3.87h2.9V37h-3.51c-.1,0-.12,0-.12-.12Z"/><path class="cls-3" d="M332.91,34.08c0,1.49-.34,3.1-2,3.1s-1.89-1.61-1.89-3.1S329.38,31,331,31,332.91,32.57,332.91,34.08Zm-3.17,0c0,.88.08,2.54,1.22,2.54s1.29-1.66,1.29-2.54-.13-2.58-1.29-2.58S329.74,33.18,329.74,34.08Z"/><path class="cls-3" d="M334.82,37.21H334v-.82h.82Z"/><path class="cls-3" d="M338.55,37h-.63V31.88a4.68,4.68,0,0,1-1.25.84v-.6a4.08,4.08,0,0,0,1.27-.93h.46c.12,0,.15,0,.15.15Z"/><path class="cls-3" d="M409.21,33.72h6.49v.51h-2.93V35h1.89c.13,0,.17,0,.17.16v1.26c0,.13,0,.17-.17.17h-3.89v.71H415v.49h-4.74c-.13,0-.17,0-.17-.17V36.26c0-.13,0-.17.17-.17h3.88v-.64h-4.05V35h2v-.73h-2.91Zm.85-2.94h.62v.67h3.54v-.67h.62v2.14c0,.12,0,.16-.16.16h-4.45c-.13,0-.17,0-.17-.16Zm.62,1.82h3.54v-.68h-3.54Z"/><path class="cls-3" d="M419.89,31.05c.12,0,.16,0,.16.17-.18,1.75-1.31,2.88-3.19,3.51l-.41-.45a3.66,3.66,0,0,0,2.9-2.68h-2.49v-.55ZM422,35.11c.13,0,.17,0,.17.16v2.29c0,.13,0,.17-.17.17h-4.25c-.12,0-.16,0-.16-.17V35.27c0-.12,0-.16.16-.16Zm-3.78,2.1h3.32V35.63h-3.32Zm4-6.48v4h-.63V33.05h-1.48v-.56h1.48V30.73Z"/><path class="cls-3" d="M428.92,36.46c0,.13,0,.17-.17.17h-3.9v.64h4.24v.48h-4.74c-.13,0-.17,0-.17-.17V36.35c0-.13,0-.17.17-.17h3.91v-.64h-4.08v-.47h2v-.71h-2.9v-.48h6.49v.48h-2.92v.71h1.87c.13,0,.17,0,.17.16Zm-4.85-4.84h5v.46h-2a1.63,1.63,0,0,0,.94.64,7.4,7.4,0,0,0,1.46.29c-.11.13-.27.33-.37.48a6.49,6.49,0,0,1-1.3-.32,2.4,2.4,0,0,1-1.17-.75,2.56,2.56,0,0,1-1,.69,7,7,0,0,1-1.45.38c-.11-.14-.26-.33-.39-.48a6.86,6.86,0,0,0,1.46-.29,1.6,1.6,0,0,0,.94-.64h-2Zm1.18-1h2.59v.47h-2.59Z"/><path class="cls-3" d="M37.12,56.53c-.13,0-.17,0-.17-.17V53.62h.63V56h.71a16.68,16.68,0,0,0,2.88-.26v.54a14.65,14.65,0,0,1-3,.3Zm.54.88h.63v.9h3.23v-.9h.63v2.85c0,.13,0,.17-.17.17H37.83c-.13,0-.17,0-.17-.17Zm.63,2.5h3.23V58.84H38.29Zm4.82-4.72h-1V57h-.63V53.42h.63v1.21h1Z"/><path class="cls-3" d="M47.77,53.07h.48a6,6,0,0,0,0,7.67h-.48a5.33,5.33,0,0,1,0-7.67Z"/><path class="cls-3" d="M50.87,57.21H49.61v2.53H49V53.92c0-.11,0-.15.15-.15h1.73c1.11,0,2,.55,2,1.72S52,57.21,50.87,57.21Zm-.11-2.89H49.61v2.33h1.15c.89,0,1.43-.34,1.43-1.16S51.65,54.32,50.76,54.32Z"/><path class="cls-3" d="M54.27,59.74h-.6a4.2,4.2,0,0,0,.06-.72V53.74h.57v2.49a1.52,1.52,0,0,1,1.3-.68c1.24,0,1.72,1,1.72,2.15s-.51,2.17-1.73,2.17a1.47,1.47,0,0,1-1.29-.62Zm0-2.11c0,.94.31,1.72,1.27,1.72s1.1-.93,1.1-1.69-.32-1.6-1.16-1.6S54.29,56.79,54.29,57.63Z"/><path class="cls-3" d="M61.84,55.63H61V54.8h.82Zm0,3.26H61v-.83h.82Z"/><path class="cls-3" d="M66,59.74c-.1,0-.13,0-.13-.15V53.77h.63v5.42h2.83v.55Z"/><path class="cls-3" d="M73.42,57.86H70.51c0,.84.37,1.49,1.29,1.49a1.1,1.1,0,0,0,1.06-1h.66a1.73,1.73,0,0,1-1.87,1.48c-1.23,0-1.8-1-1.8-2.16a1.92,1.92,0,0,1,1.84-2.16c1.32,0,1.87.91,1.87,2.15C73.56,57.82,73.52,57.86,73.42,57.86Zm-.5-.52a1.19,1.19,0,0,0-1.23-1.28,1.22,1.22,0,0,0-1.16,1.28Z"/><path class="cls-3" d="M76.94,56.93c0-.66-.38-.87-.92-.87s-.84.15-.89.72h-.67A1.39,1.39,0,0,1,76,55.55c.92,0,1.5.44,1.49,1.4v2.18a4,4,0,0,0,0,.61H77l0-.44a1.65,1.65,0,0,1-1.25.57,1.26,1.26,0,0,1-1.38-1.27,1.23,1.23,0,0,1,.82-1.18,4.71,4.71,0,0,1,1.8-.2ZM75.8,59.35c1,0,1.17-.77,1.17-1.61-.61,0-2-.14-2,.87C75,59.15,75.34,59.35,75.8,59.35Z"/><path class="cls-3" d="M81.57,59.25a1.48,1.48,0,0,1-1.3.62c-1.22,0-1.72-1-1.72-2.17s.47-2.15,1.71-2.15a1.53,1.53,0,0,1,1.31.68V53.74h.56V59a4.2,4.2,0,0,0,.06.72H81.6Zm-2.36-1.59c0,.76.23,1.69,1.09,1.69s1.28-.78,1.28-1.72-.35-1.57-1.22-1.57S79.21,56.83,79.21,57.66Z"/><path class="cls-3" d="M83.22,60.74h-.48a6,6,0,0,0,0-7.67h.48a5.35,5.35,0,0,1,0,7.67Z"/><path class="cls-3" d="M153.18,57.22c0-.8-.25-1.16-.9-1.16s-1.05.45-1.05,1.32v2.36h-.58V55.68h.59v.52a1.45,1.45,0,0,1,1.25-.65,1.13,1.13,0,0,1,1.19.8l.06-.15a1.45,1.45,0,0,1,1.26-.65c.87,0,1.29.53,1.29,1.5v2.69h-.6V57.22c0-.8-.24-1.16-.89-1.16a1.1,1.1,0,0,0-1,1.07v2.61h-.58Z"/><path class="cls-3" d="M157.73,60.15h.69c0,.5.58.66,1.06.66.73,0,1.13-.4,1.13-1.23l0-.4a1.55,1.55,0,0,1-1.32.69c-1.24,0-1.71-1-1.71-2.14s.5-2.18,1.72-2.18a1.49,1.49,0,0,1,1.3.63l0-.5h.58v4a1.53,1.53,0,0,1-1.74,1.63C158.48,61.31,157.83,61,157.73,60.15Zm2.9-2.36c0-.93-.32-1.72-1.28-1.72s-1.1.94-1.1,1.7.31,1.59,1.15,1.59S160.63,58.63,160.63,57.79Z"/><path class="cls-3" d="M165,60.7h-.67L167,53.15h.63Z"/><path class="cls-3" d="M171.48,53.74v3.48l1.78-1.54h.81l-2,1.75,2.19,2.31h-.79l-1.94-2.08v2.08h-.57v-6Z"/><path class="cls-3" d="M174.77,60.15h.69c0,.5.58.66,1.06.66.73,0,1.13-.4,1.13-1.23l0-.4a1.55,1.55,0,0,1-1.32.69c-1.24,0-1.71-1-1.71-2.14s.5-2.18,1.72-2.18a1.49,1.49,0,0,1,1.3.63l0-.5h.58v4a1.53,1.53,0,0,1-1.74,1.63C175.52,61.31,174.87,61,174.77,60.15Zm2.9-2.36c0-.93-.32-1.72-1.28-1.72s-1.1.94-1.1,1.7.31,1.59,1.15,1.59S177.67,58.63,177.67,57.79Z"/><path class="cls-3" d="M230.94,59.81h-.58v-6h.58v2.48l2.38-2.48h.81l-2.66,2.7,2.92,3.28h-.82l-2.63-3Z"/><path class="cls-3" d="M234.93,55.27a1.72,1.72,0,0,1,1.86-1.63,2.28,2.28,0,0,1,1.17.28,1.35,1.35,0,0,1,.71,1.2H238c0-.68-.6-.92-1.18-.92a1.12,1.12,0,0,0-1.24,1c0,.82.7,1,1.61,1.34s1.58.56,1.58,1.61a1.59,1.59,0,0,1-.6,1.34,2.27,2.27,0,0,1-1.47.38c-1.22,0-1.92-.63-1.93-1.73h.69c0,.91.6,1.17,1.32,1.17a1.21,1.21,0,0,0,1.33-1.11c0-.74-.56-.89-1.63-1.28C235.69,56.66,234.93,56.3,234.93,55.27Z"/><path class="cls-3" d="M247,53.87a.16.16,0,0,1,.16-.1h.6c.1,0,.13,0,.13.15v5.82h-.59V55.23l0-.73-1.83,5.16c0,.06-.05.08-.13.08h-.43c-.07,0-.1,0-.12-.08L243,54.51l0,.73v4.5h-.59V53.92c0-.11,0-.15.13-.15h.6a.17.17,0,0,1,.16.1l1.55,4.27.3.81.3-.81Z"/><path class="cls-3" d="M255.3,56.75c0,1.5-.34,3.1-2,3.1s-1.89-1.6-1.89-3.1.32-3.12,1.89-3.12S255.3,55.25,255.3,56.75Zm-3.17,0c0,.88.09,2.55,1.22,2.55s1.29-1.67,1.29-2.55-.13-2.57-1.29-2.57S252.13,55.86,252.13,56.75Z"/><path class="cls-3" d="M259.89,56.75c0,1.5-.35,3.1-1.95,3.1s-1.89-1.6-1.89-3.1.31-3.12,1.89-3.12S259.89,55.25,259.89,56.75Zm-3.18,0c0,.88.09,2.55,1.23,2.55s1.28-1.67,1.28-2.55-.13-2.57-1.28-2.57S256.71,55.86,256.71,56.75Z"/><path class="cls-3" d="M262.37,57h-.32c-.12,0-.13,0-.13-.13v-.29c0-.13,0-.16.13-.16h.26c.66,0,1.25-.31,1.25-1a1,1,0,0,0-1.17-1,1.07,1.07,0,0,0-1.17,1.06h-.64a1.64,1.64,0,0,1,1.84-1.61c.95,0,1.78.47,1.78,1.57A1.41,1.41,0,0,1,263,56.68a1.45,1.45,0,0,1,1.31,1.48c0,1.18-.95,1.68-1.95,1.68a1.69,1.69,0,0,1-1.88-1.72h.64a1.17,1.17,0,0,0,1.27,1.17,1.14,1.14,0,0,0,1.28-1.2C263.69,57.29,263,57,262.37,57Z"/><path class="cls-3" d="M265.22,59.1c.76-.71,2.84-2.78,2.84-3.78a1,1,0,0,0-1.08-1,1.05,1.05,0,0,0-1.05,1.15h-.66a1.64,1.64,0,0,1,1.72-1.7,1.53,1.53,0,0,1,1.73,1.54c0,1.36-1.92,3-2.77,3.88h2.9v.55h-3.51c-.1,0-.12,0-.12-.12Z"/><path class="cls-3" d="M332.91,56.75c0,1.5-.34,3.1-2,3.1s-1.89-1.6-1.89-3.1.31-3.12,1.89-3.12S332.91,55.25,332.91,56.75Zm-3.17,0c0,.88.08,2.55,1.22,2.55s1.29-1.67,1.29-2.55-.13-2.57-1.29-2.57S329.74,55.86,329.74,56.75Z"/><path class="cls-3" d="M334.82,59.89H334v-.83h.82Z"/><path class="cls-3" d="M338.55,59.7h-.63V54.55a4.47,4.47,0,0,1-1.25.85v-.61a3.9,3.9,0,0,0,1.27-.92h.46c.12,0,.15,0,.15.15Z"/><path class="cls-3" d="M409.21,56.39h6.49v.51h-2.93v.73h1.89c.13,0,.17,0,.17.17v1.26c0,.12,0,.16-.17.16h-3.89v.72H415v.48h-4.74c-.13,0-.17,0-.17-.17V58.94c0-.13,0-.17.17-.17h3.88v-.64h-4.05v-.5h2V56.9h-2.91Zm.85-2.93h.62v.67h3.54v-.67h.62v2.13c0,.13,0,.17-.16.17h-4.45c-.13,0-.17,0-.17-.17Zm.62,1.81h3.54v-.68h-3.54Z"/><path class="cls-3" d="M419.89,53.73c.12,0,.16,0,.16.17-.18,1.75-1.31,2.88-3.19,3.51l-.41-.46a3.63,3.63,0,0,0,2.9-2.67h-2.49v-.55ZM422,57.78c.13,0,.17,0,.17.17v2.29c0,.13,0,.17-.17.17h-4.25c-.12,0-.16,0-.16-.17V58c0-.13,0-.17.16-.17Zm-3.78,2.11h3.32V58.31h-3.32Zm4-6.49v4h-.63V55.73h-1.48v-.56h1.48V53.4Z"/><path class="cls-3" d="M428.92,59.14c0,.12,0,.16-.17.16h-3.9V60h4.24v.47h-4.74c-.13,0-.17,0-.17-.17V59c0-.12,0-.16.17-.16h3.91v-.64h-4.08v-.48h2V57h-2.9v-.48h6.49V57h-2.92v.71h1.87c.13,0,.17,0,.17.17Zm-4.85-4.84h5v.46h-2a1.63,1.63,0,0,0,.94.64,8.2,8.2,0,0,0,1.46.29c-.11.13-.27.33-.37.48a7.24,7.24,0,0,1-1.3-.32,1.2,1.2,0,0,0-2.2-.06,7,7,0,0,1-1.45.38c-.11-.15-.26-.33-.39-.48a6.85,6.85,0,0,0,1.46-.3,1.6,1.6,0,0,0,.94-.63h-2Zm1.18-1h2.59v.46h-2.59Z"/><path class="cls-3" d="M21.86,79h-1v-.52h1.22a5.69,5.69,0,0,0,1.2-.09A5.69,5.69,0,0,0,23.6,77H21.14v-.53h3c.12,0,.16,0,.16.17a6.2,6.2,0,0,1-3,5l-.55-.41a5.36,5.36,0,0,0,2.38-2.4A6,6,0,0,1,21.86,79Zm5.34.43h-1v3.78h-.64v-7.1h.64v2.73h1Z"/><path class="cls-3" d="M34.12,82.2H27.61v-.55h6.51Zm-.8-5.74V77H29.11V79.4h4.28v.54H28.65c-.14,0-.17,0-.17-.16V76.63c0-.13,0-.17.17-.17Z"/><path class="cls-3" d="M34.66,79.29h6.49v.53H39.4v1h.71c.13,0,.17,0,.17.17v2c0,.12,0,.16-.17.16h-4.4c-.13,0-.17,0-.17-.16V81c0-.13,0-.17.17-.17h.74v-1H34.66Zm1-.76c-.13,0-.17,0-.17-.17v-1.9c0-.13,0-.17.17-.17h4.43c.13,0,.17,0,.17.17v1.9c0,.13,0,.17-.17.17Zm.45-.53h3.53V76.81H36.14Zm0,4.56h3.48V81.32H36.17Zm2.6-1.77v-1H37.08v1Z"/><path class="cls-3" d="M46,75.74h.48a6,6,0,0,0,0,7.68H46a5.36,5.36,0,0,1,0-7.68Z"/><path class="cls-3" d="M50.72,77.89a1.24,1.24,0,0,0-1.35-1c-1.39,0-1.82,1.33-1.82,2.56S48,82,49.37,82a1.25,1.25,0,0,0,1.37-1.07h.68a1.9,1.9,0,0,1-2.05,1.63c-1.76,0-2.49-1.46-2.49-3.11s.74-3.12,2.49-3.12a1.81,1.81,0,0,1,2,1.57Z"/><path class="cls-3" d="M55.07,81.92a1.49,1.49,0,0,1-1.3.63c-1.22,0-1.72-1-1.72-2.18s.47-2.14,1.71-2.14a1.53,1.53,0,0,1,1.3.68V76.42h.57V81.7a4.2,4.2,0,0,0,.06.72h-.6ZM52.7,80.33c0,.76.24,1.7,1.1,1.7s1.28-.78,1.28-1.72-.35-1.57-1.23-1.57S52.7,79.51,52.7,80.33Z"/><path class="cls-3" d="M60.34,78.3h-.82v-.82h.82Zm0,3.26h-.82v-.82h.82Z"/><path class="cls-3" d="M67.91,77.89a1.23,1.23,0,0,0-1.35-1c-1.39,0-1.82,1.33-1.82,2.56S65.17,82,66.56,82a1.25,1.25,0,0,0,1.37-1.07h.68a1.89,1.89,0,0,1-2,1.63c-1.76,0-2.49-1.46-2.49-3.11s.74-3.12,2.49-3.12a1.81,1.81,0,0,1,2,1.57Z"/><path class="cls-3" d="M71.9,79.61c-.05-.67-.38-.87-.92-.87s-.84.15-.89.72h-.67A1.39,1.39,0,0,1,71,78.23c.92,0,1.5.44,1.49,1.4V81.8a4,4,0,0,0,0,.62h-.59l0-.44a1.68,1.68,0,0,1-1.25.57,1.26,1.26,0,0,1-1.38-1.27,1.23,1.23,0,0,1,.82-1.18,4.52,4.52,0,0,1,1.8-.2ZM70.76,82c1,0,1.17-.78,1.17-1.61-.61,0-2-.14-2,.87C69.93,81.83,70.3,82,70.76,82Z"/><path class="cls-3" d="M76.53,81.92a1.47,1.47,0,0,1-1.3.63c-1.21,0-1.72-1-1.72-2.18s.47-2.14,1.71-2.14a1.53,1.53,0,0,1,1.31.68V76.42h.56V81.7a4.2,4.2,0,0,0,.06.72h-.59Zm-2.36-1.59c0,.76.23,1.7,1.09,1.7s1.28-.78,1.28-1.72-.35-1.57-1.22-1.57S74.17,79.51,74.17,80.33Z"/><path class="cls-3" d="M80.86,79.89c0-.79-.25-1.15-.89-1.15s-1.06.45-1.06,1.32v2.36h-.57V78.36h.59l0,.52a1.46,1.46,0,0,1,1.25-.65,1.12,1.12,0,0,1,1.19.79l.06-.14a1.45,1.45,0,0,1,1.26-.65c.87,0,1.29.53,1.29,1.5v2.69h-.6V79.89c0-.79-.24-1.15-.89-1.15a1.08,1.08,0,0,0-1,1.07v2.61h-.59Z"/><path class="cls-3" d="M86.2,76.46v.68h-.68v-.68Zm-.65,1.81h.62v4.15h-.62Z"/><path class="cls-3" d="M90.13,82.42l0-.52a1.52,1.52,0,0,1-1.3.65c-.91,0-1.35-.53-1.35-1.5V78.36h.61v2.53c0,.79.26,1.15.94,1.15a1.18,1.18,0,0,0,1.1-1.32V78.36h.57v4.06Z"/><path class="cls-3" d="M94.57,79.89c0-.79-.25-1.15-.9-1.15s-1.06.45-1.06,1.32v2.36H92V78.36h.59l0,.52a1.47,1.47,0,0,1,1.25-.65,1.11,1.11,0,0,1,1.19.79l.07-.14a1.45,1.45,0,0,1,1.25-.65c.87,0,1.3.53,1.3,1.5v2.69h-.6V79.89c0-.79-.24-1.15-.9-1.15a1.1,1.1,0,0,0-1,1.07v2.61h-.58Z"/><path class="cls-3" d="M99.09,83.42h-.48a6,6,0,0,0,0-7.68h.48a5.36,5.36,0,0,1,0,7.68Z"/><path class="cls-3" d="M153.18,79.89c0-.79-.25-1.15-.9-1.15s-1.05.45-1.05,1.32v2.36h-.58V78.36h.59v.52a1.45,1.45,0,0,1,1.25-.65,1.12,1.12,0,0,1,1.19.79l.06-.14a1.45,1.45,0,0,1,1.26-.65c.87,0,1.29.53,1.29,1.5v2.69h-.6V79.89c0-.79-.24-1.15-.89-1.15a1.1,1.1,0,0,0-1,1.07v2.61h-.58Z"/><path class="cls-3" d="M157.73,82.83h.69c0,.5.58.66,1.06.66.73,0,1.13-.4,1.13-1.24l0-.39a1.57,1.57,0,0,1-1.32.69c-1.24,0-1.71-1-1.71-2.14s.5-2.18,1.72-2.18a1.51,1.51,0,0,1,1.3.62l0-.49h.58v4A1.53,1.53,0,0,1,159.44,84C158.48,84,157.83,83.64,157.73,82.83Zm2.9-2.36c0-.94-.32-1.72-1.28-1.72s-1.1.94-1.1,1.7S158.56,82,159.4,82,160.63,81.31,160.63,80.47Z"/><path class="cls-3" d="M165,83.38h-.67L167,75.82h.63Z"/><path class="cls-3" d="M171.48,76.42V79.9l1.78-1.54h.81l-2,1.75,2.19,2.31h-.79l-1.94-2.08v2.08h-.57v-6Z"/><path class="cls-3" d="M174.77,82.83h.69c0,.5.58.66,1.06.66.73,0,1.13-.4,1.13-1.24l0-.39a1.57,1.57,0,0,1-1.32.69c-1.24,0-1.71-1-1.71-2.14s.5-2.18,1.72-2.18a1.51,1.51,0,0,1,1.3.62l0-.49h.58v4A1.53,1.53,0,0,1,176.48,84C175.52,84,174.87,83.64,174.77,82.83Zm2.9-2.36c0-.94-.32-1.72-1.28-1.72s-1.1.94-1.1,1.7S175.6,82,176.44,82,177.67,81.31,177.67,80.47Z"/><path class="cls-3" d="M230.94,82.48h-.58v-6h.58V79l2.38-2.47h.81l-2.66,2.7,2.92,3.27h-.82l-2.63-3Z"/><path class="cls-3" d="M234.93,78a1.72,1.72,0,0,1,1.86-1.63,2.28,2.28,0,0,1,1.17.28,1.34,1.34,0,0,1,.71,1.2H238c0-.68-.6-.92-1.18-.92a1.12,1.12,0,0,0-1.24,1c0,.82.7,1,1.61,1.33s1.58.57,1.58,1.62a1.57,1.57,0,0,1-.6,1.33,2.22,2.22,0,0,1-1.47.39c-1.22,0-1.92-.63-1.93-1.73h.69c0,.9.6,1.17,1.32,1.17a1.21,1.21,0,0,0,1.33-1.11c0-.74-.56-.89-1.63-1.28C235.69,79.33,234.93,79,234.93,78Z"/><path class="cls-3" d="M247,76.55a.16.16,0,0,1,.16-.1h.6c.1,0,.13,0,.13.15v5.82h-.59V77.91l0-.73-1.83,5.16c0,.06-.05.08-.13.08h-.43c-.07,0-.1,0-.12-.08L243,77.18l0,.74v4.5h-.59V76.6c0-.11,0-.15.13-.15h.6a.17.17,0,0,1,.16.1l1.55,4.27.3.81.3-.81Z"/><path class="cls-3" d="M255.3,79.43c0,1.5-.34,3.1-2,3.1s-1.89-1.6-1.89-3.1.32-3.13,1.89-3.13S255.3,77.93,255.3,79.43Zm-3.17,0c0,.88.09,2.54,1.22,2.54s1.29-1.66,1.29-2.54-.13-2.57-1.29-2.57S252.13,78.53,252.13,79.43Z"/><path class="cls-3" d="M259.89,79.43c0,1.5-.35,3.1-1.95,3.1s-1.89-1.6-1.89-3.1.31-3.13,1.89-3.13S259.89,77.93,259.89,79.43Zm-3.18,0c0,.88.09,2.54,1.23,2.54s1.28-1.66,1.28-2.54-.13-2.57-1.28-2.57S256.71,78.53,256.71,79.43Z"/><path class="cls-3" d="M262.37,79.63h-.32c-.12,0-.13,0-.13-.13v-.29c0-.13,0-.16.13-.16h.26c.66,0,1.25-.31,1.25-1A1,1,0,0,0,262.39,77,1.07,1.07,0,0,0,261.22,78h-.64a1.64,1.64,0,0,1,1.84-1.6c.95,0,1.78.47,1.78,1.56A1.41,1.41,0,0,1,263,79.36a1.45,1.45,0,0,1,1.31,1.48,1.72,1.72,0,0,1-1.95,1.68,1.69,1.69,0,0,1-1.88-1.72h.64A1.16,1.16,0,0,0,262.41,82a1.14,1.14,0,0,0,1.28-1.19C263.69,80,263,79.65,262.37,79.63Z"/><path class="cls-3" d="M265.22,81.78c.76-.71,2.84-2.78,2.84-3.78A1,1,0,0,0,267,77a1,1,0,0,0-1.05,1.15h-.66a1.64,1.64,0,0,1,1.72-1.7A1.53,1.53,0,0,1,268.72,78c0,1.35-1.92,3-2.77,3.88h2.9v.55h-3.51c-.1,0-.12,0-.12-.12Z"/><path class="cls-3" d="M332.91,79.43c0,1.5-.34,3.1-2,3.1s-1.89-1.6-1.89-3.1.31-3.13,1.89-3.13S332.91,77.93,332.91,79.43Zm-3.17,0c0,.88.08,2.54,1.22,2.54s1.29-1.66,1.29-2.54-.13-2.57-1.29-2.57S329.74,78.53,329.74,79.43Z"/><path class="cls-3" d="M334.82,82.56H334v-.82h.82Z"/><path class="cls-3" d="M338.55,82.38h-.63V77.23a4.69,4.69,0,0,1-1.25.85v-.61a3.93,3.93,0,0,0,1.27-.93h.46c.12,0,.15,0,.15.16Z"/><path class="cls-3" d="M409.21,79.07h6.49v.51h-2.93v.73h1.89c.13,0,.17,0,.17.17v1.25c0,.13,0,.17-.17.17h-3.89v.71H415v.49h-4.74c-.13,0-.17,0-.17-.17V81.61c0-.13,0-.17.17-.17h3.88v-.63h-4.05v-.5h2v-.73h-2.91Zm.85-2.93h.62v.67h3.54v-.67h.62v2.13c0,.13,0,.17-.16.17h-4.45c-.13,0-.17,0-.17-.17Zm.62,1.81h3.54v-.68h-3.54Z"/><path class="cls-3" d="M419.89,76.41c.12,0,.16,0,.16.17-.18,1.75-1.31,2.87-3.19,3.51l-.41-.46a3.65,3.65,0,0,0,2.9-2.67h-2.49v-.55Zm2.13,4c.13,0,.17,0,.17.17v2.29c0,.12,0,.16-.17.16h-4.25c-.12,0-.16,0-.16-.16V80.63c0-.13,0-.17.16-.17Zm-3.78,2.1h3.32V81h-3.32Zm4-6.48v4h-.63V78.41h-1.48v-.56h1.48V76.08Z"/><path class="cls-3" d="M428.92,81.81c0,.13,0,.17-.17.17h-3.9v.65h4.24v.47h-4.74c-.13,0-.17,0-.17-.17V81.7c0-.13,0-.17.17-.17h3.91v-.64h-4.08v-.47h2v-.71h-2.9v-.48h6.49v.48h-2.92v.71h1.87c.13,0,.17,0,.17.17ZM424.07,77h5v.46h-2a1.63,1.63,0,0,0,.94.64,9.2,9.2,0,0,0,1.46.29,3.79,3.79,0,0,0-.37.48,7.24,7.24,0,0,1-1.3-.32,2.49,2.49,0,0,1-1.17-.76,2.47,2.47,0,0,1-1,.69,6.47,6.47,0,0,1-1.45.39c-.11-.15-.26-.33-.39-.48a7.52,7.52,0,0,0,1.46-.3,1.6,1.6,0,0,0,.94-.63h-2Zm1.18-1h2.59v.46h-2.59Z"/><path class="cls-3" d="M32.9,103.22H30v2.64h-.65v-2.64H26.41v-.55H32.9Zm-6.19-1.82c1.73-.42,2.59-1.12,2.59-2.1v-.38H30v.37c0,1.12,1.27,1.83,2.57,2.11l-.4.5a3.84,3.84,0,0,1-2.51-1.69,3.93,3.93,0,0,1-2.51,1.69Z"/><path class="cls-3" d="M39.94,103H33.46v-.53h6.48Zm-3.23-4.26c1.63,0,2.48.62,2.48,1.52s-.84,1.47-2.48,1.47-2.5-.58-2.5-1.47S35.08,98.71,36.71,98.71Zm-2.22,7c-.13,0-.17,0-.17-.17v-1.9h.62v1.52h4.4v.55Zm2.22-6.49c-1.1,0-1.82.35-1.82,1s.7,1,1.82,1,1.8-.33,1.8-1S37.79,99.21,36.71,99.21Z"/><path class="cls-3" d="M44.76,98.42h.48a6,6,0,0,0,0,7.68h-.48a5.36,5.36,0,0,1,0-7.68Z"/><path class="cls-3" d="M46.6,105.1H46v-6h.63v2.59h3V99.13h.63v6h-.63v-2.83h-3Z"/><path class="cls-3" d="M51.55,105.51h.69c0,.5.58.66,1,.66.74,0,1.14-.4,1.14-1.24v-.39a1.56,1.56,0,0,1-1.32.69c-1.24,0-1.71-1-1.71-2.15s.51-2.17,1.72-2.17a1.48,1.48,0,0,1,1.3.62l0-.49H55v4a1.53,1.53,0,0,1-1.74,1.63C52.3,106.66,51.64,106.32,51.55,105.51Zm2.89-2.36c0-.94-.32-1.72-1.28-1.72s-1.09.93-1.09,1.69.31,1.59,1.15,1.59S54.44,104,54.44,103.15Z"/><path class="cls-3" d="M59.71,101h-.82v-.82h.82Zm0,3.26h-.82v-.82h.82Z"/><path class="cls-3" d="M68.34,99.23a.18.18,0,0,1,.16-.1h.6c.11,0,.14,0,.14.15v5.82h-.59V99.85L66.83,105s0,.08-.12.08h-.43a.11.11,0,0,1-.12-.08l-1.83-5.16,0,.74v4.5h-.59V99.28c0-.11,0-.15.13-.15h.6a.17.17,0,0,1,.16.1l1.54,4.27.31.81.3-.81Z"/><path class="cls-3" d="M74,103.21H71.07c0,.84.36,1.5,1.28,1.5a1.12,1.12,0,0,0,1.07-1h.66a1.74,1.74,0,0,1-1.88,1.48c-1.22,0-1.79-1-1.79-2.16a1.92,1.92,0,0,1,1.83-2.16c1.33,0,1.87.9,1.87,2.15C74.11,103.17,74.08,103.21,74,103.21Zm-.51-.51a1.18,1.18,0,0,0-1.22-1.28c-.72,0-1.11.59-1.17,1.28Z"/><path class="cls-3" d="M75.83,102.74v2.36h-.6V101h.61v.52a1.2,1.2,0,0,1,1.07-.65,1.31,1.31,0,0,1,.37,0v.63a1,1,0,0,0-.35-.06A1.09,1.09,0,0,0,75.83,102.74Z"/><path class="cls-3" d="M80.3,102.36a.9.9,0,0,0-1-.94c-.68,0-1.11.7-1.11,1.64s.43,1.65,1.11,1.65a1,1,0,0,0,1-1H81a1.56,1.56,0,0,1-1.65,1.48c-1.23,0-1.81-1-1.81-2.16a1.93,1.93,0,0,1,1.85-2.16,1.5,1.5,0,0,1,1.6,1.45Z"/><path class="cls-3" d="M84.59,105.1l0-.52a1.52,1.52,0,0,1-1.3.65c-.91,0-1.35-.53-1.35-1.5V101h.61v2.52c0,.79.26,1.15.94,1.15a1.18,1.18,0,0,0,1.1-1.32V101h.57v4.06Z"/><path class="cls-3" d="M87.08,102.74v2.36h-.6V101h.62l0,.52a1.22,1.22,0,0,1,1.07-.65,1.43,1.43,0,0,1,.38,0v.63a1,1,0,0,0-.35-.06A1.09,1.09,0,0,0,87.08,102.74Z"/><path class="cls-3" d="M88.73,101h.68l1.3,3.39L92,101h.66l-2.26,5.63h-.64l.62-1.59Z"/><path class="cls-3" d="M93.25,106.1h-.48a6,6,0,0,0,0-7.68h.48a5.36,5.36,0,0,1,0,7.68Z"/><path class="cls-3" d="M153.18,102.57c0-.79-.25-1.15-.9-1.15s-1.05.45-1.05,1.32v2.36h-.58V101h.59v.52a1.45,1.45,0,0,1,1.25-.65,1.12,1.12,0,0,1,1.19.79l.06-.14a1.45,1.45,0,0,1,1.26-.65c.87,0,1.29.53,1.29,1.49v2.7h-.6v-2.53c0-.79-.24-1.15-.89-1.15a1.1,1.1,0,0,0-1,1.06v2.62h-.58Z"/><path class="cls-3" d="M157.73,105.51h.69c0,.5.58.66,1.06.66.73,0,1.13-.4,1.13-1.24l0-.39a1.57,1.57,0,0,1-1.32.69c-1.24,0-1.71-1-1.71-2.15s.5-2.17,1.72-2.17a1.51,1.51,0,0,1,1.3.62l0-.49h.58v4a1.53,1.53,0,0,1-1.74,1.63C158.48,106.66,157.83,106.32,157.73,105.51Zm2.9-2.36c0-.94-.32-1.72-1.28-1.72s-1.1.93-1.1,1.69.31,1.59,1.15,1.59S160.63,104,160.63,103.15Z"/><path class="cls-3" d="M165,106.06h-.67L167,98.5h.63Z"/><path class="cls-3" d="M171.48,99.09v3.49l1.78-1.54h.81l-2,1.75,2.19,2.31h-.79L171.48,103v2.08h-.57v-6Z"/><path class="cls-3" d="M174.77,105.51h.69c0,.5.58.66,1.06.66.73,0,1.13-.4,1.13-1.24l0-.39a1.57,1.57,0,0,1-1.32.69c-1.24,0-1.71-1-1.71-2.15s.5-2.17,1.72-2.17a1.51,1.51,0,0,1,1.3.62l0-.49h.58v4a1.53,1.53,0,0,1-1.74,1.63C175.52,106.66,174.87,106.32,174.77,105.51Zm2.9-2.36c0-.94-.32-1.72-1.28-1.72s-1.1.93-1.1,1.69.31,1.59,1.15,1.59S177.67,104,177.67,103.15Z"/><path class="cls-3" d="M230.94,105.16h-.58v-6h.58v2.47l2.38-2.47h.81l-2.66,2.69,2.92,3.28h-.82l-2.63-3Z"/><path class="cls-3" d="M234.93,100.63A1.71,1.71,0,0,1,236.79,99a2.18,2.18,0,0,1,1.17.28,1.34,1.34,0,0,1,.71,1.2H238c0-.68-.6-.92-1.18-.92a1.11,1.11,0,0,0-1.24,1c0,.82.7,1,1.61,1.33s1.58.57,1.58,1.62a1.57,1.57,0,0,1-.6,1.33,2.27,2.27,0,0,1-1.47.39c-1.22,0-1.92-.64-1.93-1.73h.69c0,.9.6,1.17,1.32,1.17a1.21,1.21,0,0,0,1.33-1.12c0-.73-.56-.88-1.63-1.28C235.69,102,234.93,101.65,234.93,100.63Z"/><path class="cls-3" d="M247,99.23a.16.16,0,0,1,.16-.1h.6c.1,0,.13,0,.13.15v5.82h-.59v-4.51l0-.74L245.5,105a.12.12,0,0,1-.13.08h-.43a.11.11,0,0,1-.12-.08L243,99.86l0,.74v4.5h-.59V99.28c0-.11,0-.15.13-.15h.6a.17.17,0,0,1,.16.1l1.55,4.27.3.81.3-.81Z"/><path class="cls-3" d="M255.3,102.11c0,1.49-.34,3.1-2,3.1s-1.89-1.61-1.89-3.1.32-3.13,1.89-3.13S255.3,100.6,255.3,102.11Zm-3.17,0c0,.88.09,2.54,1.22,2.54s1.29-1.66,1.29-2.54-.13-2.58-1.29-2.58S252.13,101.21,252.13,102.11Z"/><path class="cls-3" d="M259.89,102.11c0,1.49-.35,3.1-1.95,3.1s-1.89-1.61-1.89-3.1.31-3.13,1.89-3.13S259.89,100.6,259.89,102.11Zm-3.18,0c0,.88.09,2.54,1.23,2.54s1.28-1.66,1.28-2.54-.13-2.58-1.28-2.58S256.71,101.21,256.71,102.11Z"/><path class="cls-3" d="M262.37,102.31h-.32c-.12,0-.13,0-.13-.13v-.3c0-.12,0-.16.13-.16h.26c.66,0,1.25-.3,1.25-1a1,1,0,0,0-1.17-1,1.07,1.07,0,0,0-1.17,1h-.64a1.64,1.64,0,0,1,1.84-1.61,1.57,1.57,0,0,1,1.78,1.57A1.42,1.42,0,0,1,263,102a1.45,1.45,0,0,1,1.31,1.47c0,1.18-.95,1.68-1.95,1.68a1.69,1.69,0,0,1-1.88-1.72h.64a1.17,1.17,0,0,0,1.27,1.17,1.14,1.14,0,0,0,1.28-1.2C263.69,102.64,263,102.33,262.37,102.31Z"/><path class="cls-3" d="M265.22,104.46c.76-.71,2.84-2.78,2.84-3.78a1,1,0,0,0-1.08-1,1,1,0,0,0-1.05,1.15h-.66A1.65,1.65,0,0,1,267,99.08a1.53,1.53,0,0,1,1.73,1.55c0,1.35-1.92,3-2.77,3.88h2.9v.55h-3.51c-.1,0-.12,0-.12-.12Z"/><path class="cls-3" d="M332.91,102.11c0,1.49-.34,3.1-2,3.1s-1.89-1.61-1.89-3.1S329.38,99,331,99,332.91,100.6,332.91,102.11Zm-3.17,0c0,.88.08,2.54,1.22,2.54s1.29-1.66,1.29-2.54-.13-2.58-1.29-2.58S329.74,101.21,329.74,102.11Z"/><path class="cls-3" d="M334.82,105.24H334v-.82h.82Z"/><path class="cls-3" d="M338.55,105.06h-.63V99.91a4.93,4.93,0,0,1-1.25.85v-.61a4.08,4.08,0,0,0,1.27-.93h.46c.12,0,.15,0,.15.15Z"/><path class="cls-3" d="M409.21,101.75h6.49v.51h-2.93V103h1.89c.13,0,.17,0,.17.16v1.26c0,.13,0,.17-.17.17h-3.89v.71H415v.49h-4.74c-.13,0-.17,0-.17-.17v-1.32c0-.13,0-.17.17-.17h3.88v-.64h-4.05V103h2v-.73h-2.91Zm.85-2.94h.62v.67h3.54v-.67h.62V101c0,.13,0,.17-.16.17h-4.45c-.13,0-.17,0-.17-.17Zm.62,1.82h3.54V100h-3.54Z"/><path class="cls-3" d="M419.89,99.08c.12,0,.16,0,.16.17-.18,1.75-1.31,2.88-3.19,3.51l-.41-.45a3.66,3.66,0,0,0,2.9-2.67h-2.49v-.56Zm2.13,4.06c.13,0,.17,0,.17.17v2.28c0,.13,0,.17-.17.17h-4.25c-.12,0-.16,0-.16-.17v-2.28c0-.13,0-.17.16-.17Zm-3.78,2.1h3.32v-1.57h-3.32Zm4-6.48v4h-.63v-1.67h-1.48v-.56h1.48V98.76Z"/><path class="cls-3" d="M428.92,104.49c0,.13,0,.17-.17.17h-3.9v.65h4.24v.47h-4.74c-.13,0-.17,0-.17-.17v-1.23c0-.13,0-.17.17-.17h3.91v-.64h-4.08v-.47h2v-.71h-2.9v-.48h6.49v.48h-2.92v.71h1.87c.13,0,.17,0,.17.17Zm-4.85-4.84h5v.47h-2a1.73,1.73,0,0,0,.94.64,8.18,8.18,0,0,0,1.46.28c-.11.13-.27.33-.37.48a6.49,6.49,0,0,1-1.3-.32,2.4,2.4,0,0,1-1.17-.75,2.47,2.47,0,0,1-1,.69,7,7,0,0,1-1.45.38l-.39-.48a6.86,6.86,0,0,0,1.46-.29,1.6,1.6,0,0,0,.94-.63h-2Zm1.18-1h2.59v.46h-2.59Z"/><path class="cls-3" d="M34,121.69c.13,0,.17,0,.17.17a24.75,24.75,0,0,1-.37,3h1.15v.54h-3v3.15h-.64v-3.15H28.4v-.54h4.73a19.22,19.22,0,0,0,.34-2.61H29.16v-.54Z"/><path class="cls-3" d="M36.24,126.78c-.13,0-.17,0-.17-.16v-2.47c0-.13,0-.17.17-.17h2.38v-1.65H36.07v-.55h3c.13,0,.17,0,.17.17v2.41c0,.13,0,.17-.17.17H36.7v1.69h.78a16.52,16.52,0,0,0,2.86-.26v.55a17.78,17.78,0,0,1-3.08.27Zm5.09-5.35v7.09H40.7v-7.09Z"/><path class="cls-3" d="M46.77,121.1h.48a6,6,0,0,0,0,7.67h-.48a5.33,5.33,0,0,1,0-7.67Z"/><path class="cls-3" d="M51.51,123.24a1.23,1.23,0,0,0-1.35-1c-1.38,0-1.82,1.34-1.82,2.56s.44,2.55,1.82,2.55a1.24,1.24,0,0,0,1.37-1.07h.68a1.89,1.89,0,0,1-2.05,1.63c-1.76,0-2.49-1.45-2.49-3.11s.74-3.12,2.49-3.12a1.81,1.81,0,0,1,2,1.57Z"/><path class="cls-3" d="M55.91,127.77l0-.51a1.57,1.57,0,0,1-1.31.64c-.9,0-1.35-.52-1.35-1.49v-2.7h.62v2.53c0,.79.25,1.15.93,1.15a1.18,1.18,0,0,0,1.11-1.32v-2.36h.56v4.06Z"/><path class="cls-3" d="M61.29,123.66h-.83v-.83h.83Zm0,3.26h-.83v-.82h.83Z"/><path class="cls-3" d="M68.85,123.24a1.22,1.22,0,0,0-1.35-1c-1.38,0-1.81,1.34-1.81,2.56s.43,2.55,1.81,2.55a1.25,1.25,0,0,0,1.38-1.07h.68a1.9,1.9,0,0,1-2.06,1.63c-1.76,0-2.48-1.45-2.48-3.11s.73-3.12,2.48-3.12a1.81,1.81,0,0,1,2,1.57Z"/><path class="cls-3" d="M73.93,125.74A1.93,1.93,0,1,1,72,123.58,2,2,0,0,1,73.93,125.74ZM72,124.1c-.9,0-1.26.88-1.26,1.64s.36,1.64,1.26,1.64,1.27-.87,1.27-1.64S72.89,124.1,72,124.1Z"/><path class="cls-3" d="M74.83,129.34v-5.63h.6l0,.55a1.5,1.5,0,0,1,1.29-.68c1.24,0,1.72,1,1.72,2.15s-.5,2.17-1.73,2.17a1.49,1.49,0,0,1-1.29-.62l0,.57v1.49Zm.56-3.68c0,.94.31,1.72,1.27,1.72s1.11-.93,1.11-1.69-.32-1.59-1.16-1.59S75.39,124.82,75.39,125.66Z"/><path class="cls-3" d="M79.4,129.34v-5.63H80l0,.55a1.52,1.52,0,0,1,1.3-.68c1.24,0,1.72,1,1.72,2.15s-.5,2.17-1.73,2.17a1.47,1.47,0,0,1-1.29-.62l0,.57v1.49Zm.56-3.68c0,.94.31,1.72,1.27,1.72s1.1-.93,1.1-1.69-.32-1.59-1.16-1.59S80,124.82,80,125.66Z"/><path class="cls-3" d="M87.34,125.89H84.43c0,.84.37,1.49,1.29,1.49a1.09,1.09,0,0,0,1.06-1h.66a1.72,1.72,0,0,1-1.87,1.48c-1.23,0-1.8-1-1.8-2.16a1.93,1.93,0,0,1,1.84-2.16c1.32,0,1.87.91,1.87,2.16C87.48,125.85,87.44,125.89,87.34,125.89Zm-.5-.51a1.19,1.19,0,0,0-1.23-1.28,1.22,1.22,0,0,0-1.16,1.28Z"/><path class="cls-3" d="M89.19,125.42v2.35h-.6v-4.06h.62l0,.52a1.21,1.21,0,0,1,1.07-.65,1.09,1.09,0,0,1,.38,0v.63a1,1,0,0,0-.35-.06A1.08,1.08,0,0,0,89.19,125.42Z"/><path class="cls-3" d="M91.25,128.77h-.47a6,6,0,0,0,0-7.67h.47a5.33,5.33,0,0,1,0,7.67Z"/><path class="cls-3" d="M153.18,125.25c0-.79-.25-1.15-.9-1.15s-1.05.44-1.05,1.32v2.35h-.58v-4.06h.59v.52a1.45,1.45,0,0,1,1.25-.65,1.13,1.13,0,0,1,1.19.8l.06-.15a1.45,1.45,0,0,1,1.26-.65c.87,0,1.29.53,1.29,1.5v2.69h-.6v-2.52c0-.79-.24-1.15-.89-1.15a1.1,1.1,0,0,0-1,1.06v2.61h-.58Z"/><path class="cls-3" d="M157.73,128.18h.69c0,.51.58.67,1.06.67.73,0,1.13-.4,1.13-1.24l0-.39a1.56,1.56,0,0,1-1.32.68c-1.24,0-1.71-1-1.71-2.14s.5-2.18,1.72-2.18a1.49,1.49,0,0,1,1.3.63l0-.5h.58v4a1.53,1.53,0,0,1-1.74,1.63C158.48,129.34,157.83,129,157.73,128.18Zm2.9-2.36c0-.93-.32-1.72-1.28-1.72s-1.1.94-1.1,1.7.31,1.59,1.15,1.59S160.63,126.66,160.63,125.82Z"/><path class="cls-3" d="M165,128.73h-.67l2.71-7.55h.63Z"/><path class="cls-3" d="M171.48,121.77v3.49l1.78-1.55h.81l-2,1.75,2.19,2.31h-.79l-1.94-2.07v2.07h-.57v-6Z"/><path class="cls-3" d="M174.77,128.18h.69c0,.51.58.67,1.06.67.73,0,1.13-.4,1.13-1.24l0-.39a1.56,1.56,0,0,1-1.32.68c-1.24,0-1.71-1-1.71-2.14s.5-2.18,1.72-2.18a1.49,1.49,0,0,1,1.3.63l0-.5h.58v4a1.53,1.53,0,0,1-1.74,1.63C175.52,129.34,174.87,129,174.77,128.18Zm2.9-2.36c0-.93-.32-1.72-1.28-1.72s-1.1.94-1.1,1.7.31,1.59,1.15,1.59S177.67,126.66,177.67,125.82Z"/><path class="cls-3" d="M230.94,127.84h-.58v-6h.58v2.47l2.38-2.47h.81l-2.66,2.69,2.92,3.28h-.82l-2.63-3Z"/><path class="cls-3" d="M234.93,123.31a1.72,1.72,0,0,1,1.86-1.64A2.28,2.28,0,0,1,238,122a1.36,1.36,0,0,1,.71,1.2H238c0-.68-.6-.92-1.18-.92a1.12,1.12,0,0,0-1.24,1c0,.83.7,1,1.61,1.34s1.58.57,1.58,1.61a1.57,1.57,0,0,1-.6,1.34,2.27,2.27,0,0,1-1.47.38c-1.22,0-1.92-.63-1.93-1.72h.69c0,.9.6,1.16,1.32,1.16a1.2,1.2,0,0,0,1.33-1.11c0-.73-.56-.89-1.63-1.28C235.69,124.69,234.93,124.33,234.93,123.31Z"/><path class="cls-3" d="M247,121.91a.15.15,0,0,1,.16-.11h.6c.1,0,.13,0,.13.15v5.82h-.59v-4.5l0-.74-1.83,5.16c0,.06-.05.08-.13.08h-.43c-.07,0-.1,0-.12-.08L243,122.54l0,.73v4.5h-.59V122c0-.11,0-.15.13-.15h.6a.16.16,0,0,1,.16.11l1.55,4.27.3.8.3-.8Z"/><path class="cls-3" d="M255.3,124.78c0,1.5-.34,3.11-2,3.11s-1.89-1.61-1.89-3.11.32-3.12,1.89-3.12S255.3,123.28,255.3,124.78Zm-3.17,0c0,.88.09,2.55,1.22,2.55s1.29-1.67,1.29-2.55-.13-2.57-1.29-2.57S252.13,123.89,252.13,124.78Z"/><path class="cls-3" d="M259.89,124.78c0,1.5-.35,3.11-1.95,3.11s-1.89-1.61-1.89-3.11.31-3.12,1.89-3.12S259.89,123.28,259.89,124.78Zm-3.18,0c0,.88.09,2.55,1.23,2.55s1.28-1.67,1.28-2.55-.13-2.57-1.28-2.57S256.71,123.89,256.71,124.78Z"/><path class="cls-3" d="M262.37,125h-.32c-.12,0-.13,0-.13-.12v-.3c0-.13,0-.16.13-.16h.26c.66,0,1.25-.3,1.25-1a1,1,0,0,0-1.17-1,1.07,1.07,0,0,0-1.17,1.06h-.64a1.64,1.64,0,0,1,1.84-1.61c.95,0,1.78.47,1.78,1.57a1.4,1.4,0,0,1-1.18,1.38,1.47,1.47,0,0,1,1.31,1.48c0,1.18-.95,1.68-1.95,1.68a1.69,1.69,0,0,1-1.88-1.72h.64a1.17,1.17,0,0,0,1.27,1.17,1.14,1.14,0,0,0,1.28-1.2C263.69,125.32,263,125,262.37,125Z"/><path class="cls-3" d="M265.22,127.14c.76-.72,2.84-2.79,2.84-3.79a1,1,0,0,0-1.08-1,1.06,1.06,0,0,0-1.05,1.16h-.66a1.65,1.65,0,0,1,1.72-1.71,1.53,1.53,0,0,1,1.73,1.55c0,1.35-1.92,3-2.77,3.87h2.9v.55h-3.51c-.1,0-.12,0-.12-.12Z"/><path class="cls-3" d="M332.91,124.78c0,1.5-.34,3.11-2,3.11s-1.89-1.61-1.89-3.11.31-3.12,1.89-3.12S332.91,123.28,332.91,124.78Zm-3.17,0c0,.88.08,2.55,1.22,2.55s1.29-1.67,1.29-2.55-.13-2.57-1.29-2.57S329.74,123.89,329.74,124.78Z"/><path class="cls-3" d="M334.82,127.92H334v-.82h.82Z"/><path class="cls-3" d="M338.55,127.73h-.63v-5.14a4.68,4.68,0,0,1-1.25.84v-.6a4.08,4.08,0,0,0,1.27-.93h.46c.12,0,.15,0,.15.15Z"/><path class="cls-3" d="M409.21,124.42h6.49v.52h-2.93v.72h1.89c.13,0,.17,0,.17.17v1.26c0,.13,0,.17-.17.17h-3.89V128H415v.48h-4.74c-.13,0-.17,0-.17-.16V127c0-.13,0-.17.17-.17h3.88v-.64h-4.05v-.5h2v-.72h-2.91Zm.85-2.93h.62v.67h3.54v-.67h.62v2.14c0,.12,0,.16-.16.16h-4.45c-.13,0-.17,0-.17-.16Zm.62,1.82h3.54v-.68h-3.54Z"/><path class="cls-3" d="M419.89,121.76c.12,0,.16,0,.16.17-.18,1.75-1.31,2.88-3.19,3.51l-.41-.46a3.63,3.63,0,0,0,2.9-2.67h-2.49v-.55Zm2.13,4.06c.13,0,.17,0,.17.16v2.29c0,.13,0,.17-.17.17h-4.25c-.12,0-.16,0-.16-.17V126c0-.12,0-.16.16-.16Zm-3.78,2.1h3.32v-1.58h-3.32Zm4-6.49v4h-.63v-1.66h-1.48v-.56h1.48v-1.77Z"/><path class="cls-3" d="M428.92,127.17c0,.12,0,.16-.17.16h-3.9V128h4.24v.47h-4.74c-.13,0-.17,0-.17-.16v-1.23c0-.13,0-.17.17-.17h3.91v-.64h-4.08v-.47h2v-.72h-2.9v-.48h6.49v.48h-2.92v.72h1.87c.13,0,.17,0,.17.16Zm-4.85-4.84h5v.46h-2a1.63,1.63,0,0,0,.94.64,7.4,7.4,0,0,0,1.46.29c-.11.13-.27.33-.37.48a6.49,6.49,0,0,1-1.3-.32,2.4,2.4,0,0,1-1.17-.75,2.56,2.56,0,0,1-1,.69,7,7,0,0,1-1.45.38l-.39-.48a6.86,6.86,0,0,0,1.46-.29,1.6,1.6,0,0,0,.94-.64h-2Zm1.18-1h2.59v.47h-2.59Z"/><path class="cls-3" d="M32.25,149.36c-.13,0-.17,0-.17-.16v-4.79h.64v4.38l1.29,0a15.26,15.26,0,0,0,2.28-.28v.57a15.8,15.8,0,0,1-2.32.28Zm4.42-5.25h.62v7.09h-.62Z"/><path class="cls-3" d="M39.41,146.23h-.5v-.45h.91a5.23,5.23,0,0,0,1-.07,2.82,2.82,0,0,0,.23-.78h-2v-.5h2.48c.13,0,.17,0,.17.17a3.9,3.9,0,0,1-2.64,3.27l-.43-.4a3.77,3.77,0,0,0,1.9-1.33A6.13,6.13,0,0,1,39.41,146.23Zm.63,4.9c-.13,0-.17,0-.17-.17v-1.39c0-.13,0-.17.17-.17h3.81v-.71h-4v-.52h4.49c.12,0,.16,0,.16.17v1.38c0,.13,0,.17-.16.17H40.55v.73h4.14v.51Zm3.19-6.9v3.56H42.6V146.3h-1v-.54h1v-1.53Zm1.32-.12v3.68h-.62v-3.68Z"/><path class="cls-3" d="M49.81,143.78h.48a6,6,0,0,0,0,7.67h-.48a5.33,5.33,0,0,1,0-7.67Z"/><path class="cls-3" d="M54.26,148.74l.46.87,0-1v-4.18h.62v5.82c0,.11,0,.15-.14.15h-.51a.18.18,0,0,1-.16-.1L52,146.19l-.45-.87v5.13H51v-5.82c0-.11,0-.15.13-.15h.52a.19.19,0,0,1,.16.1Z"/><path class="cls-3" d="M57.37,144.49v.68H56.7v-.68Zm-.64,1.81h.61v4.15h-.61Z"/><path class="cls-3" d="M62.12,146.33H61.3v-.82h.82Zm0,3.27H61.3v-.83h.82Z"/><path class="cls-3" d="M69.4,148.74l.45.87v-5.13h.61v5.82c0,.11,0,.15-.13.15h-.51a.17.17,0,0,1-.16-.1l-2.49-4.16-.46-.87,0,1v4.18H66.1v-5.82c0-.11,0-.15.14-.15h.51a.18.18,0,0,1,.16.1Z"/><path class="cls-3" d="M72.51,144.49v.68h-.68v-.68Zm-.65,1.81h.62v4.15h-.62Z"/><path class="cls-3" d="M76.27,147.72a.91.91,0,0,0-1-.95c-.67,0-1.11.71-1.11,1.64s.44,1.65,1.11,1.65a1,1,0,0,0,1-1h.66a1.56,1.56,0,0,1-1.65,1.48c-1.23,0-1.81-1-1.81-2.16a1.93,1.93,0,0,1,1.85-2.16,1.52,1.52,0,0,1,1.61,1.46Z"/><path class="cls-3" d="M78.53,144.45v3.48l1.78-1.54h.81l-2.05,1.75,2.19,2.31h-.79l-1.94-2.08v2.08H78v-6Z"/><path class="cls-3" d="M85.18,148.56H82.27c0,.84.37,1.5,1.29,1.5a1.1,1.1,0,0,0,1.06-1h.67a1.74,1.74,0,0,1-1.88,1.48c-1.23,0-1.79-1-1.79-2.16a1.91,1.91,0,0,1,1.83-2.16c1.32,0,1.87.91,1.87,2.15C85.32,148.52,85.29,148.56,85.18,148.56Zm-.5-.51a1.19,1.19,0,0,0-1.23-1.28,1.22,1.22,0,0,0-1.16,1.28Z"/><path class="cls-3" d="M87.07,150.45h-.61v-6h.61Z"/><path class="cls-3" d="M88.21,151.45h-.47a6,6,0,0,0,0-7.67h.47a5.33,5.33,0,0,1,0,7.67Z"/><path class="cls-3" d="M153.18,147.92c0-.79-.25-1.15-.9-1.15s-1.05.45-1.05,1.32v2.36h-.58v-4.06h.59v.52a1.45,1.45,0,0,1,1.25-.65,1.12,1.12,0,0,1,1.19.79l.06-.14a1.45,1.45,0,0,1,1.26-.65c.87,0,1.29.53,1.29,1.5v2.69h-.6v-2.53c0-.79-.24-1.15-.89-1.15a1.1,1.1,0,0,0-1,1.07v2.61h-.58Z"/><path class="cls-3" d="M157.73,150.86h.69c0,.5.58.66,1.06.66.73,0,1.13-.4,1.13-1.24l0-.39a1.55,1.55,0,0,1-1.32.69c-1.24,0-1.71-1-1.71-2.14s.5-2.18,1.72-2.18a1.49,1.49,0,0,1,1.3.63l0-.5h.58v4a1.53,1.53,0,0,1-1.74,1.63C158.48,152,157.83,151.67,157.73,150.86Zm2.9-2.36c0-.94-.32-1.72-1.28-1.72s-1.1.94-1.1,1.7.31,1.59,1.15,1.59S160.63,149.34,160.63,148.5Z"/><path class="cls-3" d="M165,151.41h-.67l2.71-7.56h.63Z"/><path class="cls-3" d="M171.48,144.45v3.48l1.78-1.54h.81l-2,1.75,2.19,2.31h-.79l-1.94-2.08v2.08h-.57v-6Z"/><path class="cls-3" d="M174.77,150.86h.69c0,.5.58.66,1.06.66.73,0,1.13-.4,1.13-1.24l0-.39a1.55,1.55,0,0,1-1.32.69c-1.24,0-1.71-1-1.71-2.14s.5-2.18,1.72-2.18a1.49,1.49,0,0,1,1.3.63l0-.5h.58v4a1.53,1.53,0,0,1-1.74,1.63C175.52,152,174.87,151.67,174.77,150.86Zm2.9-2.36c0-.94-.32-1.72-1.28-1.72s-1.1.94-1.1,1.7.31,1.59,1.15,1.59S177.67,149.34,177.67,148.5Z"/><path class="cls-3" d="M230.94,150.52h-.58v-6h.58V147l2.38-2.47h.81l-2.66,2.7,2.92,3.28h-.82l-2.63-3Z"/><path class="cls-3" d="M234.93,146a1.72,1.72,0,0,1,1.86-1.63,2.28,2.28,0,0,1,1.17.28,1.34,1.34,0,0,1,.71,1.2H238c0-.68-.6-.92-1.18-.92a1.12,1.12,0,0,0-1.24,1c0,.82.7,1,1.61,1.34s1.58.56,1.58,1.61a1.6,1.6,0,0,1-.6,1.34,2.27,2.27,0,0,1-1.47.38c-1.22,0-1.92-.63-1.93-1.73h.69c0,.91.6,1.17,1.32,1.17a1.21,1.21,0,0,0,1.33-1.11c0-.74-.56-.89-1.63-1.28C235.69,147.37,234.93,147,234.93,146Z"/><path class="cls-3" d="M247,144.58a.16.16,0,0,1,.16-.1h.6c.1,0,.13,0,.13.15v5.82h-.59v-4.51l0-.73-1.83,5.16c0,.06-.05.08-.13.08h-.43c-.07,0-.1,0-.12-.08L243,145.21l0,.74v4.5h-.59v-5.82c0-.11,0-.15.13-.15h.6a.17.17,0,0,1,.16.1l1.55,4.27.3.81.3-.81Z"/><path class="cls-3" d="M255.3,147.46c0,1.5-.34,3.1-2,3.1s-1.89-1.6-1.89-3.1.32-3.13,1.89-3.13S255.3,146,255.3,147.46Zm-3.17,0c0,.88.09,2.54,1.22,2.54s1.29-1.66,1.29-2.54-.13-2.57-1.29-2.57S252.13,146.57,252.13,147.46Z"/><path class="cls-3" d="M259.89,147.46c0,1.5-.35,3.1-1.95,3.1s-1.89-1.6-1.89-3.1.31-3.13,1.89-3.13S259.89,146,259.89,147.46Zm-3.18,0c0,.88.09,2.54,1.23,2.54s1.28-1.66,1.28-2.54-.13-2.57-1.28-2.57S256.71,146.57,256.71,147.46Z"/><path class="cls-3" d="M262.37,147.66h-.32c-.12,0-.13,0-.13-.13v-.29c0-.13,0-.16.13-.16h.26c.66,0,1.25-.31,1.25-1a1,1,0,0,0-1.17-1,1.07,1.07,0,0,0-1.17,1.06h-.64a1.64,1.64,0,0,1,1.84-1.61c.95,0,1.78.47,1.78,1.57a1.41,1.41,0,0,1-1.18,1.38,1.45,1.45,0,0,1,1.31,1.48,1.72,1.72,0,0,1-1.95,1.68,1.69,1.69,0,0,1-1.88-1.72h.64a1.17,1.17,0,0,0,1.27,1.17,1.14,1.14,0,0,0,1.28-1.2C263.69,148,263,147.69,262.37,147.66Z"/><path class="cls-3" d="M265.22,149.81c.76-.71,2.84-2.78,2.84-3.78a1,1,0,0,0-1.08-1,1,1,0,0,0-1.05,1.15h-.66a1.64,1.64,0,0,1,1.72-1.7,1.53,1.53,0,0,1,1.73,1.54c0,1.35-1.92,3-2.77,3.88h2.9v.55h-3.51c-.1,0-.12,0-.12-.12Z"/><path class="cls-3" d="M332.91,147.46c0,1.5-.34,3.1-2,3.1s-1.89-1.6-1.89-3.1.31-3.13,1.89-3.13S332.91,146,332.91,147.46Zm-3.17,0c0,.88.08,2.54,1.22,2.54s1.29-1.66,1.29-2.54-.13-2.57-1.29-2.57S329.74,146.57,329.74,147.46Z"/><path class="cls-3" d="M334.82,150.6H334v-.83h.82Z"/><path class="cls-3" d="M338.55,150.41h-.63v-5.15a4.47,4.47,0,0,1-1.25.85v-.61a3.93,3.93,0,0,0,1.27-.93h.46c.12,0,.15,0,.15.16Z"/><path class="cls-3" d="M409.21,147.1h6.49v.51h-2.93v.73h1.89c.13,0,.17,0,.17.17v1.25c0,.13,0,.17-.17.17h-3.89v.71H415v.49h-4.74c-.13,0-.17,0-.17-.17v-1.32c0-.12,0-.16.17-.16h3.88v-.64h-4.05v-.5h2v-.73h-2.91Zm.85-2.93h.62v.67h3.54v-.67h.62v2.13c0,.13,0,.17-.16.17h-4.45c-.13,0-.17,0-.17-.17Zm.62,1.81h3.54v-.68h-3.54Z"/><path class="cls-3" d="M419.89,144.44c.12,0,.16,0,.16.17-.18,1.75-1.31,2.88-3.19,3.51l-.41-.46a3.63,3.63,0,0,0,2.9-2.67h-2.49v-.55Zm2.13,4.05c.13,0,.17,0,.17.17V151c0,.13,0,.17-.17.17h-4.25c-.12,0-.16,0-.16-.17v-2.29c0-.13,0-.17.16-.17Zm-3.78,2.11h3.32V149h-3.32Zm4-6.49v4h-.63v-1.66h-1.48v-.56h1.48v-1.77Z"/><path class="cls-3" d="M428.92,149.84c0,.13,0,.17-.17.17h-3.9v.65h4.24v.47h-4.74c-.13,0-.17,0-.17-.17v-1.23c0-.13,0-.17.17-.17h3.91v-.64h-4.08v-.47h2v-.71h-2.9v-.48h6.49v.48h-2.92v.71h1.87c.13,0,.17,0,.17.17ZM424.07,145h5v.46h-2a1.63,1.63,0,0,0,.94.64,9.2,9.2,0,0,0,1.46.29c-.11.13-.27.33-.37.48a7.24,7.24,0,0,1-1.3-.32,2.55,2.55,0,0,1-1.17-.75,2.45,2.45,0,0,1-1,.68,6.47,6.47,0,0,1-1.45.39c-.11-.15-.26-.33-.39-.48a6.85,6.85,0,0,0,1.46-.3,1.6,1.6,0,0,0,.94-.63h-2Zm1.18-1h2.59v.46h-2.59Z"/><path class="cls-3" d="M36.45,167c.94,0,1.74.85,1.74,2.69s-.79,2.7-1.74,2.7-1.77-.87-1.77-2.7S35.46,167,36.45,167Zm0,4.82c.76,0,1.11-1,1.11-2.13s-.34-2.13-1.11-2.13-1.14,1-1.14,2.13S35.67,171.78,36.45,171.78Zm4.61-2H40v4.07h-.63v-7.1H40v2.45h1.05Z"/><path class="cls-3" d="M41.74,168.76a1.84,1.84,0,0,1,1.86-1.9,1.82,1.82,0,0,1,1.51.76h1.65v-.83h.63V172h-.63V169.8H45.18a1.87,1.87,0,0,1-3.44-1Zm3.07,0a1.22,1.22,0,1,0-1.21,1.32A1.21,1.21,0,0,0,44.81,168.76Zm-1.85,5c-.13,0-.17,0-.17-.17v-2.14h.65v1.77h4.14v.54Zm2.42-5.57a2,2,0,0,1,.09.6,2.07,2.07,0,0,1-.06.5h1.35v-1.1Z"/><path class="cls-3" d="M52.78,166.45h.48a6,6,0,0,0,0,7.68h-.48a5.36,5.36,0,0,1,0-7.68Z"/><path class="cls-3" d="M54.27,172.58h3.24v.55H53.66c-.11,0-.15,0-.15-.15v-.24a.48.48,0,0,1,.07-.23l2.72-4.28.35-.52h-3v-.55h3.63c.12,0,.16,0,.16.15v.24a.42.42,0,0,1-.08.22l-2.72,4.29Z"/><path class="cls-3" d="M58.92,169.07l0,.52a1.54,1.54,0,0,1,1.31-.65c.9,0,1.34.53,1.34,1.5v2.69h-.62V170.6c0-.79-.25-1.15-.93-1.15a1.18,1.18,0,0,0-1.1,1.32v2.36h-.57v-4.06Z"/><path class="cls-3" d="M66.35,169h-.82v-.82h.82Zm0,3.26h-.82v-.82h.82Z"/><path class="cls-3" d="M70.66,172.58H73.9v.55H70.06c-.12,0-.16,0-.16-.15v-.24a.49.49,0,0,1,.08-.23l2.71-4.28.35-.52H70v-.55h3.63c.11,0,.15,0,.15.15v.24a.41.41,0,0,1-.07.22L71,172.06Z"/><path class="cls-3" d="M75.43,167.17v.68h-.68v-.68ZM74.78,169h.62v4.15h-.62Z"/><path class="cls-3" d="M77.31,169.07l0,.52a1.54,1.54,0,0,1,1.31-.65c.9,0,1.34.53,1.34,1.5v2.69h-.61V170.6c0-.79-.26-1.15-.94-1.15a1.18,1.18,0,0,0-1.1,1.32v2.36h-.57v-4.06Z"/><path class="cls-3" d="M83.76,170.4a.91.91,0,0,0-1-1c-.68,0-1.12.7-1.12,1.64s.44,1.65,1.12,1.65a1,1,0,0,0,1-1h.66a1.56,1.56,0,0,1-1.65,1.48c-1.23,0-1.81-1-1.81-2.16a1.93,1.93,0,0,1,1.85-2.16,1.51,1.51,0,0,1,1.6,1.46Z"/><path class="cls-3" d="M85.23,174.13h-.48a6,6,0,0,0,0-7.68h.48a5.36,5.36,0,0,1,0,7.68Z"/><path class="cls-3" d="M153.18,170.6c0-.79-.25-1.15-.9-1.15s-1.05.45-1.05,1.32v2.36h-.58v-4.06h.59v.52a1.45,1.45,0,0,1,1.25-.65,1.12,1.12,0,0,1,1.19.79l.06-.14a1.45,1.45,0,0,1,1.26-.65c.87,0,1.29.53,1.29,1.5v2.69h-.6V170.6c0-.79-.24-1.15-.89-1.15a1.1,1.1,0,0,0-1,1.06v2.62h-.58Z"/><path class="cls-3" d="M157.73,173.54h.69c0,.5.58.66,1.06.66.73,0,1.13-.4,1.13-1.24l0-.39a1.57,1.57,0,0,1-1.32.69c-1.24,0-1.71-1-1.71-2.15s.5-2.17,1.72-2.17a1.51,1.51,0,0,1,1.3.62l0-.49h.58v4a1.53,1.53,0,0,1-1.74,1.63C158.48,174.7,157.83,174.35,157.73,173.54Zm2.9-2.36c0-.94-.32-1.72-1.28-1.72s-1.1.94-1.1,1.69.31,1.6,1.15,1.6S160.63,172,160.63,171.18Z"/><path class="cls-3" d="M165,174.09h-.67l2.71-7.56h.63Z"/><path class="cls-3" d="M171.48,167.12v3.49l1.78-1.54h.81l-2,1.75,2.19,2.31h-.79l-1.94-2.08v2.08h-.57v-6Z"/><path class="cls-3" d="M174.77,173.54h.69c0,.5.58.66,1.06.66.73,0,1.13-.4,1.13-1.24l0-.39a1.57,1.57,0,0,1-1.32.69c-1.24,0-1.71-1-1.71-2.15s.5-2.17,1.72-2.17a1.51,1.51,0,0,1,1.3.62l0-.49h.58v4a1.53,1.53,0,0,1-1.74,1.63C175.52,174.7,174.87,174.35,174.77,173.54Zm2.9-2.36c0-.94-.32-1.72-1.28-1.72s-1.1.94-1.1,1.69.31,1.6,1.15,1.6S177.67,172,177.67,171.18Z"/><path class="cls-3" d="M230.94,173.19h-.58v-6h.58v2.47l2.38-2.47h.81l-2.66,2.7,2.92,3.27h-.82l-2.63-3Z"/><path class="cls-3" d="M234.93,168.66a1.71,1.71,0,0,1,1.86-1.63,2.28,2.28,0,0,1,1.17.28,1.34,1.34,0,0,1,.71,1.2H238c0-.68-.6-.92-1.18-.92a1.12,1.12,0,0,0-1.24,1c0,.82.7,1,1.61,1.33s1.58.57,1.58,1.62a1.57,1.57,0,0,1-.6,1.33,2.22,2.22,0,0,1-1.47.39c-1.22,0-1.92-.63-1.93-1.73h.69c0,.9.6,1.17,1.32,1.17a1.21,1.21,0,0,0,1.33-1.11c0-.74-.56-.89-1.63-1.28C235.69,170,234.93,169.68,234.93,168.66Z"/><path class="cls-3" d="M247,167.26a.16.16,0,0,1,.16-.1h.6c.1,0,.13,0,.13.15v5.82h-.59v-4.51l0-.74-1.83,5.17c0,.06-.05.08-.13.08h-.43c-.07,0-.1,0-.12-.08L243,167.89l0,.74v4.5h-.59v-5.82c0-.11,0-.15.13-.15h.6a.17.17,0,0,1,.16.1l1.55,4.27.3.81.3-.81Z"/><path class="cls-3" d="M255.3,170.14c0,1.49-.34,3.1-2,3.1s-1.89-1.61-1.89-3.1.32-3.13,1.89-3.13S255.3,168.64,255.3,170.14Zm-3.17,0c0,.88.09,2.54,1.22,2.54s1.29-1.66,1.29-2.54-.13-2.58-1.29-2.58S252.13,169.24,252.13,170.14Z"/><path class="cls-3" d="M259.89,170.14c0,1.49-.35,3.1-1.95,3.1s-1.89-1.61-1.89-3.1.31-3.13,1.89-3.13S259.89,168.64,259.89,170.14Zm-3.18,0c0,.88.09,2.54,1.23,2.54s1.28-1.66,1.28-2.54-.13-2.58-1.28-2.58S256.71,169.24,256.71,170.14Z"/><path class="cls-3" d="M262.37,170.34h-.32c-.12,0-.13,0-.13-.13v-.29c0-.13,0-.16.13-.16h.26c.66,0,1.25-.31,1.25-1a1,1,0,0,0-1.17-1.05,1.07,1.07,0,0,0-1.17,1.05h-.64a1.64,1.64,0,0,1,1.84-1.6c.95,0,1.78.47,1.78,1.56a1.41,1.41,0,0,1-1.18,1.39,1.45,1.45,0,0,1,1.31,1.48,1.72,1.72,0,0,1-1.95,1.68,1.69,1.69,0,0,1-1.88-1.72h.64a1.16,1.16,0,0,0,1.27,1.16,1.14,1.14,0,0,0,1.28-1.2C263.69,170.67,263,170.36,262.37,170.34Z"/><path class="cls-3" d="M265.22,172.49c.76-.71,2.84-2.78,2.84-3.78a1,1,0,0,0-1.08-1,1,1,0,0,0-1.05,1.15h-.66a1.64,1.64,0,0,1,1.72-1.7,1.53,1.53,0,0,1,1.73,1.54c0,1.35-1.92,3-2.77,3.88h2.9v.55h-3.51c-.1,0-.12,0-.12-.12Z"/><path class="cls-3" d="M332.91,170.14c0,1.49-.34,3.1-2,3.1s-1.89-1.61-1.89-3.1S329.38,167,331,167,332.91,168.64,332.91,170.14Zm-3.17,0c0,.88.08,2.54,1.22,2.54s1.29-1.66,1.29-2.54-.13-2.58-1.29-2.58S329.74,169.24,329.74,170.14Z"/><path class="cls-3" d="M334.82,173.27H334v-.82h.82Z"/><path class="cls-3" d="M338.55,173.09h-.63v-5.15a4.93,4.93,0,0,1-1.25.85v-.61a4.08,4.08,0,0,0,1.27-.93h.46c.12,0,.15,0,.15.15Z"/><path class="cls-3" d="M409.21,169.78h6.49v.51h-2.93V171h1.89c.13,0,.17,0,.17.17v1.25c0,.13,0,.17-.17.17h-3.89v.71H415v.49h-4.74c-.13,0-.17,0-.17-.17v-1.32c0-.13,0-.17.17-.17h3.88v-.64h-4.05V171h2v-.73h-2.91Zm.85-2.94h.62v.68h3.54v-.68h.62V169c0,.13,0,.17-.16.17h-4.45c-.13,0-.17,0-.17-.17Zm.62,1.82h3.54V168h-3.54Z"/><path class="cls-3" d="M419.89,167.12c.12,0,.16,0,.16.16-.18,1.76-1.31,2.88-3.19,3.51l-.41-.45a3.65,3.65,0,0,0,2.9-2.67h-2.49v-.55Zm2.13,4c.13,0,.17,0,.17.17v2.29c0,.12,0,.16-.17.16h-4.25c-.12,0-.16,0-.16-.16v-2.29c0-.13,0-.17.16-.17Zm-3.78,2.1h3.32V171.7h-3.32Zm4-6.48v4h-.63v-1.66h-1.48v-.56h1.48v-1.77Z"/><path class="cls-3" d="M428.92,172.52c0,.13,0,.17-.17.17h-3.9v.65h4.24v.47h-4.74c-.13,0-.17,0-.17-.17v-1.23c0-.13,0-.17.17-.17h3.91v-.64h-4.08v-.47h2v-.71h-2.9v-.48h6.49v.48h-2.92v.71h1.87c.13,0,.17,0,.17.17Zm-4.85-4.84h5v.47h-2a1.68,1.68,0,0,0,.94.64,9.2,9.2,0,0,0,1.46.29,3.79,3.79,0,0,0-.37.48,7.24,7.24,0,0,1-1.3-.32,2.49,2.49,0,0,1-1.17-.76,2.47,2.47,0,0,1-1,.69,6.47,6.47,0,0,1-1.45.39c-.11-.15-.26-.33-.39-.48a7.52,7.52,0,0,0,1.46-.3,1.6,1.6,0,0,0,.94-.63h-2Zm1.18-1h2.59v.46h-2.59Z"/><path class="cls-3" d="M39.57,189.67v.52H35.44v1.23h4.2V192H37.5v1h2.93v.55H33.94v-.55h2.91v-1H35c-.14,0-.17,0-.17-.16v-1.95c0-.13,0-.17.17-.17ZM37.18,194c1.64,0,2.54.58,2.54,1.37s-.89,1.37-2.54,1.37-2.54-.58-2.54-1.37S35.54,194,37.18,194Zm0,2.25c1.08,0,1.85-.31,1.85-.89s-.77-.87-1.85-.87-1.85.31-1.85.87S36.07,196.2,37.18,196.2Z"/><path class="cls-3" d="M45,190.33H43.59v.33a2.14,2.14,0,0,0,.49,1.35,3,3,0,0,0,1.34.89,3.35,3.35,0,0,0-.41.47,5.11,5.11,0,0,1-1-.61,2.79,2.79,0,0,1-.77-.92,2.74,2.74,0,0,1-.66,1,4.46,4.46,0,0,1-1.09.76,3.68,3.68,0,0,0-.5-.42,3.73,3.73,0,0,0,1.47-1.1,2.37,2.37,0,0,0,.45-1.43v-.3H41.53v-.54H45Zm1.85,3.77c.13,0,.17,0,.17.16v2.34h-.63v-2H42.29v-.54Zm.17-.38h-.62v-2.1H44.9v-.56h1.48v-1.59H47Z"/><path class="cls-3" d="M56.92,194.18H54v2.37h-.64v-2.37H50.42v-.54h6.5Zm-5.63-4.56h.62v.91h3.5v-.91H56v3c0,.12,0,.16-.16.16H51.46c-.13,0-.17,0-.17-.16Zm.62,2.59h3.5v-1.16h-3.5Z"/><path class="cls-3" d="M61.73,191.29h-4v-.55h4Zm-.24,2.26a1.76,1.76,0,0,1-3.52,0,1.76,1.76,0,0,1,3.52,0Zm-2.88,0a1.12,1.12,0,1,0,2.23,0,1.12,1.12,0,1,0-2.23,0Zm.08-4h2.08v.53H58.69Zm3.84,7v-7.09h.63v2.87h1v.59h-1v3.63Z"/><path class="cls-3" d="M67.69,194.73c-.12,0-.16,0-.16-.17v-4.77h.64v4.35h.44a16.31,16.31,0,0,0,1.74-.16v.56a13.33,13.33,0,0,1-2.2.19Zm3,1.48v-6.62h.61V192h1v-2.54h.62v7.09h-.62v-3.94h-1v3.59Z"/><path class="cls-3" d="M79.52,189.72c.12,0,.16,0,.16.17a24.5,24.5,0,0,1-.37,3h1.15v.55h-3v3.14h-.64v-3.14H74v-.55h4.73a19.08,19.08,0,0,0,.34-2.6H74.71v-.55Z"/><path class="cls-3" d="M83.53,190.33a2.56,2.56,0,0,0,1.86,2.37l-.41.49a3.84,3.84,0,0,1-1.77-1.57,3.49,3.49,0,0,1-1.76,1.77L81,193a2.84,2.84,0,0,0,1.91-2.56v-.76h.66Zm1.1,3.49c1.51,0,2.45.58,2.45,1.44s-.94,1.42-2.45,1.42-2.44-.55-2.44-1.43S83.13,193.82,84.63,193.82Zm0,2.35c1,0,1.78-.34,1.78-.9s-.74-.94-1.78-.94-1.78.34-1.78.92S83.59,196.17,84.63,196.17Zm.11-5.36h1.58v-1.34h.62v4.27h-.62v-2.39H84.74Z"/><path class="cls-3" d="M153.18,193.28c0-.79-.25-1.15-.9-1.15s-1.05.45-1.05,1.32v2.36h-.58v-4.07h.59v.52a1.44,1.44,0,0,1,1.25-.64,1.12,1.12,0,0,1,1.19.79l.06-.15a1.44,1.44,0,0,1,1.26-.64c.87,0,1.29.52,1.29,1.49v2.7h-.6v-2.53c0-.79-.24-1.15-.89-1.15a1.1,1.1,0,0,0-1,1.06v2.62h-.58Z"/><path class="cls-3" d="M157.73,196.21h.69c0,.51.58.67,1.06.67.73,0,1.13-.4,1.13-1.24l0-.39a1.56,1.56,0,0,1-1.32.68c-1.24,0-1.71-1-1.71-2.14s.5-2.17,1.72-2.17a1.49,1.49,0,0,1,1.3.62l0-.5h.58v4a1.53,1.53,0,0,1-1.74,1.63C158.48,197.37,157.83,197,157.73,196.21Zm2.9-2.36c0-.93-.32-1.71-1.28-1.71s-1.1.93-1.1,1.69.31,1.59,1.15,1.59S160.63,194.69,160.63,193.85Z"/><path class="cls-3" d="M165,196.77h-.67l2.71-7.56h.63Z"/><path class="cls-3" d="M171.48,189.8v3.49l1.78-1.55h.81l-2,1.76,2.19,2.31h-.79l-1.94-2.08v2.08h-.57v-6Z"/><path class="cls-3" d="M174.77,196.21h.69c0,.51.58.67,1.06.67.73,0,1.13-.4,1.13-1.24l0-.39a1.56,1.56,0,0,1-1.32.68c-1.24,0-1.71-1-1.71-2.14s.5-2.17,1.72-2.17a1.49,1.49,0,0,1,1.3.62l0-.5h.58v4a1.53,1.53,0,0,1-1.74,1.63C175.52,197.37,174.87,197,174.77,196.21Zm2.9-2.36c0-.93-.32-1.71-1.28-1.71s-1.1.93-1.1,1.69.31,1.59,1.15,1.59S177.67,194.69,177.67,193.85Z"/><path class="cls-3" d="M230.94,195.87h-.58v-6h.58v2.47l2.38-2.47h.81l-2.66,2.69,2.92,3.28h-.82l-2.63-3Z"/><path class="cls-3" d="M234.93,191.34a1.71,1.71,0,0,1,1.86-1.63A2.18,2.18,0,0,1,238,190a1.33,1.33,0,0,1,.71,1.19H238c0-.68-.6-.91-1.18-.91a1.11,1.11,0,0,0-1.24,1c0,.83.7,1,1.61,1.34s1.58.57,1.58,1.61a1.57,1.57,0,0,1-.6,1.34,2.27,2.27,0,0,1-1.47.38c-1.22,0-1.92-.63-1.93-1.72h.69c0,.9.6,1.16,1.32,1.16a1.2,1.2,0,0,0,1.33-1.11c0-.73-.56-.88-1.63-1.28C235.69,192.72,234.93,192.36,234.93,191.34Z"/><path class="cls-3" d="M247,189.94a.15.15,0,0,1,.16-.11h.6c.1,0,.13,0,.13.16v5.82h-.59V191.3l0-.74-1.83,5.17a.12.12,0,0,1-.13.08h-.43a.11.11,0,0,1-.12-.08L243,190.57l0,.73v4.51h-.59V190c0-.12,0-.16.13-.16h.6a.16.16,0,0,1,.16.11l1.55,4.27.3.8.3-.8Z"/><path class="cls-3" d="M255.3,192.82c0,1.49-.34,3.1-2,3.1s-1.89-1.61-1.89-3.1.32-3.13,1.89-3.13S255.3,191.31,255.3,192.82Zm-3.17,0c0,.88.09,2.54,1.22,2.54s1.29-1.66,1.29-2.54-.13-2.58-1.29-2.58S252.13,191.92,252.13,192.82Z"/><path class="cls-3" d="M259.89,192.82c0,1.49-.35,3.1-1.95,3.1s-1.89-1.61-1.89-3.1.31-3.13,1.89-3.13S259.89,191.31,259.89,192.82Zm-3.18,0c0,.88.09,2.54,1.23,2.54s1.28-1.66,1.28-2.54-.13-2.58-1.28-2.58S256.71,191.92,256.71,192.82Z"/><path class="cls-3" d="M262.37,193h-.32c-.12,0-.13,0-.13-.13v-.3c0-.13,0-.16.13-.16h.26c.66,0,1.25-.3,1.25-1a1,1,0,0,0-1.17-1,1.07,1.07,0,0,0-1.17,1.05h-.64a1.64,1.64,0,0,1,1.84-1.61,1.57,1.57,0,0,1,1.78,1.57,1.4,1.4,0,0,1-1.18,1.38,1.47,1.47,0,0,1,1.31,1.48c0,1.18-.95,1.68-1.95,1.68a1.69,1.69,0,0,1-1.88-1.72h.64a1.17,1.17,0,0,0,1.27,1.17,1.14,1.14,0,0,0,1.28-1.2C263.69,193.35,263,193,262.37,193Z"/><path class="cls-3" d="M265.22,195.17c.76-.72,2.84-2.79,2.84-3.79a1,1,0,0,0-1.08-1,1,1,0,0,0-1.05,1.15h-.66a1.65,1.65,0,0,1,1.72-1.71,1.53,1.53,0,0,1,1.73,1.55c0,1.35-1.92,3-2.77,3.87h2.9v.56h-3.51c-.1,0-.12,0-.12-.12Z"/><path class="cls-3" d="M332.91,192.82c0,1.49-.34,3.1-2,3.1s-1.89-1.61-1.89-3.1.31-3.13,1.89-3.13S332.91,191.31,332.91,192.82Zm-3.17,0c0,.88.08,2.54,1.22,2.54s1.29-1.66,1.29-2.54-.13-2.58-1.29-2.58S329.74,191.92,329.74,192.82Z"/><path class="cls-3" d="M334.82,196H334v-.82h.82Z"/><path class="cls-3" d="M338.55,195.77h-.63v-5.15a4.68,4.68,0,0,1-1.25.84v-.6a4.08,4.08,0,0,0,1.27-.93h.46c.12,0,.15,0,.15.15Z"/><path class="cls-3" d="M409.21,192.46h6.49V193h-2.93v.73h1.89c.13,0,.17,0,.17.16v1.26c0,.13,0,.17-.17.17h-3.89V196H415v.49h-4.74c-.13,0-.17,0-.17-.17V195c0-.13,0-.17.17-.17h3.88v-.64h-4.05v-.49h2V193h-2.91Zm.85-2.94h.62v.67h3.54v-.67h.62v2.14c0,.12,0,.16-.16.16h-4.45c-.13,0-.17,0-.17-.16Zm.62,1.82h3.54v-.68h-3.54Z"/><path class="cls-3" d="M419.89,189.79c.12,0,.16,0,.16.17-.18,1.75-1.31,2.88-3.19,3.51l-.41-.45a3.66,3.66,0,0,0,2.9-2.67h-2.49v-.56Zm2.13,4.06c.13,0,.17,0,.17.17v2.28c0,.13,0,.17-.17.17h-4.25c-.12,0-.16,0-.16-.17V194c0-.13,0-.17.16-.17Zm-3.78,2.1h3.32v-1.57h-3.32Zm4-6.48v4h-.63v-1.67h-1.48v-.56h1.48v-1.76Z"/><path class="cls-3" d="M428.92,195.2c0,.13,0,.17-.17.17h-3.9V196h4.24v.48h-4.74c-.13,0-.17,0-.17-.17v-1.23c0-.13,0-.17.17-.17h3.91v-.64h-4.08v-.47h2v-.71h-2.9v-.48h6.49v.48h-2.92v.71h1.87c.13,0,.17,0,.17.17Zm-4.85-4.84h5v.46h-2a1.63,1.63,0,0,0,.94.64,7.4,7.4,0,0,0,1.46.29c-.11.13-.27.33-.37.48a6.49,6.49,0,0,1-1.3-.32,2.4,2.4,0,0,1-1.17-.75,2.56,2.56,0,0,1-1,.69,7,7,0,0,1-1.45.38l-.39-.48a6.86,6.86,0,0,0,1.46-.29,1.6,1.6,0,0,0,.94-.64h-2Zm1.18-1h2.59v.47h-2.59Z"/></g></g></svg>