<svg xmlns="http://www.w3.org/2000/svg" viewBox="0 0 226.77 294.8"><defs><style>.cls-1{fill:none;stroke:#3ab483;stroke-miterlimit:10;stroke-width:0.71px;}.cls-2{fill:#3ab483;}.cls-3{fill:#595757;}</style></defs><g id="레이어_2" data-name="레이어 2"><g id="레이어_1-2" data-name="레이어 1"><line class="cls-1" x1="65.2" y1="21.97" x2="65.2"/><line class="cls-1" x1="107.72" y1="21.97" x2="107.72"/><line class="cls-1" x1="153.07" y1="21.97" x2="153.07"/><line class="cls-1" y1="22.32" x2="65.2" y2="22.32"/><line class="cls-1" x1="65.2" y1="22.32" x2="107.72" y2="22.32"/><line class="cls-1" x1="65.2" y1="55.98" x2="65.2" y2="22.68"/><line class="cls-1" x1="107.72" y1="22.32" x2="153.07" y2="22.32"/><line class="cls-1" x1="107.72" y1="55.98" x2="107.72" y2="22.68"/><line class="cls-1" x1="153.07" y1="22.32" x2="226.77" y2="22.32"/><line class="cls-1" x1="153.07" y1="55.98" x2="153.07" y2="22.68"/><line class="cls-1" y1="56.34" x2="65.2" y2="56.34"/><line class="cls-1" x1="65.2" y1="56.34" x2="107.72" y2="56.34"/><line class="cls-1" x1="65.2" y1="90" x2="65.2" y2="56.69"/><line class="cls-1" x1="107.72" y1="56.34" x2="153.07" y2="56.34"/><line class="cls-1" x1="107.72" y1="90" x2="107.72" y2="56.69"/><line class="cls-1" x1="153.07" y1="56.34" x2="226.77" y2="56.34"/><line class="cls-1" x1="153.07" y1="90" x2="153.07" y2="56.69"/><line class="cls-1" y1="90.35" x2="65.2" y2="90.35"/><line class="cls-1" x1="65.2" y1="90.35" x2="107.72" y2="90.35"/><line class="cls-1" x1="65.2" y1="124.02" x2="65.2" y2="90.71"/><line class="cls-1" x1="107.72" y1="90.35" x2="153.07" y2="90.35"/><line class="cls-1" x1="107.72" y1="124.02" x2="107.72" y2="90.71"/><line class="cls-1" x1="153.07" y1="90.35" x2="226.77" y2="90.35"/><line class="cls-1" x1="153.07" y1="124.02" x2="153.07" y2="90.71"/><line class="cls-1" y1="124.37" x2="65.2" y2="124.37"/><line class="cls-1" x1="65.2" y1="124.37" x2="107.72" y2="124.37"/><line class="cls-1" x1="65.2" y1="158.03" x2="65.2" y2="124.72"/><line class="cls-1" x1="107.72" y1="124.37" x2="153.07" y2="124.37"/><line class="cls-1" x1="107.72" y1="158.03" x2="107.72" y2="124.72"/><line class="cls-1" x1="153.07" y1="124.37" x2="226.77" y2="124.37"/><line class="cls-1" x1="153.07" y1="158.03" x2="153.07" y2="124.72"/><line class="cls-1" y1="158.39" x2="65.2" y2="158.39"/><line class="cls-1" x1="65.2" y1="158.39" x2="107.72" y2="158.39"/><line class="cls-1" x1="65.2" y1="192.05" x2="65.2" y2="158.74"/><line class="cls-1" x1="107.72" y1="158.39" x2="153.07" y2="158.39"/><line class="cls-1" x1="107.72" y1="192.05" x2="107.72" y2="158.74"/><line class="cls-1" x1="153.07" y1="158.39" x2="226.77" y2="158.39"/><line class="cls-1" x1="153.07" y1="192.05" x2="153.07" y2="158.74"/><line class="cls-1" y1="192.4" x2="65.2" y2="192.4"/><line class="cls-1" x1="65.2" y1="192.4" x2="107.72" y2="192.4"/><line class="cls-1" x1="65.2" y1="226.06" x2="65.2" y2="192.76"/><line class="cls-1" x1="107.72" y1="192.4" x2="153.07" y2="192.4"/><line class="cls-1" x1="107.72" y1="226.06" x2="107.72" y2="192.76"/><line class="cls-1" x1="153.07" y1="192.4" x2="226.77" y2="192.4"/><line class="cls-1" x1="153.07" y1="226.06" x2="153.07" y2="192.76"/><line class="cls-1" y1="226.42" x2="65.2" y2="226.42"/><line class="cls-1" x1="65.2" y1="226.42" x2="107.72" y2="226.42"/><line class="cls-1" x1="65.2" y1="260.08" x2="65.2" y2="226.77"/><line class="cls-1" x1="107.72" y1="226.42" x2="153.07" y2="226.42"/><line class="cls-1" x1="107.72" y1="260.08" x2="107.72" y2="226.77"/><line class="cls-1" x1="153.07" y1="226.42" x2="226.77" y2="226.42"/><line class="cls-1" x1="153.07" y1="260.08" x2="153.07" y2="226.77"/><line class="cls-1" y1="260.43" x2="65.2" y2="260.43"/><line class="cls-1" x1="65.2" y1="260.43" x2="107.72" y2="260.43"/><line class="cls-1" x1="65.2" y1="294.09" x2="65.2" y2="260.79"/><line class="cls-1" x1="107.72" y1="260.43" x2="153.07" y2="260.43"/><line class="cls-1" x1="107.72" y1="294.09" x2="107.72" y2="260.79"/><line class="cls-1" x1="153.07" y1="260.43" x2="226.77" y2="260.43"/><line class="cls-1" x1="153.07" y1="294.09" x2="153.07" y2="260.79"/><line class="cls-1" y1="294.45" x2="65.2" y2="294.45"/><line class="cls-1" x1="65.2" y1="294.45" x2="107.72" y2="294.45"/><line class="cls-1" x1="107.72" y1="294.45" x2="153.07" y2="294.45"/><line class="cls-1" x1="153.07" y1="294.45" x2="226.77" y2="294.45"/><path class="cls-2" d="M23.38,13a4.83,4.83,0,0,1-1.58-1.86,4.86,4.86,0,0,1-1.6,2l-.72-.59A3.85,3.85,0,0,0,21.33,9.1V7.56h.91V9.15A3.64,3.64,0,0,0,24,12.36Zm1.25,1.49V7.3h.87v7.16Z"/><path class="cls-2" d="M26.29,8.33h4V9h-4Zm.22,2.05c0-.63.63-1.12,1.79-1.12s1.78.49,1.78,1.12-.64,1.13-1.78,1.13S26.51,11,26.51,10.38Zm.7-3.11h2.14v.66H27.21ZM31.78,12c.16,0,.22,0,.22.22v2c0,.17-.06.23-.22.23H27.56c-.16,0-.22-.06-.22-.23v-2c0-.17.06-.22.22-.22ZM27.4,10.38c0,.34.36.49.9.49s.89-.15.89-.49-.36-.51-.89-.51S27.4,10.05,27.4,10.38Zm3.71,3.28v-1H28.22v1Zm-.9-4.16h.92V7.3H32v4.38h-.87V10.27h-.92Z"/><path class="cls-2" d="M32.69,8.35h4V9h-4Zm.22,2c0-.62.63-1.12,1.78-1.12s1.79.5,1.79,1.12-.64,1.13-1.79,1.13S32.91,11,32.91,10.39Zm5.35,2.83c0,.8-.83,1.36-2.44,1.36s-2.44-.56-2.44-1.36.84-1.36,2.44-1.36S38.26,12.41,38.26,13.22Zm-4.65-6h2.14v.67H33.61Zm.19,3.12c0,.35.36.5.89.5s.9-.15.9-.5-.36-.51-.9-.51S33.8,10.07,33.8,10.39Zm.52,2.83c0,.45.6.67,1.5.67s1.5-.21,1.5-.67-.58-.68-1.5-.68S34.32,12.76,34.32,13.22Zm4.6-3.3H38.1v1.89h-.86V7.3h.86V9.15h.82Z"/><path class="cls-2" d="M44.19,7.47c.16,0,.22.06.22.23V9.77c0,.17-.06.22-.22.22H42.46v.72h2.72v.79H38.85v-.79h2.72V10H39.82c-.16,0-.2,0-.2-.21V7.7c0-.17.05-.23.21-.23Zm0,4.63c.16,0,.21.05.21.22V14.5h-.88V12.87H39.56V12.1Zm-.63-2.84v-1H40.48v1Z"/><path class="cls-2" d="M83.77,7.59v.76H81.36v2h.94a16.82,16.82,0,0,0,2.25-.25v.75a13.74,13.74,0,0,1-2.54.28H80.7c-.16,0-.2,0-.2-.22V7.81c0-.17,0-.22.21-.22Zm-2.39,6.73c-.16,0-.21-.06-.21-.22V11.89h.89v1.66h3.8v.77Zm5.17-4.51h-.89v2.67H84.8V7.3h.86V9h.89Z"/><path class="cls-2" d="M86.66,11.16h2A20.71,20.71,0,0,0,91.28,11v.77a14,14,0,0,1-2,.16v2.38h-.85V11.93H86.66Zm2.21-3.8a1.6,1.6,0,1,1,0,3.19,1.6,1.6,0,1,1,0-3.19Zm0,2.47a.88.88,0,1,0,0-1.75.88.88,0,1,0,0,1.75Zm3.5-2.53v7.16h-.86V7.3Z"/><path class="cls-2" d="M124.35,7.59c.17,0,.22,0,.22.22-.18,1.51-1.1,2.65-3.07,3.3l-.53-.64c1.48-.4,2.34-1.1,2.59-2.13h-2.19V7.59Zm-2.08,6.82c-.16,0-.21-.06-.21-.23V12.75c0-.17,0-.22.21-.22h3.5V12h-3.71v-.7h4.41c.16,0,.21.06.21.22v1.39c0,.16-.05.22-.21.22H123v.54h3.84v.71Zm4.43-7.12V11h-.86v-.77h-1.33V9.55h1.33V8.89h-1.2V8.17h1.2V7.29Z"/><path class="cls-2" d="M127.28,12.24h1.24V10h.86v2.28c.51,0,1.83-.1,2.39-.19v.76a31,31,0,0,1-3.65.21h-.84ZM131,7.71c.16,0,.22,0,.22.22a27.09,27.09,0,0,1-.29,3.52H130a21.06,21.06,0,0,0,.26-3h-2.66V7.71ZM133.74,11h-.92v3.48H132V7.29h.86v2.89h.92Z"/><path class="cls-2" d="M134.08,8.71h3.74v.77h-1.4v.3a3,3,0,0,0,1.64,2.59l-.6.62a4,4,0,0,1-1.5-1.68,4.57,4.57,0,0,1-1.57,1.85l-.7-.62a3.22,3.22,0,0,0,1.79-2.76v-.3h-1.4Zm.8-1.31H137v.73h-2.13Zm4.71-.1v7.16h-.88V7.3Z"/><path class="cls-2" d="M180.88,13a4.83,4.83,0,0,1-1.58-1.86,4.86,4.86,0,0,1-1.6,2l-.72-.59a3.85,3.85,0,0,0,1.85-3.44V7.56h.91V9.15a3.64,3.64,0,0,0,1.78,3.21Zm1.25,1.49V7.3H183v7.16Z"/><path class="cls-2" d="M183.79,8.33h4V9h-4Zm.22,2.05c0-.63.63-1.12,1.79-1.12s1.78.49,1.78,1.12-.64,1.13-1.78,1.13S184,11,184,10.38Zm.7-3.11h2.14v.66h-2.14Zm4.57,4.7c.16,0,.22,0,.22.22v2c0,.17-.06.23-.22.23h-4.22c-.16,0-.22-.06-.22-.23v-2c0-.17.06-.22.22-.22Zm-4.38-1.59c0,.34.36.49.9.49s.89-.15.89-.49-.36-.51-.89-.51S184.9,10.05,184.9,10.38Zm3.71,3.28v-1h-2.89v1Zm-.9-4.16h.92V7.3h.87v4.38h-.87V10.27h-.92Z"/><path class="cls-2" d="M193.58,10.84c0,.17-.05.23-.21.23h-2.85c-.16,0-.21-.06-.21-.23V7.51h.87v1h1.56v-1h.84Zm2.12,2.32c0,.93-1,1.42-2.44,1.42s-2.42-.5-2.42-1.42,1.07-1.43,2.43-1.43S195.7,12.25,195.7,13.16Zm-3-2.85v-1h-1.56v1Zm-1,2.84c0,.43.62.73,1.5.73s1.49-.3,1.49-.73-.58-.71-1.49-.71S191.77,12.71,191.77,13.15Zm3.76-5.85V8.86h.88v.76h-.88v2.09h-.87V7.3Z"/><path class="cls-2" d="M196.83,7.51h.86v1h1.53v-1h.86V8.67h1.23V7.3h.86v3.9h-.86V9.43h-1.23v1.24c0,.16-.05.22-.21.22H197c-.16,0-.21-.06-.21-.22Zm.7,4h.85v.72h2.93v-.72h.85v2.7c0,.17,0,.22-.22.22h-4.19c-.16,0-.22-.05-.22-.22Zm1.69-1.33v-.9h-1.53v.9Zm2.09,3.53v-.75h-2.93v.75Z"/><path class="cls-3" d="M9.23,37.68a1.87,1.87,0,1,1,1.86,1.9A1.85,1.85,0,0,1,9.23,37.68Zm3.08,0A1.22,1.22,0,1,0,11.09,39,1.22,1.22,0,0,0,12.31,37.68Zm-1.87,5c-.12,0-.16,0-.16-.17V40.31h.64v1.77h4.15v.55Zm3.81-1.74V35.68h.63v5.21Z"/><path class="cls-3" d="M20,36.55H18.6v.22A2.43,2.43,0,0,0,20.43,39l-.4.46A3.73,3.73,0,0,1,18.27,38a3.4,3.4,0,0,1-1.78,1.72L16,39.24a2.71,2.71,0,0,0,1.91-2.48v-.21H16.52V36H20Zm-2.87,4.91c0-.87,1-1.44,2.41-1.44S22,40.59,22,41.46s-.95,1.43-2.42,1.43S17.13,42.33,17.13,41.46Zm2.41.93c1,0,1.76-.36,1.76-.92s-.75-.93-1.76-.93-1.74.33-1.74.92S18.57,42.39,19.54,42.39Zm3.21-4.55h-1V40h-.62V35.68h.62v1.61h1Z"/><path class="cls-3" d="M26.63,36c.13,0,.17,0,.17.17a4.24,4.24,0,0,1-3.2,3.62l-.41-.46a3.79,3.79,0,0,0,2.91-2.78H23.57V36Zm-2.55,5.46c0-.88,1-1.44,2.4-1.44s2.43.56,2.43,1.44-1,1.43-2.43,1.43S24.08,42.34,24.08,41.47Zm2.4.93c1,0,1.76-.36,1.76-.93s-.74-.92-1.76-.92-1.73.33-1.73.92S25.52,42.4,26.48,42.4Zm2.27-6.72v1.73h1V38h-1v1.95h-.63V35.68Z"/><path class="cls-3" d="M35.8,36.07v.54H31.6V39h4.27v.53h-2.2v1.83H36.6v.54H30.09v-.54H33V39.51h-1.9c-.13,0-.17,0-.17-.16V36.24c0-.13,0-.17.17-.17Z"/><path class="cls-3" d="M39,35.35h.48a6,6,0,0,0,0,7.67H39a5.35,5.35,0,0,1,0-7.67Z"/><path class="cls-3" d="M40.22,36.09h3c.13,0,.18,0,.18.17a6.06,6.06,0,0,1-3,5l-.52-.44a5.09,5.09,0,0,0,2.85-4.22H40.22Zm6.13,3H45.3v3.67h-.64v-7.1h.64v2.85h1.05Z"/><path class="cls-3" d="M47.8,40c-.13,0-.17,0-.17-.17v-2c0-.13,0-.17.17-.17h3.87V36.55H47.61V36h4.52c.13,0,.17,0,.17.17V38.1c0,.13,0,.17-.17.17H48.24V39.5h4.28V40H50.31v1.32h2.94v.54H46.74v-.54h2.92V40Z"/><path class="cls-3" d="M54.05,43h-.48a6,6,0,0,0,0-7.67h.48a5.35,5.35,0,0,1,0,7.67Z"/><path class="cls-3" d="M76.53,40.31l.46.88,0-1V36.05h.62v5.82c0,.12,0,.16-.14.16h-.51a.17.17,0,0,1-.16-.11l-2.49-4.16-.45-.87V42h-.61V36.2c0-.11,0-.15.13-.15h.51a.16.16,0,0,1,.16.11Z"/><path class="cls-3" d="M81.53,43h-.67l2.71-7.55h.63Z"/><path class="cls-3" d="M89.9,39.29a.9.9,0,0,0-1-.94c-.67,0-1.11.7-1.11,1.64s.44,1.64,1.11,1.64a.94.94,0,0,0,1-1h.66a1.55,1.55,0,0,1-1.65,1.48c-1.23,0-1.81-1-1.81-2.16A1.92,1.92,0,0,1,89,37.84a1.5,1.5,0,0,1,1.6,1.45Z"/><path class="cls-3" d="M94.06,39.5c0-.79-.25-1.15-.9-1.15s-1,.45-1,1.32V42h-.58V38h.6l0,.52a1.44,1.44,0,0,1,1.25-.64,1.12,1.12,0,0,1,1.19.79l.06-.15a1.44,1.44,0,0,1,1.26-.64c.87,0,1.29.52,1.29,1.49V42h-.6V39.5c0-.79-.24-1.15-.89-1.15a1.1,1.1,0,0,0-1,1.06V42h-.58Z"/><path class="cls-3" d="M100.25,39.06H98.31c-.09,0-.11,0-.11-.11v-.28c.41-.4,1.48-1.45,1.48-2a.43.43,0,0,0-.48-.49c-.29,0-.48.21-.48.6h-.5a1,1,0,0,1,1-1,.88.88,0,0,1,1,.86c0,.76-1,1.61-1.37,2h1.44Z"/><path class="cls-3" d="M121.64,41.39c.75-.72,2.84-2.79,2.84-3.79a1,1,0,0,0-1.09-1,1.06,1.06,0,0,0-1,1.16h-.65A1.64,1.64,0,0,1,123.41,36a1.54,1.54,0,0,1,1.73,1.55c0,1.35-1.92,3-2.77,3.87h2.89V42h-3.51c-.09,0-.11,0-.11-.12Z"/><path class="cls-3" d="M130,40.4a1.93,1.93,0,0,1-3.83,0A1.54,1.54,0,0,1,127.31,39a1.35,1.35,0,0,1-1-1.36c0-1,.75-1.59,1.84-1.59s1.85.58,1.85,1.59a1.5,1.5,0,0,1-1,1.39A1.42,1.42,0,0,1,130,40.4Zm-.64,0a1.28,1.28,0,0,0-2.55,0,1.28,1.28,0,0,0,2.55,0Zm-.07-2.81a1.22,1.22,0,0,0-2.41,0,1.21,1.21,0,0,0,2.41,0Z"/><path class="cls-3" d="M132.54,39.24h-.32c-.12,0-.13,0-.13-.13v-.3c0-.13,0-.16.13-.16h.26c.66,0,1.25-.3,1.25-1a1,1,0,0,0-1.17-1,1.07,1.07,0,0,0-1.17,1.06h-.64A1.64,1.64,0,0,1,132.58,36c1,0,1.79.47,1.79,1.57A1.4,1.4,0,0,1,133.18,39a1.47,1.47,0,0,1,1.32,1.48c0,1.18-.95,1.68-1.95,1.68a1.69,1.69,0,0,1-1.88-1.72h.63a1.18,1.18,0,0,0,1.28,1.17,1.14,1.14,0,0,0,1.28-1.2C133.86,39.57,133.21,39.26,132.54,39.24Z"/><path class="cls-3" d="M135.71,39.55c-.09,0-.1,0-.1-.12l.09-3.13c0-.12,0-.15.13-.15h3v.54h-2.56l-.11,2a1.58,1.58,0,0,1,1.3-.53c.92,0,1.68.65,1.68,2a1.83,1.83,0,0,1-1.85,2,1.66,1.66,0,0,1-1.84-1.56h.63a1.17,1.17,0,0,0,1.23,1c.67,0,1.19-.56,1.19-1.46s-.5-1.47-1.18-1.47a1.08,1.08,0,0,0-1.1.76c0,.09,0,.13-.16.13Z"/><path class="cls-3" d="M164.08,42c-.11,0-.14,0-.14-.16V36.2c0-.11,0-.15.14-.15h3.3v.55h-2.82v2.06h2.8v.56h-2.8v2.25h2.95V42Z"/><path class="cls-3" d="M169,42c-.1,0-.13,0-.13-.16V36.05h.63v5.42h2.83V42Z"/><path class="cls-3" d="M176.75,38.72v.56h-3.66v-.56Z"/><path class="cls-3" d="M179.09,42h-.71l2.19-5.29h-2.93v-.55h3.45c.11,0,.15,0,.15.15v.3a.6.6,0,0,1-.06.23Z"/><path class="cls-3" d="M182.21,41.39c.75-.72,2.84-2.79,2.84-3.79a1,1,0,0,0-1.09-1,1.05,1.05,0,0,0-1,1.16h-.66A1.64,1.64,0,0,1,184,36a1.54,1.54,0,0,1,1.73,1.55c0,1.35-1.92,3-2.77,3.87h2.9V42h-3.52c-.09,0-.11,0-.11-.12Z"/><path class="cls-3" d="M189,36.17a.17.17,0,0,1,.16-.11h.54c.12,0,.16,0,.16.15v3.94h.87v.56h-.87V42h-.63V40.71h-2.49c-.11,0-.15,0-.15-.16v-.33a.48.48,0,0,1,.07-.23Zm.25,1.34v-.74l-2.06,3.38h2Z"/><path class="cls-3" d="M195.11,37.91h-.83v-.83h.83Zm0,3.26h-.83v-.82h.83Z"/><path class="cls-3" d="M198.76,41.39c.76-.72,2.84-2.79,2.84-3.79a1,1,0,0,0-1.08-1,1.06,1.06,0,0,0-1.05,1.16h-.66A1.65,1.65,0,0,1,200.53,36a1.54,1.54,0,0,1,1.73,1.55c0,1.35-1.92,3-2.77,3.87h2.9V42h-3.51c-.1,0-.12,0-.12-.12Z"/><path class="cls-3" d="M207.18,39c0,1.49-.34,3.1-2,3.1s-1.89-1.61-1.89-3.1.31-3.13,1.89-3.13S207.18,37.53,207.18,39ZM204,39c0,.87.09,2.54,1.23,2.54s1.28-1.67,1.28-2.54-.12-2.58-1.28-2.58S204,38.14,204,39Z"/><path class="cls-3" d="M210.34,42h-.63V36.84a4.68,4.68,0,0,1-1.25.84v-.6a4.2,4.2,0,0,0,1.27-.93h.46c.12,0,.15,0,.15.15Z"/><path class="cls-3" d="M214.48,36a1.6,1.6,0,0,1,1.71,1.52h-.63a1,1,0,0,0-1.08-1c-1.12,0-1.44,1.57-1.45,2.64a1.52,1.52,0,0,1,1.54-1c1.06,0,1.71.77,1.71,2a1.84,1.84,0,0,1-3.58.74,4.8,4.8,0,0,1-.22-1.64C212.48,37.12,213.32,36,214.48,36Zm-1.3,4c0,.86.49,1.53,1.22,1.53a1.48,1.48,0,1,0-1.22-1.53Z"/><path class="cls-3" d="M9.23,71.7a1.87,1.87,0,1,1,1.86,1.9A1.84,1.84,0,0,1,9.23,71.7Zm3.08,0a1.22,1.22,0,1,0-2.43,0,1.22,1.22,0,1,0,2.43,0Zm-1.87,4.94c-.12,0-.16,0-.16-.17V74.32h.64V76.1h4.15v.54Zm3.81-1.73V69.7h.63v5.21Z"/><path class="cls-3" d="M20,70.56H18.6v.23A2.4,2.4,0,0,0,20.43,73l-.4.46A3.63,3.63,0,0,1,18.27,72a3.37,3.37,0,0,1-1.78,1.72L16,73.26a2.71,2.71,0,0,0,1.91-2.49v-.21H16.52V70H20Zm-2.87,4.91c0-.87,1-1.44,2.41-1.44S22,74.6,22,75.47,21,76.9,19.54,76.9,17.13,76.35,17.13,75.47Zm2.41.94c1,0,1.76-.36,1.76-.93s-.75-.93-1.76-.93-1.74.34-1.74.92S18.57,76.41,19.54,76.41Zm3.21-4.55h-1V74h-.62V69.7h.62v1.61h1Z"/><path class="cls-3" d="M26.63,70c.13,0,.17,0,.17.17a4.22,4.22,0,0,1-3.2,3.61l-.41-.46a3.78,3.78,0,0,0,2.91-2.77H23.57V70Zm-2.55,5.45c0-.87,1-1.44,2.4-1.44s2.43.57,2.43,1.44-1,1.43-2.43,1.43S24.08,76.35,24.08,75.48Zm2.4.94c1,0,1.76-.36,1.76-.93s-.74-.93-1.76-.93-1.73.34-1.73.92S25.52,76.42,26.48,76.42Zm2.27-6.72v1.73h1V72h-1v2h-.63V69.7Z"/><path class="cls-3" d="M35.8,70.08v.55H31.6V73h4.27v.53h-2.2v1.82H36.6v.55H30.09v-.55H33V73.53h-1.9c-.13,0-.17,0-.17-.16V70.25c0-.13,0-.17.17-.17Z"/><path class="cls-3" d="M39,69.36h.48a6,6,0,0,0,0,7.68H39a5.36,5.36,0,0,1,0-7.68Z"/><path class="cls-3" d="M41.87,71.32a3.66,3.66,0,0,0,1.49,3.35l-.48.44a3.75,3.75,0,0,1-1.36-2,4.14,4.14,0,0,1-1.47,2.26L39.49,75a4.13,4.13,0,0,0,1.72-3.75V70h.66Zm1.94,5.13v-4H42.6v-.6h1.21v-2h.62v6.63Zm1.39.33V69.7h.61v7.08Z"/><path class="cls-3" d="M47.8,74c-.13,0-.17,0-.17-.17v-2c0-.12,0-.16.17-.16h3.87v-1.2H47.61V70h4.52c.13,0,.17,0,.17.16v1.92c0,.12,0,.16-.17.16H48.24v1.23h4.28V74H50.31v1.32h2.94v.55H46.74v-.55h2.92V74Z"/><path class="cls-3" d="M54.05,77h-.48a6,6,0,0,0,0-7.68h.48a5.36,5.36,0,0,1,0,7.68Z"/><path class="cls-3" d="M76.53,74.33l.46.87,0-1V70.07h.62v5.82c0,.11,0,.15-.14.15h-.51a.18.18,0,0,1-.16-.1l-2.49-4.16-.45-.87V76h-.61V70.22c0-.11,0-.15.13-.15h.51a.17.17,0,0,1,.16.1Z"/><path class="cls-3" d="M81.53,77h-.67l2.71-7.56h.63Z"/><path class="cls-3" d="M89.9,73.31a.91.91,0,0,0-1-1c-.67,0-1.11.71-1.11,1.64s.44,1.65,1.11,1.65a1,1,0,0,0,1-1h.66a1.56,1.56,0,0,1-1.65,1.48c-1.23,0-1.81-1-1.81-2.16A1.93,1.93,0,0,1,89,71.85a1.51,1.51,0,0,1,1.6,1.46Z"/><path class="cls-3" d="M94.06,73.51c0-.79-.25-1.15-.9-1.15s-1,.45-1,1.32V76h-.58V72h.6l0,.52a1.45,1.45,0,0,1,1.25-.65,1.12,1.12,0,0,1,1.19.79l.06-.14a1.45,1.45,0,0,1,1.26-.65c.87,0,1.29.53,1.29,1.5V76h-.6V73.51c0-.79-.24-1.15-.89-1.15a1.1,1.1,0,0,0-1,1.07V76h-.58Z"/><path class="cls-3" d="M100.25,73.07H98.31c-.09,0-.11,0-.11-.11v-.28c.41-.4,1.48-1.44,1.48-2a.44.44,0,0,0-.48-.49c-.29,0-.48.21-.48.6h-.5a.94.94,0,0,1,1-1,.88.88,0,0,1,1,.86c0,.75-1,1.61-1.37,2h1.44Z"/><path class="cls-3" d="M122,73.57c-.09,0-.1,0-.1-.12l.09-3.13c0-.12,0-.16.12-.16h3.05v.55h-2.56l-.11,2a1.57,1.57,0,0,1,1.29-.53c.92,0,1.68.65,1.68,2a1.83,1.83,0,0,1-1.84,2,1.65,1.65,0,0,1-1.84-1.56h.63a1.16,1.16,0,0,0,1.23,1c.67,0,1.18-.56,1.18-1.45s-.49-1.47-1.17-1.47a1.1,1.1,0,0,0-1.11.75c0,.09,0,.14-.16.14Z"/><path class="cls-3" d="M126.55,73.57c-.1,0-.11,0-.11-.12l.09-3.13c0-.12,0-.16.13-.16h3v.55h-2.56l-.11,2a1.58,1.58,0,0,1,1.3-.53c.92,0,1.68.65,1.68,2a1.83,1.83,0,0,1-1.85,2,1.66,1.66,0,0,1-1.84-1.56H127a1.17,1.17,0,0,0,1.23,1c.68,0,1.19-.56,1.19-1.45s-.5-1.47-1.18-1.47a1.08,1.08,0,0,0-1.1.75c0,.09,0,.14-.16.14Z"/><path class="cls-3" d="M133.22,76h-.64V70.85a4.26,4.26,0,0,1-1.24.85v-.61a4.15,4.15,0,0,0,1.27-.93h.45c.12,0,.16,0,.16.16Z"/><path class="cls-3" d="M136.86,76h-.72l2.2-5.28H135.4v-.56h3.46c.11,0,.15,0,.15.16v.3a.41.41,0,0,1-.07.22Z"/><path class="cls-3" d="M164.08,76c-.11,0-.14,0-.14-.15V70.22c0-.11,0-.15.14-.15h3.3v.55h-2.82v2.06h2.8v.55h-2.8v2.26h2.95V76Z"/><path class="cls-3" d="M169,76c-.1,0-.13,0-.13-.15V70.07h.63v5.42h2.83V76Z"/><path class="cls-3" d="M176.75,72.74v.56h-3.66v-.56Z"/><path class="cls-3" d="M179.09,76h-.71l2.19-5.28h-2.93v-.56h3.45c.11,0,.15,0,.15.16v.3a.51.51,0,0,1-.06.22Z"/><path class="cls-3" d="M182.21,75.4c.75-.71,2.84-2.78,2.84-3.78a1,1,0,0,0-1.09-1,1,1,0,0,0-1,1.15h-.66A1.63,1.63,0,0,1,184,70a1.54,1.54,0,0,1,1.73,1.54c0,1.35-1.92,3-2.77,3.88h2.9V76h-3.52c-.09,0-.11,0-.11-.12Z"/><path class="cls-3" d="M189,70.18a.18.18,0,0,1,.16-.1h.54c.12,0,.16,0,.16.15v3.94h.87v.55h-.87V76h-.63V74.72h-2.49c-.11,0-.15,0-.15-.15v-.34a.41.41,0,0,1,.07-.22Zm.25,1.34v-.73l-2.06,3.38h2Z"/><path class="cls-3" d="M195.11,71.92h-.83V71.1h.83Zm0,3.27h-.83v-.83h.83Z"/><path class="cls-3" d="M198.76,75.4c.76-.71,2.84-2.78,2.84-3.78a1,1,0,0,0-1.08-1,1,1,0,0,0-1.05,1.15h-.66a1.64,1.64,0,0,1,1.72-1.7,1.54,1.54,0,0,1,1.73,1.54c0,1.35-1.92,3-2.77,3.88h2.9V76h-3.51c-.1,0-.12,0-.12-.12Z"/><path class="cls-3" d="M207.18,73.05c0,1.5-.34,3.1-2,3.1s-1.89-1.6-1.89-3.1.31-3.12,1.89-3.12S207.18,71.55,207.18,73.05Zm-3.18,0c0,.88.09,2.54,1.23,2.54s1.28-1.66,1.28-2.54-.12-2.57-1.28-2.57S204,72.16,204,73.05Z"/><path class="cls-3" d="M210.34,76h-.63V70.85a4.47,4.47,0,0,1-1.25.85v-.61a4,4,0,0,0,1.27-.93h.46c.12,0,.15,0,.15.16Z"/><path class="cls-3" d="M214.48,70a1.6,1.6,0,0,1,1.71,1.52h-.63a1,1,0,0,0-1.08-1c-1.12,0-1.44,1.58-1.45,2.65a1.52,1.52,0,0,1,1.54-1,1.72,1.72,0,0,1,1.71,2,1.85,1.85,0,0,1-3.58.75,4.84,4.84,0,0,1-.22-1.64C212.48,71.13,213.32,70,214.48,70Zm-1.3,4c0,.87.49,1.53,1.22,1.53a1.47,1.47,0,0,0,0-2.9A1.3,1.3,0,0,0,213.18,74.07Z"/><path class="cls-3" d="M16.46,107.66A3.93,3.93,0,0,1,14.69,106a3.71,3.71,0,0,1-1.76,1.86l-.49-.44a3,3,0,0,0,1.92-2.65v-.89H15v.83a2.71,2.71,0,0,0,1.87,2.44Zm-2.46,3c-.12,0-.16,0-.16-.17v-2.1h.64v1.72h4.15v.55Zm3.8-1.75v-5.19h.62v5.19Z"/><path class="cls-3" d="M23.52,104.58h-1.4v.22A2.43,2.43,0,0,0,24,107l-.4.46A3.73,3.73,0,0,1,21.8,106,3.4,3.4,0,0,1,20,107.7l-.47-.42a2.74,2.74,0,0,0,1.91-2.49v-.21H20.05v-.53h3.47Zm-2.86,4.91c0-.87,1-1.44,2.41-1.44s2.42.57,2.42,1.44-.95,1.43-2.42,1.43S20.66,110.36,20.66,109.49Zm2.41.94c1,0,1.76-.36,1.76-.93s-.75-.93-1.76-.93-1.74.34-1.74.92S22.1,110.43,23.07,110.43Zm3.21-4.55h-1V108h-.62v-4.31h.62v1.6h1Z"/><path class="cls-3" d="M33.07,107.43H31.33v.68H32c.12,0,.16,0,.16.16v1.2c0,.13,0,.17-.16.17H28.12v.63h4.25v.47H27.62c-.13,0-.17,0-.17-.17v-1.21c0-.13,0-.17.17-.17h3.9v-.62H27.45v-.46h.91v-.68H26.59V107h6.48Zm-5.45-1c-.13,0-.17,0-.17-.17V105.1c0-.13,0-.17.17-.17h3.86v-.6h-4v-.46H32c.13,0,.17,0,.17.17v1.16c0,.13,0,.17-.17.17H28.12V106h4.19v.46Zm3.08,1.67v-.68H29v.68Z"/><path class="cls-3" d="M35.5,103.38H36a6,6,0,0,0,0,7.68H35.5a5.36,5.36,0,0,1,0-7.68Z"/><path class="cls-3" d="M36.7,104.13h3c.13,0,.18,0,.18.16a6.06,6.06,0,0,1-3,5l-.52-.44a5.08,5.08,0,0,0,2.85-4.21H36.7Zm6.13,3h-1v3.67h-.64v-7.09h.64v2.84h1Z"/><path class="cls-3" d="M44.28,108.06c-.13,0-.17,0-.17-.17v-2c0-.13,0-.17.17-.17h3.88v-1.19H44.09v-.53h4.52c.13,0,.17,0,.17.17v1.91c0,.13,0,.17-.17.17H44.72v1.23H49v.53H46.79v1.32h2.94v.54H43.22v-.54h2.92v-1.32Z"/><path class="cls-3" d="M50.53,111.06h-.48a6,6,0,0,0,0-7.68h.48a5.36,5.36,0,0,1,0,7.68Z"/><path class="cls-3" d="M85.93,105.69c0,.83-.44,1.57-1.29,1.57s-1.28-.74-1.28-1.57.44-1.57,1.28-1.57S85.93,104.87,85.93,105.69Zm-2,0c0,.54.15,1.12.69,1.12s.73-.58.73-1.12-.18-1.14-.73-1.14S83.94,105.16,83.94,105.7ZM87.66,104h.59l-3.15,6h-.6Zm1.75,4.47a1.41,1.41,0,0,1-1.29,1.58c-.84,0-1.28-.76-1.28-1.58s.44-1.57,1.28-1.57A1.4,1.4,0,0,1,89.41,108.49Zm-2,0c0,.53.16,1.12.7,1.12s.73-.59.73-1.12-.19-1.13-.73-1.13S87.41,108,87.41,108.5Z"/><path class="cls-3" d="M126.12,104.2a.16.16,0,0,1,.16-.11h.54c.12,0,.15,0,.15.16v3.94h.87v.55H127V110h-.62v-1.28h-2.49c-.11,0-.15,0-.15-.15v-.34a.41.41,0,0,1,.07-.22Zm.24,1.34,0-.74-2.06,3.39h2Z"/><path class="cls-3" d="M128.52,109.42c.75-.71,2.84-2.78,2.84-3.78a1,1,0,0,0-1.09-1,1,1,0,0,0-1.05,1.15h-.65a1.63,1.63,0,0,1,1.71-1.7,1.53,1.53,0,0,1,1.73,1.54c0,1.35-1.92,3-2.76,3.88h2.89V110h-3.51c-.1,0-.11,0-.11-.12Z"/><path class="cls-3" d="M135.06,104.05a1.61,1.61,0,0,1,1.72,1.52h-.63a1,1,0,0,0-1.08-1c-1.13,0-1.45,1.57-1.46,2.65a1.52,1.52,0,0,1,1.55-1,1.73,1.73,0,0,1,1.71,2,1.84,1.84,0,0,1-3.58.74,4.54,4.54,0,0,1-.23-1.64C133.06,105.15,133.91,104.05,135.06,104.05Zm-1.3,4c0,.86.49,1.53,1.22,1.53a1.47,1.47,0,1,0-1.22-1.53Z"/><path class="cls-3" d="M164.08,110.06c-.11,0-.14,0-.14-.15v-5.67c0-.11,0-.15.14-.15h3.3v.55h-2.82v2h2.8v.56h-2.8v2.26h2.95v.55Z"/><path class="cls-3" d="M169,110.06c-.1,0-.13,0-.13-.15v-5.82h.63v5.42h2.83v.55Z"/><path class="cls-3" d="M176.75,106.76v.56h-3.66v-.56Z"/><path class="cls-3" d="M179.09,110h-.71l2.19-5.29h-2.93v-.55h3.45c.11,0,.15,0,.15.15v.31a.51.51,0,0,1-.06.22Z"/><path class="cls-3" d="M182.21,109.42c.75-.71,2.84-2.78,2.84-3.78a1,1,0,0,0-1.09-1,1,1,0,0,0-1,1.15h-.66a1.63,1.63,0,0,1,1.72-1.7,1.53,1.53,0,0,1,1.73,1.54c0,1.35-1.92,3-2.77,3.88h2.9V110h-3.52c-.09,0-.11,0-.11-.12Z"/><path class="cls-3" d="M189,104.2a.17.17,0,0,1,.16-.11h.54c.12,0,.16,0,.16.16v3.94h.87v.55h-.87V110h-.63v-1.28h-2.49c-.11,0-.15,0-.15-.15v-.34a.41.41,0,0,1,.07-.22Zm.25,1.34v-.74l-2.06,3.39h2Z"/><path class="cls-3" d="M195.11,105.94h-.83v-.82h.83Zm0,3.26h-.83v-.82h.83Z"/><path class="cls-3" d="M198.76,109.42c.76-.71,2.84-2.78,2.84-3.78a1,1,0,0,0-1.08-1,1,1,0,0,0-1.05,1.15h-.66a1.64,1.64,0,0,1,1.72-1.7,1.53,1.53,0,0,1,1.73,1.54c0,1.35-1.92,3-2.77,3.88h2.9V110h-3.51c-.1,0-.12,0-.12-.12Z"/><path class="cls-3" d="M207.18,107.07c0,1.49-.34,3.1-2,3.1s-1.89-1.61-1.89-3.1.31-3.13,1.89-3.13S207.18,105.56,207.18,107.07Zm-3.18,0c0,.88.09,2.54,1.23,2.54s1.28-1.66,1.28-2.54-.12-2.58-1.28-2.58S204,106.17,204,107.07Z"/><path class="cls-3" d="M210.34,110h-.63v-5.15a4.93,4.93,0,0,1-1.25.85v-.61a4.2,4.2,0,0,0,1.27-.93h.46c.12,0,.15,0,.15.15Z"/><path class="cls-3" d="M214.48,104.05a1.61,1.61,0,0,1,1.71,1.52h-.63a1,1,0,0,0-1.08-1c-1.12,0-1.44,1.57-1.45,2.65a1.52,1.52,0,0,1,1.54-1,1.72,1.72,0,0,1,1.71,2,1.84,1.84,0,0,1-3.58.74,4.8,4.8,0,0,1-.22-1.64C212.48,105.15,213.32,104.05,214.48,104.05Zm-1.3,4c0,.86.49,1.53,1.22,1.53a1.47,1.47,0,1,0-1.22-1.53Z"/><path class="cls-3" d="M16.46,141.68A3.93,3.93,0,0,1,14.69,140a3.69,3.69,0,0,1-1.76,1.85l-.49-.44a3,3,0,0,0,1.92-2.64v-.89H15v.83a2.72,2.72,0,0,0,1.87,2.44Zm-2.46,3c-.12,0-.16,0-.16-.16v-2.1h.64v1.72h4.15v.54Zm3.8-1.74v-5.2h.62v5.2Z"/><path class="cls-3" d="M23.52,138.6h-1.4v.22A2.41,2.41,0,0,0,24,141l-.4.47A3.73,3.73,0,0,1,21.8,140,3.44,3.44,0,0,1,20,141.72l-.47-.43a2.72,2.72,0,0,0,1.91-2.49v-.2H20.05v-.54h3.47Zm-2.86,4.91c0-.88,1-1.44,2.41-1.44s2.42.56,2.42,1.44-.95,1.43-2.42,1.43S20.66,144.38,20.66,143.51Zm2.41.93c1,0,1.76-.36,1.76-.93s-.75-.92-1.76-.92-1.74.33-1.74.92S22.1,144.44,23.07,144.44Zm3.21-4.55h-1V142h-.62v-4.31h.62v1.61h1Z"/><path class="cls-3" d="M33.07,141.45H31.33v.67H32c.12,0,.16,0,.16.17v1.2c0,.13,0,.17-.16.17H28.12v.63h4.25v.46H27.62c-.13,0-.17,0-.17-.16v-1.21c0-.13,0-.17.17-.17h3.9v-.62H27.45v-.47h.91v-.67H26.59V141h6.48Zm-5.45-1c-.13,0-.17,0-.17-.17v-1.16c0-.13,0-.17.17-.17h3.86v-.6h-4v-.46H32c.13,0,.17,0,.17.16v1.17c0,.13,0,.17-.17.17H28.12V140h4.19v.45Zm3.08,1.67v-.67H29v.67Z"/><path class="cls-3" d="M35.5,137.4H36a6,6,0,0,0,0,7.67H35.5a5.35,5.35,0,0,1,0-7.67Z"/><path class="cls-3" d="M38.35,139.35a3.69,3.69,0,0,0,1.49,3.36l-.48.43a3.76,3.76,0,0,1-1.36-2,4.15,4.15,0,0,1-1.47,2.25L36,143a4.16,4.16,0,0,0,1.72-3.76V138h.66Zm1.94,5.13v-4H39.08v-.6h1.21v-2h.62v6.63Zm1.39.34v-7.09h.61v7.09Z"/><path class="cls-3" d="M44.28,142.07c-.13,0-.17,0-.17-.16V140c0-.13,0-.17.17-.17h3.88V138.6H44.09v-.53h4.52c.13,0,.17,0,.17.17v1.91c0,.13,0,.17-.17.17H44.72v1.23H49v.52H46.79v1.32h2.94v.55H43.22v-.55h2.92v-1.32Z"/><path class="cls-3" d="M50.53,145.07h-.48a6,6,0,0,0,0-7.67h.48a5.35,5.35,0,0,1,0,7.67Z"/><path class="cls-3" d="M85.93,139.71c0,.82-.44,1.56-1.29,1.56s-1.28-.74-1.28-1.56.44-1.58,1.28-1.58S85.93,138.88,85.93,139.71Zm-2,0c0,.53.15,1.12.69,1.12s.73-.59.73-1.12-.18-1.15-.73-1.15S83.94,139.17,83.94,139.72ZM87.66,138h.59l-3.15,6h-.6Zm1.75,4.47a1.4,1.4,0,0,1-1.29,1.57c-.84,0-1.28-.75-1.28-1.57s.44-1.57,1.28-1.57A1.4,1.4,0,0,1,89.41,142.51Zm-2,0c0,.54.16,1.12.7,1.12s.73-.58.73-1.12-.19-1.12-.73-1.12S87.41,142,87.41,142.51Z"/><path class="cls-3" d="M126.34,144h-.63v-5.15a4.47,4.47,0,0,1-1.25.85v-.61a4,4,0,0,0,1.27-.92h.46c.12,0,.15,0,.15.15Z"/><path class="cls-3" d="M130.24,141.28h-.32c-.12,0-.12,0-.12-.12v-.3c0-.13,0-.16.12-.16h.27c.65,0,1.25-.3,1.25-1a1,1,0,0,0-1.17-1,1.07,1.07,0,0,0-1.17,1.06h-.64a1.64,1.64,0,0,1,1.83-1.61c1,0,1.79.47,1.79,1.57a1.41,1.41,0,0,1-1.19,1.38,1.46,1.46,0,0,1,1.31,1.48c0,1.18-.94,1.68-1.94,1.68a1.69,1.69,0,0,1-1.88-1.72H129a1.17,1.17,0,0,0,1.27,1.17,1.13,1.13,0,0,0,1.28-1.2C131.56,141.62,130.92,141.31,130.24,141.28Z"/><path class="cls-3" d="M133.1,143.43c.75-.71,2.84-2.78,2.84-3.78a1,1,0,0,0-1.09-1,1.06,1.06,0,0,0-1,1.15h-.65a1.63,1.63,0,0,1,1.72-1.7,1.54,1.54,0,0,1,1.73,1.54c0,1.36-1.92,3-2.77,3.88h2.89V144h-3.51c-.09,0-.11,0-.11-.12Z"/><path class="cls-3" d="M164.08,144.07c-.11,0-.14,0-.14-.15v-5.67c0-.11,0-.15.14-.15h3.3v.55h-2.82v2.06h2.8v.56h-2.8v2.25h2.95v.55Z"/><path class="cls-3" d="M169,144.07c-.1,0-.13,0-.13-.15V138.1h.63v5.42h2.83v.55Z"/><path class="cls-3" d="M176.75,140.77v.56h-3.66v-.56Z"/><path class="cls-3" d="M179.09,144h-.71l2.19-5.28h-2.93v-.55h3.45c.11,0,.15,0,.15.15v.3a.6.6,0,0,1-.06.23Z"/><path class="cls-3" d="M182.21,143.43c.75-.71,2.84-2.78,2.84-3.78a1,1,0,0,0-1.09-1,1.05,1.05,0,0,0-1,1.15h-.66a1.63,1.63,0,0,1,1.72-1.7,1.54,1.54,0,0,1,1.73,1.54c0,1.36-1.92,3-2.77,3.88h2.9V144h-3.52c-.09,0-.11,0-.11-.12Z"/><path class="cls-3" d="M189,138.21a.18.18,0,0,1,.16-.1h.54c.12,0,.16,0,.16.15v3.94h.87v.55h-.87V144h-.63v-1.28h-2.49c-.11,0-.15,0-.15-.15v-.33a.48.48,0,0,1,.07-.23Zm.25,1.35v-.74l-2.06,3.38h2Z"/><path class="cls-3" d="M195.11,140h-.83v-.83h.83Zm0,3.26h-.83v-.83h.83Z"/><path class="cls-3" d="M198.76,143.43c.76-.71,2.84-2.78,2.84-3.78a1,1,0,0,0-1.08-1,1.05,1.05,0,0,0-1.05,1.15h-.66a1.64,1.64,0,0,1,1.72-1.7,1.54,1.54,0,0,1,1.73,1.54c0,1.36-1.92,3-2.77,3.88h2.9V144h-3.51c-.1,0-.12,0-.12-.12Z"/><path class="cls-3" d="M207.18,141.08c0,1.5-.34,3.11-2,3.11s-1.89-1.61-1.89-3.11.31-3.12,1.89-3.12S207.18,139.58,207.18,141.08Zm-3.18,0c0,.88.09,2.55,1.23,2.55s1.28-1.67,1.28-2.55-.12-2.57-1.28-2.57S204,140.19,204,141.08Z"/><path class="cls-3" d="M210.34,144h-.63v-5.15a4.47,4.47,0,0,1-1.25.85v-.61a4,4,0,0,0,1.27-.92h.46c.12,0,.15,0,.15.15Z"/><path class="cls-3" d="M214.48,138.07a1.6,1.6,0,0,1,1.71,1.52h-.63a1,1,0,0,0-1.08-1c-1.12,0-1.44,1.58-1.45,2.65a1.51,1.51,0,0,1,1.54-1,1.72,1.72,0,0,1,1.71,1.95,1.85,1.85,0,0,1-3.58.75,4.84,4.84,0,0,1-.22-1.64C212.48,139.16,213.32,138.07,214.48,138.07Zm-1.3,4c0,.86.49,1.52,1.22,1.52a1.47,1.47,0,0,0,0-2.9A1.3,1.3,0,0,0,213.18,142.11Z"/><path class="cls-3" d="M18.77,175h.87l0-2.37H19v-.52h3.83v.52h-.67l0,2.34a10.4,10.4,0,0,0,1.19-.12v.52a16.6,16.6,0,0,1-2.51.17h-2Zm3.41,1.18c1.51,0,2.45.55,2.45,1.41s-.94,1.4-2.45,1.4-2.44-.53-2.44-1.41S20.68,176.15,22.18,176.15ZM20.24,175h1.23l.05-2.36H20.21Zm1.94,3.49c1,0,1.78-.33,1.78-.89s-.74-.91-1.78-.91-1.78.31-1.78.89S21.14,178.46,22.18,178.46Zm.64-4.53h1.11v-.65H22.82v-.51h1.11v-1h.63v4.37h-.63v-1.68H22.82Z"/><path class="cls-3" d="M31.2,172c.13,0,.17,0,.17.16a21.43,21.43,0,0,1-.34,2.63h1.08v.54H30.47v2.06h-.63v-2.06H28.56v2.06h-.63v-2.06h-2.3v-.54h4.79a19.68,19.68,0,0,0,.3-2.25H26.37V172Zm-4.52,6.73c-.13,0-.17,0-.17-.17V176.4h.62v1.74H31.5v.55Z"/><path class="cls-3" d="M35.61,178.85v-2.54H32.68v-.54h6.48v.54H36.27v2.54ZM38.35,172v.55H34.16v1.66h4.27v.55H33.7c-.14,0-.17,0-.17-.16v-2.43c0-.13,0-.17.17-.17Z"/><path class="cls-3" d="M41.64,172.22c.13,0,.17,0,.17.17a8.93,8.93,0,0,1-1.53,4.73l-.58-.22a7.28,7.28,0,0,0,1.49-4.14h-1v-.54Zm1.55,0c.13,0,.17,0,.17.17a11.42,11.42,0,0,1-.22,1.92h.91v-2.44h.59v6.63h-.59v-3.65H43a10.17,10.17,0,0,1-1.16,2.63l-.58-.21a7.9,7.9,0,0,0,1.46-4.51H42v-.54Zm2.7-.48v7.1H45.3v-7.1Z"/><path class="cls-3" d="M82.45,175.56c0-.79-.25-1.15-.9-1.15s-1,.45-1,1.32v2.36h-.58V174h.59v.52a1.44,1.44,0,0,1,1.24-.65,1.13,1.13,0,0,1,1.2.79l.06-.14a1.45,1.45,0,0,1,1.25-.65c.88,0,1.3.53,1.3,1.49v2.7H85v-2.53c0-.79-.24-1.15-.9-1.15a1.1,1.1,0,0,0-1,1.06v2.62h-.58Z"/><path class="cls-3" d="M89.66,175.56c0-.79-.25-1.15-.9-1.15s-1.06.45-1.06,1.32v2.36h-.57V174h.59l0,.52A1.47,1.47,0,0,1,89,173.9a1.11,1.11,0,0,1,1.19.79l.07-.14a1.45,1.45,0,0,1,1.25-.65c.87,0,1.3.53,1.3,1.49v2.7h-.6v-2.53c0-.79-.24-1.15-.9-1.15a1.1,1.1,0,0,0-1,1.06v2.62h-.58Z"/><path class="cls-3" d="M124.23,175.1c0,1.49-.34,3.1-2,3.1s-1.89-1.61-1.89-3.1.32-3.13,1.89-3.13S124.23,173.6,124.23,175.1Zm-3.17,0c0,.88.08,2.54,1.22,2.54s1.29-1.66,1.29-2.54-.13-2.58-1.29-2.58S121.06,174.2,121.06,175.1Z"/><path class="cls-3" d="M126.14,178.23h-.82v-.82h.82Z"/><path class="cls-3" d="M131.3,175.1c0,1.49-.35,3.1-2,3.1s-1.88-1.61-1.88-3.1.31-3.13,1.88-3.13S131.3,173.6,131.3,175.1Zm-3.18,0c0,.88.09,2.54,1.22,2.54s1.29-1.66,1.29-2.54-.13-2.58-1.29-2.58S128.12,174.2,128.12,175.1Z"/><path class="cls-3" d="M132.05,177.45c.75-.71,2.84-2.78,2.84-3.78a1,1,0,0,0-1.09-1,1,1,0,0,0-1.05,1.15h-.65a1.63,1.63,0,0,1,1.72-1.7,1.52,1.52,0,0,1,1.72,1.54c0,1.35-1.92,3-2.76,3.88h2.89v.55h-3.51c-.1,0-.11,0-.11-.12Z"/><path class="cls-3" d="M139,178.05h-.63V172.9a4.93,4.93,0,0,1-1.25.85v-.61a4.2,4.2,0,0,0,1.27-.93h.46c.12,0,.15,0,.15.15Z"/><path class="cls-3" d="M164.08,178.09c-.11,0-.14,0-.14-.15v-5.67c0-.11,0-.15.14-.15h3.3v.55h-2.82v2.05h2.8v.56h-2.8v2.26h2.95v.55Z"/><path class="cls-3" d="M169,178.09c-.1,0-.13,0-.13-.15v-5.82h.63v5.42h2.83v.55Z"/><path class="cls-3" d="M176.75,174.79v.56h-3.66v-.56Z"/><path class="cls-3" d="M179.09,178.05h-.71l2.19-5.29h-2.93v-.55h3.45c.11,0,.15,0,.15.15v.31a.51.51,0,0,1-.06.22Z"/><path class="cls-3" d="M182.21,177.45c.75-.71,2.84-2.78,2.84-3.78a1,1,0,0,0-1.09-1,1,1,0,0,0-1,1.15h-.66a1.63,1.63,0,0,1,1.72-1.7,1.53,1.53,0,0,1,1.73,1.54c0,1.35-1.92,3-2.77,3.88h2.9v.55h-3.52c-.09,0-.11,0-.11-.12Z"/><path class="cls-3" d="M189,172.23a.17.17,0,0,1,.16-.11h.54c.12,0,.16,0,.16.16v3.94h.87v.55h-.87v1.28h-.63v-1.28h-2.49c-.11,0-.15,0-.15-.15v-.34a.41.41,0,0,1,.07-.22Zm.25,1.34v-.73l-2.06,3.38h2Z"/><path class="cls-3" d="M195.11,174h-.83v-.82h.83Zm0,3.26h-.83v-.82h.83Z"/><path class="cls-3" d="M198.76,177.45c.76-.71,2.84-2.78,2.84-3.78a1,1,0,0,0-1.08-1,1,1,0,0,0-1.05,1.15h-.66a1.64,1.64,0,0,1,1.72-1.7,1.53,1.53,0,0,1,1.73,1.54c0,1.35-1.92,3-2.77,3.88h2.9v.55h-3.51c-.1,0-.12,0-.12-.12Z"/><path class="cls-3" d="M207.18,175.1c0,1.49-.34,3.1-2,3.1s-1.89-1.61-1.89-3.1.31-3.13,1.89-3.13S207.18,173.6,207.18,175.1Zm-3.18,0c0,.88.09,2.54,1.23,2.54s1.28-1.66,1.28-2.54-.12-2.58-1.28-2.58S204,174.2,204,175.1Z"/><path class="cls-3" d="M210.34,178.05h-.63V172.9a4.93,4.93,0,0,1-1.25.85v-.61a4.2,4.2,0,0,0,1.27-.93h.46c.12,0,.15,0,.15.15Z"/><path class="cls-3" d="M214.48,172.08a1.61,1.61,0,0,1,1.71,1.52h-.63a1,1,0,0,0-1.08-1c-1.12,0-1.44,1.58-1.45,2.65a1.52,1.52,0,0,1,1.54-1,1.72,1.72,0,0,1,1.71,2,1.84,1.84,0,0,1-3.58.74,4.8,4.8,0,0,1-.22-1.64C212.48,173.18,213.32,172.08,214.48,172.08Zm-1.3,4c0,.87.49,1.53,1.22,1.53a1.47,1.47,0,1,0-1.22-1.53Z"/><path class="cls-3" d="M25.63,209.25h1.78v-1c-.68-.25-1-.68-1-1.14,0-.75.84-1.35,2.48-1.35s2.49.61,2.49,1.36c0,.46-.34.88-1,1.13v1h1.76v.54H25.63Zm3.25,1.11c1.7,0,2.53.56,2.53,1.32S30.59,213,28.88,213s-2.54-.57-2.54-1.32S27.19,210.36,28.88,210.36Zm0,2.14c1.13,0,1.83-.31,1.83-.82s-.69-.85-1.83-.85-1.84.31-1.84.84S27.72,212.5,28.88,212.5Zm0-4.57c1.05,0,1.81-.35,1.81-.85s-.69-.88-1.81-.88-1.81.35-1.81.86S27.8,207.93,28.88,207.93Zm.87,1.32v-.9a4.08,4.08,0,0,1-.87.08,4.32,4.32,0,0,1-.84-.07v.89Z"/><path class="cls-3" d="M36.08,206c.13,0,.17,0,.17.16v1.72c0,.12,0,.16-.17.16H33.67v1.07h.61a18.9,18.9,0,0,0,3-.26v.54a19.75,19.75,0,0,1-3.2.26h-.89c-.13,0-.17,0-.17-.17v-1.78c0-.13,0-.17.17-.17h2.42v-1H33.05V206ZM36,210.32c1.59,0,2.42.55,2.42,1.34S37.6,213,36,213s-2.43-.56-2.43-1.32S34.42,210.32,36,210.32Zm0,2.17c1,0,1.74-.3,1.74-.83s-.71-.84-1.74-.84-1.76.29-1.76.84S35,212.49,36,212.49Zm3.23-5.37h-1v1.11h1v.55h-1v1.45h-.62v-4.47h.62v.82h1Z"/><path class="cls-3" d="M85.14,212.1c-.1,0-.14,0-.14-.15v-5.82h.64v5.42h2.83v.55Z"/><path class="cls-3" d="M124.88,206.24a.17.17,0,0,1,.16-.1h.54c.12,0,.15,0,.15.15v3.94h.87v.56h-.87v1.27h-.62v-1.27h-2.49c-.11,0-.15,0-.15-.16v-.33a.48.48,0,0,1,.07-.23Zm.24,1.35,0-.74-2.06,3.38h2Z"/><path class="cls-3" d="M128.44,212.25h-.83v-.82h.83Z"/><path class="cls-3" d="M133.59,209.11c0,1.5-.35,3.11-2,3.11s-1.89-1.61-1.89-3.11.31-3.12,1.89-3.12S133.59,207.61,133.59,209.11Zm-3.18,0c0,.88.09,2.55,1.23,2.55s1.28-1.67,1.28-2.55-.12-2.57-1.28-2.57S130.41,208.22,130.41,209.11Z"/><path class="cls-3" d="M138.17,209.11c0,1.5-.34,3.11-1.95,3.11s-1.89-1.61-1.89-3.11.31-3.12,1.89-3.12S138.17,207.61,138.17,209.11Zm-3.17,0c0,.88.08,2.55,1.22,2.55s1.29-1.67,1.29-2.55-.13-2.57-1.29-2.57S135,208.22,135,209.11Z"/><path class="cls-3" d="M165.2,212.1c-.11,0-.14,0-.14-.15v-5.67c0-.11,0-.15.14-.15h3.3v.55h-2.82v2.06h2.8v.56h-2.8v2.25h2.95v.55Z"/><path class="cls-3" d="M170.13,212.1c-.11,0-.14,0-.14-.15v-5.82h.63v5.42h2.83v.55Z"/><path class="cls-3" d="M178,212.06h-.71l2.19-5.28h-2.93v-.55H180c.12,0,.16,0,.16.15v.3a.62.62,0,0,1-.07.23Z"/><path class="cls-3" d="M181.09,211.47c.75-.72,2.83-2.79,2.83-3.79a1,1,0,0,0-1.08-1,1.06,1.06,0,0,0-1.05,1.16h-.66a1.65,1.65,0,0,1,1.72-1.71,1.53,1.53,0,0,1,1.73,1.55c0,1.35-1.92,3-2.77,3.87h2.9v.55H181.2c-.1,0-.11,0-.11-.12Z"/><path class="cls-3" d="M187.85,206.24a.18.18,0,0,1,.16-.1h.54c.12,0,.16,0,.16.15v3.94h.87v.56h-.87v1.27h-.63v-1.27H185.6c-.12,0-.15,0-.15-.16v-.33a.48.48,0,0,1,.07-.23Zm.25,1.35,0-.74-2.07,3.38h2Z"/><path class="cls-3" d="M194,208h-.82v-.83H194Zm0,3.26h-.82v-.82H194Z"/><path class="cls-3" d="M197.64,211.47c.75-.72,2.83-2.79,2.83-3.79a1,1,0,0,0-1.08-1,1.06,1.06,0,0,0-1,1.16h-.66a1.65,1.65,0,0,1,1.72-1.71,1.53,1.53,0,0,1,1.73,1.55c0,1.35-1.92,3-2.77,3.87h2.9v.55h-3.51c-.1,0-.11,0-.11-.12Z"/><path class="cls-3" d="M206.05,209.11c0,1.5-.34,3.11-2,3.11s-1.89-1.61-1.89-3.11.31-3.12,1.89-3.12S206.05,207.61,206.05,209.11Zm-3.17,0c0,.88.08,2.55,1.22,2.55s1.29-1.67,1.29-2.55-.13-2.57-1.29-2.57S202.88,208.22,202.88,209.11Z"/><path class="cls-3" d="M209.21,212.06h-.63v-5.14a4.68,4.68,0,0,1-1.25.84v-.6a4.08,4.08,0,0,0,1.27-.93h.46c.12,0,.15,0,.15.15Z"/><path class="cls-3" d="M213.35,206.1a1.62,1.62,0,0,1,1.72,1.52h-.64a1,1,0,0,0-1.07-1c-1.13,0-1.45,1.57-1.46,2.64a1.52,1.52,0,0,1,1.54-1c1.06,0,1.71.77,1.71,2a1.84,1.84,0,0,1-3.58.74,4.8,4.8,0,0,1-.22-1.64C211.35,207.2,212.2,206.1,213.35,206.1Zm-1.3,4c0,.86.49,1.53,1.22,1.53a1.48,1.48,0,1,0-1.22-1.53Z"/><path class="cls-3" d="M9.59,240.64H8.2v.29A2.44,2.44,0,0,0,10,243.18l-.4.46a3.79,3.79,0,0,1-1.76-1.53,3.45,3.45,0,0,1-1.76,1.75l-.47-.43a2.74,2.74,0,0,0,1.89-2.51v-.28H6.13v-.53H9.59Zm-2.68,4.91c0-.87,1-1.44,2.41-1.44s2.42.57,2.42,1.44-1,1.43-2.42,1.43S6.91,246.42,6.91,245.55Zm2.41.94c1,0,1.75-.36,1.75-.93s-.74-.93-1.75-.93-1.74.34-1.74.92S8.35,246.49,9.32,246.49ZM11,244.07v-2.15H9.51v-.53H11v-1.61h.62v4.29Z"/><path class="cls-3" d="M16.63,240.64H15.24V241a2.12,2.12,0,0,0,.49,1.35,3,3,0,0,0,1.34.9,3.39,3.39,0,0,0-.41.46,4.27,4.27,0,0,1-1-.61,3,3,0,0,1-.77-.92,2.89,2.89,0,0,1-.65,1,5,5,0,0,1-1.1.76,4.29,4.29,0,0,0-.49-.43,3.58,3.58,0,0,0,1.46-1.09A2.42,2.42,0,0,0,14.6,241v-.31H13.18v-.53h3.45Zm1.85,3.77c.13,0,.17,0,.17.17v2.33H18v-2H14v-.54Zm.18-.38H18v-2.1H16.55v-.55H18v-1.6h.63Z"/><path class="cls-3" d="M28.57,244.5h-2.9v2.36H25V244.5h-3V244h6.49Zm-5.63-4.57h.62v.91h3.51v-.91h.63v3c0,.13,0,.17-.17.17H23.11c-.13,0-.17,0-.17-.17Zm.62,2.59h3.51v-1.16H23.56Z"/><path class="cls-3" d="M33.39,241.6h-4v-.54h4Zm-.25,2.27a1.76,1.76,0,0,1-3.52,0,1.76,1.76,0,0,1,3.52,0Zm-2.87,0a1.11,1.11,0,1,0,1.11-1.16A1.06,1.06,0,0,0,30.27,243.87Zm.07-4h2.08v.53H30.34Zm3.85,7v-7.09h.62v2.88h1.06v.58H34.81v3.63Z"/><path class="cls-3" d="M39.35,245c-.13,0-.17,0-.17-.17V240.1h.64v4.35h.44a13.86,13.86,0,0,0,1.74-.16v.57a15.07,15.07,0,0,1-2.2.18Zm3,1.49V239.9H43v2.42h1v-2.54h.61v7.09H44v-3.94H43v3.6Z"/><path class="cls-3" d="M51.17,240c.13,0,.17,0,.17.16a27.09,27.09,0,0,1-.38,3h1.15v.54h-3v3.14h-.64v-3.14H45.6v-.54h4.73a19.43,19.43,0,0,0,.34-2.61H46.36V240Z"/><path class="cls-3" d="M55.19,240.64A2.55,2.55,0,0,0,57,243l-.41.5a4,4,0,0,1-1.77-1.57,3.53,3.53,0,0,1-1.76,1.77l-.49-.44a2.84,2.84,0,0,0,1.91-2.55V240h.67Zm1.09,3.5c1.51,0,2.45.57,2.45,1.44S57.79,247,56.28,247s-2.44-.55-2.44-1.42S54.79,244.14,56.28,244.14Zm0,2.35c1,0,1.79-.35,1.79-.91s-.75-.93-1.79-.93-1.77.33-1.77.91S55.24,246.49,56.28,246.49Zm.11-5.37H58v-1.34h.62v4.28H58v-2.39H56.39Z"/><path class="cls-3" d="M83.18,244.77h6.51v.54H83.18Z"/><path class="cls-3" d="M118.68,240c.95,0,1.75.85,1.75,2.69s-.79,2.7-1.75,2.7-1.76-.87-1.76-2.7S117.7,240,118.68,240Zm0,4.82c.77,0,1.12-1,1.12-2.13s-.34-2.13-1.12-2.13-1.13,1-1.13,2.13S117.9,244.77,118.68,244.77Zm3.77-5v7.1h-.64v-7.1Z"/><path class="cls-3" d="M123.39,243.25a2.85,2.85,0,0,0,1.92-2.64V240H126v.66a2.57,2.57,0,0,0,1.84,2.37l-.4.49a3.83,3.83,0,0,1-1.76-1.57,3.69,3.69,0,0,1-1.78,1.79Zm1.18,2.33c0-.87,1-1.43,2.39-1.43s2.41.56,2.41,1.43S128.44,247,127,247,124.57,246.45,124.57,245.58Zm2.39.92c1,0,1.74-.35,1.74-.92s-.73-.91-1.74-.91-1.72.32-1.72.91S126,246.5,127,246.5Zm2.25-6.72v1.65h1V242h-1v2.08h-.63v-4.28Z"/><path class="cls-3" d="M130.92,241.58a1.74,1.74,0,0,1,1.82-1.72,1.77,1.77,0,0,1,1.81,1.49h1.37v-1.57h.62v3.75h-.62v-1.62h-1.38a1.79,1.79,0,0,1-1.8,1.4A1.76,1.76,0,0,1,130.92,241.58Zm1.82,1.17a1.14,1.14,0,0,0,1.19-1.16,1.17,1.17,0,0,0-1.19-1.18,1.19,1.19,0,0,0-1.2,1.18A1.17,1.17,0,0,0,132.74,242.75Zm-.94,1.16h.58v.87h1.32v-.87h.6v2.52a2.35,2.35,0,0,0,1.15-2v-.51h.64v.51a2.4,2.4,0,0,0,1.17,2l-.44.41a2.88,2.88,0,0,1-1-1.36,3.2,3.2,0,0,1-1.05,1.37l-.42-.4v.15c0,.13-.05.17-.17.17H132c-.13,0-.17,0-.17-.17Zm1.9,2.39v-1h-1.32v1Z"/><path class="cls-3" d="M144.18,243.59h-6.49v-.54h6.49Zm-3.24-3.87c1.63,0,2.49.58,2.49,1.42s-.84,1.38-2.49,1.38-2.49-.53-2.49-1.38S139.31,239.72,140.94,239.72Zm2.2,4.64c.13,0,.17,0,.17.17v2.09c0,.12,0,.16-.17.16h-4.41c-.13,0-.17,0-.17-.16v-2.09c0-.13,0-.17.17-.17Zm-2.2-4.15c-1.09,0-1.81.32-1.81.93s.69.89,1.81.89,1.81-.29,1.81-.89S142,240.21,140.94,240.21Zm-1.76,6h3.49v-1.38h-3.49Z"/><path class="cls-3" d="M165.2,246.12c-.11,0-.14,0-.14-.15V240.3c0-.11,0-.15.14-.15h3.3v.55h-2.82v2.05h2.8v.56h-2.8v2.26h2.95v.55Z"/><path class="cls-3" d="M170.13,246.12c-.11,0-.14,0-.14-.15v-5.82h.63v5.42h2.83v.55Z"/><path class="cls-3" d="M178,246.08h-.71l2.19-5.28h-2.93v-.56H180c.12,0,.16,0,.16.16v.3a.52.52,0,0,1-.07.22Z"/><path class="cls-3" d="M181.09,245.48c.75-.71,2.83-2.78,2.83-3.78a1,1,0,0,0-1.08-1,1,1,0,0,0-1.05,1.15h-.66a1.64,1.64,0,0,1,1.72-1.7,1.53,1.53,0,0,1,1.73,1.54c0,1.35-1.92,3-2.77,3.88h2.9v.55H181.2c-.1,0-.11,0-.11-.12Z"/><path class="cls-3" d="M187.85,240.26a.18.18,0,0,1,.16-.1h.54c.12,0,.16,0,.16.15v3.94h.87v.55h-.87v1.28h-.63V244.8H185.6c-.12,0-.15,0-.15-.15v-.34a.41.41,0,0,1,.07-.22Zm.25,1.34,0-.73-2.07,3.38h2Z"/><path class="cls-3" d="M194,242h-.82v-.82H194Zm0,3.26h-.82v-.82H194Z"/><path class="cls-3" d="M197.64,245.48c.75-.71,2.83-2.78,2.83-3.78a1,1,0,0,0-1.08-1,1,1,0,0,0-1,1.15h-.66a1.64,1.64,0,0,1,1.72-1.7,1.53,1.53,0,0,1,1.73,1.54c0,1.35-1.92,3-2.77,3.88h2.9v.55h-3.51c-.1,0-.11,0-.11-.12Z"/><path class="cls-3" d="M206.05,243.13c0,1.5-.34,3.1-2,3.1s-1.89-1.6-1.89-3.1.31-3.13,1.89-3.13S206.05,241.63,206.05,243.13Zm-3.17,0c0,.88.08,2.54,1.22,2.54s1.29-1.66,1.29-2.54-.13-2.58-1.29-2.58S202.88,242.23,202.88,243.13Z"/><path class="cls-3" d="M209.21,246.08h-.63v-5.15a4.93,4.93,0,0,1-1.25.85v-.61a3.93,3.93,0,0,0,1.27-.93h.46c.12,0,.15,0,.15.16Z"/><path class="cls-3" d="M213.35,240.12a1.62,1.62,0,0,1,1.72,1.52h-.64a1,1,0,0,0-1.07-1c-1.13,0-1.45,1.58-1.46,2.65a1.52,1.52,0,0,1,1.54-1,1.72,1.72,0,0,1,1.71,2,1.84,1.84,0,0,1-3.58.74,4.74,4.74,0,0,1-.22-1.63C211.35,241.21,212.2,240.12,213.35,240.12Zm-1.3,4c0,.87.49,1.53,1.22,1.53a1.47,1.47,0,0,0,0-2.9A1.3,1.3,0,0,0,212.05,244.15Z"/><path class="cls-3" d="M11.23,274v.52H7.09v1.23H11.3v.53H9.16v1h2.92v.55H5.59v-.55H8.51v-1H6.63c-.14,0-.17,0-.17-.16v-1.95c0-.13,0-.17.17-.17Zm-2.39,4.28c1.63,0,2.54.58,2.54,1.37S10.48,281,8.84,281s-2.55-.58-2.55-1.37S7.2,278.28,8.84,278.28Zm0,2.25c1.08,0,1.84-.31,1.84-.89s-.76-.87-1.84-.87-1.85.31-1.85.87S7.72,280.53,8.84,280.53Z"/><path class="cls-3" d="M16.63,274.66H15.24V275a2.14,2.14,0,0,0,.49,1.35,3,3,0,0,0,1.34.89,4.16,4.16,0,0,0-.41.47,5.11,5.11,0,0,1-1-.61,3,3,0,0,1-.77-.92,2.85,2.85,0,0,1-.65,1,4.71,4.71,0,0,1-1.1.76,4.26,4.26,0,0,0-.49-.42,3.7,3.7,0,0,0,1.46-1.1A2.37,2.37,0,0,0,14.6,275v-.3H13.18v-.54h3.45Zm1.85,3.77c.13,0,.17,0,.17.16v2.34H18v-2H14v-.54Zm.18-.38H18V276H16.55v-.56H18V273.8h.63Z"/><path class="cls-3" d="M28.57,278.51h-2.9v2.37H25v-2.37h-3V278h6.49ZM22.94,274h.62v.91h3.51V274h.63v3c0,.12,0,.16-.17.16H23.11c-.13,0-.17,0-.17-.16Zm.62,2.59h3.51v-1.16H23.56Z"/><path class="cls-3" d="M33.39,275.62h-4v-.55h4Zm-.25,2.26a1.76,1.76,0,0,1-3.52,0,1.76,1.76,0,0,1,3.52,0Zm-2.87,0a1.11,1.11,0,1,0,2.22,0,1.11,1.11,0,1,0-2.22,0Zm.07-4h2.08v.53H30.34Zm3.85,7V273.8h.62v2.87h1.06v.59H34.81v3.63Z"/><path class="cls-3" d="M39.35,279.06c-.13,0-.17,0-.17-.17v-4.77h.64v4.35h.44A13.62,13.62,0,0,0,42,278.3v.57a13.33,13.33,0,0,1-2.2.19Zm3,1.48v-6.62H43v2.42h1V273.8h.61v7.09H44V277H43v3.59Z"/><path class="cls-3" d="M51.17,274.05c.13,0,.17,0,.17.17a26.6,26.6,0,0,1-.38,3h1.15v.55h-3v3.14h-.64v-3.14H45.6v-.55h4.73a19.08,19.08,0,0,0,.34-2.6H46.36v-.55Z"/><path class="cls-3" d="M55.19,274.66A2.56,2.56,0,0,0,57,277l-.41.49A3.88,3.88,0,0,1,54.86,276a3.49,3.49,0,0,1-1.76,1.77l-.49-.43a2.84,2.84,0,0,0,1.91-2.56V274h.67Zm1.09,3.49c1.51,0,2.45.58,2.45,1.44S57.79,281,56.28,281s-2.44-.55-2.44-1.43S54.79,278.15,56.28,278.15Zm0,2.35c1,0,1.79-.34,1.79-.9s-.75-.94-1.79-.94-1.77.34-1.77.92S55.24,280.5,56.28,280.5Zm.11-5.36H58V273.8h.62v4.27H58v-2.39H56.39Z"/><path class="cls-3" d="M83.18,278.78h6.51v.55H83.18Z"/><path class="cls-3" d="M118.68,274c.95,0,1.75.86,1.75,2.7s-.79,2.69-1.75,2.69-1.76-.86-1.76-2.69S117.7,274,118.68,274Zm0,4.82c.77,0,1.12-1,1.12-2.12s-.34-2.13-1.12-2.13-1.13,1-1.13,2.13S117.9,278.78,118.68,278.78Zm3.77-5v7.1h-.64v-7.1Z"/><path class="cls-3" d="M123.39,277.27a2.86,2.86,0,0,0,1.92-2.64V274H126v.67a2.55,2.55,0,0,0,1.84,2.36l-.4.5a3.8,3.8,0,0,1-1.76-1.58,3.65,3.65,0,0,1-1.78,1.79Zm1.18,2.32c0-.87,1-1.43,2.39-1.43s2.41.56,2.41,1.43S128.44,281,127,281,124.57,280.46,124.57,279.59Zm2.39.93c1,0,1.74-.35,1.74-.92s-.73-.92-1.74-.92-1.72.33-1.72.91S126,280.52,127,280.52Zm2.25-6.72v1.65h1V276h-1v2.08h-.63V273.8Z"/><path class="cls-3" d="M130.92,275.59a1.74,1.74,0,0,1,1.82-1.71,1.76,1.76,0,0,1,1.81,1.49h1.37V273.8h.62v3.75h-.62v-1.63h-1.38a1.79,1.79,0,0,1-1.8,1.4A1.76,1.76,0,0,1,130.92,275.59Zm1.82,1.17a1.14,1.14,0,0,0,1.19-1.16,1.16,1.16,0,0,0-1.19-1.17,1.17,1.17,0,1,0,0,2.33Zm-.94,1.17h.58v.86h1.32v-.86h.6v2.52a2.35,2.35,0,0,0,1.15-2v-.51h.64v.51a2.37,2.37,0,0,0,1.17,2l-.44.42a2.86,2.86,0,0,1-1-1.37,3.17,3.17,0,0,1-1.05,1.38l-.42-.4v.15c0,.13-.05.17-.17.17H132c-.13,0-.17,0-.17-.17Zm1.9,2.38v-1h-1.32v1Z"/><path class="cls-3" d="M144.18,277.6h-6.49v-.53h6.49Zm-3.24-3.86c1.63,0,2.49.57,2.49,1.41s-.84,1.39-2.49,1.39-2.49-.54-2.49-1.39S139.31,273.74,140.94,273.74Zm2.2,4.64c.13,0,.17,0,.17.17v2.08c0,.13,0,.17-.17.17h-4.41c-.13,0-.17,0-.17-.17v-2.08c0-.13,0-.17.17-.17Zm-2.2-4.15c-1.09,0-1.81.32-1.81.92s.69.89,1.81.89,1.81-.29,1.81-.89S142,274.23,140.94,274.23Zm-1.76,6h3.49V278.9h-3.49Z"/><path class="cls-3" d="M165.2,280.14c-.11,0-.14,0-.14-.16v-5.67c0-.11,0-.15.14-.15h3.3v.56h-2.82v2h2.8v.56h-2.8v2.25h2.95v.56Z"/><path class="cls-3" d="M170.13,280.14c-.11,0-.14,0-.14-.16v-5.82h.63v5.42h2.83v.56Z"/><path class="cls-3" d="M178,280.1h-.71l2.19-5.29h-2.93v-.55H180c.12,0,.16,0,.16.15v.31a.52.52,0,0,1-.07.22Z"/><path class="cls-3" d="M181.09,279.5c.75-.72,2.83-2.79,2.83-3.79a1,1,0,0,0-1.08-1,1,1,0,0,0-1.05,1.15h-.66a1.65,1.65,0,0,1,1.72-1.71,1.53,1.53,0,0,1,1.73,1.55c0,1.35-1.92,3-2.77,3.87h2.9v.56H181.2c-.1,0-.11,0-.11-.12Z"/><path class="cls-3" d="M187.85,274.27a.18.18,0,0,1,.16-.1h.54c.12,0,.16,0,.16.15v3.94h.87v.56h-.87v1.28h-.63v-1.28H185.6c-.12,0-.15,0-.15-.16v-.33a.48.48,0,0,1,.07-.23Zm.25,1.35,0-.74-2.07,3.38h2Z"/><path class="cls-3" d="M194,276h-.82v-.83H194Zm0,3.26h-.82v-.82H194Z"/><path class="cls-3" d="M197.64,279.5c.75-.72,2.83-2.79,2.83-3.79a1,1,0,0,0-1.08-1,1,1,0,0,0-1,1.15h-.66a1.65,1.65,0,0,1,1.72-1.71,1.53,1.53,0,0,1,1.73,1.55c0,1.35-1.92,3-2.77,3.87h2.9v.56h-3.51c-.1,0-.11,0-.11-.12Z"/><path class="cls-3" d="M206.05,277.15c0,1.49-.34,3.1-2,3.1s-1.89-1.61-1.89-3.1.31-3.13,1.89-3.13S206.05,275.64,206.05,277.15Zm-3.17,0c0,.87.08,2.54,1.22,2.54s1.29-1.67,1.29-2.54-.13-2.58-1.29-2.58S202.88,276.25,202.88,277.15Z"/><path class="cls-3" d="M209.21,280.1h-.63V275a4.68,4.68,0,0,1-1.25.84v-.6a4.08,4.08,0,0,0,1.27-.93h.46c.12,0,.15,0,.15.15Z"/><path class="cls-3" d="M213.35,274.13a1.62,1.62,0,0,1,1.72,1.52h-.64a1,1,0,0,0-1.07-1c-1.13,0-1.45,1.57-1.46,2.64a1.52,1.52,0,0,1,1.54-1c1.06,0,1.71.77,1.71,2a1.84,1.84,0,0,1-3.58.74,4.8,4.8,0,0,1-.22-1.64C211.35,275.23,212.2,274.13,213.35,274.13Zm-1.3,4c0,.86.49,1.53,1.22,1.53a1.48,1.48,0,1,0-1.22-1.53Z"/></g></g></svg>