<svg xmlns="http://www.w3.org/2000/svg" viewBox="0 0 226.77 295.51"><defs><style>.cls-1{fill:none;stroke:#3ab483;stroke-miterlimit:10;stroke-width:0.71px;}.cls-2{fill:#3ab483;}.cls-3{fill:#595757;}</style></defs><g id="레이어_2" data-name="레이어 2"><g id="레이어_1-2" data-name="레이어 1"><line class="cls-1" y1="0.35" x2="62.36" y2="0.35"/><line class="cls-1" x1="62.36" y1="0.35" x2="96.38" y2="0.35"/><line class="cls-1" x1="62.36" y1="22.68" x2="62.36" y2="0.71"/><line class="cls-1" x1="96.38" y1="0.35" x2="147.4" y2="0.35"/><line class="cls-1" x1="96.38" y1="22.68" x2="96.38" y2="0.71"/><line class="cls-1" x1="147.4" y1="0.35" x2="181.42" y2="0.35"/><line class="cls-1" x1="147.4" y1="22.68" x2="147.4" y2="0.71"/><line class="cls-1" x1="181.42" y1="0.35" x2="226.77" y2="0.35"/><line class="cls-1" x1="181.42" y1="22.68" x2="181.42" y2="0.71"/><line class="cls-1" y1="23.03" x2="62.36" y2="23.03"/><line class="cls-1" x1="62.36" y1="23.03" x2="96.38" y2="23.03"/><line class="cls-1" x1="62.36" y1="56.69" x2="62.36" y2="23.39"/><line class="cls-1" x1="96.38" y1="23.03" x2="147.4" y2="23.03"/><line class="cls-1" x1="96.38" y1="56.69" x2="96.38" y2="23.39"/><line class="cls-1" x1="147.4" y1="23.03" x2="181.42" y2="23.03"/><line class="cls-1" x1="147.4" y1="56.69" x2="147.4" y2="23.39"/><line class="cls-1" x1="181.42" y1="23.03" x2="226.77" y2="23.03"/><line class="cls-1" x1="181.42" y1="56.69" x2="181.42" y2="23.39"/><line class="cls-1" y1="57.05" x2="62.36" y2="57.05"/><line class="cls-1" x1="62.36" y1="57.05" x2="96.38" y2="57.05"/><line class="cls-1" x1="62.36" y1="90.71" x2="62.36" y2="57.4"/><line class="cls-1" x1="96.38" y1="57.05" x2="147.4" y2="57.05"/><line class="cls-1" x1="96.38" y1="90.71" x2="96.38" y2="57.4"/><line class="cls-1" x1="147.4" y1="57.05" x2="181.42" y2="57.05"/><line class="cls-1" x1="147.4" y1="90.71" x2="147.4" y2="57.4"/><line class="cls-1" x1="181.42" y1="57.05" x2="226.77" y2="57.05"/><line class="cls-1" x1="181.42" y1="90.71" x2="181.42" y2="57.4"/><line class="cls-1" y1="91.06" x2="62.36" y2="91.06"/><line class="cls-1" x1="62.36" y1="91.06" x2="96.38" y2="91.06"/><line class="cls-1" x1="62.36" y1="124.72" x2="62.36" y2="91.42"/><line class="cls-1" x1="96.38" y1="91.06" x2="147.4" y2="91.06"/><line class="cls-1" x1="96.38" y1="124.72" x2="96.38" y2="91.42"/><line class="cls-1" x1="147.4" y1="91.06" x2="181.42" y2="91.06"/><line class="cls-1" x1="147.4" y1="124.72" x2="147.4" y2="91.42"/><line class="cls-1" x1="181.42" y1="91.06" x2="226.77" y2="91.06"/><line class="cls-1" x1="181.42" y1="124.72" x2="181.42" y2="91.42"/><line class="cls-1" y1="125.08" x2="62.36" y2="125.08"/><line class="cls-1" x1="62.36" y1="125.08" x2="96.38" y2="125.08"/><line class="cls-1" x1="62.36" y1="158.74" x2="62.36" y2="125.43"/><line class="cls-1" x1="96.38" y1="125.08" x2="147.4" y2="125.08"/><line class="cls-1" x1="96.38" y1="158.74" x2="96.38" y2="125.43"/><line class="cls-1" x1="147.4" y1="125.08" x2="181.42" y2="125.08"/><line class="cls-1" x1="147.4" y1="158.74" x2="147.4" y2="125.43"/><line class="cls-1" x1="181.42" y1="125.08" x2="226.77" y2="125.08"/><line class="cls-1" x1="181.42" y1="158.74" x2="181.42" y2="125.43"/><line class="cls-1" y1="159.09" x2="62.36" y2="159.09"/><line class="cls-1" x1="62.36" y1="159.09" x2="96.38" y2="159.09"/><line class="cls-1" x1="62.36" y1="192.76" x2="62.36" y2="159.45"/><line class="cls-1" x1="96.38" y1="159.09" x2="147.4" y2="159.09"/><line class="cls-1" x1="96.38" y1="192.76" x2="96.38" y2="159.45"/><line class="cls-1" x1="147.4" y1="159.09" x2="181.42" y2="159.09"/><line class="cls-1" x1="147.4" y1="192.76" x2="147.4" y2="159.45"/><line class="cls-1" x1="181.42" y1="159.09" x2="226.77" y2="159.09"/><line class="cls-1" x1="181.42" y1="192.76" x2="181.42" y2="159.45"/><line class="cls-1" y1="193.11" x2="62.36" y2="193.11"/><line class="cls-1" x1="62.36" y1="193.11" x2="96.38" y2="193.11"/><line class="cls-1" x1="62.36" y1="226.77" x2="62.36" y2="193.46"/><line class="cls-1" x1="96.38" y1="193.11" x2="147.4" y2="193.11"/><line class="cls-1" x1="96.38" y1="226.77" x2="96.38" y2="193.46"/><line class="cls-1" x1="147.4" y1="193.11" x2="181.42" y2="193.11"/><line class="cls-1" x1="147.4" y1="226.77" x2="147.4" y2="193.46"/><line class="cls-1" x1="181.42" y1="193.11" x2="226.77" y2="193.11"/><line class="cls-1" x1="181.42" y1="226.77" x2="181.42" y2="193.46"/><line class="cls-1" y1="227.13" x2="62.36" y2="227.13"/><line class="cls-1" x1="62.36" y1="227.13" x2="96.38" y2="227.13"/><line class="cls-1" x1="62.36" y1="260.79" x2="62.36" y2="227.48"/><line class="cls-1" x1="96.38" y1="227.13" x2="147.4" y2="227.13"/><line class="cls-1" x1="96.38" y1="260.79" x2="96.38" y2="227.48"/><line class="cls-1" x1="147.4" y1="227.13" x2="181.42" y2="227.13"/><line class="cls-1" x1="147.4" y1="260.79" x2="147.4" y2="227.48"/><line class="cls-1" x1="181.42" y1="227.13" x2="226.77" y2="227.13"/><line class="cls-1" x1="181.42" y1="260.79" x2="181.42" y2="227.48"/><line class="cls-1" y1="261.14" x2="62.36" y2="261.14"/><line class="cls-1" x1="62.36" y1="261.14" x2="96.38" y2="261.14"/><line class="cls-1" x1="62.36" y1="294.8" x2="62.36" y2="261.5"/><line class="cls-1" x1="96.38" y1="261.14" x2="147.4" y2="261.14"/><line class="cls-1" x1="96.38" y1="294.8" x2="96.38" y2="261.5"/><line class="cls-1" x1="147.4" y1="261.14" x2="181.42" y2="261.14"/><line class="cls-1" x1="147.4" y1="294.8" x2="147.4" y2="261.5"/><line class="cls-1" x1="181.42" y1="261.14" x2="226.77" y2="261.14"/><line class="cls-1" x1="181.42" y1="294.8" x2="181.42" y2="261.5"/><line class="cls-1" y1="295.16" x2="62.36" y2="295.16"/><line class="cls-1" x1="62.36" y1="295.16" x2="96.38" y2="295.16"/><line class="cls-1" x1="96.38" y1="295.16" x2="147.4" y2="295.16"/><line class="cls-1" x1="147.4" y1="295.16" x2="181.42" y2="295.16"/><line class="cls-1" x1="181.42" y1="295.16" x2="226.77" y2="295.16"/><path class="cls-2" d="M24.75,12.36H22.13v1.38h-.89V12.36H18.42V11.6h6.33Zm-5.57-4.3H20v.76h3.07V8.06H24v2.73c0,.17-.05.22-.21.22H19.38c-.16,0-.2,0-.2-.22Zm.23,7c-.16,0-.2-.06-.2-.23V12.86h.87v1.4h4.11V15Zm3.7-4.76V9.56H20v.71Z"/><path class="cls-2" d="M28.55,11.93A4.13,4.13,0,0,1,27,10.53a3.47,3.47,0,0,1-1.56,1.58l-.69-.61a2.75,2.75,0,0,0,1.78-2.44v-.9h.93v.89a2.46,2.46,0,0,0,1.68,2.2Zm1.89.67c.16,0,.22.05.22.22V15.2h-.87V13.35H25.92V12.6Zm-2-3.4h1.4V8h.86v4.3H29.8V10H28.4Z"/><path class="cls-2" d="M31.45,9.06h4v.67h-4Zm.21,2c0-.62.64-1.12,1.79-1.12s1.79.5,1.79,1.12-.64,1.13-1.79,1.13S31.66,11.72,31.66,11.1ZM37,13.92c0,.8-.83,1.36-2.44,1.36s-2.44-.56-2.44-1.36.84-1.35,2.44-1.35S37,13.12,37,13.92ZM32.37,8h2.14v.67H32.37Zm.19,3.12c0,.35.36.5.89.5s.9-.15.9-.5-.36-.51-.9-.51S32.56,10.77,32.56,11.1Zm.52,2.82c0,.46.6.68,1.5.68s1.5-.21,1.5-.68-.58-.67-1.5-.67S33.08,13.47,33.08,13.92Zm4.6-3.29h-.82v1.89H36V8h.86V9.86h.82Z"/><path class="cls-2" d="M43,8.18c.16,0,.22.06.22.23v2.07c0,.17-.06.22-.22.22H41.22v.72h2.72v.79H37.61v-.79h2.72V10.7H38.58c-.16,0-.2,0-.2-.21V8.41c0-.17,0-.23.21-.23Zm0,4.63c.16,0,.21,0,.21.22V15.2h-.88V13.58h-4v-.77ZM42.31,10v-1H39.24v1Z"/><path class="cls-2" d="M76.68,8.3v.76H74.27v2h.94a16.63,16.63,0,0,0,2.25-.25v.75a14.43,14.43,0,0,1-2.54.28h-1.3c-.16,0-.21-.06-.21-.22V8.52c0-.17,0-.22.22-.22ZM74.29,15c-.16,0-.2-.06-.2-.23V12.6H75v1.66h3.8V15Zm5.18-4.51h-.89v2.67h-.87V8h.87V9.75h.89Z"/><path class="cls-2" d="M79.58,11.87h2a20.83,20.83,0,0,0,2.61-.18v.77a14.11,14.11,0,0,1-2,.16V15h-.86V12.64H79.58Zm2.2-3.8A1.6,1.6,0,1,1,80,9.66,1.63,1.63,0,0,1,81.78,8.07Zm0,2.46a.88.88,0,1,0-.9-.87A.85.85,0,0,0,81.78,10.53ZM85.29,8v7.15h-.86V8Z"/><path class="cls-2" d="M115.46,12.36h-2.62v1.38H112V12.36h-2.82V11.6h6.33Zm-5.57-4.3h.85v.76h3.08V8.06h.87v2.73c0,.17,0,.22-.21.22h-4.39c-.16,0-.2,0-.2-.22Zm.23,7c-.16,0-.2-.06-.2-.23V12.86h.87v1.4h4.11V15Zm3.7-4.76V9.56h-3.08v.71Z"/><path class="cls-2" d="M119.26,11.93a4.13,4.13,0,0,1-1.59-1.4,3.47,3.47,0,0,1-1.56,1.58l-.69-.61a2.75,2.75,0,0,0,1.78-2.44v-.9h.93v.89a2.45,2.45,0,0,0,1.68,2.2Zm1.89.67c.16,0,.21.05.21.22V15.2h-.86V13.35h-3.87V12.6Zm-2-3.4h1.39V8h.86v4.3h-.86V10h-1.39Z"/><path class="cls-2" d="M125.55,11.55c0,.17,0,.22-.21.22h-2.85c-.16,0-.21,0-.21-.22V8.22h.87v1h1.56v-1h.84Zm2.12,2.32c0,.93-1,1.42-2.44,1.42s-2.42-.5-2.42-1.42,1.07-1.43,2.43-1.43S127.67,13,127.67,13.87Zm-3-2.86V10h-1.56v1Zm-1,2.85c0,.43.62.73,1.5.73s1.49-.31,1.49-.73-.58-.71-1.49-.71S123.74,13.42,123.74,13.86ZM127.5,8V9.57h.88v.76h-.88v2.08h-.87V8Z"/><path class="cls-2" d="M128.8,8.22h.86v1h1.53v-1h.86V9.38h1.23V8h.86v3.9h-.86V10.14h-1.23v1.23c0,.17-.06.23-.22.23H129c-.16,0-.21-.06-.21-.23Zm.7,3.95h.85v.72h2.93v-.72h.85v2.7c0,.17-.06.22-.22.22h-4.19c-.17,0-.22-.05-.22-.22Zm1.69-1.33v-.9h-1.53v.9Zm2.09,3.52v-.74h-2.93v.74Z"/><path class="cls-2" d="M155.18,8.3c.16,0,.21,0,.21.22a4.06,4.06,0,0,1-3.07,3.58l-.54-.65a3.31,3.31,0,0,0,2.64-2.39h-2.23V8.3Zm2.11,4c.17,0,.22.06.22.23v2.3c0,.17,0,.22-.22.22h-4.17c-.16,0-.22-.05-.22-.22v-2.3c0-.17.06-.23.22-.23Zm-.64,2V13.08h-2.89v1.27ZM157.52,8v4.05h-.86V10.52h-1.39V9.74h1.39V8Z"/><path class="cls-2" d="M158,11.14h6.33v.64h-2.71v.56h1.69c.16,0,.22.06.22.23v1.22c0,.17-.06.22-.22.22h-3.58v.48h4v.63h-4.69c-.16,0-.22-.06-.22-.23V13.65c0-.17.06-.22.22-.22h3.59V13h-3.81v-.63h1.89v-.56H158Zm.66-2.26h5V9.5h-1.81c.29.38,1,.61,2.17.7l-.48.67A4,4,0,0,1,161.2,10a4,4,0,0,1-2.37.92l-.49-.67c1.19-.11,1.91-.34,2.17-.7H158.7Zm1.15-1h2.7v.64h-2.7Z"/><path class="cls-2" d="M164.68,9.1h4v.69h-4Zm.21,2.23c0-.69.64-1.23,1.79-1.23s1.79.54,1.79,1.23-.64,1.24-1.79,1.24S164.89,12,164.89,11.33ZM165.6,8h2.14v.68H165.6Zm.21,7c-.16,0-.2-.06-.2-.23V13h.89v1.27h3.8V15Zm0-3.7c0,.38.36.56.9.56s.9-.18.9-.56-.36-.56-.9-.56S165.78,11,165.78,11.33ZM170.1,8v2.1H171v.8h-.89v2.41h-.87V8Z"/><path class="cls-2" d="M173.56,8.48c.16,0,.22.06.22.22s0,.53-.05.78h.83V8.13h.84v6.7h-.84V12.2h-1.07v-.79h1.07V10.26h-.94a5.55,5.55,0,0,1-2,3.46l-.76-.54a4.59,4.59,0,0,0,2-3.95H171.2V8.48Zm2.34,6.68V8h.85v7.15Z"/><path class="cls-2" d="M197.66,12.36h-2.61v1.38h-.9V12.36h-2.82V11.6h6.33Zm-5.57-4.3H193v.76H196V8.06h.86v2.73c0,.17,0,.22-.21.22H192.3c-.16,0-.21,0-.21-.22Zm.24,7c-.16,0-.21-.06-.21-.23V12.86H193v1.4h4.1V15Zm3.7-4.76V9.56H193v.71Z"/><path class="cls-2" d="M201.47,11.93a4.13,4.13,0,0,1-1.59-1.4,3.55,3.55,0,0,1-1.57,1.58l-.68-.61a2.77,2.77,0,0,0,1.78-2.44v-.9h.93v.89a2.44,2.44,0,0,0,1.67,2.2Zm1.88.67c.16,0,.22.05.22.22V15.2h-.87V13.35h-3.87V12.6Zm-2-3.4h1.4V8h.86v4.3h-.86V10h-1.4Z"/><path class="cls-2" d="M207.66,8.3c.16,0,.21,0,.21.22-.18,1.51-1.1,2.65-3.07,3.3l-.53-.65c1.48-.39,2.34-1.09,2.59-2.12h-2.19V8.3Zm-2.08,6.82c-.17,0-.22-.06-.22-.23V13.46c0-.17,0-.22.22-.22h3.49v-.5h-3.71V12h4.41c.16,0,.21.05.21.22v1.39c0,.16,0,.22-.21.22h-3.48v.54h3.85v.71ZM210,8v3.75h-.86V11h-1.33v-.72h1.33V9.6h-1.2V8.88h1.2V8Z"/><path class="cls-2" d="M210.58,13h1.24V10.67h.86V13c.51,0,1.83-.1,2.39-.19v.76a30.89,30.89,0,0,1-3.65.21h-.84Zm3.7-4.53c.16,0,.22.05.22.22a27.24,27.24,0,0,1-.29,3.52h-.89a21.06,21.06,0,0,0,.26-3h-2.66V8.42ZM217,11.69h-.92v3.47h-.86V8h.86v2.89H217Z"/><path class="cls-3" d="M24.8,31.94h.63v1.83h2V31.94h.62v4.82c0,.13,0,.17-.17.17H25c-.12,0-.16,0-.16-.17Zm.63,4.44h2V34.33h-2Zm4.66-4.79v7.09h-.62V31.59Z"/><path class="cls-3" d="M37.76,37.78H31.25v-.54h2.93V35.46h.65v1.78h2.93Zm-2.92-5.31c0,1.28,1.42,2.42,2.62,2.76l-.44.48a4.41,4.41,0,0,1-2.51-2.14A4.41,4.41,0,0,1,32,35.72l-.47-.49c1.29-.4,2.63-1.44,2.63-2.76v-.59h.68Z"/><path class="cls-3" d="M8.4,40.86h.48a6,6,0,0,0,0,7.67H8.4a5.35,5.35,0,0,1,0-7.67Z"/><path class="cls-3" d="M14.07,47.54h-.66l-.57-1.6H10.17l-.58,1.6H8.94l2.18-5.9s.06-.08.13-.08h.49a.14.14,0,0,1,.15.08Zm-3.7-2.15h2.27L11.77,43l-.27-.82-.26.82Z"/><path class="cls-3" d="M16.21,43.35c.78,0,1.44.27,1.53,1.19h-.65c-.05-.54-.45-.68-.92-.68s-.82.15-.82.61.65.47,1.74.87a1,1,0,0,1,.78,1c0,.95-.82,1.35-1.74,1.35a1.39,1.39,0,0,1-1.57-1.28h.66c0,.63.51.76,1,.76s1-.2,1-.75-.58-.62-1.21-.77-1.29-.32-1.29-1.11S15.5,43.35,16.21,43.35Z"/><path class="cls-3" d="M22.45,43.42h-.82v-.83h.82Zm0,3.26h-.82v-.82h.82Z"/><path class="cls-3" d="M31,47.54h-.66l-.57-1.6H27.05l-.58,1.6h-.65L28,41.64s.06-.08.13-.08h.49a.14.14,0,0,1,.15.08Zm-3.7-2.15h2.27L28.65,43l-.27-.82-.26.82Z"/><path class="cls-3" d="M32.33,45.18v2.36h-.6V43.47h.61V44a1.19,1.19,0,0,1,1.07-.64,1,1,0,0,1,.37,0V44a1,1,0,0,0-.35-.06A1.08,1.08,0,0,0,32.33,45.18Z"/><path class="cls-3" d="M35.82,43.35c.78,0,1.43.27,1.53,1.19h-.66c0-.54-.44-.68-.91-.68S35,44,35,44.47s.65.47,1.73.87a1,1,0,0,1,.79,1c0,.95-.82,1.35-1.75,1.35a1.39,1.39,0,0,1-1.56-1.28h.65c0,.63.51.76,1,.76s1-.2,1-.75-.58-.62-1.21-.77-1.29-.32-1.29-1.11S35.11,43.35,35.82,43.35Z"/><path class="cls-3" d="M41.89,45.65H39c0,.84.37,1.49,1.29,1.49a1.09,1.09,0,0,0,1.06-1H42a1.74,1.74,0,0,1-1.88,1.48c-1.23,0-1.79-1-1.79-2.16a1.91,1.91,0,0,1,1.83-2.15c1.33,0,1.87.9,1.87,2.15C42,45.61,42,45.65,41.89,45.65Zm-.5-.51c0-.76-.45-1.28-1.22-1.28A1.22,1.22,0,0,0,39,45.14Z"/><path class="cls-3" d="M43.77,43.47l0,.52a1.51,1.51,0,0,1,1.3-.64c.91,0,1.35.52,1.35,1.49v2.7h-.62V45c0-.79-.25-1.15-.93-1.15a1.18,1.18,0,0,0-1.1,1.32v2.36h-.57V43.47Z"/><path class="cls-3" d="M48.38,41.58v.68H47.7v-.68Zm-.64,1.81h.61v4.15h-.61Z"/><path class="cls-3" d="M52.14,44.8a.9.9,0,0,0-1-.94c-.67,0-1.11.7-1.11,1.64s.44,1.64,1.11,1.64a.94.94,0,0,0,1-1h.67a1.57,1.57,0,0,1-1.66,1.48c-1.22,0-1.81-1-1.81-2.16a1.93,1.93,0,0,1,1.85-2.15A1.51,1.51,0,0,1,52.8,44.8Z"/><path class="cls-3" d="M53.62,48.53h-.48a6,6,0,0,0,0-7.67h.48a5.35,5.35,0,0,1,0,7.67Z"/><path class="cls-3" d="M68.14,40.21c0-.79-.25-1.15-.9-1.15s-1,.45-1,1.32v2.36h-.58V38.67h.6l0,.52a1.45,1.45,0,0,1,1.25-.64,1.12,1.12,0,0,1,1.19.79l.06-.15A1.44,1.44,0,0,1,70,38.55c.87,0,1.29.52,1.29,1.49v2.7h-.6V40.21c0-.79-.24-1.15-.89-1.15a1.1,1.1,0,0,0-1,1.06v2.62h-.58Z"/><path class="cls-3" d="M72.69,43.14h.69c0,.51.59.67,1.06.67.73,0,1.13-.4,1.13-1.24l0-.39a1.56,1.56,0,0,1-1.32.68c-1.24,0-1.71-1-1.71-2.14s.5-2.17,1.72-2.17a1.49,1.49,0,0,1,1.3.62l0-.5h.58v4A1.53,1.53,0,0,1,74.4,44.3C73.45,44.3,72.79,44,72.69,43.14Zm2.9-2.36c0-.93-.32-1.71-1.28-1.71s-1.1.93-1.1,1.69.32,1.59,1.16,1.59S75.59,41.62,75.59,40.78Z"/><path class="cls-3" d="M79.93,43.69h-.67L82,36.14h.63Z"/><path class="cls-3" d="M86.45,36.73v3.49l1.77-1.55H89l-2,1.75,2.19,2.32h-.79l-1.93-2.08v2.08h-.58v-6Z"/><path class="cls-3" d="M89.73,43.14h.69c0,.51.58.67,1.06.67.73,0,1.13-.4,1.13-1.24l0-.39a1.56,1.56,0,0,1-1.32.68c-1.24,0-1.71-1-1.71-2.14s.5-2.17,1.72-2.17a1.49,1.49,0,0,1,1.3.62l0-.5h.58v4a1.53,1.53,0,0,1-1.74,1.63C90.49,44.3,89.83,44,89.73,43.14Zm2.9-2.36c0-.93-.32-1.71-1.28-1.71s-1.1.93-1.1,1.69.32,1.59,1.15,1.59S92.63,41.62,92.63,40.78Z"/><path class="cls-3" d="M103.38,42.8h-.58v-6h.58V39.3l2.38-2.47h.81l-2.66,2.69,2.92,3.28H106l-2.64-3Z"/><path class="cls-3" d="M107.37,38.27a1.72,1.72,0,0,1,1.86-1.64,2.28,2.28,0,0,1,1.17.28,1.34,1.34,0,0,1,.71,1.2h-.67c0-.68-.6-.92-1.18-.92a1.11,1.11,0,0,0-1.23,1c0,.83.69,1,1.6,1.34s1.58.57,1.59,1.61a1.58,1.58,0,0,1-.61,1.34,2.27,2.27,0,0,1-1.47.38c-1.22,0-1.92-.63-1.93-1.72h.69c0,.9.6,1.16,1.32,1.16a1.2,1.2,0,0,0,1.33-1.11c0-.73-.56-.89-1.63-1.28C108.13,39.65,107.37,39.29,107.37,38.27Z"/><path class="cls-3" d="M119.45,36.87a.16.16,0,0,1,.16-.11h.6c.1,0,.13,0,.13.15v5.83h-.59V38.23l0-.74-1.83,5.17a.12.12,0,0,1-.13.08h-.43a.11.11,0,0,1-.12-.08l-1.83-5.16,0,.73v4.51h-.59V36.91c0-.11,0-.15.13-.15h.6a.16.16,0,0,1,.16.11l1.55,4.27.3.8.3-.8Z"/><path class="cls-3" d="M127.74,39.75c0,1.49-.34,3.1-1.95,3.1s-1.88-1.61-1.88-3.1.31-3.13,1.88-3.13S127.74,38.24,127.74,39.75Zm-3.17,0c0,.87.09,2.54,1.22,2.54s1.29-1.67,1.29-2.54-.13-2.58-1.29-2.58S124.57,38.85,124.57,39.75Z"/><path class="cls-3" d="M132.33,39.75c0,1.49-.35,3.1-2,3.1s-1.89-1.61-1.89-3.1.31-3.13,1.89-3.13S132.33,38.24,132.33,39.75Zm-3.18,0c0,.87.09,2.54,1.23,2.54s1.28-1.67,1.28-2.54-.12-2.58-1.28-2.58S129.15,38.85,129.15,39.75Z"/><path class="cls-3" d="M134.81,39.94h-.32c-.12,0-.13,0-.13-.12v-.3c0-.13,0-.16.13-.16h.26c.66,0,1.25-.3,1.25-1a1,1,0,0,0-1.17-1,1.07,1.07,0,0,0-1.17,1.06H133a1.63,1.63,0,0,1,1.83-1.61c.95,0,1.78.47,1.78,1.57a1.4,1.4,0,0,1-1.18,1.38,1.47,1.47,0,0,1,1.31,1.48c0,1.18-1,1.68-2,1.68A1.68,1.68,0,0,1,133,41.11h.63a1.17,1.17,0,0,0,1.27,1.17,1.14,1.14,0,0,0,1.28-1.2C136.13,40.28,135.48,40,134.81,39.94Z"/><path class="cls-3" d="M137.67,42.1c.75-.72,2.83-2.79,2.83-3.79a1,1,0,0,0-1.08-1,1.06,1.06,0,0,0-1,1.16h-.66a1.65,1.65,0,0,1,1.72-1.71,1.53,1.53,0,0,1,1.73,1.55c0,1.35-1.92,3-2.77,3.87h2.9v.56h-3.51c-.1,0-.11,0-.11-.12Z"/><path class="cls-3" d="M162.83,39.75c0,1.49-.34,3.1-2,3.1S159,41.24,159,39.75s.32-3.13,1.89-3.13S162.83,38.24,162.83,39.75Zm-3.17,0c0,.87.08,2.54,1.22,2.54s1.29-1.67,1.29-2.54-.13-2.58-1.29-2.58S159.66,38.85,159.66,39.75Z"/><path class="cls-3" d="M164.74,42.88h-.82v-.82h.82Z"/><path class="cls-3" d="M168.47,42.7h-.63V37.55a4.68,4.68,0,0,1-1.25.84v-.6a4.08,4.08,0,0,0,1.27-.93h.46c.12,0,.15,0,.15.15Z"/><path class="cls-3" d="M193.77,39.39h6.5v.51h-2.93v.72h1.89c.13,0,.17,0,.17.17v1.26c0,.13,0,.17-.17.17h-3.89v.71h4.22v.49h-4.75c-.12,0-.16,0-.16-.17V41.93c0-.13,0-.17.16-.17h3.89v-.64h-4v-.5h2V39.9h-2.91Zm.86-2.94h.62v.67h3.54v-.67h.62v2.14c0,.12,0,.16-.17.16H194.8c-.13,0-.17,0-.17-.16Zm.62,1.82h3.54v-.68h-3.54Z"/><path class="cls-3" d="M204.45,36.72c.13,0,.17,0,.17.17-.18,1.75-1.31,2.88-3.19,3.51l-.42-.46a3.65,3.65,0,0,0,2.91-2.67h-2.49v-.55Zm2.14,4.06c.13,0,.17,0,.17.16v2.29c0,.13,0,.17-.17.17h-4.25c-.13,0-.17,0-.17-.17V40.94c0-.12,0-.16.17-.16Zm-3.78,2.1h3.31V41.3h-3.31Zm4-6.48v4h-.63V38.72h-1.48v-.56h1.48V36.4Z"/><path class="cls-3" d="M213.48,42.13c0,.13,0,.17-.16.17h-3.9v.64h4.24v.48h-4.74c-.13,0-.17,0-.17-.17V42c0-.13,0-.17.17-.17h3.91v-.64h-4.08v-.47h2V40h-2.9v-.48h6.48V40h-2.92v.71h1.88c.12,0,.16,0,.16.16Zm-4.84-4.84h5v.46h-2a1.63,1.63,0,0,0,.94.64,7.26,7.26,0,0,0,1.46.29c-.11.13-.27.33-.37.48a6.32,6.32,0,0,1-1.3-.32,2.36,2.36,0,0,1-1.17-.75,2.56,2.56,0,0,1-1,.69,7,7,0,0,1-1.45.38l-.39-.48a7,7,0,0,0,1.46-.29,1.64,1.64,0,0,0,.94-.64h-2Zm1.17-1h2.6v.47h-2.6Z"/><path class="cls-3" d="M28.4,68.74c-.12,0-.16,0-.16-.17V65.83h.62v2.33h.71a16.82,16.82,0,0,0,2.89-.26v.54a14.82,14.82,0,0,1-3,.3Zm.55.88h.62v.9h3.24v-.9h.62v2.85c0,.13,0,.17-.17.17H29.12c-.13,0-.17,0-.17-.17Zm.62,2.5h3.24V71.05H29.57Zm4.82-4.73h-1v1.86h-.63V65.63h.63v1.21h1Z"/><path class="cls-3" d="M13.29,74.88h.48a6,6,0,0,0,0,7.67h-.48a5.35,5.35,0,0,1,0-7.67Z"/><path class="cls-3" d="M16.39,79H15.14v2.53h-.62V75.73c0-.11,0-.15.14-.15h1.73c1.12,0,2,.55,2,1.72S17.51,79,16.39,79Zm-.11-2.89H15.13v2.33h1.15c.89,0,1.43-.34,1.43-1.16S17.17,76.13,16.28,76.13Z"/><path class="cls-3" d="M19.8,81.55h-.6a4.21,4.21,0,0,0,.05-.72V75.55h.58V78a1.51,1.51,0,0,1,1.29-.68c1.24,0,1.72,1,1.72,2.14s-.5,2.18-1.72,2.18a1.5,1.5,0,0,1-1.3-.62Zm0-2.11c0,.94.31,1.72,1.27,1.72s1.11-.94,1.11-1.7-.32-1.59-1.16-1.59S19.81,78.6,19.81,79.44Z"/><path class="cls-3" d="M27.36,77.43h-.82v-.82h.82Zm0,3.27h-.82v-.83h.82Z"/><path class="cls-3" d="M31.55,81.55c-.11,0-.14,0-.14-.15V75.58H32V81h2.83v.55Z"/><path class="cls-3" d="M39,79.66H36c0,.84.36,1.5,1.28,1.5a1.12,1.12,0,0,0,1.07-1h.66a1.74,1.74,0,0,1-1.88,1.48c-1.22,0-1.79-1-1.79-2.16a1.92,1.92,0,0,1,1.83-2.16c1.33,0,1.87.91,1.87,2.15C39.08,79.62,39.05,79.66,39,79.66Zm-.51-.51c0-.76-.45-1.28-1.22-1.28s-1.11.59-1.17,1.28Z"/><path class="cls-3" d="M42.47,78.74c0-.67-.39-.87-.92-.87s-.84.15-.9.72H40c0-.85.78-1.23,1.57-1.23s1.5.44,1.48,1.4v2.18a4,4,0,0,0,0,.61H42.5l0-.44a1.64,1.64,0,0,1-1.24.57,1.27,1.27,0,0,1-1.39-1.27,1.23,1.23,0,0,1,.82-1.18,4.55,4.55,0,0,1,1.81-.2Zm-1.15,2.42c1,0,1.17-.78,1.17-1.61-.61,0-2-.14-2,.87C40.49,81,40.87,81.16,41.32,81.16Z"/><path class="cls-3" d="M47.1,81.06a1.52,1.52,0,0,1-1.31.62c-1.21,0-1.71-1-1.71-2.18s.47-2.14,1.71-2.14a1.53,1.53,0,0,1,1.3.68V75.55h.57v5.28a4.21,4.21,0,0,0,.05.72h-.59Zm-2.37-1.6c0,.76.23,1.7,1.1,1.7s1.28-.78,1.28-1.72-.36-1.57-1.23-1.57S44.73,78.64,44.73,79.46Z"/><path class="cls-3" d="M48.74,82.55h-.48a6,6,0,0,0,0-7.67h.48a5.35,5.35,0,0,1,0,7.67Z"/><path class="cls-3" d="M68.14,74.22c0-.79-.25-1.15-.9-1.15s-1,.45-1,1.32v2.36h-.58V72.69h.6l0,.52a1.46,1.46,0,0,1,1.25-.65,1.12,1.12,0,0,1,1.19.79l.06-.14A1.45,1.45,0,0,1,70,72.56c.87,0,1.29.53,1.29,1.5v2.69h-.6V74.22c0-.79-.24-1.15-.89-1.15a1.1,1.1,0,0,0-1,1.07v2.61h-.58Z"/><path class="cls-3" d="M72.69,77.16h.69c0,.5.59.66,1.06.66.73,0,1.13-.4,1.13-1.24l0-.39a1.57,1.57,0,0,1-1.32.69c-1.24,0-1.71-1-1.71-2.14s.5-2.18,1.72-2.18a1.49,1.49,0,0,1,1.3.63l0-.5h.58v4a1.53,1.53,0,0,1-1.74,1.63C73.45,78.32,72.79,78,72.69,77.16Zm2.9-2.36c0-.94-.32-1.72-1.28-1.72s-1.1.94-1.1,1.7.32,1.59,1.16,1.59S75.59,75.64,75.59,74.8Z"/><path class="cls-3" d="M79.93,77.71h-.67L82,70.15h.63Z"/><path class="cls-3" d="M86.45,70.75v3.48l1.77-1.54H89l-2,1.75,2.19,2.31h-.79l-1.93-2.08v2.08h-.58v-6Z"/><path class="cls-3" d="M89.73,77.16h.69c0,.5.58.66,1.06.66.73,0,1.13-.4,1.13-1.24l0-.39a1.57,1.57,0,0,1-1.32.69c-1.24,0-1.71-1-1.71-2.14s.5-2.18,1.72-2.18a1.49,1.49,0,0,1,1.3.63l0-.5h.58v4a1.53,1.53,0,0,1-1.74,1.63C90.49,78.32,89.83,78,89.73,77.16Zm2.9-2.36c0-.94-.32-1.72-1.28-1.72s-1.1.94-1.1,1.7.32,1.59,1.15,1.59S92.63,75.64,92.63,74.8Z"/><path class="cls-3" d="M103.38,76.82h-.58v-6h.58v2.47l2.38-2.47h.81l-2.66,2.7,2.92,3.28H106l-2.64-3Z"/><path class="cls-3" d="M107.37,72.28a1.72,1.72,0,0,1,1.86-1.63,2.28,2.28,0,0,1,1.17.28,1.32,1.32,0,0,1,.71,1.2h-.67c0-.68-.6-.92-1.18-.92a1.11,1.11,0,0,0-1.23,1c0,.82.69,1,1.6,1.33s1.58.57,1.59,1.62a1.61,1.61,0,0,1-.61,1.34,2.27,2.27,0,0,1-1.47.38c-1.22,0-1.92-.63-1.93-1.73h.69c0,.91.6,1.17,1.32,1.17a1.21,1.21,0,0,0,1.33-1.11c0-.74-.56-.89-1.63-1.28C108.13,73.66,107.37,73.3,107.37,72.28Z"/><path class="cls-3" d="M119.45,70.88a.17.17,0,0,1,.16-.1h.6c.1,0,.13,0,.13.15v5.82h-.59V72.24l0-.73-1.83,5.16c0,.06,0,.08-.13.08h-.43c-.07,0-.1,0-.12-.08l-1.83-5.16,0,.74v4.5h-.59V70.93c0-.11,0-.15.13-.15h.6a.17.17,0,0,1,.16.1l1.55,4.27.3.81.3-.81Z"/><path class="cls-3" d="M127.74,73.76c0,1.5-.34,3.1-1.95,3.1s-1.88-1.6-1.88-3.1.31-3.13,1.88-3.13S127.74,72.26,127.74,73.76Zm-3.17,0c0,.88.09,2.54,1.22,2.54s1.29-1.66,1.29-2.54-.13-2.57-1.29-2.57S124.57,72.87,124.57,73.76Z"/><path class="cls-3" d="M132.33,73.76c0,1.5-.35,3.1-2,3.1s-1.89-1.6-1.89-3.1.31-3.13,1.89-3.13S132.33,72.26,132.33,73.76Zm-3.18,0c0,.88.09,2.54,1.23,2.54s1.28-1.66,1.28-2.54-.12-2.57-1.28-2.57S129.15,72.87,129.15,73.76Z"/><path class="cls-3" d="M134.81,74h-.32c-.12,0-.13,0-.13-.13v-.29c0-.13,0-.16.13-.16h.26c.66,0,1.25-.31,1.25-1a1,1,0,0,0-1.17-1,1.07,1.07,0,0,0-1.17,1.06H133a1.63,1.63,0,0,1,1.83-1.61c.95,0,1.78.47,1.78,1.57a1.41,1.41,0,0,1-1.18,1.38,1.45,1.45,0,0,1,1.31,1.48,1.72,1.72,0,0,1-2,1.68A1.68,1.68,0,0,1,133,75.13h.63a1.17,1.17,0,0,0,1.27,1.17,1.14,1.14,0,0,0,1.28-1.2C136.13,74.3,135.48,74,134.81,74Z"/><path class="cls-3" d="M137.67,76.11c.75-.71,2.83-2.78,2.83-3.78a1,1,0,0,0-1.08-1,1,1,0,0,0-1,1.15h-.66a1.64,1.64,0,0,1,1.72-1.7,1.53,1.53,0,0,1,1.73,1.54c0,1.35-1.92,3-2.77,3.88h2.9v.55h-3.51c-.1,0-.11,0-.11-.12Z"/><path class="cls-3" d="M162.83,73.76c0,1.5-.34,3.1-2,3.1s-1.89-1.6-1.89-3.1.32-3.13,1.89-3.13S162.83,72.26,162.83,73.76Zm-3.17,0c0,.88.08,2.54,1.22,2.54s1.29-1.66,1.29-2.54-.13-2.57-1.29-2.57S159.66,72.87,159.66,73.76Z"/><path class="cls-3" d="M164.74,76.9h-.82v-.83h.82Z"/><path class="cls-3" d="M168.47,76.71h-.63V71.56a4.47,4.47,0,0,1-1.25.85V71.8a3.93,3.93,0,0,0,1.27-.93h.46c.12,0,.15,0,.15.16Z"/><path class="cls-3" d="M193.77,73.4h6.5v.51h-2.93v.73h1.89c.13,0,.17,0,.17.17v1.25c0,.13,0,.17-.17.17h-3.89v.71h4.22v.49h-4.75c-.12,0-.16,0-.16-.17V75.94c0-.12,0-.16.16-.16h3.89v-.64h-4v-.5h2v-.73h-2.91Zm.86-2.93h.62v.67h3.54v-.67h.62V72.6c0,.13,0,.17-.17.17H194.8c-.13,0-.17,0-.17-.17Zm.62,1.81h3.54V71.6h-3.54Z"/><path class="cls-3" d="M204.45,70.74c.13,0,.17,0,.17.17-.18,1.75-1.31,2.87-3.19,3.51L201,74a3.65,3.65,0,0,0,2.91-2.67h-2.49v-.55Zm2.14,4.05c.13,0,.17,0,.17.17v2.29c0,.12,0,.16-.17.16h-4.25c-.13,0-.17,0-.17-.16V75c0-.13,0-.17.17-.17Zm-3.78,2.11h3.31V75.32h-3.31Zm4-6.49v4h-.63V72.74h-1.48v-.56h1.48V70.41Z"/><path class="cls-3" d="M213.48,76.14c0,.13,0,.17-.16.17h-3.9V77h4.24v.47h-4.74c-.13,0-.17,0-.17-.17V76c0-.13,0-.17.17-.17h3.91v-.64h-4.08v-.47h2V74h-2.9v-.48h6.48V74h-2.92v.71h1.88c.12,0,.16,0,.16.17Zm-4.84-4.83h5v.46h-2a1.63,1.63,0,0,0,.94.64,9,9,0,0,0,1.46.29c-.11.13-.27.33-.37.48a7,7,0,0,1-1.3-.32,2.5,2.5,0,0,1-1.17-.75,2.45,2.45,0,0,1-1,.68,6.47,6.47,0,0,1-1.45.39c-.12-.15-.26-.33-.39-.48a7,7,0,0,0,1.46-.3,1.63,1.63,0,0,0,.94-.63h-2Zm1.17-1h2.6v.46h-2.6Z"/><path class="cls-3" d="M22,102.52H21V102h1.23a5.77,5.77,0,0,0,1.2-.1,5.61,5.61,0,0,0,.28-1.33H21.25V100h3c.13,0,.17,0,.17.17a6.21,6.21,0,0,1-3,5l-.55-.41a5.51,5.51,0,0,0,2.38-2.4A6.07,6.07,0,0,1,22,102.52Zm5.34.42h-1v3.79h-.64v-7.1h.64v2.73h1Z"/><path class="cls-3" d="M34.23,105.74H27.72v-.54h6.51Zm-.8-5.73v.54h-4.2v2.39H33.5v.55H28.76c-.13,0-.16,0-.16-.16v-3.15c0-.13,0-.17.16-.17Z"/><path class="cls-3" d="M34.78,102.83h6.48v.54H39.51v1h.71c.13,0,.17,0,.17.16v2c0,.13,0,.17-.17.17H35.83c-.13,0-.17,0-.17-.17v-2c0-.12,0-.16.17-.16h.73v-1H34.78Zm1-.76c-.13,0-.16,0-.16-.17V100c0-.13,0-.17.16-.17h4.44c.13,0,.17,0,.17.17v1.9c0,.13,0,.17-.17.17Zm.45-.52h3.53v-1.2H36.25Zm0,4.56h3.49v-1.25H36.28Zm2.61-1.77v-1h-1.7v1Z"/><path class="cls-3" d="M4.46,108.89h.48a6,6,0,0,0,0,7.68H4.46a5.36,5.36,0,0,1,0-7.68Z"/><path class="cls-3" d="M9.2,111a1.22,1.22,0,0,0-1.35-1C6.47,110,6,111.36,6,112.58s.43,2.56,1.81,2.56a1.26,1.26,0,0,0,1.38-1.08h.68a1.9,1.9,0,0,1-2.06,1.63c-1.76,0-2.49-1.45-2.49-3.11s.74-3.11,2.49-3.11a1.81,1.81,0,0,1,2,1.56Z"/><path class="cls-3" d="M13.55,115.07a1.46,1.46,0,0,1-1.3.62c-1.21,0-1.72-1-1.72-2.17s.47-2.14,1.71-2.14a1.51,1.51,0,0,1,1.31.68v-2.5h.56v5.29a4.2,4.2,0,0,0,.06.72h-.59Zm-2.36-1.59c0,.76.23,1.7,1.09,1.7s1.28-.79,1.28-1.72-.35-1.57-1.22-1.57S11.19,112.66,11.19,113.48Z"/><path class="cls-3" d="M18.83,111.45H18v-.82h.83Zm0,3.26H18v-.82h.83Z"/><path class="cls-3" d="M26.39,111A1.22,1.22,0,0,0,25,110c-1.38,0-1.81,1.33-1.81,2.55s.43,2.56,1.81,2.56a1.26,1.26,0,0,0,1.38-1.08h.68A1.9,1.9,0,0,1,25,115.69c-1.76,0-2.48-1.45-2.48-3.11s.73-3.11,2.48-3.11a1.83,1.83,0,0,1,2,1.56Z"/><path class="cls-3" d="M30.39,112.75a.8.8,0,0,0-.92-.86c-.48,0-.84.14-.9.72h-.66c.05-.86.78-1.23,1.56-1.23s1.51.44,1.49,1.4V115a4,4,0,0,0,0,.62h-.58l0-.44a1.67,1.67,0,0,1-1.24.56,1.26,1.26,0,0,1-1.39-1.27,1.23,1.23,0,0,1,.82-1.17,4.55,4.55,0,0,1,1.81-.2Zm-1.15,2.43c1,0,1.17-.78,1.17-1.61-.61,0-2-.15-2,.86C28.41,115,28.79,115.18,29.24,115.18Z"/><path class="cls-3" d="M35,115.07a1.49,1.49,0,0,1-1.31.62c-1.21,0-1.71-1-1.71-2.17s.47-2.14,1.71-2.14a1.5,1.5,0,0,1,1.3.68v-2.5h.57v5.29a4.21,4.21,0,0,0,.05.72H35Zm-2.37-1.59c0,.76.23,1.7,1.1,1.7s1.28-.79,1.28-1.72-.36-1.57-1.23-1.57S32.65,112.66,32.65,113.48Z"/><path class="cls-3" d="M39.35,113c0-.79-.25-1.15-.9-1.15s-1.05.45-1.05,1.32v2.36h-.58v-4.06h.59V112a1.44,1.44,0,0,1,1.24-.65,1.11,1.11,0,0,1,1.19.79l.07-.14a1.45,1.45,0,0,1,1.25-.65c.87,0,1.3.52,1.3,1.49v2.7h-.6V113c0-.79-.24-1.15-.9-1.15a1.1,1.1,0,0,0-1,1.06v2.62h-.58Z"/><path class="cls-3" d="M44.68,109.61v.68H44v-.68ZM44,111.42h.61v4.15H44Z"/><path class="cls-3" d="M48.62,115.57v-.52a1.51,1.51,0,0,1-1.3.64c-.9,0-1.35-.52-1.35-1.49v-2.69h.62V114c0,.79.25,1.15.93,1.15a1.18,1.18,0,0,0,1.1-1.32v-2.35h.57v4.06Z"/><path class="cls-3" d="M53.05,113c0-.79-.25-1.15-.9-1.15s-1,.45-1,1.32v2.36h-.58v-4.06h.59V112a1.45,1.45,0,0,1,1.25-.65,1.12,1.12,0,0,1,1.19.79l.06-.14a1.45,1.45,0,0,1,1.26-.65c.87,0,1.29.52,1.29,1.49v2.7h-.6V113c0-.79-.24-1.15-.89-1.15a1.1,1.1,0,0,0-1,1.06v2.62h-.58Z"/><path class="cls-3" d="M57.57,116.57h-.48a6,6,0,0,0,0-7.68h.48a5.36,5.36,0,0,1,0,7.68Z"/><path class="cls-3" d="M68.14,108.24c0-.79-.25-1.15-.9-1.15s-1,.45-1,1.32v2.36h-.58v-4.06h.6l0,.52a1.46,1.46,0,0,1,1.25-.65,1.12,1.12,0,0,1,1.19.79l.06-.14a1.45,1.45,0,0,1,1.26-.65c.87,0,1.29.53,1.29,1.49v2.7h-.6v-2.53c0-.79-.24-1.15-.89-1.15a1.1,1.1,0,0,0-1,1.06v2.62h-.58Z"/><path class="cls-3" d="M72.69,111.17h.69c0,.51.59.67,1.06.67.73,0,1.13-.4,1.13-1.24l0-.39a1.57,1.57,0,0,1-1.32.69c-1.24,0-1.71-1-1.71-2.15s.5-2.17,1.72-2.17a1.51,1.51,0,0,1,1.3.62l0-.49h.58v4a1.53,1.53,0,0,1-1.74,1.63C73.45,112.33,72.79,112,72.69,111.17Zm2.9-2.35c0-.94-.32-1.72-1.28-1.72s-1.1.93-1.1,1.69.32,1.59,1.16,1.59S75.59,109.66,75.59,108.82Z"/><path class="cls-3" d="M79.93,111.73h-.67L82,104.17h.63Z"/><path class="cls-3" d="M86.45,104.76v3.49l1.77-1.54H89l-2,1.75,2.19,2.31h-.79l-1.93-2.08v2.08h-.58v-6Z"/><path class="cls-3" d="M89.73,111.17h.69c0,.51.58.67,1.06.67.73,0,1.13-.4,1.13-1.24l0-.39a1.57,1.57,0,0,1-1.32.69c-1.24,0-1.71-1-1.71-2.15s.5-2.17,1.72-2.17a1.51,1.51,0,0,1,1.3.62l0-.49h.58v4a1.53,1.53,0,0,1-1.74,1.63C90.49,112.33,89.83,112,89.73,111.17Zm2.9-2.35c0-.94-.32-1.72-1.28-1.72s-1.1.93-1.1,1.69.32,1.59,1.15,1.59S92.63,109.66,92.63,108.82Z"/><path class="cls-3" d="M103.38,110.83h-.58v-6h.58v2.47l2.38-2.47h.81l-2.66,2.69,2.92,3.28H106l-2.64-3Z"/><path class="cls-3" d="M107.37,106.3a1.72,1.72,0,0,1,1.86-1.63,2.18,2.18,0,0,1,1.17.28,1.32,1.32,0,0,1,.71,1.2h-.67c0-.68-.6-.92-1.18-.92a1.1,1.1,0,0,0-1.23,1c0,.82.69,1,1.6,1.33s1.58.57,1.59,1.62a1.57,1.57,0,0,1-.61,1.33,2.27,2.27,0,0,1-1.47.39c-1.22,0-1.92-.64-1.93-1.73h.69c0,.9.6,1.17,1.32,1.17a1.21,1.21,0,0,0,1.33-1.12c0-.73-.56-.88-1.63-1.28C108.13,107.68,107.37,107.32,107.37,106.3Z"/><path class="cls-3" d="M119.45,104.9a.16.16,0,0,1,.16-.11h.6c.1,0,.13,0,.13.16v5.82h-.59v-4.51l0-.74-1.83,5.17a.12.12,0,0,1-.13.08h-.43a.11.11,0,0,1-.12-.08l-1.83-5.16,0,.74v4.5h-.59V105c0-.12,0-.16.13-.16h.6a.16.16,0,0,1,.16.11l1.55,4.27.3.81.3-.81Z"/><path class="cls-3" d="M127.74,107.78c0,1.49-.34,3.1-1.95,3.1s-1.88-1.61-1.88-3.1.31-3.13,1.88-3.13S127.74,106.27,127.74,107.78Zm-3.17,0c0,.88.09,2.54,1.22,2.54s1.29-1.66,1.29-2.54-.13-2.58-1.29-2.58S124.57,106.88,124.57,107.78Z"/><path class="cls-3" d="M132.33,107.78c0,1.49-.35,3.1-2,3.1s-1.89-1.61-1.89-3.1.31-3.13,1.89-3.13S132.33,106.27,132.33,107.78Zm-3.18,0c0,.88.09,2.54,1.23,2.54s1.28-1.66,1.28-2.54-.12-2.58-1.28-2.58S129.15,106.88,129.15,107.78Z"/><path class="cls-3" d="M134.81,108h-.32c-.12,0-.13,0-.13-.13v-.3c0-.13,0-.16.13-.16h.26c.66,0,1.25-.3,1.25-1a1,1,0,0,0-1.17-1,1.07,1.07,0,0,0-1.17,1H133a1.63,1.63,0,0,1,1.83-1.61,1.57,1.57,0,0,1,1.78,1.57,1.4,1.4,0,0,1-1.18,1.38,1.47,1.47,0,0,1,1.31,1.48c0,1.18-1,1.68-2,1.68a1.68,1.68,0,0,1-1.87-1.72h.63a1.17,1.17,0,0,0,1.27,1.17,1.14,1.14,0,0,0,1.28-1.2C136.13,108.31,135.48,108,134.81,108Z"/><path class="cls-3" d="M137.67,110.13c.75-.71,2.83-2.79,2.83-3.78a1,1,0,0,0-1.08-1,1,1,0,0,0-1,1.15h-.66a1.65,1.65,0,0,1,1.72-1.71,1.53,1.53,0,0,1,1.73,1.55c0,1.35-1.92,3-2.77,3.88h2.9v.55h-3.51c-.1,0-.11,0-.11-.12Z"/><path class="cls-3" d="M162.83,107.78c0,1.49-.34,3.1-2,3.1s-1.89-1.61-1.89-3.1.32-3.13,1.89-3.13S162.83,106.27,162.83,107.78Zm-3.17,0c0,.88.08,2.54,1.22,2.54s1.29-1.66,1.29-2.54-.13-2.58-1.29-2.58S159.66,106.88,159.66,107.78Z"/><path class="cls-3" d="M164.74,110.91h-.82v-.82h.82Z"/><path class="cls-3" d="M168.47,110.73h-.63v-5.15a4.93,4.93,0,0,1-1.25.85v-.61a4.08,4.08,0,0,0,1.27-.93h.46c.12,0,.15,0,.15.15Z"/><path class="cls-3" d="M193.77,107.42h6.5v.51h-2.93v.73h1.89c.13,0,.17,0,.17.16v1.26c0,.13,0,.17-.17.17h-3.89V111h4.22v.49h-4.75c-.12,0-.16,0-.16-.17V110c0-.13,0-.17.16-.17h3.89v-.64h-4v-.49h2v-.73h-2.91Zm.86-2.94h.62v.67h3.54v-.67h.62v2.14c0,.13,0,.17-.17.17H194.8c-.13,0-.17,0-.17-.17Zm.62,1.82h3.54v-.68h-3.54Z"/><path class="cls-3" d="M204.45,104.75c.13,0,.17,0,.17.17-.18,1.75-1.31,2.88-3.19,3.51L201,108a3.68,3.68,0,0,0,2.91-2.67h-2.49v-.56Zm2.14,4.06c.13,0,.17,0,.17.17v2.28c0,.13,0,.17-.17.17h-4.25c-.13,0-.17,0-.17-.17V109c0-.13,0-.17.17-.17Zm-3.78,2.1h3.31v-1.57h-3.31Zm4-6.48v4h-.63v-1.67h-1.48v-.56h1.48v-1.76Z"/><path class="cls-3" d="M213.48,110.16c0,.13,0,.17-.16.17h-3.9V111h4.24v.47h-4.74c-.13,0-.17,0-.17-.17v-1.23c0-.13,0-.17.17-.17h3.91v-.64h-4.08v-.47h2v-.71h-2.9v-.48h6.48v.48h-2.92v.71h1.88c.12,0,.16,0,.16.17Zm-4.84-4.84h5v.47h-2a1.73,1.73,0,0,0,.94.64,8,8,0,0,0,1.46.28c-.11.13-.27.33-.37.48a6.32,6.32,0,0,1-1.3-.32,2.36,2.36,0,0,1-1.17-.75,2.47,2.47,0,0,1-1,.69,7,7,0,0,1-1.45.38l-.39-.48a7,7,0,0,0,1.46-.29,1.63,1.63,0,0,0,.94-.63h-2Zm1.17-1h2.6v.47h-2.6Z"/><path class="cls-3" d="M30.7,138.1H27.81v2.64h-.65V138.1H24.22v-.54H30.7Zm-6.18-1.81c1.72-.43,2.59-1.13,2.59-2.1v-.38h.7v.37c0,1.12,1.27,1.83,2.57,2.1l-.4.5a3.8,3.8,0,0,1-2.51-1.68A3.94,3.94,0,0,1,25,136.78Z"/><path class="cls-3" d="M37.75,137.86H31.27v-.53h6.48Zm-3.24-4.27c1.64,0,2.49.63,2.49,1.52s-.84,1.47-2.49,1.47S32,136,32,135.11,32.88,133.59,34.51,133.59Zm-2.21,7c-.13,0-.17,0-.17-.17v-1.9h.62V140h4.39v.54Zm2.21-6.48c-1.09,0-1.81.35-1.81,1s.69,1,1.81,1,1.81-.33,1.81-1S35.59,134.1,34.51,134.1Z"/><path class="cls-3" d="M6.77,142.91h.48a6,6,0,0,0,0,7.67H6.77a5.33,5.33,0,0,1,0-7.67Z"/><path class="cls-3" d="M8.6,149.58H8v-6H8.6v2.59h3v-2.59h.63v6h-.63v-2.82h-3Z"/><path class="cls-3" d="M13.55,150h.69c0,.5.58.66,1,.66.74,0,1.14-.4,1.14-1.24l0-.39a1.55,1.55,0,0,1-1.32.69c-1.24,0-1.71-1-1.71-2.14s.5-2.18,1.72-2.18a1.49,1.49,0,0,1,1.3.63l0-.5H17v4a1.53,1.53,0,0,1-1.75,1.63C14.3,151.15,13.65,150.81,13.55,150Zm2.9-2.36c0-.93-.32-1.72-1.28-1.72s-1.1.94-1.1,1.7.31,1.59,1.15,1.59S16.45,148.47,16.45,147.63Z"/><path class="cls-3" d="M21.72,145.46H20.9v-.82h.82Zm0,3.27H20.9v-.83h.82Z"/><path class="cls-3" d="M30.35,143.71a.17.17,0,0,1,.16-.1h.6c.1,0,.13,0,.13.15v5.82h-.59v-4.51l0-.73-1.83,5.16c0,.06-.05.08-.13.08h-.42c-.08,0-.11,0-.12-.08l-1.83-5.15v5.23h-.59v-5.82c0-.11,0-.15.14-.15h.59a.18.18,0,0,1,.17.1L28.2,148l.3.81.31-.81Z"/><path class="cls-3" d="M36,147.7H33.07c0,.84.37,1.49,1.29,1.49a1.1,1.1,0,0,0,1.06-1h.67a1.74,1.74,0,0,1-1.88,1.48c-1.23,0-1.79-1-1.79-2.16a1.91,1.91,0,0,1,1.83-2.16c1.32,0,1.87.91,1.87,2.15C36.12,147.66,36.09,147.7,36,147.7Zm-.5-.52a1.19,1.19,0,0,0-1.23-1.28,1.23,1.23,0,0,0-1.16,1.28Z"/><path class="cls-3" d="M37.83,147.22v2.36h-.6v-4.06h.62l0,.52a1.21,1.21,0,0,1,1.07-.65,1.43,1.43,0,0,1,.38,0v.63a1,1,0,0,0-.35-.05A1.08,1.08,0,0,0,37.83,147.22Z"/><path class="cls-3" d="M42.3,146.85a.91.91,0,0,0-1-.95c-.67,0-1.11.71-1.11,1.64s.44,1.65,1.11,1.65a.94.94,0,0,0,1-1H43a1.58,1.58,0,0,1-1.66,1.48c-1.22,0-1.81-1-1.81-2.16a1.93,1.93,0,0,1,1.85-2.16A1.51,1.51,0,0,1,43,146.85Z"/><path class="cls-3" d="M46.6,149.58v-.52a1.52,1.52,0,0,1-1.3.65c-.9,0-1.35-.53-1.35-1.49v-2.7h.62v2.53c0,.79.25,1.15.93,1.15a1.18,1.18,0,0,0,1.1-1.32v-2.36h.57v4.06Z"/><path class="cls-3" d="M49.09,147.22v2.36h-.6v-4.06h.61V146a1.2,1.2,0,0,1,1.07-.65,1.31,1.31,0,0,1,.37,0v.63a1,1,0,0,0-.35-.05A1.08,1.08,0,0,0,49.09,147.22Z"/><path class="cls-3" d="M50.74,145.51h.67l1.3,3.39L54,145.51h.66l-2.26,5.64h-.64l.62-1.6Z"/><path class="cls-3" d="M55.26,150.58h-.48a6,6,0,0,0,0-7.67h.48a5.35,5.35,0,0,1,0,7.67Z"/><path class="cls-3" d="M68.14,142.26c0-.8-.25-1.16-.9-1.16s-1,.45-1,1.32v2.36h-.58v-4.06h.6l0,.52a1.46,1.46,0,0,1,1.25-.65,1.12,1.12,0,0,1,1.19.79l.06-.14a1.45,1.45,0,0,1,1.26-.65c.87,0,1.29.53,1.29,1.5v2.69h-.6v-2.52c0-.8-.24-1.16-.89-1.16a1.1,1.1,0,0,0-1,1.07v2.61h-.58Z"/><path class="cls-3" d="M72.69,145.19h.69c0,.5.59.66,1.06.66.73,0,1.13-.4,1.13-1.24l0-.39a1.55,1.55,0,0,1-1.32.69c-1.24,0-1.71-1-1.71-2.14s.5-2.18,1.72-2.18a1.49,1.49,0,0,1,1.3.63l0-.5h.58v4a1.53,1.53,0,0,1-1.74,1.63C73.45,146.35,72.79,146,72.69,145.19Zm2.9-2.36c0-.93-.32-1.72-1.28-1.72s-1.1.94-1.1,1.7.32,1.59,1.16,1.59S75.59,143.67,75.59,142.83Z"/><path class="cls-3" d="M79.93,145.74h-.67L82,138.19h.63Z"/><path class="cls-3" d="M86.45,138.78v3.48l1.77-1.54H89l-2,1.75,2.19,2.31h-.79l-1.93-2.08v2.08h-.58v-6Z"/><path class="cls-3" d="M89.73,145.19h.69c0,.5.58.66,1.06.66.73,0,1.13-.4,1.13-1.24l0-.39a1.55,1.55,0,0,1-1.32.69c-1.24,0-1.71-1-1.71-2.14s.5-2.18,1.72-2.18a1.49,1.49,0,0,1,1.3.63l0-.5h.58v4a1.53,1.53,0,0,1-1.74,1.63C90.49,146.35,89.83,146,89.73,145.19Zm2.9-2.36c0-.93-.32-1.72-1.28-1.72s-1.1.94-1.1,1.7.32,1.59,1.15,1.59S92.63,143.67,92.63,142.83Z"/><path class="cls-3" d="M103.38,144.85h-.58v-6h.58v2.47l2.38-2.47h.81l-2.66,2.7,2.92,3.28H106l-2.64-3Z"/><path class="cls-3" d="M107.37,140.31a1.72,1.72,0,0,1,1.86-1.63,2.28,2.28,0,0,1,1.17.28,1.33,1.33,0,0,1,.71,1.2h-.67c0-.68-.6-.92-1.18-.92a1.11,1.11,0,0,0-1.23,1c0,.83.69,1,1.6,1.34s1.58.56,1.59,1.61a1.59,1.59,0,0,1-.61,1.34,2.27,2.27,0,0,1-1.47.38c-1.22,0-1.92-.63-1.93-1.73h.69c0,.91.6,1.17,1.32,1.17a1.21,1.21,0,0,0,1.33-1.11c0-.74-.56-.89-1.63-1.28C108.13,141.7,107.37,141.34,107.37,140.31Z"/><path class="cls-3" d="M119.45,138.91a.17.17,0,0,1,.16-.1h.6c.1,0,.13,0,.13.15v5.82h-.59v-4.51l0-.73-1.83,5.16c0,.06,0,.08-.13.08h-.43c-.07,0-.1,0-.12-.08l-1.83-5.15,0,.73v4.5h-.59V139c0-.11,0-.15.13-.15h.6a.17.17,0,0,1,.16.1l1.55,4.27.3.81.3-.81Z"/><path class="cls-3" d="M127.74,141.79c0,1.5-.34,3.1-1.95,3.1s-1.88-1.6-1.88-3.1.31-3.12,1.88-3.12S127.74,140.29,127.74,141.79Zm-3.17,0c0,.88.09,2.55,1.22,2.55s1.29-1.67,1.29-2.55-.13-2.57-1.29-2.57S124.57,140.9,124.57,141.79Z"/><path class="cls-3" d="M132.33,141.79c0,1.5-.35,3.1-2,3.1s-1.89-1.6-1.89-3.1.31-3.12,1.89-3.12S132.33,140.29,132.33,141.79Zm-3.18,0c0,.88.09,2.55,1.23,2.55s1.28-1.67,1.28-2.55-.12-2.57-1.28-2.57S129.15,140.9,129.15,141.79Z"/><path class="cls-3" d="M134.81,142h-.32c-.12,0-.13,0-.13-.13v-.29c0-.13,0-.16.13-.16h.26c.66,0,1.25-.31,1.25-1a1,1,0,0,0-1.17-1.05,1.07,1.07,0,0,0-1.17,1.06H133a1.63,1.63,0,0,1,1.83-1.61c.95,0,1.78.47,1.78,1.57a1.41,1.41,0,0,1-1.18,1.38,1.45,1.45,0,0,1,1.31,1.48c0,1.18-1,1.68-2,1.68a1.68,1.68,0,0,1-1.87-1.72h.63a1.17,1.17,0,0,0,1.27,1.17,1.14,1.14,0,0,0,1.28-1.2C136.13,142.33,135.48,142,134.81,142Z"/><path class="cls-3" d="M137.67,144.14c.75-.71,2.83-2.78,2.83-3.78a1,1,0,0,0-1.08-1,1.05,1.05,0,0,0-1,1.15h-.66a1.64,1.64,0,0,1,1.72-1.7,1.53,1.53,0,0,1,1.73,1.54c0,1.35-1.92,3-2.77,3.88h2.9v.55h-3.51c-.1,0-.11,0-.11-.12Z"/><path class="cls-3" d="M162.83,141.79c0,1.5-.34,3.1-2,3.1s-1.89-1.6-1.89-3.1.32-3.12,1.89-3.12S162.83,140.29,162.83,141.79Zm-3.17,0c0,.88.08,2.55,1.22,2.55s1.29-1.67,1.29-2.55-.13-2.57-1.29-2.57S159.66,140.9,159.66,141.79Z"/><path class="cls-3" d="M164.74,144.93h-.82v-.83h.82Z"/><path class="cls-3" d="M168.47,144.74h-.63v-5.15a4.47,4.47,0,0,1-1.25.85v-.61a3.9,3.9,0,0,0,1.27-.92h.46c.12,0,.15,0,.15.15Z"/><path class="cls-3" d="M193.77,141.43h6.5v.51h-2.93v.73h1.89c.13,0,.17,0,.17.17v1.26c0,.12,0,.16-.17.16h-3.89V145h4.22v.49h-4.75c-.12,0-.16,0-.16-.17V144c0-.13,0-.17.16-.17h3.89v-.64h-4v-.5h2v-.73h-2.91Zm.86-2.93h.62v.67h3.54v-.67h.62v2.13c0,.13,0,.17-.17.17H194.8c-.13,0-.17,0-.17-.17Zm.62,1.81h3.54v-.68h-3.54Z"/><path class="cls-3" d="M204.45,138.77c.13,0,.17,0,.17.17-.18,1.75-1.31,2.88-3.19,3.51L201,142a3.65,3.65,0,0,0,2.91-2.67h-2.49v-.55Zm2.14,4c.13,0,.17,0,.17.17v2.29c0,.13,0,.17-.17.17h-4.25c-.13,0-.17,0-.17-.17V143c0-.13,0-.17.17-.17Zm-3.78,2.11h3.31v-1.58h-3.31Zm4-6.49v4h-.63v-1.66h-1.48v-.56h1.48v-1.77Z"/><path class="cls-3" d="M213.48,144.17c0,.13,0,.17-.16.17h-3.9V145h4.24v.47h-4.74c-.13,0-.17,0-.17-.17v-1.23c0-.12,0-.16.17-.16h3.91v-.64h-4.08v-.48h2v-.71h-2.9v-.48h6.48v.48h-2.92v.71h1.88c.12,0,.16,0,.16.17Zm-4.84-4.83h5v.46h-2a1.63,1.63,0,0,0,.94.64,8,8,0,0,0,1.46.29c-.11.13-.27.33-.37.48a7,7,0,0,1-1.3-.32,2.5,2.5,0,0,1-1.17-.75,2.45,2.45,0,0,1-1,.68,6.47,6.47,0,0,1-1.45.39l-.39-.48a7,7,0,0,0,1.46-.3,1.63,1.63,0,0,0,.94-.63h-2Zm1.17-1h2.6v.46h-2.6Z"/><path class="cls-3" d="M29.77,167.91c.13,0,.17,0,.17.17a26.6,26.6,0,0,1-.38,3h1.15v.55h-3v3.14h-.64v-3.14H24.2v-.55h4.73a19.08,19.08,0,0,0,.34-2.6H25v-.55Z"/><path class="cls-3" d="M32,173c-.12,0-.16,0-.16-.17v-2.46c0-.13,0-.17.16-.17h2.39v-1.66H31.88V168h3c.13,0,.17,0,.17.17v2.41c0,.13,0,.17-.17.17H32.51v1.69h.77a15.7,15.7,0,0,0,2.87-.26v.56a17.88,17.88,0,0,1-3.08.27Zm5.1-5.35v7.08H36.5v-7.08Z"/><path class="cls-3" d="M8.77,176.92h.48a6,6,0,0,0,0,7.68H8.77a5.36,5.36,0,0,1,0-7.68Z"/><path class="cls-3" d="M13.51,179.06a1.22,1.22,0,0,0-1.35-1c-1.38,0-1.81,1.33-1.81,2.56s.43,2.55,1.81,2.55a1.26,1.26,0,0,0,1.38-1.08h.68a1.9,1.9,0,0,1-2.06,1.64c-1.76,0-2.48-1.46-2.48-3.11s.73-3.12,2.48-3.12a1.83,1.83,0,0,1,2,1.56Z"/><path class="cls-3" d="M17.91,183.6l0-.52a1.52,1.52,0,0,1-1.3.65c-.91,0-1.35-.53-1.35-1.5v-2.69h.61v2.52c0,.79.26,1.15.94,1.15a1.17,1.17,0,0,0,1.1-1.31v-2.36h.57v4.06Z"/><path class="cls-3" d="M23.29,179.48h-.82v-.82h.82Zm0,3.26h-.82v-.82h.82Z"/><path class="cls-3" d="M30.86,179.06a1.23,1.23,0,0,0-1.35-1c-1.39,0-1.82,1.33-1.82,2.56s.43,2.55,1.82,2.55a1.25,1.25,0,0,0,1.37-1.08h.68a1.9,1.9,0,0,1-2,1.64c-1.76,0-2.49-1.46-2.49-3.11s.73-3.12,2.49-3.12a1.81,1.81,0,0,1,2,1.56Z"/><path class="cls-3" d="M35.93,181.57a1.93,1.93,0,1,1-3.83,0,1.93,1.93,0,1,1,3.83,0ZM34,179.92c-.89,0-1.25.89-1.25,1.65s.36,1.64,1.25,1.64,1.27-.87,1.27-1.64S34.9,179.92,34,179.92Z"/><path class="cls-3" d="M36.84,185.17v-5.64h.59l0,.56a1.49,1.49,0,0,1,1.3-.68c1.24,0,1.72,1,1.72,2.14s-.51,2.18-1.73,2.18a1.48,1.48,0,0,1-1.3-.63l0,.57v1.5Zm.56-3.68c0,.93.31,1.72,1.27,1.72s1.1-.94,1.1-1.7-.32-1.59-1.16-1.59S37.4,180.65,37.4,181.49Z"/><path class="cls-3" d="M41.4,185.17v-5.64H42l0,.56a1.49,1.49,0,0,1,1.29-.68c1.24,0,1.72,1,1.72,2.14s-.5,2.18-1.72,2.18a1.48,1.48,0,0,1-1.3-.63l0,.57v1.5Zm.56-3.68c0,.93.31,1.72,1.27,1.72s1.11-.94,1.11-1.7-.32-1.59-1.16-1.59S42,180.65,42,181.49Z"/><path class="cls-3" d="M49.35,181.71H46.43c0,.84.37,1.5,1.29,1.5a1.12,1.12,0,0,0,1.07-1h.66a1.74,1.74,0,0,1-1.88,1.48c-1.22,0-1.79-1-1.79-2.16a1.92,1.92,0,0,1,1.83-2.16c1.33,0,1.87.9,1.87,2.15C49.48,181.67,49.45,181.71,49.35,181.71Zm-.51-.51c-.05-.76-.45-1.28-1.22-1.28s-1.11.59-1.17,1.28Z"/><path class="cls-3" d="M51.19,181.24v2.36H50.6v-4.06h.61l0,.52a1.22,1.22,0,0,1,1.08-.65,1.4,1.4,0,0,1,.37,0v.63a1,1,0,0,0-.35-.06A1.09,1.09,0,0,0,51.19,181.24Z"/><path class="cls-3" d="M53.26,184.6h-.48a6,6,0,0,0,0-7.68h.48a5.36,5.36,0,0,1,0,7.68Z"/><path class="cls-3" d="M68.14,176.27c0-.79-.25-1.15-.9-1.15s-1,.45-1,1.32v2.36h-.58v-4.06h.6l0,.52a1.46,1.46,0,0,1,1.25-.65,1.12,1.12,0,0,1,1.19.79l.06-.14a1.45,1.45,0,0,1,1.26-.65c.87,0,1.29.53,1.29,1.49v2.7h-.6v-2.53c0-.79-.24-1.15-.89-1.15a1.1,1.1,0,0,0-1,1.06v2.62h-.58Z"/><path class="cls-3" d="M72.69,179.21h.69c0,.5.59.66,1.06.66.73,0,1.13-.4,1.13-1.24l0-.39a1.57,1.57,0,0,1-1.32.69c-1.24,0-1.71-1-1.71-2.15s.5-2.17,1.72-2.17a1.51,1.51,0,0,1,1.3.62l0-.49h.58v4a1.53,1.53,0,0,1-1.74,1.64C73.45,180.37,72.79,180,72.69,179.21Zm2.9-2.36c0-.94-.32-1.72-1.28-1.72s-1.1.93-1.1,1.69.32,1.59,1.16,1.59S75.59,177.69,75.59,176.85Z"/><path class="cls-3" d="M79.93,179.76h-.67L82,172.2h.63Z"/><path class="cls-3" d="M86.45,172.79v3.49l1.77-1.54H89l-2,1.75,2.19,2.31h-.79l-1.93-2.08v2.08h-.58v-6Z"/><path class="cls-3" d="M89.73,179.21h.69c0,.5.58.66,1.06.66.73,0,1.13-.4,1.13-1.24l0-.39a1.57,1.57,0,0,1-1.32.69c-1.24,0-1.71-1-1.71-2.15s.5-2.17,1.72-2.17a1.51,1.51,0,0,1,1.3.62l0-.49h.58v4a1.53,1.53,0,0,1-1.74,1.64C90.49,180.37,89.83,180,89.73,179.21Zm2.9-2.36c0-.94-.32-1.72-1.28-1.72s-1.1.93-1.1,1.69.32,1.59,1.15,1.59S92.63,177.69,92.63,176.85Z"/><path class="cls-3" d="M103.38,178.86h-.58v-6h.58v2.47l2.38-2.47h.81l-2.66,2.69,2.92,3.28H106l-2.64-3Z"/><path class="cls-3" d="M107.37,174.33a1.72,1.72,0,0,1,1.86-1.63,2.28,2.28,0,0,1,1.17.28,1.32,1.32,0,0,1,.71,1.2h-.67c0-.68-.6-.92-1.18-.92a1.11,1.11,0,0,0-1.23,1c0,.82.69,1,1.6,1.33s1.58.57,1.59,1.62a1.57,1.57,0,0,1-.61,1.33,2.27,2.27,0,0,1-1.47.39c-1.22,0-1.92-.64-1.93-1.73h.69c0,.9.6,1.17,1.32,1.17a1.21,1.21,0,0,0,1.33-1.11c0-.74-.56-.89-1.63-1.28C108.13,175.71,107.37,175.35,107.37,174.33Z"/><path class="cls-3" d="M119.45,172.93a.17.17,0,0,1,.16-.1h.6c.1,0,.13,0,.13.15v5.82h-.59v-4.51l0-.74-1.83,5.17a.12.12,0,0,1-.13.08h-.43a.11.11,0,0,1-.12-.08l-1.83-5.16,0,.74v4.5h-.59V173c0-.11,0-.15.13-.15h.6a.17.17,0,0,1,.16.1l1.55,4.27.3.81.3-.81Z"/><path class="cls-3" d="M127.74,175.81c0,1.49-.34,3.1-1.95,3.1s-1.88-1.61-1.88-3.1.31-3.13,1.88-3.13S127.74,174.3,127.74,175.81Zm-3.17,0c0,.88.09,2.54,1.22,2.54s1.29-1.66,1.29-2.54-.13-2.58-1.29-2.58S124.57,174.91,124.57,175.81Z"/><path class="cls-3" d="M132.33,175.81c0,1.49-.35,3.1-2,3.1s-1.89-1.61-1.89-3.1.31-3.13,1.89-3.13S132.33,174.3,132.33,175.81Zm-3.18,0c0,.88.09,2.54,1.23,2.54s1.28-1.66,1.28-2.54-.12-2.58-1.28-2.58S129.15,174.91,129.15,175.81Z"/><path class="cls-3" d="M134.81,176h-.32c-.12,0-.13,0-.13-.13v-.3c0-.12,0-.16.13-.16h.26c.66,0,1.25-.3,1.25-1a1,1,0,0,0-1.17-1,1.07,1.07,0,0,0-1.17,1H133a1.62,1.62,0,0,1,1.83-1.6c.95,0,1.78.47,1.78,1.56a1.42,1.42,0,0,1-1.18,1.39,1.45,1.45,0,0,1,1.31,1.48c0,1.17-1,1.67-2,1.67a1.67,1.67,0,0,1-1.87-1.71h.63a1.17,1.17,0,0,0,1.27,1.16,1.14,1.14,0,0,0,1.28-1.2C136.13,176.34,135.48,176,134.81,176Z"/><path class="cls-3" d="M137.67,178.16c.75-.71,2.83-2.78,2.83-3.78a1,1,0,0,0-1.08-1,1,1,0,0,0-1,1.15h-.66a1.64,1.64,0,0,1,1.72-1.7,1.53,1.53,0,0,1,1.73,1.54c0,1.35-1.92,3-2.77,3.88h2.9v.55h-3.51c-.1,0-.11,0-.11-.12Z"/><path class="cls-3" d="M162.83,175.81c0,1.49-.34,3.1-2,3.1s-1.89-1.61-1.89-3.1.32-3.13,1.89-3.13S162.83,174.3,162.83,175.81Zm-3.17,0c0,.88.08,2.54,1.22,2.54s1.29-1.66,1.29-2.54-.13-2.58-1.29-2.58S159.66,174.91,159.66,175.81Z"/><path class="cls-3" d="M164.74,178.94h-.82v-.82h.82Z"/><path class="cls-3" d="M168.47,178.76h-.63v-5.15a4.93,4.93,0,0,1-1.25.85v-.61a4.08,4.08,0,0,0,1.27-.93h.46c.12,0,.15,0,.15.15Z"/><path class="cls-3" d="M193.77,175.45h6.5V176h-2.93v.73h1.89c.13,0,.17,0,.17.17v1.25c0,.13,0,.17-.17.17h-3.89V179h4.22v.49h-4.75c-.12,0-.16,0-.16-.17V178c0-.13,0-.17.16-.17h3.89v-.64h-4v-.49h2V176h-2.91Zm.86-2.94h.62v.68h3.54v-.68h.62v2.14c0,.13,0,.17-.17.17H194.8c-.13,0-.17,0-.17-.17Zm.62,1.82h3.54v-.68h-3.54Z"/><path class="cls-3" d="M204.45,172.79c.13,0,.17,0,.17.16-.18,1.75-1.31,2.88-3.19,3.51L201,176a3.68,3.68,0,0,0,2.91-2.67h-2.49v-.55Zm2.14,4.05c.13,0,.17,0,.17.17v2.28c0,.13,0,.17-.17.17h-4.25c-.13,0-.17,0-.17-.17V177c0-.13,0-.17.17-.17Zm-3.78,2.1h3.31v-1.57h-3.31Zm4-6.48v4h-.63v-1.67h-1.48v-.56h1.48v-1.76Z"/><path class="cls-3" d="M213.48,178.19c0,.13,0,.17-.16.17h-3.9V179h4.24v.47h-4.74c-.13,0-.17,0-.17-.17v-1.23c0-.13,0-.17.17-.17h3.91v-.64h-4.08v-.47h2v-.71h-2.9v-.48h6.48v.48h-2.92v.71h1.88c.12,0,.16,0,.16.17Zm-4.84-4.84h5v.47h-2a1.68,1.68,0,0,0,.94.64,8,8,0,0,0,1.46.28c-.11.13-.27.33-.37.48a6.32,6.32,0,0,1-1.3-.32,2.36,2.36,0,0,1-1.17-.75,2.47,2.47,0,0,1-1,.69,7,7,0,0,1-1.45.38l-.39-.48a7,7,0,0,0,1.46-.29,1.63,1.63,0,0,0,.94-.63h-2Zm1.17-1h2.6v.46h-2.6Z"/><path class="cls-3" d="M25,206.93c-.13,0-.17,0-.17-.17V202h.64v4.38h1.3a16.9,16.9,0,0,0,2.28-.28v.56a15.79,15.79,0,0,1-2.33.28Zm4.42-5.26h.63v7.1h-.63Z"/><path class="cls-3" d="M32.17,203.79h-.49v-.45h.91a5.23,5.23,0,0,0,1-.07,2.81,2.81,0,0,0,.22-.78h-2V202h2.49c.13,0,.17,0,.17.17a3.9,3.9,0,0,1-2.64,3.27l-.43-.4a3.76,3.76,0,0,0,1.9-1.33A5.45,5.45,0,0,1,32.17,203.79Zm.63,4.9c-.12,0-.16,0-.16-.16v-1.4c0-.12,0-.16.16-.16h3.82v-.71h-4v-.52h4.48c.13,0,.17,0,.17.16v1.39c0,.12,0,.16-.17.16H33.31v.73h4.15v.51Zm3.19-6.9v3.56h-.63v-1.49h-1v-.54h1v-1.53Zm1.32-.12v3.68H36.7v-3.68Z"/><path class="cls-3" d="M11.81,210.94h.48a6,6,0,0,0,0,7.67h-.48a5.35,5.35,0,0,1,0-7.67Z"/><path class="cls-3" d="M16.27,215.9l.45.88v-5.14h.61v5.82c0,.11,0,.15-.13.15h-.52a.19.19,0,0,1-.16-.1L14,213.35l-.46-.87,0,1v4.18H13v-5.82c0-.11,0-.15.14-.15h.51a.17.17,0,0,1,.16.11Z"/><path class="cls-3" d="M19.38,211.66v.68H18.7v-.68Zm-.65,1.8h.62v4.15h-.62Z"/><path class="cls-3" d="M24.12,213.5H23.3v-.83h.82Zm0,3.26H23.3v-.82h.82Z"/><path class="cls-3" d="M31.4,215.9l.46.88,0-1v-4.18h.62v5.82c0,.11,0,.15-.14.15h-.51a.18.18,0,0,1-.16-.1l-2.49-4.16-.45-.87v5.13h-.61v-5.82c0-.11,0-.15.13-.15h.51a.16.16,0,0,1,.16.11Z"/><path class="cls-3" d="M34.51,211.66v.68h-.67v-.68Zm-.64,1.8h.61v4.15h-.61Z"/><path class="cls-3" d="M38.27,214.88a.89.89,0,0,0-1-.94c-.67,0-1.11.7-1.11,1.64s.44,1.64,1.11,1.64a.94.94,0,0,0,1-1h.67a1.57,1.57,0,0,1-1.66,1.48c-1.22,0-1.8-1-1.8-2.16a1.93,1.93,0,0,1,1.84-2.16,1.51,1.51,0,0,1,1.61,1.46Z"/><path class="cls-3" d="M40.54,211.61v3.49l1.77-1.55h.81l-2,1.75,2.2,2.31h-.8l-1.93-2.07v2.07H40v-6Z"/><path class="cls-3" d="M47.19,215.73H44.28c0,.84.36,1.49,1.28,1.49a1.12,1.12,0,0,0,1.07-1h.66a1.74,1.74,0,0,1-1.88,1.48c-1.22,0-1.79-1-1.79-2.16a1.92,1.92,0,0,1,1.83-2.16c1.33,0,1.87.91,1.87,2.16C47.32,215.69,47.29,215.73,47.19,215.73Zm-.51-.51c0-.76-.45-1.28-1.22-1.28s-1.11.59-1.17,1.28Z"/><path class="cls-3" d="M49.08,217.61h-.62v-6h.62Z"/><path class="cls-3" d="M50.22,218.61h-.48a6,6,0,0,0,0-7.67h.48a5.35,5.35,0,0,1,0,7.67Z"/><path class="cls-3" d="M68.14,210.29c0-.79-.25-1.15-.9-1.15s-1,.44-1,1.32v2.35h-.58v-4.06h.6l0,.52a1.46,1.46,0,0,1,1.25-.65,1.13,1.13,0,0,1,1.19.8l.06-.15a1.45,1.45,0,0,1,1.26-.65c.87,0,1.29.53,1.29,1.5v2.69h-.6v-2.52c0-.79-.24-1.15-.89-1.15a1.1,1.1,0,0,0-1,1.06v2.61h-.58Z"/><path class="cls-3" d="M72.69,213.22h.69c0,.51.59.67,1.06.67.73,0,1.13-.4,1.13-1.24l0-.4a1.55,1.55,0,0,1-1.32.69c-1.24,0-1.71-1-1.71-2.14s.5-2.18,1.72-2.18a1.49,1.49,0,0,1,1.3.63l0-.5h.58v4a1.53,1.53,0,0,1-1.74,1.63C73.45,214.38,72.79,214,72.69,213.22Zm2.9-2.36c0-.93-.32-1.72-1.28-1.72s-1.1.94-1.1,1.7.32,1.59,1.16,1.59S75.59,211.7,75.59,210.86Z"/><path class="cls-3" d="M79.93,213.77h-.67L82,206.22h.63Z"/><path class="cls-3" d="M86.45,206.81v3.49l1.77-1.55H89l-2,1.75,2.19,2.31h-.79l-1.93-2.08v2.08h-.58v-6Z"/><path class="cls-3" d="M89.73,213.22h.69c0,.51.58.67,1.06.67.73,0,1.13-.4,1.13-1.24l0-.4a1.55,1.55,0,0,1-1.32.69c-1.24,0-1.71-1-1.71-2.14s.5-2.18,1.72-2.18a1.49,1.49,0,0,1,1.3.63l0-.5h.58v4a1.53,1.53,0,0,1-1.74,1.63C90.49,214.38,89.83,214,89.73,213.22Zm2.9-2.36c0-.93-.32-1.72-1.28-1.72s-1.1.94-1.1,1.7.32,1.59,1.15,1.59S92.63,211.7,92.63,210.86Z"/><path class="cls-3" d="M103.38,212.88h-.58v-6h.58v2.47l2.38-2.47h.81l-2.66,2.69,2.92,3.28H106l-2.64-3Z"/><path class="cls-3" d="M107.37,208.34a1.72,1.72,0,0,1,1.86-1.63,2.28,2.28,0,0,1,1.17.28,1.33,1.33,0,0,1,.71,1.2h-.67c0-.68-.6-.92-1.18-.92a1.11,1.11,0,0,0-1.23,1c0,.83.69,1,1.6,1.34s1.58.57,1.59,1.61a1.59,1.59,0,0,1-.61,1.34,2.27,2.27,0,0,1-1.47.38c-1.22,0-1.92-.63-1.93-1.73h.69c0,.91.6,1.17,1.32,1.17a1.21,1.21,0,0,0,1.33-1.11c0-.73-.56-.89-1.63-1.28C108.13,209.73,107.37,209.37,107.37,208.34Z"/><path class="cls-3" d="M119.45,207a.16.16,0,0,1,.16-.11h.6c.1,0,.13,0,.13.15v5.82h-.59V208.3l0-.73-1.83,5.16c0,.06,0,.08-.13.08h-.43c-.07,0-.1,0-.12-.08l-1.83-5.15,0,.73v4.5h-.59V207c0-.11,0-.15.13-.15h.6a.16.16,0,0,1,.16.11l1.55,4.26.3.81.3-.81Z"/><path class="cls-3" d="M127.74,209.82c0,1.5-.34,3.11-1.95,3.11s-1.88-1.61-1.88-3.11.31-3.12,1.88-3.12S127.74,208.32,127.74,209.82Zm-3.17,0c0,.88.09,2.55,1.22,2.55s1.29-1.67,1.29-2.55-.13-2.57-1.29-2.57S124.57,208.93,124.57,209.82Z"/><path class="cls-3" d="M132.33,209.82c0,1.5-.35,3.11-2,3.11s-1.89-1.61-1.89-3.11.31-3.12,1.89-3.12S132.33,208.32,132.33,209.82Zm-3.18,0c0,.88.09,2.55,1.23,2.55s1.28-1.67,1.28-2.55-.12-2.57-1.28-2.57S129.15,208.93,129.15,209.82Z"/><path class="cls-3" d="M134.81,210h-.32c-.12,0-.13,0-.13-.12v-.3c0-.13,0-.16.13-.16h.26c.66,0,1.25-.3,1.25-1a1,1,0,0,0-1.17-1.05,1.07,1.07,0,0,0-1.17,1.06H133a1.63,1.63,0,0,1,1.83-1.61c.95,0,1.78.47,1.78,1.57a1.4,1.4,0,0,1-1.18,1.38,1.47,1.47,0,0,1,1.31,1.48c0,1.18-1,1.68-2,1.68a1.68,1.68,0,0,1-1.87-1.72h.63a1.17,1.17,0,0,0,1.27,1.17,1.14,1.14,0,0,0,1.28-1.2C136.13,210.36,135.48,210.05,134.81,210Z"/><path class="cls-3" d="M137.67,212.17c.75-.71,2.83-2.78,2.83-3.78a1,1,0,0,0-1.08-1,1.05,1.05,0,0,0-1,1.15h-.66a1.64,1.64,0,0,1,1.72-1.7,1.53,1.53,0,0,1,1.73,1.54c0,1.36-1.92,3-2.77,3.88h2.9v.55h-3.51c-.1,0-.11,0-.11-.12Z"/><path class="cls-3" d="M162.83,209.82c0,1.5-.34,3.11-2,3.11s-1.89-1.61-1.89-3.11.32-3.12,1.89-3.12S162.83,208.32,162.83,209.82Zm-3.17,0c0,.88.08,2.55,1.22,2.55s1.29-1.67,1.29-2.55-.13-2.57-1.29-2.57S159.66,208.93,159.66,209.82Z"/><path class="cls-3" d="M164.74,213h-.82v-.83h.82Z"/><path class="cls-3" d="M168.47,212.77h-.63v-5.15a4.47,4.47,0,0,1-1.25.85v-.61a3.9,3.9,0,0,0,1.27-.92h.46c.12,0,.15,0,.15.15Z"/><path class="cls-3" d="M193.77,209.46h6.5V210h-2.93v.72h1.89c.13,0,.17,0,.17.17v1.26c0,.12,0,.16-.17.16h-3.89V213h4.22v.48h-4.75c-.12,0-.16,0-.16-.16V212c0-.13,0-.17.16-.17h3.89v-.64h-4v-.5h2V210h-2.91Zm.86-2.93h.62v.67h3.54v-.67h.62v2.13c0,.13,0,.17-.17.17H194.8c-.13,0-.17,0-.17-.17Zm.62,1.81h3.54v-.68h-3.54Z"/><path class="cls-3" d="M204.45,206.8c.13,0,.17,0,.17.17-.18,1.75-1.31,2.88-3.19,3.51L201,210a3.65,3.65,0,0,0,2.91-2.67h-2.49v-.55Zm2.14,4.06c.13,0,.17,0,.17.16v2.29c0,.13,0,.17-.17.17h-4.25c-.13,0-.17,0-.17-.17V211c0-.12,0-.16.17-.16Zm-3.78,2.1h3.31v-1.58h-3.31Zm4-6.49v4h-.63V208.8h-1.48v-.56h1.48v-1.77Z"/><path class="cls-3" d="M213.48,212.21c0,.12,0,.16-.16.16h-3.9V213h4.24v.47h-4.74c-.13,0-.17,0-.17-.16v-1.24c0-.12,0-.16.17-.16h3.91v-.64h-4.08v-.47h2v-.72h-2.9v-.48h6.48v.48h-2.92v.72h1.88c.12,0,.16,0,.16.16Zm-4.84-4.84h5v.46h-2a1.63,1.63,0,0,0,.94.64,8,8,0,0,0,1.46.29c-.11.13-.27.33-.37.48a6.32,6.32,0,0,1-1.3-.32,2.5,2.5,0,0,1-1.17-.75,2.56,2.56,0,0,1-1,.69,7,7,0,0,1-1.45.38l-.39-.48a7,7,0,0,0,1.46-.3,1.63,1.63,0,0,0,.94-.63h-2Zm1.17-1h2.6v.47h-2.6Z"/><path class="cls-3" d="M26.23,235.86c.95,0,1.75.85,1.75,2.69s-.79,2.7-1.75,2.7-1.76-.87-1.76-2.7S25.24,235.86,26.23,235.86Zm0,4.82c.77,0,1.12-1,1.12-2.13s-.34-2.13-1.12-2.13-1.13,1-1.13,2.13S25.46,240.68,26.23,240.68Zm4.62-2H29.8v4.07h-.63v-7.1h.63v2.45h1.05Z"/><path class="cls-3" d="M31.52,237.66a1.87,1.87,0,0,1,3.38-1.14h1.65v-.83h.63v5.2h-.63V238.7H35a1.82,1.82,0,0,1-1.58.86A1.85,1.85,0,0,1,31.52,237.66Zm3.08,0A1.22,1.22,0,1,0,33.39,239,1.22,1.22,0,0,0,34.6,237.66Zm-1.85,5c-.13,0-.17,0-.17-.17v-2.14h.65v1.77h4.14v.54Zm2.42-5.57a2,2,0,0,1,.09.6,2.08,2.08,0,0,1-.07.5h1.36v-1.1Z"/><path class="cls-3" d="M14.79,245h.48a6,6,0,0,0,0,7.68h-.48a5.34,5.34,0,0,1,0-7.68Z"/><path class="cls-3" d="M16.28,251.08h3.23v.55H15.67c-.11,0-.15,0-.15-.15v-.24a.48.48,0,0,1,.07-.23l2.72-4.28.34-.52h-3v-.55h3.63c.11,0,.15,0,.15.15v.24a.41.41,0,0,1-.07.22l-2.72,4.29Z"/><path class="cls-3" d="M20.92,247.57v.52a1.51,1.51,0,0,1,1.3-.65c.9,0,1.34.53,1.34,1.5v2.69h-.61V249.1c0-.79-.26-1.15-.94-1.15a1.18,1.18,0,0,0-1.09,1.32v2.36h-.58v-4.06Z"/><path class="cls-3" d="M28.35,247.51h-.82v-.82h.82Zm0,3.26h-.82V250h.82Z"/><path class="cls-3" d="M32.67,251.08h3.24v.55H32.06c-.11,0-.15,0-.15-.15v-.24A.48.48,0,0,1,32,251l2.72-4.28.34-.52H32v-.55h3.63c.11,0,.15,0,.15.15v.24a.41.41,0,0,1-.07.22L33,250.56Z"/><path class="cls-3" d="M37.43,245.67v.68h-.67v-.68Zm-.64,1.81h.61v4.15h-.61Z"/><path class="cls-3" d="M39.32,247.57l0,.52a1.52,1.52,0,0,1,1.3-.65c.91,0,1.35.53,1.35,1.5v2.69h-.62V249.1c0-.79-.26-1.15-.94-1.15a1.18,1.18,0,0,0-1.09,1.32v2.36h-.58v-4.06Z"/><path class="cls-3" d="M45.76,248.9a.91.91,0,0,0-1-1c-.67,0-1.11.71-1.11,1.64s.44,1.65,1.11,1.65a1,1,0,0,0,1-1h.67a1.58,1.58,0,0,1-1.66,1.48c-1.22,0-1.81-1-1.81-2.16a1.93,1.93,0,0,1,1.85-2.16,1.51,1.51,0,0,1,1.61,1.46Z"/><path class="cls-3" d="M47.24,252.63h-.48a6,6,0,0,0,0-7.68h.48a5.36,5.36,0,0,1,0,7.68Z"/><path class="cls-3" d="M68.14,244.3c0-.79-.25-1.15-.9-1.15s-1,.45-1,1.32v2.36h-.58v-4.06h.6l0,.52a1.46,1.46,0,0,1,1.25-.65,1.12,1.12,0,0,1,1.19.79l.06-.14a1.45,1.45,0,0,1,1.26-.65c.87,0,1.29.53,1.29,1.5v2.69h-.6V244.3c0-.79-.24-1.15-.89-1.15a1.1,1.1,0,0,0-1,1.06v2.62h-.58Z"/><path class="cls-3" d="M72.69,247.24h.69c0,.5.59.66,1.06.66.73,0,1.13-.4,1.13-1.24l0-.39a1.57,1.57,0,0,1-1.32.69c-1.24,0-1.71-1-1.71-2.15s.5-2.17,1.72-2.17a1.51,1.51,0,0,1,1.3.62l0-.49h.58v4a1.53,1.53,0,0,1-1.74,1.63C73.45,248.4,72.79,248.05,72.69,247.24Zm2.9-2.36c0-.94-.32-1.72-1.28-1.72s-1.1.94-1.1,1.69.32,1.6,1.16,1.6S75.59,245.72,75.59,244.88Z"/><path class="cls-3" d="M79.93,247.79h-.67L82,240.23h.63Z"/><path class="cls-3" d="M86.45,240.82v3.49l1.77-1.54H89l-2,1.75,2.19,2.31h-.79l-1.93-2.08v2.08h-.58v-6Z"/><path class="cls-3" d="M89.73,247.24h.69c0,.5.58.66,1.06.66.73,0,1.13-.4,1.13-1.24l0-.39a1.57,1.57,0,0,1-1.32.69c-1.24,0-1.71-1-1.71-2.15s.5-2.17,1.72-2.17a1.51,1.51,0,0,1,1.3.62l0-.49h.58v4a1.53,1.53,0,0,1-1.74,1.63C90.49,248.4,89.83,248.05,89.73,247.24Zm2.9-2.36c0-.94-.32-1.72-1.28-1.72s-1.1.94-1.1,1.69.32,1.6,1.15,1.6S92.63,245.72,92.63,244.88Z"/><path class="cls-3" d="M103.38,246.89h-.58v-6h.58v2.47l2.38-2.47h.81l-2.66,2.7,2.92,3.27H106l-2.64-3Z"/><path class="cls-3" d="M107.37,242.36a1.72,1.72,0,0,1,1.86-1.63,2.28,2.28,0,0,1,1.17.28,1.32,1.32,0,0,1,.71,1.2h-.67c0-.68-.6-.92-1.18-.92a1.11,1.11,0,0,0-1.23,1c0,.82.69,1,1.6,1.33s1.58.57,1.59,1.62a1.57,1.57,0,0,1-.61,1.33,2.22,2.22,0,0,1-1.47.39c-1.22,0-1.92-.63-1.93-1.73h.69c0,.9.6,1.17,1.32,1.17a1.21,1.21,0,0,0,1.33-1.11c0-.74-.56-.89-1.63-1.28C108.13,243.74,107.37,243.38,107.37,242.36Z"/><path class="cls-3" d="M119.45,241a.17.17,0,0,1,.16-.1h.6c.1,0,.13,0,.13.15v5.82h-.59v-4.51l0-.74-1.83,5.17c0,.06,0,.08-.13.08h-.43c-.07,0-.1,0-.12-.08l-1.83-5.16,0,.74v4.5h-.59V241c0-.11,0-.15.13-.15h.6a.17.17,0,0,1,.16.1l1.55,4.27.3.81.3-.81Z"/><path class="cls-3" d="M127.74,243.84c0,1.49-.34,3.1-1.95,3.1s-1.88-1.61-1.88-3.1.31-3.13,1.88-3.13S127.74,242.34,127.74,243.84Zm-3.17,0c0,.88.09,2.54,1.22,2.54s1.29-1.66,1.29-2.54-.13-2.58-1.29-2.58S124.57,242.94,124.57,243.84Z"/><path class="cls-3" d="M132.33,243.84c0,1.49-.35,3.1-2,3.1s-1.89-1.61-1.89-3.1.31-3.13,1.89-3.13S132.33,242.34,132.33,243.84Zm-3.18,0c0,.88.09,2.54,1.23,2.54s1.28-1.66,1.28-2.54-.12-2.58-1.28-2.58S129.15,242.94,129.15,243.84Z"/><path class="cls-3" d="M134.81,244h-.32c-.12,0-.13,0-.13-.13v-.29c0-.13,0-.16.13-.16h.26c.66,0,1.25-.31,1.25-1a1,1,0,0,0-1.17-1,1.07,1.07,0,0,0-1.17,1H133a1.62,1.62,0,0,1,1.83-1.6c.95,0,1.78.47,1.78,1.56a1.41,1.41,0,0,1-1.18,1.39,1.45,1.45,0,0,1,1.31,1.48,1.72,1.72,0,0,1-2,1.68,1.68,1.68,0,0,1-1.87-1.72h.63a1.16,1.16,0,0,0,1.27,1.16,1.14,1.14,0,0,0,1.28-1.2C136.13,244.38,135.48,244.06,134.81,244Z"/><path class="cls-3" d="M137.67,246.19c.75-.71,2.83-2.78,2.83-3.78a1,1,0,0,0-1.08-1,1,1,0,0,0-1,1.15h-.66a1.64,1.64,0,0,1,1.72-1.7,1.53,1.53,0,0,1,1.73,1.54c0,1.35-1.92,3-2.77,3.88h2.9v.55h-3.51c-.1,0-.11,0-.11-.12Z"/><path class="cls-3" d="M162.83,243.84c0,1.49-.34,3.1-2,3.1s-1.89-1.61-1.89-3.1.32-3.13,1.89-3.13S162.83,242.34,162.83,243.84Zm-3.17,0c0,.88.08,2.54,1.22,2.54s1.29-1.66,1.29-2.54-.13-2.58-1.29-2.58S159.66,242.94,159.66,243.84Z"/><path class="cls-3" d="M164.74,247h-.82v-.82h.82Z"/><path class="cls-3" d="M168.47,246.79h-.63v-5.15a4.93,4.93,0,0,1-1.25.85v-.61a4.08,4.08,0,0,0,1.27-.93h.46c.12,0,.15,0,.15.15Z"/><path class="cls-3" d="M193.77,243.48h6.5V244h-2.93v.73h1.89c.13,0,.17,0,.17.17v1.25c0,.13,0,.17-.17.17h-3.89V247h4.22v.49h-4.75c-.12,0-.16,0-.16-.17V246c0-.13,0-.17.16-.17h3.89v-.64h-4v-.49h2V244h-2.91Zm.86-2.93h.62v.67h3.54v-.67h.62v2.13c0,.13,0,.17-.17.17H194.8c-.13,0-.17,0-.17-.17Zm.62,1.81h3.54v-.68h-3.54Z"/><path class="cls-3" d="M204.45,240.82c.13,0,.17,0,.17.16-.18,1.76-1.31,2.88-3.19,3.51L201,244a3.66,3.66,0,0,0,2.91-2.67h-2.49v-.55Zm2.14,4.05c.13,0,.17,0,.17.17v2.29c0,.12,0,.16-.17.16h-4.25c-.13,0-.17,0-.17-.16V245c0-.13,0-.17.17-.17Zm-3.78,2.1h3.31V245.4h-3.31Zm4-6.48v4h-.63v-1.66h-1.48v-.56h1.48v-1.77Z"/><path class="cls-3" d="M213.48,246.22c0,.13,0,.17-.16.17h-3.9V247h4.24v.47h-4.74c-.13,0-.17,0-.17-.17v-1.23c0-.13,0-.17.17-.17h3.91v-.64h-4.08v-.47h2v-.71h-2.9v-.48h6.48v.48h-2.92v.71h1.88c.12,0,.16,0,.16.17Zm-4.84-4.84h5v.47h-2a1.68,1.68,0,0,0,.94.64,9,9,0,0,0,1.46.29,3.79,3.79,0,0,0-.37.48,7,7,0,0,1-1.3-.32,2.44,2.44,0,0,1-1.17-.76,2.47,2.47,0,0,1-1,.69,6.47,6.47,0,0,1-1.45.39l-.39-.48a7.68,7.68,0,0,0,1.46-.3,1.63,1.63,0,0,0,.94-.63h-2Zm1.17-1h2.6v.46h-2.6Z"/><path class="cls-3" d="M9.81,274.71v.52H5.68v1.23h4.2V277H7.74v1h2.92v.55H4.17V278H7.09v-1H5.21c-.13,0-.17,0-.17-.16v-1.95c0-.13,0-.17.17-.17ZM7.42,279c1.64,0,2.54.58,2.54,1.37s-.89,1.37-2.54,1.37-2.54-.58-2.54-1.37S5.78,279,7.42,279Zm0,2.25c1.08,0,1.84-.31,1.84-.89s-.76-.87-1.84-.87-1.85.31-1.85.87S6.31,281.24,7.42,281.24Z"/><path class="cls-3" d="M15.22,275.37H13.83v.33a2.19,2.19,0,0,0,.48,1.35,3,3,0,0,0,1.35.89,3.47,3.47,0,0,0-.42.47,5.11,5.11,0,0,1-1-.61,2.88,2.88,0,0,1-.76-.92,3,3,0,0,1-.66,1,4.87,4.87,0,0,1-1.09.76,5.52,5.52,0,0,0-.5-.42,3.63,3.63,0,0,0,1.46-1.1,2.37,2.37,0,0,0,.46-1.43v-.3H11.76v-.54h3.46Zm1.84,3.76c.13,0,.17,0,.17.17v2.34h-.62v-2H12.53v-.55Zm.18-.37h-.62v-2.1H15.14v-.56h1.48v-1.59h.62Z"/><path class="cls-3" d="M27.15,279.22h-2.9v2.37h-.64v-2.37H20.66v-.54h6.49Zm-5.63-4.56h.63v.91h3.5v-.91h.63v3c0,.12,0,.16-.17.16H21.69c-.13,0-.17,0-.17-.16Zm.63,2.59h3.5v-1.16h-3.5Z"/><path class="cls-3" d="M32,276.33h-4v-.55h4Zm-.25,2.26a1.76,1.76,0,0,1-3.52,0,1.76,1.76,0,0,1,3.52,0Zm-2.87,0a1.11,1.11,0,1,0,2.22,0,1.11,1.11,0,1,0-2.22,0Zm.07-4H31v.53H28.92Zm3.85,7v-7.09h.62v2.87h1.06V278H33.39v3.63Z"/><path class="cls-3" d="M37.93,279.77c-.13,0-.17,0-.17-.17v-4.78h.64v4.35h.44a14,14,0,0,0,1.75-.16v.57a13.59,13.59,0,0,1-2.2.19Zm3,1.48v-6.62h.62v2.42h1v-2.54h.61v7.09h-.61v-3.94h-1v3.59Z"/><path class="cls-3" d="M49.75,274.76c.13,0,.17,0,.17.17a26.6,26.6,0,0,1-.38,3H50.7v.55h-3v3.14h-.64v-3.14H44.19v-.55h4.72a19,19,0,0,0,.35-2.61H45v-.54Z"/><path class="cls-3" d="M53.77,275.37a2.56,2.56,0,0,0,1.86,2.37l-.41.49a3.86,3.86,0,0,1-1.78-1.57,3.45,3.45,0,0,1-1.76,1.77L51.2,278a2.84,2.84,0,0,0,1.91-2.56v-.76h.66Zm1.1,3.49c1.51,0,2.44.58,2.44,1.44s-.93,1.42-2.44,1.42-2.44-.55-2.44-1.43S53.37,278.86,54.87,278.86Zm0,2.35c1,0,1.78-.34,1.78-.9s-.74-.94-1.78-.94-1.78.34-1.78.92S53.83,281.21,54.87,281.21Zm.11-5.36h1.57v-1.34h.63v4.27h-.63v-2.39H55Z"/><path class="cls-3" d="M68.14,278.32c0-.79-.25-1.15-.9-1.15s-1,.45-1,1.32v2.36h-.58v-4.07h.6l0,.52a1.45,1.45,0,0,1,1.25-.64,1.12,1.12,0,0,1,1.19.79l.06-.15a1.44,1.44,0,0,1,1.26-.64c.87,0,1.29.52,1.29,1.49v2.7h-.6v-2.53c0-.79-.24-1.15-.89-1.15a1.1,1.1,0,0,0-1,1.06v2.62h-.58Z"/><path class="cls-3" d="M72.69,281.25h.69c0,.51.59.67,1.06.67.73,0,1.13-.4,1.13-1.24l0-.39a1.56,1.56,0,0,1-1.32.68c-1.24,0-1.71-1-1.71-2.14s.5-2.17,1.72-2.17a1.49,1.49,0,0,1,1.3.62l0-.5h.58v4a1.53,1.53,0,0,1-1.74,1.63C73.45,282.41,72.79,282.07,72.69,281.25Zm2.9-2.36c0-.93-.32-1.71-1.28-1.71s-1.1.93-1.1,1.69.32,1.59,1.16,1.59S75.59,279.73,75.59,278.89Z"/><path class="cls-3" d="M79.93,281.81h-.67L82,274.25h.63Z"/><path class="cls-3" d="M86.45,274.84v3.49l1.77-1.55H89l-2,1.75,2.19,2.32h-.79l-1.93-2.08v2.08h-.58v-6Z"/><path class="cls-3" d="M89.73,281.25h.69c0,.51.58.67,1.06.67.73,0,1.13-.4,1.13-1.24l0-.39a1.56,1.56,0,0,1-1.32.68c-1.24,0-1.71-1-1.71-2.14s.5-2.17,1.72-2.17a1.49,1.49,0,0,1,1.3.62l0-.5h.58v4a1.53,1.53,0,0,1-1.74,1.63C90.49,282.41,89.83,282.07,89.73,281.25Zm2.9-2.36c0-.93-.32-1.71-1.28-1.71s-1.1.93-1.1,1.69.32,1.59,1.15,1.59S92.63,279.73,92.63,278.89Z"/><path class="cls-3" d="M103.38,280.91h-.58v-6h.58v2.47l2.38-2.47h.81l-2.66,2.69,2.92,3.28H106l-2.64-3Z"/><path class="cls-3" d="M107.37,276.38a1.72,1.72,0,0,1,1.86-1.63,2.18,2.18,0,0,1,1.17.28,1.31,1.31,0,0,1,.71,1.19h-.67c0-.68-.6-.92-1.18-.92a1.11,1.11,0,0,0-1.23,1c0,.83.69,1,1.6,1.34s1.58.57,1.59,1.61a1.58,1.58,0,0,1-.61,1.34,2.27,2.27,0,0,1-1.47.38c-1.22,0-1.92-.63-1.93-1.72h.69c0,.9.6,1.16,1.32,1.16a1.2,1.2,0,0,0,1.33-1.11c0-.73-.56-.88-1.63-1.28C108.13,277.76,107.37,277.4,107.37,276.38Z"/><path class="cls-3" d="M119.45,275a.16.16,0,0,1,.16-.11h.6c.1,0,.13,0,.13.16v5.82h-.59v-4.51l0-.74-1.83,5.17a.12.12,0,0,1-.13.08h-.43a.11.11,0,0,1-.12-.08l-1.83-5.16,0,.73v4.51h-.59V275c0-.12,0-.16.13-.16h.6a.16.16,0,0,1,.16.11l1.55,4.27.3.8.3-.8Z"/><path class="cls-3" d="M127.74,277.86c0,1.49-.34,3.1-1.95,3.1s-1.88-1.61-1.88-3.1.31-3.13,1.88-3.13S127.74,276.35,127.74,277.86Zm-3.17,0c0,.87.09,2.54,1.22,2.54s1.29-1.67,1.29-2.54-.13-2.58-1.29-2.58S124.57,277,124.57,277.86Z"/><path class="cls-3" d="M132.33,277.86c0,1.49-.35,3.1-2,3.1s-1.89-1.61-1.89-3.1.31-3.13,1.89-3.13S132.33,276.35,132.33,277.86Zm-3.18,0c0,.87.09,2.54,1.23,2.54s1.28-1.67,1.28-2.54-.12-2.58-1.28-2.58S129.15,277,129.15,277.86Z"/><path class="cls-3" d="M134.81,278.06h-.32c-.12,0-.13,0-.13-.13v-.3c0-.13,0-.16.13-.16h.26c.66,0,1.25-.3,1.25-1a1,1,0,0,0-1.17-1.05,1.07,1.07,0,0,0-1.17,1.06H133a1.63,1.63,0,0,1,1.83-1.61c.95,0,1.78.47,1.78,1.57a1.4,1.4,0,0,1-1.18,1.38,1.47,1.47,0,0,1,1.31,1.48c0,1.18-1,1.68-2,1.68a1.68,1.68,0,0,1-1.87-1.72h.63a1.17,1.17,0,0,0,1.27,1.17,1.14,1.14,0,0,0,1.28-1.2C136.13,278.39,135.48,278.08,134.81,278.06Z"/><path class="cls-3" d="M137.67,280.21c.75-.72,2.83-2.79,2.83-3.79a1,1,0,0,0-1.08-1,1.06,1.06,0,0,0-1,1.16h-.66a1.65,1.65,0,0,1,1.72-1.71,1.53,1.53,0,0,1,1.73,1.55c0,1.35-1.92,3-2.77,3.87h2.9v.56h-3.51c-.1,0-.11,0-.11-.12Z"/><path class="cls-3" d="M162.83,277.86c0,1.49-.34,3.1-2,3.1s-1.89-1.61-1.89-3.1.32-3.13,1.89-3.13S162.83,276.35,162.83,277.86Zm-3.17,0c0,.87.08,2.54,1.22,2.54s1.29-1.67,1.29-2.54-.13-2.58-1.29-2.58S159.66,277,159.66,277.86Z"/><path class="cls-3" d="M164.74,281h-.82v-.82h.82Z"/><path class="cls-3" d="M168.47,280.81h-.63v-5.15a4.68,4.68,0,0,1-1.25.84v-.6a4.08,4.08,0,0,0,1.27-.93h.46c.12,0,.15,0,.15.15Z"/><path class="cls-3" d="M193.77,277.5h6.5V278h-2.93v.72h1.89c.13,0,.17,0,.17.17v1.26c0,.13,0,.17-.17.17h-3.89V281h4.22v.49h-4.75c-.12,0-.16,0-.16-.17V280c0-.13,0-.17.16-.17h3.89v-.64h-4v-.5h2V278h-2.91Zm.86-2.94h.62v.67h3.54v-.67h.62v2.14c0,.12,0,.16-.17.16H194.8c-.13,0-.17,0-.17-.16Zm.62,1.82h3.54v-.68h-3.54Z"/><path class="cls-3" d="M204.45,274.83c.13,0,.17,0,.17.17-.18,1.75-1.31,2.88-3.19,3.51l-.42-.45a3.67,3.67,0,0,0,2.91-2.68h-2.49v-.55Zm2.14,4.06c.13,0,.17,0,.17.16v2.29c0,.13,0,.17-.17.17h-4.25c-.13,0-.17,0-.17-.17v-2.29c0-.12,0-.16.17-.16Zm-3.78,2.1h3.31v-1.58h-3.31Zm4-6.48v4h-.63v-1.67h-1.48v-.56h1.48v-1.76Z"/><path class="cls-3" d="M213.48,280.24c0,.13,0,.17-.16.17h-3.9v.64h4.24v.48h-4.74c-.13,0-.17,0-.17-.17v-1.23c0-.13,0-.17.17-.17h3.91v-.64h-4.08v-.47h2v-.71h-2.9v-.48h6.48v.48h-2.92v.71h1.88c.12,0,.16,0,.16.16Zm-4.84-4.84h5v.46h-2a1.63,1.63,0,0,0,.94.64,7.26,7.26,0,0,0,1.46.29c-.11.13-.27.33-.37.48a6.32,6.32,0,0,1-1.3-.32,2.36,2.36,0,0,1-1.17-.75,2.56,2.56,0,0,1-1,.69,7,7,0,0,1-1.45.38l-.39-.48a7,7,0,0,0,1.46-.29,1.64,1.64,0,0,0,.94-.64h-2Zm1.17-1h2.6v.47h-2.6Z"/></g></g></svg>