<svg xmlns="http://www.w3.org/2000/svg" viewBox="0 0 462.05 204.8"><defs><style>.cls-1{fill:none;stroke:#3ab483;stroke-miterlimit:10;stroke-width:0.71px;}.cls-2{fill:#3ab483;}.cls-3{fill:#595757;}</style></defs><g id="레이어_2" data-name="레이어 2"><g id="레이어_1-2" data-name="레이어 1"><line class="cls-1" y1="0.35" x2="121.89" y2="0.35"/><line class="cls-1" x1="121.89" y1="0.35" x2="235.28" y2="0.35"/><line class="cls-1" x1="121.89" y1="22.68" x2="121.89" y2="0.71"/><line class="cls-1" x1="235.28" y1="0.35" x2="348.66" y2="0.35"/><line class="cls-1" x1="235.28" y1="22.68" x2="235.28" y2="0.71"/><line class="cls-1" x1="348.66" y1="0.35" x2="462.05" y2="0.35"/><line class="cls-1" x1="348.66" y1="22.68" x2="348.66" y2="0.71"/><line class="cls-1" y1="23.03" x2="121.89" y2="23.03"/><line class="cls-1" x1="121.89" y1="23.03" x2="235.28" y2="23.03"/><line class="cls-1" x1="121.89" y1="45.35" x2="121.89" y2="23.39"/><line class="cls-1" x1="235.28" y1="23.03" x2="348.66" y2="23.03"/><line class="cls-1" x1="235.28" y1="45.35" x2="235.28" y2="23.39"/><line class="cls-1" x1="348.66" y1="23.03" x2="462.05" y2="23.03"/><line class="cls-1" x1="348.66" y1="45.35" x2="348.66" y2="23.39"/><line class="cls-1" y1="45.71" x2="121.89" y2="45.71"/><line class="cls-1" x1="121.89" y1="45.71" x2="235.28" y2="45.71"/><line class="cls-1" x1="121.89" y1="68.03" x2="121.89" y2="46.06"/><line class="cls-1" x1="235.28" y1="45.71" x2="348.66" y2="45.71"/><line class="cls-1" x1="235.28" y1="68.03" x2="235.28" y2="46.06"/><line class="cls-1" x1="348.66" y1="45.71" x2="462.05" y2="45.71"/><line class="cls-1" x1="348.66" y1="68.03" x2="348.66" y2="46.06"/><line class="cls-1" y1="68.39" x2="121.89" y2="68.39"/><line class="cls-1" x1="121.89" y1="68.39" x2="235.28" y2="68.39"/><line class="cls-1" x1="121.89" y1="90.71" x2="121.89" y2="68.74"/><line class="cls-1" x1="235.28" y1="68.39" x2="348.66" y2="68.39"/><line class="cls-1" x1="235.28" y1="90.71" x2="235.28" y2="68.74"/><line class="cls-1" x1="348.66" y1="68.39" x2="462.05" y2="68.39"/><line class="cls-1" x1="348.66" y1="90.71" x2="348.66" y2="68.74"/><line class="cls-1" y1="91.06" x2="121.89" y2="91.06"/><line class="cls-1" x1="121.89" y1="91.06" x2="235.28" y2="91.06"/><line class="cls-1" x1="121.89" y1="113.39" x2="121.89" y2="91.42"/><line class="cls-1" x1="235.28" y1="91.06" x2="348.66" y2="91.06"/><line class="cls-1" x1="235.28" y1="113.39" x2="235.28" y2="91.42"/><line class="cls-1" x1="348.66" y1="91.06" x2="462.05" y2="91.06"/><line class="cls-1" x1="348.66" y1="113.39" x2="348.66" y2="91.42"/><line class="cls-1" y1="113.74" x2="121.89" y2="113.74"/><line class="cls-1" x1="121.89" y1="113.74" x2="235.28" y2="113.74"/><line class="cls-1" x1="121.89" y1="136.06" x2="121.89" y2="114.09"/><line class="cls-1" x1="235.28" y1="113.74" x2="348.66" y2="113.74"/><line class="cls-1" x1="235.28" y1="136.06" x2="235.28" y2="114.09"/><line class="cls-1" x1="348.66" y1="113.74" x2="462.05" y2="113.74"/><line class="cls-1" x1="348.66" y1="136.06" x2="348.66" y2="114.09"/><line class="cls-1" y1="136.42" x2="121.89" y2="136.42"/><line class="cls-1" x1="121.89" y1="136.42" x2="235.28" y2="136.42"/><line class="cls-1" x1="121.89" y1="158.74" x2="121.89" y2="136.77"/><line class="cls-1" x1="235.28" y1="136.42" x2="348.66" y2="136.42"/><line class="cls-1" x1="235.28" y1="158.74" x2="235.28" y2="136.77"/><line class="cls-1" x1="348.66" y1="136.42" x2="462.05" y2="136.42"/><line class="cls-1" x1="348.66" y1="158.74" x2="348.66" y2="136.77"/><line class="cls-1" y1="159.09" x2="121.89" y2="159.09"/><line class="cls-1" x1="121.89" y1="159.09" x2="235.28" y2="159.09"/><line class="cls-1" x1="121.89" y1="181.42" x2="121.89" y2="159.45"/><line class="cls-1" x1="235.28" y1="159.09" x2="348.66" y2="159.09"/><line class="cls-1" x1="235.28" y1="181.42" x2="235.28" y2="159.45"/><line class="cls-1" x1="348.66" y1="159.09" x2="462.05" y2="159.09"/><line class="cls-1" x1="348.66" y1="181.42" x2="348.66" y2="159.45"/><line class="cls-1" y1="181.77" x2="121.89" y2="181.77"/><line class="cls-1" x1="121.89" y1="181.77" x2="235.28" y2="181.77"/><line class="cls-1" x1="121.89" y1="204.09" x2="121.89" y2="182.13"/><line class="cls-1" x1="235.28" y1="181.77" x2="348.66" y2="181.77"/><line class="cls-1" x1="235.28" y1="204.09" x2="235.28" y2="182.13"/><line class="cls-1" x1="348.66" y1="181.77" x2="462.05" y2="181.77"/><line class="cls-1" x1="348.66" y1="204.09" x2="348.66" y2="182.13"/><line class="cls-1" y1="204.45" x2="121.89" y2="204.45"/><line class="cls-1" x1="121.89" y1="204.45" x2="235.28" y2="204.45"/><line class="cls-1" x1="235.28" y1="204.45" x2="348.66" y2="204.45"/><line class="cls-1" x1="348.66" y1="204.45" x2="462.05" y2="204.45"/><path class="cls-2" d="M51.73,13.68a4.9,4.9,0,0,1-1.59-1.87,4.79,4.79,0,0,1-1.59,2l-.72-.59a3.88,3.88,0,0,0,1.85-3.44V8.27h.91V9.86a3.61,3.61,0,0,0,1.77,3.21ZM53,15.16V8h.86v7.15Z"/><path class="cls-2" d="M54.64,9h4v.65h-4Zm.21,2.05c0-.63.64-1.12,1.79-1.12s1.79.49,1.79,1.12-.64,1.12-1.79,1.12S54.85,11.7,54.85,11.09ZM55.56,8H57.7v.66H55.56Zm4.57,4.7c.16,0,.21.05.21.22v2c0,.17-.05.22-.21.22H55.91c-.17,0-.22-.05-.22-.22v-2c0-.17.05-.22.22-.22Zm-4.39-1.59c0,.34.36.49.9.49s.9-.15.9-.49-.36-.52-.9-.52S55.74,10.76,55.74,11.09Zm3.72,3.27v-1h-2.9v1Zm-.91-4.15h.92V8h.87v4.38h-.87V11h-.92Z"/><path class="cls-2" d="M61,9.06h4v.67H61Zm.21,2c0-.62.64-1.12,1.79-1.12s1.79.5,1.79,1.12-.65,1.13-1.79,1.13S61.25,11.72,61.25,11.1Zm5.36,2.83c0,.79-.84,1.35-2.44,1.35s-2.44-.56-2.44-1.35.84-1.36,2.44-1.36S66.61,13.12,66.61,13.93ZM62,8H64.1v.67H62Zm.18,3.12c0,.35.36.5.9.5s.9-.15.9-.5-.36-.51-.9-.51S62.14,10.77,62.14,11.1Zm.52,2.83c0,.45.6.67,1.51.67s1.49-.21,1.49-.67-.57-.68-1.49-.68S62.66,13.47,62.66,13.93Zm4.61-3.3h-.82v1.89h-.86V8h.86V9.86h.82Z"/><path class="cls-2" d="M72.54,8.18c.16,0,.21.06.21.23v2.07c0,.17,0,.22-.21.22H70.8v.72h2.73v.79H67.2v-.79h2.71V10.7H68.17c-.16,0-.21,0-.21-.21V8.41c0-.17.06-.23.22-.23Zm0,4.63c.16,0,.22,0,.22.22V15.2h-.89V13.58H67.9v-.77ZM71.89,10v-1H68.82v1Z"/><path class="cls-2" d="M175.89,8.3v.76h-2.41v2h1a16.82,16.82,0,0,0,2.25-.25v.75a14.68,14.68,0,0,1-2.55.28h-1.3c-.16,0-.21-.06-.21-.22V8.52c0-.17.06-.22.22-.22ZM173.51,15c-.17,0-.21-.06-.21-.23V12.6h.89v1.66H178V15Zm5.17-4.51h-.89v2.67h-.87V8h.87V9.75h.89Z"/><path class="cls-2" d="M178.79,11.87h2a20.83,20.83,0,0,0,2.61-.18v.77a14.11,14.11,0,0,1-2,.16V15h-.86V12.64h-1.71Zm2.2-3.8a1.6,1.6,0,1,1-1.75,1.59A1.63,1.63,0,0,1,181,8.07Zm0,2.46a.88.88,0,1,0-.9-.87A.85.85,0,0,0,181,10.53ZM184.5,8v7.15h-.86V8Z"/><path class="cls-2" d="M285.93,8.3c.16,0,.22,0,.22.22-.18,1.51-1.1,2.65-3.08,3.3l-.53-.65c1.49-.39,2.35-1.09,2.59-2.12h-2.19V8.3Zm-2.08,6.82c-.16,0-.21-.06-.21-.23V13.46c0-.17.05-.22.21-.22h3.49v-.5h-3.7V12H288c.16,0,.22.05.22.22v1.39c0,.16-.06.22-.22.22h-3.48v.54h3.85v.71ZM288.27,8v3.75h-.86V11h-1.33v-.72h1.33V9.6h-1.2V8.88h1.2V8Z"/><path class="cls-2" d="M288.85,13h1.24V10.67H291V13c.52,0,1.83-.1,2.39-.19v.76a30.89,30.89,0,0,1-3.65.21h-.84Zm3.71-4.53c.16,0,.21.05.21.22a27.3,27.3,0,0,1-.28,3.52h-.89a22.65,22.65,0,0,0,.26-3H289.2V8.42Zm2.75,3.27h-.92v3.47h-.86V8h.86v2.89h.92Z"/><path class="cls-2" d="M295.65,9.42h3.74v.77H298v.3a3,3,0,0,0,1.63,2.59l-.6.62A4.06,4.06,0,0,1,297.54,12,4.61,4.61,0,0,1,296,13.87l-.7-.62a3.23,3.23,0,0,0,1.79-2.76v-.3h-1.4Zm.8-1.32h2.14v.74h-2.14ZM301.17,8v7.15h-.89V8Z"/><path class="cls-2" d="M396.31,13.68a4.79,4.79,0,0,1-1.58-1.87,4.79,4.79,0,0,1-1.59,2l-.73-.59a3.86,3.86,0,0,0,1.85-3.44V8.27h.92V9.86A3.61,3.61,0,0,0,397,13.07Zm1.25,1.48V8h.87v7.15Z"/><path class="cls-2" d="M399.23,9h4v.65h-4Zm.21,2.05c0-.63.64-1.12,1.79-1.12s1.79.49,1.79,1.12-.65,1.12-1.79,1.12S399.44,11.7,399.44,11.09ZM400.15,8h2.14v.66h-2.14Zm4.56,4.7c.16,0,.22.05.22.22v2c0,.17-.06.22-.22.22h-4.22c-.16,0-.21-.05-.21-.22v-2c0-.17.05-.22.21-.22Zm-4.38-1.59c0,.34.36.49.9.49s.9-.15.9-.49-.36-.52-.9-.52S400.33,10.76,400.33,11.09Zm3.72,3.27v-1h-2.9v1Zm-.91-4.15h.92V8h.87v4.38h-.87V11h-.92Z"/><path class="cls-2" d="M409,11.55c0,.17-.06.22-.22.22H406c-.16,0-.2,0-.2-.22V8.22h.86v1h1.56v-1H409Zm2.11,2.32c0,.93-1,1.42-2.44,1.42s-2.41-.5-2.41-1.42,1.06-1.43,2.42-1.43S411.13,13,411.13,13.87Zm-3-2.86V10h-1.56v1Zm-1,2.85c0,.43.63.73,1.5.73s1.5-.31,1.5-.73-.59-.71-1.5-.71S407.2,13.42,407.2,13.86ZM411,8V9.57h.89v.76H411v2.08h-.87V8Z"/><path class="cls-2" d="M412.27,8.22h.86v1h1.52v-1h.86V9.38h1.23V8h.86v3.9h-.86V10.14h-1.23v1.23c0,.17-.05.23-.21.23h-2.83c-.16,0-.2-.06-.2-.23Zm.69,3.95h.86v.72h2.92v-.72h.85v2.7c0,.17,0,.22-.21.22h-4.2c-.16,0-.22-.05-.22-.22Zm1.69-1.33v-.9h-1.52v.9Zm2.09,3.52v-.74h-2.92v.74Z"/><path class="cls-3" d="M37.58,32.72a1.87,1.87,0,1,1,1.86,1.9A1.84,1.84,0,0,1,37.58,32.72Zm3.07,0A1.22,1.22,0,1,0,39.44,34,1.21,1.21,0,0,0,40.65,32.72Zm-1.86,5c-.13,0-.17,0-.17-.17V35.35h.65v1.77h4.15v.55Zm3.81-1.74v-5.2h.63v5.2Z"/><path class="cls-3" d="M48.34,31.59h-1.4v.22A2.44,2.44,0,0,0,48.77,34l-.4.46A3.83,3.83,0,0,1,46.61,33a3.35,3.35,0,0,1-1.77,1.72l-.47-.43a2.72,2.72,0,0,0,1.91-2.48v-.21H44.87v-.54h3.47ZM45.48,36.5c0-.87,1-1.44,2.41-1.44s2.42.57,2.42,1.44-1,1.43-2.42,1.43S45.48,37.37,45.48,36.5Zm2.41.93c1,0,1.76-.36,1.76-.92s-.75-.93-1.76-.93-1.74.33-1.74.92S46.92,37.43,47.89,37.43Zm3.21-4.55h-1V35H49.5V30.73h.62v1.6h1Z"/><path class="cls-3" d="M55,31.05c.13,0,.17,0,.17.17a4.25,4.25,0,0,1-3.21,3.62l-.4-.46a3.79,3.79,0,0,0,2.91-2.77H51.92v-.56Zm-2.56,5.46c0-.87,1-1.44,2.41-1.44s2.42.57,2.42,1.44-1,1.43-2.42,1.43S52.42,37.38,52.42,36.51Zm2.41.93c1,0,1.76-.36,1.76-.93s-.74-.92-1.76-.92-1.74.33-1.74.92S53.86,37.44,54.83,37.44Zm2.26-6.71v1.72h1V33h-1v2h-.62V30.73Z"/><path class="cls-3" d="M64.15,31.11v.54H59.94V34h4.28v.54H62v1.82H65v.54H58.44v-.54h2.93V34.56H59.48c-.14,0-.17,0-.17-.16V31.28c0-.13,0-.17.17-.17Z"/><path class="cls-3" d="M67.37,30.39h.48a6,6,0,0,0,0,7.68h-.48a5.79,5.79,0,0,1-1.63-3.84A5.79,5.79,0,0,1,67.37,30.39Z"/><path class="cls-3" d="M68.57,31.13h3c.13,0,.19,0,.19.17a6.07,6.07,0,0,1-3,5l-.51-.44A5.09,5.09,0,0,0,71,31.68H68.57Zm6.12,3h-1v3.67H73V30.73h.64v2.84h1Z"/><path class="cls-3" d="M76.14,35.07c-.12,0-.16,0-.16-.17V33c0-.13,0-.17.16-.17H80V31.59H76v-.53h4.52c.12,0,.16,0,.16.17v1.91c0,.13,0,.17-.16.17H76.59v1.23h4.28v.53H78.65v1.32H81.6v.54H75.09v-.54H78V35.07Z"/><path class="cls-3" d="M82.39,38.07h-.48a6,6,0,0,0,0-7.68h.48A5.77,5.77,0,0,1,84,34.23,5.77,5.77,0,0,1,82.39,38.07Z"/><path class="cls-3" d="M168.66,35.36l.45.87V31.09h.61v5.82c0,.12,0,.16-.13.16h-.52a.18.18,0,0,1-.16-.11l-2.48-4.16-.46-.87,0,1v4.19h-.62V31.25c0-.12,0-.16.14-.16H166a.17.17,0,0,1,.16.11Z"/><path class="cls-3" d="M173.66,38H173l2.71-7.56h.63Z"/><path class="cls-3" d="M182,34.33a.9.9,0,0,0-1-.94c-.67,0-1.11.7-1.11,1.64s.44,1.64,1.11,1.64a.94.94,0,0,0,1-1h.67A1.57,1.57,0,0,1,181,37.19c-1.22,0-1.8-1-1.8-2.15a1.93,1.93,0,0,1,1.84-2.16,1.51,1.51,0,0,1,1.61,1.45Z"/><path class="cls-3" d="M186.18,34.54c0-.79-.24-1.15-.89-1.15s-1.06.45-1.06,1.32v2.36h-.57V33h.59l0,.52a1.46,1.46,0,0,1,1.25-.64,1.12,1.12,0,0,1,1.19.79l.07-.15a1.44,1.44,0,0,1,1.25-.64c.87,0,1.3.52,1.3,1.49v2.7h-.6V34.54c0-.79-.24-1.15-.9-1.15a1.1,1.1,0,0,0-1,1.06v2.62h-.59Z"/><path class="cls-3" d="M192.38,34.1h-1.95c-.08,0-.11,0-.11-.11v-.28c.41-.4,1.49-1.45,1.49-1.95a.43.43,0,0,0-.49-.49c-.29,0-.48.21-.48.6h-.49a1,1,0,0,1,1-1,.88.88,0,0,1,1,.86c0,.76-1,1.61-1.37,2h1.44Z"/><path class="cls-3" d="M284.94,34.28h-.32c-.12,0-.12,0-.12-.13v-.3c0-.13,0-.16.12-.16h.27c.65,0,1.25-.3,1.25-1a1,1,0,0,0-1.17-1,1.06,1.06,0,0,0-1.17,1h-.64A1.64,1.64,0,0,1,285,31.05a1.57,1.57,0,0,1,1.78,1.57A1.4,1.4,0,0,1,285.59,34a1.47,1.47,0,0,1,1.31,1.48c0,1.18-.94,1.68-1.94,1.68a1.69,1.69,0,0,1-1.88-1.72h.63A1.17,1.17,0,0,0,285,36.61a1.13,1.13,0,0,0,1.28-1.2C286.26,34.61,285.62,34.3,284.94,34.28Z"/><path class="cls-3" d="M290,31.21a.18.18,0,0,1,.16-.11h.55c.12,0,.15,0,.15.15v4h.87v.55h-.87V37h-.62V35.75h-2.49c-.11,0-.15,0-.15-.16v-.33a.41.41,0,0,1,.07-.22Zm.25,1.34,0-.74-2.07,3.39h2.05Z"/><path class="cls-3" d="M293.85,37h-.71l2.19-5.29h-2.94v-.55h3.46c.11,0,.15,0,.15.15v.31a.47.47,0,0,1-.07.22Z"/><path class="cls-3" d="M299.38,37h-.64V31.88a4.46,4.46,0,0,1-1.24.84v-.6a4.33,4.33,0,0,0,1.27-.93h.45c.12,0,.16,0,.16.15Z"/><path class="cls-3" d="M379.51,37.07c-.1,0-.14,0-.14-.16V31.25c0-.12,0-.16.14-.16h3.3v.56H380V33.7h2.8v.56H380v2.25h2.94v.56Z"/><path class="cls-3" d="M384.44,37.07c-.11,0-.14,0-.14-.16V31.09h.63v5.42h2.83v.56Z"/><path class="cls-3" d="M392.19,33.76v.56h-3.67v-.56Z"/><path class="cls-3" d="M394.53,37h-.72L396,31.74h-2.93v-.55h3.45c.12,0,.16,0,.16.15v.31a.63.63,0,0,1-.07.22Z"/><path class="cls-3" d="M397.65,36.43c.75-.71,2.83-2.79,2.83-3.79a1,1,0,0,0-1.08-1,1,1,0,0,0-1,1.15h-.66a1.65,1.65,0,0,1,1.72-1.71,1.53,1.53,0,0,1,1.73,1.55c0,1.35-1.92,3-2.77,3.87h2.9V37h-3.51c-.1,0-.11,0-.11-.12Z"/><path class="cls-3" d="M404.41,31.21a.17.17,0,0,1,.16-.11h.55c.12,0,.15,0,.15.15v4h.87v.55h-.87V37h-.62V35.75h-2.49c-.11,0-.15,0-.15-.16v-.33a.41.41,0,0,1,.07-.22Zm.25,1.34,0-.74-2.07,3.39h2.05Z"/><path class="cls-3" d="M410.54,33h-.82v-.83h.82Zm0,3.26h-.82v-.82h.82Z"/><path class="cls-3" d="M414.2,36.43c.75-.71,2.84-2.79,2.84-3.79a1,1,0,0,0-1.09-1,1,1,0,0,0-1.05,1.15h-.65A1.64,1.64,0,0,1,416,31.05a1.53,1.53,0,0,1,1.72,1.55c0,1.35-1.92,3-2.76,3.87h2.89V37h-3.51c-.1,0-.11,0-.11-.12Z"/><path class="cls-3" d="M422.61,34.08c0,1.49-.34,3.1-1.95,3.1s-1.89-1.61-1.89-3.1.32-3.13,1.89-3.13S422.61,32.57,422.61,34.08Zm-3.17,0c0,.88.09,2.54,1.22,2.54S422,35,422,34.08s-.13-2.58-1.29-2.58S419.44,33.18,419.44,34.08Z"/><path class="cls-3" d="M425.77,37h-.63V31.88a4.68,4.68,0,0,1-1.25.84v-.6a4.24,4.24,0,0,0,1.28-.93h.45c.12,0,.15,0,.15.15Z"/><path class="cls-3" d="M429.91,31.06a1.62,1.62,0,0,1,1.72,1.52H431a1,1,0,0,0-1.08-1c-1.13,0-1.45,1.57-1.46,2.64a1.52,1.52,0,0,1,1.54-1,1.73,1.73,0,0,1,1.72,2,1.85,1.85,0,0,1-3.59.74,4.8,4.8,0,0,1-.22-1.64C427.91,32.16,428.76,31.06,429.91,31.06Zm-1.3,4c0,.86.49,1.53,1.22,1.53a1.48,1.48,0,1,0-1.22-1.53Z"/><path class="cls-3" d="M37.58,55.4a1.87,1.87,0,1,1,3.73,0,1.87,1.87,0,1,1-3.73,0Zm3.07,0a1.22,1.22,0,1,0-1.21,1.32A1.21,1.21,0,0,0,40.65,55.4Zm-1.86,4.94c-.13,0-.17,0-.17-.16V58h.65V59.8h4.15v.54Zm3.81-1.73V53.4h.63v5.21Z"/><path class="cls-3" d="M48.34,54.27h-1.4v.22a2.42,2.42,0,0,0,1.83,2.22l-.4.47a3.83,3.83,0,0,1-1.76-1.51,3.33,3.33,0,0,1-1.77,1.71L44.37,57a2.72,2.72,0,0,0,1.91-2.49v-.2H44.87v-.54h3.47Zm-2.86,4.91c0-.88,1-1.44,2.41-1.44s2.42.56,2.42,1.44-1,1.43-2.42,1.43S45.48,60.05,45.48,59.18Zm2.41.93c1,0,1.76-.36,1.76-.93s-.75-.92-1.76-.92-1.74.33-1.74.92S46.92,60.11,47.89,60.11Zm3.21-4.55h-1v2.15H49.5V53.4h.62V55h1Z"/><path class="cls-3" d="M55,53.73c.13,0,.17,0,.17.17a4.23,4.23,0,0,1-3.21,3.61l-.4-.45a3.81,3.81,0,0,0,2.91-2.78H51.92v-.55Zm-2.56,5.45c0-.87,1-1.44,2.41-1.44s2.42.57,2.42,1.44-1,1.43-2.42,1.43S52.42,60.05,52.42,59.18Zm2.41.94c1,0,1.76-.36,1.76-.93s-.74-.93-1.76-.93-1.74.34-1.74.92S53.86,60.12,54.83,60.12Zm2.26-6.72v1.73h1v.54h-1v1.95h-.62V53.4Z"/><path class="cls-3" d="M64.15,53.79v.54H59.94V56.7h4.28v.53H62v1.83H65v.54H58.44v-.54h2.93V57.23H59.48c-.14,0-.17,0-.17-.16V54c0-.12,0-.16.17-.16Z"/><path class="cls-3" d="M67.37,53.07h.48a6,6,0,0,0,0,7.67h-.48a5.33,5.33,0,0,1,0-7.67Z"/><path class="cls-3" d="M70.21,55a3.72,3.72,0,0,0,1.49,3.36l-.47.43a3.65,3.65,0,0,1-1.36-2,4.21,4.21,0,0,1-1.47,2.25l-.56-.41a4.16,4.16,0,0,0,1.72-3.76V53.71h.65Zm2,5.13v-4H70.94v-.6h1.22v-2h.61v6.63Zm1.39.34V53.4h.61v7.09Z"/><path class="cls-3" d="M76.14,57.74c-.12,0-.16,0-.16-.16V55.63c0-.13,0-.17.16-.17H80V54.27H76v-.53h4.52c.12,0,.16,0,.16.17v1.91c0,.13,0,.17-.16.17H76.59v1.23h4.28v.52H78.65v1.32H81.6v.55H75.09v-.55H78V57.74Z"/><path class="cls-3" d="M82.39,60.74h-.48a6,6,0,0,0,0-7.67h.48a5.35,5.35,0,0,1,0,7.67Z"/><path class="cls-3" d="M168.66,58l.45.87V53.77h.61v5.82c0,.11,0,.15-.13.15h-.52a.19.19,0,0,1-.16-.1l-2.48-4.16-.46-.87,0,1v4.18h-.62V53.92c0-.11,0-.15.14-.15H166a.18.18,0,0,1,.16.1Z"/><path class="cls-3" d="M173.66,60.7H173l2.71-7.55h.63Z"/><path class="cls-3" d="M182,57a.89.89,0,0,0-1-.94c-.67,0-1.11.7-1.11,1.63s.44,1.65,1.11,1.65a.94.94,0,0,0,1-1h.67A1.57,1.57,0,0,1,181,59.87c-1.22,0-1.8-1-1.8-2.16a1.93,1.93,0,0,1,1.84-2.16A1.51,1.51,0,0,1,182.68,57Z"/><path class="cls-3" d="M186.18,57.22c0-.79-.24-1.15-.89-1.15s-1.06.44-1.06,1.31v2.36h-.57V55.68h.59l0,.52a1.47,1.47,0,0,1,1.25-.65,1.13,1.13,0,0,1,1.19.79l.07-.14a1.45,1.45,0,0,1,1.25-.65c.87,0,1.3.53,1.3,1.5v2.69h-.6V57.22c0-.79-.24-1.15-.9-1.15a1.1,1.1,0,0,0-1,1.06v2.61h-.59Z"/><path class="cls-3" d="M192.38,56.78h-1.95c-.08,0-.11,0-.11-.11v-.28c.41-.4,1.49-1.45,1.49-2a.43.43,0,0,0-.49-.48c-.29,0-.48.2-.48.6h-.49a1,1,0,0,1,1-1,.88.88,0,0,1,1,.86c0,.75-1,1.61-1.37,2h1.44Z"/><path class="cls-3" d="M283.54,57.27c-.1,0-.11,0-.11-.12l.09-3.13c0-.12,0-.15.13-.15h3v.54h-2.55l-.12,2a1.58,1.58,0,0,1,1.3-.53c.92,0,1.68.65,1.68,2a1.83,1.83,0,0,1-1.85,2,1.66,1.66,0,0,1-1.84-1.56h.63a1.18,1.18,0,0,0,1.24,1c.67,0,1.18-.56,1.18-1.45s-.5-1.47-1.18-1.47a1.1,1.1,0,0,0-1.1.76c0,.08,0,.13-.16.13Z"/><path class="cls-3" d="M287.8,59.1c.75-.71,2.84-2.78,2.84-3.78a1,1,0,0,0-1.09-1,1.06,1.06,0,0,0-1.05,1.15h-.65a1.63,1.63,0,0,1,1.72-1.7,1.53,1.53,0,0,1,1.72,1.54c0,1.36-1.91,3-2.76,3.88h2.89v.55h-3.51c-.09,0-.11,0-.11-.12Z"/><path class="cls-3" d="M292.7,57.27c-.09,0-.1,0-.1-.12l.09-3.13c0-.12,0-.15.13-.15h3v.54H293.3l-.11,2a1.58,1.58,0,0,1,1.3-.53c.92,0,1.68.65,1.68,2a1.83,1.83,0,0,1-1.85,2,1.66,1.66,0,0,1-1.84-1.56h.63a1.17,1.17,0,0,0,1.23,1c.68,0,1.19-.56,1.19-1.45s-.5-1.47-1.18-1.47a1.08,1.08,0,0,0-1.1.76c0,.08,0,.13-.16.13Z"/><path class="cls-3" d="M299.38,59.7h-.64V54.55a4.26,4.26,0,0,1-1.24.85v-.61a4.12,4.12,0,0,0,1.27-.92h.45c.12,0,.16,0,.16.15Z"/><path class="cls-3" d="M379.51,59.74c-.1,0-.14,0-.14-.15V53.92c0-.11,0-.15.14-.15h3.3v.55H380v2.06h2.8v.56H380v2.25h2.94v.55Z"/><path class="cls-3" d="M384.44,59.74c-.11,0-.14,0-.14-.15V53.77h.63v5.42h2.83v.55Z"/><path class="cls-3" d="M392.19,56.44V57h-3.67v-.56Z"/><path class="cls-3" d="M394.53,59.7h-.72L396,54.42h-2.93v-.55h3.45c.12,0,.16,0,.16.15v.3a.62.62,0,0,1-.07.23Z"/><path class="cls-3" d="M397.65,59.1c.75-.71,2.83-2.78,2.83-3.78a1,1,0,0,0-1.08-1,1.05,1.05,0,0,0-1,1.15h-.66a1.64,1.64,0,0,1,1.72-1.7,1.53,1.53,0,0,1,1.73,1.54c0,1.36-1.92,3-2.77,3.88h2.9v.55h-3.51c-.1,0-.11,0-.11-.12Z"/><path class="cls-3" d="M404.41,53.88a.18.18,0,0,1,.16-.1h.55c.12,0,.15,0,.15.15v3.94h.87v.55h-.87V59.7h-.62V58.42h-2.49c-.11,0-.15,0-.15-.15v-.33a.48.48,0,0,1,.07-.23Zm.25,1.35,0-.74-2.07,3.38h2.05Z"/><path class="cls-3" d="M410.54,55.63h-.82V54.8h.82Zm0,3.26h-.82v-.83h.82Z"/><path class="cls-3" d="M414.2,59.1c.75-.71,2.84-2.78,2.84-3.78a1,1,0,0,0-1.09-1,1.05,1.05,0,0,0-1.05,1.15h-.65a1.63,1.63,0,0,1,1.72-1.7,1.53,1.53,0,0,1,1.72,1.54c0,1.36-1.92,3-2.76,3.88h2.89v.55h-3.51c-.1,0-.11,0-.11-.12Z"/><path class="cls-3" d="M422.61,56.75c0,1.5-.34,3.11-1.95,3.11s-1.89-1.61-1.89-3.11.32-3.12,1.89-3.12S422.61,55.25,422.61,56.75Zm-3.17,0c0,.88.09,2.55,1.22,2.55S422,57.63,422,56.75s-.13-2.57-1.29-2.57S419.44,55.86,419.44,56.75Z"/><path class="cls-3" d="M425.77,59.7h-.63V54.55a4.47,4.47,0,0,1-1.25.85v-.61a4,4,0,0,0,1.28-.92h.45c.12,0,.15,0,.15.15Z"/><path class="cls-3" d="M429.91,53.74a1.62,1.62,0,0,1,1.72,1.52H431a1,1,0,0,0-1.08-1c-1.13,0-1.45,1.58-1.46,2.65a1.51,1.51,0,0,1,1.54-1,1.72,1.72,0,0,1,1.72,2,1.85,1.85,0,0,1-3.59.75,4.84,4.84,0,0,1-.22-1.64C427.91,54.83,428.76,53.74,429.91,53.74Zm-1.3,4c0,.86.49,1.52,1.22,1.52a1.47,1.47,0,0,0,0-2.9A1.3,1.3,0,0,0,428.61,57.78Z"/><path class="cls-3" d="M44.81,80A3.88,3.88,0,0,1,43,78.37a3.69,3.69,0,0,1-1.77,1.86l-.49-.44a3,3,0,0,0,1.92-2.65v-.88h.66v.83a2.72,2.72,0,0,0,1.86,2.44Zm-2.46,3c-.13,0-.17,0-.17-.17V80.76h.64v1.72H47V83Zm3.79-1.74v-5.2h.62v5.2Z"/><path class="cls-3" d="M51.87,76.94h-1.4v.23a2.42,2.42,0,0,0,1.83,2.22l-.4.46a3.77,3.77,0,0,1-1.76-1.51,3.31,3.31,0,0,1-1.77,1.72l-.47-.42a2.74,2.74,0,0,0,1.91-2.49v-.21H48.4v-.53h3.47ZM49,81.85c0-.87,1-1.44,2.4-1.44s2.43.57,2.43,1.44-1,1.43-2.43,1.43S49,82.72,49,81.85Zm2.4.94c1,0,1.76-.36,1.76-.93s-.74-.93-1.76-.93-1.73.34-1.73.92S50.45,82.79,51.41,82.79Zm3.22-4.55h-1v2.15H53V76.08h.61v1.61h1Z"/><path class="cls-3" d="M61.42,79.8H59.68v.67h.69c.13,0,.17,0,.17.17v1.2c0,.12,0,.16-.17.16h-3.9v.64h4.25v.46H56c-.13,0-.17,0-.17-.17V81.72c0-.12,0-.16.17-.16h3.9v-.63H55.8v-.46h.91V79.8H54.94v-.47h6.48ZM56,78.8c-.13,0-.17,0-.17-.17V77.46c0-.13,0-.16.17-.16h3.86v-.6h-4v-.47h4.54c.13,0,.17,0,.17.17v1.17c0,.12,0,.16-.17.16H56.47v.61h4.19v.46Zm3.08,1.67V79.8H57.33v.67Z"/><path class="cls-3" d="M63.85,75.74h.48a6,6,0,0,0,0,7.68h-.48a5.34,5.34,0,0,1,0-7.68Z"/><path class="cls-3" d="M65.05,76.49h3c.13,0,.19,0,.19.17a6.06,6.06,0,0,1-3,5l-.51-.44A5.07,5.07,0,0,0,67.49,77H65.05Zm6.12,3h-1v3.67h-.64V76.08h.64v2.85h1Z"/><path class="cls-3" d="M72.62,80.42c-.12,0-.16,0-.16-.17v-2c0-.13,0-.17.16-.17H76.5V76.94H72.44v-.52H77c.12,0,.16,0,.16.16v1.91c0,.13,0,.17-.16.17H73.07v1.23h4.28v.53H75.13v1.32h3v.54H71.57v-.54h2.92V80.42Z"/><path class="cls-3" d="M78.87,83.42h-.48a6,6,0,0,0,0-7.68h.48a5.36,5.36,0,0,1,0,7.68Z"/><path class="cls-3" d="M178.05,78.05c0,.83-.44,1.57-1.28,1.57s-1.28-.74-1.28-1.57.44-1.57,1.28-1.57S178.05,77.23,178.05,78.05Zm-2,0c0,.54.15,1.12.7,1.12s.73-.58.73-1.12-.19-1.14-.73-1.14S176.06,77.52,176.06,78.06Zm3.73-1.68h.59l-3.16,6h-.59Zm1.74,4.47c0,.83-.45,1.58-1.29,1.58S179,81.68,179,80.85s.44-1.56,1.28-1.56A1.39,1.39,0,0,1,181.53,80.85Zm-2,0c0,.54.16,1.12.7,1.12s.72-.58.72-1.12-.18-1.13-.72-1.13S179.54,80.32,179.54,80.86Z"/><path class="cls-3" d="M287.69,76.56a.18.18,0,0,1,.16-.1h.55c.12,0,.15,0,.15.15v3.94h.87v.55h-.87v1.28h-.63V81.1h-2.48c-.12,0-.16,0-.16-.15v-.34a.42.42,0,0,1,.08-.22Zm.25,1.34,0-.73-2.07,3.38h2.05Z"/><path class="cls-3" d="M292.28,76.56a.17.17,0,0,1,.16-.1H293c.12,0,.15,0,.15.15v3.94H294v.55h-.87v1.28h-.62V81.1H290c-.11,0-.15,0-.15-.15v-.34a.41.41,0,0,1,.07-.22Zm.24,1.34,0-.73-2.06,3.38h2Z"/><path class="cls-3" d="M295,80c-.1,0-.11,0-.11-.12L295,76.7c0-.12,0-.16.13-.16h3v.55H295.6l-.12,2a1.6,1.6,0,0,1,1.3-.52c.92,0,1.68.64,1.68,2a1.84,1.84,0,0,1-1.85,2A1.67,1.67,0,0,1,294.77,81h.63a1.18,1.18,0,0,0,1.24,1c.67,0,1.18-.56,1.18-1.45s-.5-1.48-1.18-1.48a1.1,1.1,0,0,0-1.1.76c0,.09,0,.14-.16.14Z"/><path class="cls-3" d="M379.51,82.42c-.1,0-.14,0-.14-.15V76.6c0-.11,0-.15.14-.15h3.3V77H380v2h2.8v.56H380v2.26h2.94v.55Z"/><path class="cls-3" d="M384.44,82.42c-.11,0-.14,0-.14-.15V76.45h.63v5.42h2.83v.55Z"/><path class="cls-3" d="M392.19,79.12v.56h-3.67v-.56Z"/><path class="cls-3" d="M394.53,82.38h-.72L396,77.09h-2.93v-.55h3.45c.12,0,.16,0,.16.16V77a.52.52,0,0,1-.07.22Z"/><path class="cls-3" d="M397.65,81.78c.75-.71,2.83-2.78,2.83-3.78a1,1,0,0,0-1.08-1,1,1,0,0,0-1,1.15h-.66a1.64,1.64,0,0,1,1.72-1.7A1.53,1.53,0,0,1,401.14,78c0,1.35-1.92,3-2.77,3.88h2.9v.55h-3.51c-.1,0-.11,0-.11-.12Z"/><path class="cls-3" d="M404.41,76.56a.18.18,0,0,1,.16-.1h.55c.12,0,.15,0,.15.15v3.94h.87v.55h-.87v1.28h-.62V81.1h-2.49c-.11,0-.15,0-.15-.15v-.34a.41.41,0,0,1,.07-.22Zm.25,1.34,0-.73-2.07,3.38h2.05Z"/><path class="cls-3" d="M410.54,78.3h-.82v-.82h.82Zm0,3.26h-.82v-.82h.82Z"/><path class="cls-3" d="M414.2,81.78C415,81.07,417,79,417,78A1,1,0,0,0,416,77a1,1,0,0,0-1.05,1.15h-.65a1.63,1.63,0,0,1,1.72-1.7A1.53,1.53,0,0,1,417.69,78c0,1.35-1.92,3-2.76,3.88h2.89v.55h-3.51c-.1,0-.11,0-.11-.12Z"/><path class="cls-3" d="M422.61,79.43c0,1.5-.34,3.1-1.95,3.1s-1.89-1.6-1.89-3.1.32-3.13,1.89-3.13S422.61,77.93,422.61,79.43Zm-3.17,0c0,.88.09,2.54,1.22,2.54S422,80.31,422,79.43s-.13-2.57-1.29-2.57S419.44,78.53,419.44,79.43Z"/><path class="cls-3" d="M425.77,82.38h-.63V77.23a4.93,4.93,0,0,1-1.25.85v-.61a4.08,4.08,0,0,0,1.28-.93h.45c.12,0,.15,0,.15.16Z"/><path class="cls-3" d="M429.91,76.42a1.62,1.62,0,0,1,1.72,1.51H431a1,1,0,0,0-1.08-1c-1.13,0-1.45,1.58-1.46,2.65a1.52,1.52,0,0,1,1.54-1,1.73,1.73,0,0,1,1.72,2,1.85,1.85,0,0,1-3.59.74,4.78,4.78,0,0,1-.22-1.63C427.91,77.51,428.76,76.42,429.91,76.42Zm-1.3,4c0,.87.49,1.53,1.22,1.53a1.47,1.47,0,0,0,0-2.9A1.3,1.3,0,0,0,428.61,80.45Z"/><path class="cls-3" d="M44.81,102.7A3.93,3.93,0,0,1,43,101.05a3.73,3.73,0,0,1-1.77,1.86l-.49-.44a3,3,0,0,0,1.92-2.65v-.89h.66v.83a2.7,2.7,0,0,0,1.86,2.44Zm-2.46,3c-.13,0-.17,0-.17-.17v-2.1h.64v1.72H47v.55ZM46.14,104V98.76h.62V104Z"/><path class="cls-3" d="M51.87,99.62h-1.4v.22a2.43,2.43,0,0,0,1.83,2.23l-.4.46A3.83,3.83,0,0,1,50.14,101a3.35,3.35,0,0,1-1.77,1.72l-.47-.42a2.74,2.74,0,0,0,1.91-2.49v-.21H48.4v-.53h3.47ZM49,104.53c0-.87,1-1.44,2.4-1.44s2.43.57,2.43,1.44-1,1.43-2.43,1.43S49,105.4,49,104.53Zm2.4.94c1,0,1.76-.36,1.76-.93s-.74-.93-1.76-.93-1.73.34-1.73.92S50.45,105.47,51.41,105.47Zm3.22-4.55h-1v2.15H53V98.76h.61v1.6h1Z"/><path class="cls-3" d="M61.42,102.48H59.68v.67h.69c.13,0,.17,0,.17.16v1.2c0,.13,0,.17-.17.17h-3.9v.63h4.25v.47H56c-.13,0-.17,0-.17-.17V104.4c0-.13,0-.17.17-.17h3.9v-.62H55.8v-.46h.91v-.67H54.94V102h6.48Zm-5.45-1c-.13,0-.17,0-.17-.17v-1.17c0-.13,0-.17.17-.17h3.86v-.6h-4v-.46h4.54c.13,0,.17,0,.17.17v1.16c0,.13,0,.17-.17.17H56.47V101h4.19v.46Zm3.08,1.67v-.67H57.33v.67Z"/><path class="cls-3" d="M63.85,98.42h.48a6,6,0,0,0,0,7.68h-.48a5.34,5.34,0,0,1,0-7.68Z"/><path class="cls-3" d="M66.69,100.37a3.7,3.7,0,0,0,1.49,3.36l-.47.43a3.61,3.61,0,0,1-1.36-2,4.23,4.23,0,0,1-1.47,2.26l-.56-.42A4.15,4.15,0,0,0,66,100.25V99.06h.65Zm2,5.14v-4H67.42v-.6h1.22v-2h.61v6.63Zm1.39.33V98.76h.61v7.08Z"/><path class="cls-3" d="M72.62,103.1c-.12,0-.16,0-.16-.17v-2c0-.13,0-.17.16-.17H76.5V99.62H72.44v-.53H77c.12,0,.16,0,.16.17v1.91c0,.13,0,.17-.16.17H73.07v1.23h4.28v.53H75.13v1.32h3V105H71.57v-.54h2.92V103.1Z"/><path class="cls-3" d="M78.87,106.1h-.48a6,6,0,0,0,0-7.68h.48a5.36,5.36,0,0,1,0,7.68Z"/><path class="cls-3" d="M178.05,100.73c0,.83-.44,1.57-1.28,1.57s-1.28-.74-1.28-1.57.44-1.57,1.28-1.57S178.05,99.91,178.05,100.73Zm-2,0c0,.54.15,1.12.7,1.12s.73-.58.73-1.12-.19-1.14-.73-1.14S176.06,100.2,176.06,100.74Zm3.73-1.68h.59l-3.16,6h-.59Zm1.74,4.47c0,.82-.45,1.58-1.29,1.58s-1.28-.76-1.28-1.58.44-1.57,1.28-1.57S181.53,102.71,181.53,103.53Zm-2,0c0,.53.16,1.12.7,1.12s.72-.59.72-1.12-.18-1.13-.72-1.13S179.54,103,179.54,103.54Z"/><path class="cls-3" d="M287.92,105.06h-.64V99.91a4.69,4.69,0,0,1-1.24.85v-.61a4.33,4.33,0,0,0,1.27-.93h.45c.12,0,.16,0,.16.15Z"/><path class="cls-3" d="M291.56,105.06h-.72l2.2-5.29H290.1v-.55h3.45c.12,0,.16,0,.16.15v.31a.52.52,0,0,1-.07.22Z"/><path class="cls-3" d="M298.51,102.11c0,1.49-.35,3.1-1.95,3.1s-1.89-1.61-1.89-3.1S295,99,296.56,99,298.51,100.6,298.51,102.11Zm-3.18,0c0,.88.09,2.54,1.23,2.54s1.28-1.66,1.28-2.54-.13-2.58-1.28-2.58S295.33,101.21,295.33,102.11Z"/><path class="cls-3" d="M379.51,105.1c-.1,0-.14,0-.14-.15V99.28c0-.11,0-.15.14-.15h3.3v.55H380v2h2.8v.56H380v2.26h2.94v.55Z"/><path class="cls-3" d="M384.44,105.1c-.11,0-.14,0-.14-.15V99.13h.63v5.42h2.83v.55Z"/><path class="cls-3" d="M392.19,101.8v.56h-3.67v-.56Z"/><path class="cls-3" d="M394.53,105.06h-.72L396,99.77h-2.93v-.55h3.45c.12,0,.16,0,.16.15v.31a.52.52,0,0,1-.07.22Z"/><path class="cls-3" d="M397.65,104.46c.75-.71,2.83-2.78,2.83-3.78a1,1,0,0,0-1.08-1,1,1,0,0,0-1,1.15h-.66a1.64,1.64,0,0,1,1.72-1.7,1.53,1.53,0,0,1,1.73,1.54c0,1.35-1.92,3-2.77,3.88h2.9v.55h-3.51c-.1,0-.11,0-.11-.12Z"/><path class="cls-3" d="M404.41,99.24a.17.17,0,0,1,.16-.11h.55c.12,0,.15,0,.15.15v4h.87v.55h-.87v1.28h-.62v-1.28h-2.49c-.11,0-.15,0-.15-.15v-.34a.41.41,0,0,1,.07-.22Zm.25,1.34,0-.74-2.07,3.39h2.05Z"/><path class="cls-3" d="M410.54,101h-.82v-.82h.82Zm0,3.26h-.82v-.82h.82Z"/><path class="cls-3" d="M414.2,104.46c.75-.71,2.84-2.78,2.84-3.78a1,1,0,0,0-1.09-1,1,1,0,0,0-1.05,1.15h-.65a1.63,1.63,0,0,1,1.72-1.7,1.52,1.52,0,0,1,1.72,1.54c0,1.35-1.92,3-2.76,3.88h2.89v.55h-3.51c-.1,0-.11,0-.11-.12Z"/><path class="cls-3" d="M422.61,102.11c0,1.49-.34,3.1-1.95,3.1s-1.89-1.61-1.89-3.1.32-3.13,1.89-3.13S422.61,100.6,422.61,102.11Zm-3.17,0c0,.88.09,2.54,1.22,2.54S422,103,422,102.11s-.13-2.58-1.29-2.58S419.44,101.21,419.44,102.11Z"/><path class="cls-3" d="M425.77,105.06h-.63V99.91a4.93,4.93,0,0,1-1.25.85v-.61a4.24,4.24,0,0,0,1.28-.93h.45c.12,0,.15,0,.15.15Z"/><path class="cls-3" d="M429.91,99.09a1.62,1.62,0,0,1,1.72,1.52H431a1,1,0,0,0-1.08-1c-1.13,0-1.45,1.57-1.46,2.65a1.52,1.52,0,0,1,1.54-1,1.73,1.73,0,0,1,1.72,2,1.85,1.85,0,0,1-3.59.74,4.8,4.8,0,0,1-.22-1.64C427.91,100.19,428.76,99.09,429.91,99.09Zm-1.3,4c0,.86.49,1.53,1.22,1.53a1.47,1.47,0,1,0-1.22-1.53Z"/><path class="cls-3" d="M47.11,124.66H48l0-2.37h-.63v-.53h3.82v.53h-.67l0,2.33a10,10,0,0,0,1.18-.12V125a16.46,16.46,0,0,1-2.5.17h-2Zm3.42,1.17c1.51,0,2.44.55,2.44,1.42s-.93,1.4-2.44,1.4-2.44-.54-2.44-1.41S49,125.83,50.53,125.83Zm-2-1.17h1.23l0-2.36H48.55Zm2,3.48c1,0,1.78-.33,1.78-.88s-.75-.92-1.78-.92-1.78.32-1.78.89S49.49,128.14,50.53,128.14Zm.64-4.52h1.11V123H51.17v-.51h1.11v-1h.63v4.38h-.63v-1.68H51.17Z"/><path class="cls-3" d="M59.55,121.64c.13,0,.17,0,.17.17a21.5,21.5,0,0,1-.35,2.62h1.09V125H58.82V127h-.63V125H56.9V127h-.62V125H54v-.55h4.79a19.24,19.24,0,0,0,.3-2.24H54.72v-.55ZM55,128.37c-.12,0-.17,0-.17-.16v-2.12h.62v1.74h4.37v.54Z"/><path class="cls-3" d="M64,128.53V126H61v-.54h6.49V126h-2.9v2.53Zm2.74-6.84v.54H62.51v1.67h4.26v.55H62.05c-.14,0-.17,0-.17-.16v-2.43c0-.13,0-.17.17-.17Z"/><path class="cls-3" d="M70,121.91c.13,0,.17,0,.17.16a8.85,8.85,0,0,1-1.54,4.74l-.57-.23a7.22,7.22,0,0,0,1.48-4.13h-1v-.54Zm1.54,0c.13,0,.17,0,.17.16a10.75,10.75,0,0,1-.21,1.93h.91v-2.45H73v6.63H72.4v-3.64h-1a11.26,11.26,0,0,1-1.16,2.63l-.59-.21a7.86,7.86,0,0,0,1.47-4.51h-.75v-.54Zm2.71-.48v7.1h-.6v-7.1Z"/><path class="cls-3" d="M174.57,125.25c0-.79-.25-1.15-.89-1.15s-1.06.44-1.06,1.32v2.35h-.57v-4.06h.59l0,.52a1.46,1.46,0,0,1,1.25-.65,1.13,1.13,0,0,1,1.19.8l.06-.15a1.45,1.45,0,0,1,1.26-.65c.87,0,1.3.53,1.3,1.5v2.69h-.6v-2.52c0-.79-.24-1.15-.9-1.15a1.08,1.08,0,0,0-1,1.06v2.61h-.59Z"/><path class="cls-3" d="M181.78,125.25c0-.79-.25-1.15-.89-1.15s-1.06.44-1.06,1.32v2.35h-.58v-4.06h.6l0,.52a1.46,1.46,0,0,1,1.25-.65,1.13,1.13,0,0,1,1.19.8l.06-.15a1.45,1.45,0,0,1,1.26-.65c.87,0,1.29.53,1.29,1.5v2.69h-.6v-2.52c0-.79-.24-1.15-.89-1.15a1.1,1.1,0,0,0-1,1.06v2.61h-.58Z"/><path class="cls-3" d="M285.81,124.78c0,1.5-.35,3.11-1.95,3.11s-1.89-1.61-1.89-3.11.31-3.12,1.89-3.12S285.81,123.28,285.81,124.78Zm-3.18,0c0,.88.09,2.55,1.23,2.55s1.28-1.67,1.28-2.55-.13-2.57-1.28-2.57S282.63,123.89,282.63,124.78Z"/><path class="cls-3" d="M287.72,127.92h-.82v-.83h.82Z"/><path class="cls-3" d="M292.87,124.78c0,1.5-.34,3.11-1.95,3.11s-1.89-1.61-1.89-3.11.31-3.12,1.89-3.12S292.87,123.28,292.87,124.78Zm-3.17,0c0,.88.08,2.55,1.22,2.55s1.29-1.67,1.29-2.55-.13-2.57-1.29-2.57S289.7,123.89,289.7,124.78Z"/><path class="cls-3" d="M295.35,125H295c-.12,0-.13,0-.13-.12v-.3c0-.13,0-.16.13-.16h.27c.65,0,1.24-.3,1.24-1a1,1,0,0,0-1.16-1,1.07,1.07,0,0,0-1.17,1.06h-.64a1.63,1.63,0,0,1,1.83-1.61c1,0,1.78.47,1.78,1.57a1.4,1.4,0,0,1-1.18,1.38,1.47,1.47,0,0,1,1.31,1.48c0,1.18-.94,1.68-1.94,1.68a1.68,1.68,0,0,1-1.88-1.72h.63a1.17,1.17,0,0,0,1.27,1.17,1.14,1.14,0,0,0,1.28-1.2C296.67,125.32,296,125,295.35,125Z"/><path class="cls-3" d="M299.94,125h-.32c-.12,0-.13,0-.13-.12v-.3c0-.13,0-.16.13-.16h.26c.65,0,1.25-.3,1.25-1a1,1,0,0,0-1.17-1,1.07,1.07,0,0,0-1.17,1.06h-.64a1.64,1.64,0,0,1,1.83-1.61c.95,0,1.79.47,1.79,1.57a1.41,1.41,0,0,1-1.19,1.38,1.46,1.46,0,0,1,1.31,1.48c0,1.18-.94,1.68-1.94,1.68a1.69,1.69,0,0,1-1.88-1.72h.63a1.17,1.17,0,0,0,1.28,1.17,1.13,1.13,0,0,0,1.27-1.2C301.25,125.32,300.61,125,299.94,125Z"/><path class="cls-3" d="M379.51,127.77c-.1,0-.14,0-.14-.15V122c0-.11,0-.15.14-.15h3.3v.55H380v2.06h2.8V125H380v2.25h2.94v.55Z"/><path class="cls-3" d="M384.44,127.77c-.11,0-.14,0-.14-.15V121.8h.63v5.42h2.83v.55Z"/><path class="cls-3" d="M392.19,124.47V125h-3.67v-.56Z"/><path class="cls-3" d="M394.53,127.73h-.72l2.19-5.28h-2.93v-.55h3.45c.12,0,.16,0,.16.15v.3a.62.62,0,0,1-.07.23Z"/><path class="cls-3" d="M397.65,127.14c.75-.72,2.83-2.79,2.83-3.79a1,1,0,0,0-1.08-1,1.06,1.06,0,0,0-1,1.16h-.66a1.65,1.65,0,0,1,1.72-1.71,1.53,1.53,0,0,1,1.73,1.54c0,1.36-1.92,3-2.77,3.88h2.9v.55h-3.51c-.1,0-.11,0-.11-.12Z"/><path class="cls-3" d="M404.41,121.91a.18.18,0,0,1,.16-.1h.55c.12,0,.15,0,.15.15v3.94h.87v.56h-.87v1.27h-.62v-1.27h-2.49c-.11,0-.15,0-.15-.16V126a.48.48,0,0,1,.07-.23Zm.25,1.35,0-.74-2.07,3.38h2.05Z"/><path class="cls-3" d="M410.54,123.66h-.82v-.83h.82Zm0,3.26h-.82v-.82h.82Z"/><path class="cls-3" d="M414.2,127.14c.75-.72,2.84-2.79,2.84-3.79a1,1,0,0,0-1.09-1,1.06,1.06,0,0,0-1.05,1.16h-.65a1.64,1.64,0,0,1,1.72-1.71,1.53,1.53,0,0,1,1.72,1.54c0,1.36-1.92,3-2.76,3.88h2.89v.55h-3.51c-.1,0-.11,0-.11-.12Z"/><path class="cls-3" d="M422.61,124.78c0,1.5-.34,3.11-1.95,3.11s-1.89-1.61-1.89-3.11.32-3.12,1.89-3.12S422.61,123.28,422.61,124.78Zm-3.17,0c0,.88.09,2.55,1.22,2.55s1.29-1.67,1.29-2.55-.13-2.57-1.29-2.57S419.44,123.89,419.44,124.78Z"/><path class="cls-3" d="M425.77,127.73h-.63v-5.14a4.68,4.68,0,0,1-1.25.84v-.6a4.24,4.24,0,0,0,1.28-.93h.45c.12,0,.15,0,.15.15Z"/><path class="cls-3" d="M429.91,121.77a1.62,1.62,0,0,1,1.72,1.52H431a1,1,0,0,0-1.08-1c-1.13,0-1.45,1.57-1.46,2.64a1.51,1.51,0,0,1,1.54-1,1.73,1.73,0,0,1,1.72,2,1.85,1.85,0,0,1-3.59.74,4.8,4.8,0,0,1-.22-1.64C427.91,122.87,428.76,121.77,429.91,121.77Zm-1.3,4c0,.86.49,1.52,1.22,1.52a1.47,1.47,0,0,0,0-2.9A1.3,1.3,0,0,0,428.61,125.81Z"/><path class="cls-3" d="M54,147.6h1.78v-1c-.68-.26-1-.68-1-1.15,0-.74.84-1.35,2.48-1.35s2.5.62,2.5,1.37c0,.46-.34.87-1,1.13v1h1.76v.54H54Zm3.25,1.11c1.7,0,2.53.56,2.53,1.32s-.82,1.31-2.53,1.31-2.54-.57-2.54-1.32S55.54,148.71,57.23,148.71Zm0,2.14c1.13,0,1.82-.31,1.82-.82s-.68-.85-1.82-.85-1.85.31-1.85.84S56.06,150.85,57.23,150.85Zm0-4.57c1.06,0,1.82-.35,1.82-.86s-.7-.88-1.82-.88-1.8.35-1.8.87S56.14,146.28,57.22,146.28Zm.87,1.32v-.9a4,4,0,0,1-.87.08,4.39,4.39,0,0,1-.84-.07v.89Z"/><path class="cls-3" d="M64.43,144.38c.13,0,.17,0,.17.17v1.71c0,.13,0,.17-.17.17H62v1.06h.6a18.89,18.89,0,0,0,3-.25v.53a19.4,19.4,0,0,1-3.19.27h-.89c-.13,0-.17,0-.17-.17v-1.78c0-.13,0-.17.17-.17H64v-1H61.4v-.53Zm-.07,4.29c1.59,0,2.42.55,2.42,1.33s-.83,1.33-2.42,1.33-2.43-.56-2.43-1.33S62.77,148.67,64.36,148.67Zm0,2.17c1,0,1.74-.3,1.74-.84s-.71-.84-1.74-.84-1.76.3-1.76.84S63.32,150.84,64.36,150.84Zm3.23-5.37h-1v1.11h1v.55h-1v1.44H66v-4.46h.63v.82h1Z"/><path class="cls-3" d="M177.27,150.45c-.11,0-.14,0-.14-.15v-5.82h.63v5.42h2.83v.55Z"/><path class="cls-3" d="M282,149.81c.75-.71,2.83-2.78,2.83-3.78a1,1,0,0,0-1.08-1,1,1,0,0,0-1.05,1.15H282a1.64,1.64,0,0,1,1.72-1.7,1.53,1.53,0,0,1,1.73,1.54c0,1.35-1.92,3-2.77,3.88h2.9v.55h-3.51c-.1,0-.11,0-.11-.12Z"/><path class="cls-3" d="M286.88,148c-.1,0-.1,0-.1-.12l.08-3.13c0-.12,0-.16.13-.16H290v.55h-2.56l-.11,2a1.57,1.57,0,0,1,1.29-.53c.92,0,1.68.65,1.68,2a1.83,1.83,0,0,1-1.84,2,1.65,1.65,0,0,1-1.84-1.56h.63a1.16,1.16,0,0,0,1.23,1c.67,0,1.18-.56,1.18-1.45s-.49-1.47-1.17-1.47a1.09,1.09,0,0,0-1.11.76c0,.08,0,.13-.16.13Z"/><path class="cls-3" d="M292.3,150.6h-.82v-.83h.82Z"/><path class="cls-3" d="M293.62,149.81c.76-.71,2.84-2.78,2.84-3.78a1,1,0,0,0-1.08-1,1,1,0,0,0-1.05,1.15h-.66a1.64,1.64,0,0,1,1.72-1.7,1.54,1.54,0,0,1,1.73,1.54c0,1.35-1.92,3-2.77,3.88h2.9v.55h-3.51c-.1,0-.12,0-.12-.12Z"/><path class="cls-3" d="M299.67,150.41H299l2.19-5.28h-2.93v-.56h3.45c.11,0,.15,0,.15.16v.3a.51.51,0,0,1-.06.22Z"/><path class="cls-3" d="M380.63,150.45c-.1,0-.14,0-.14-.15v-5.67c0-.11,0-.15.14-.15h3.3V145h-2.81v2.06h2.8v.56h-2.8v2.25h2.94v.55Z"/><path class="cls-3" d="M385.56,150.45c-.11,0-.14,0-.14-.15v-5.82h.63v5.42h2.83v.55Z"/><path class="cls-3" d="M393.4,150.41h-.71l2.19-5.28h-2.94v-.56h3.46c.11,0,.15,0,.15.16v.3a.41.41,0,0,1-.07.22Z"/><path class="cls-3" d="M396.52,149.81c.75-.71,2.84-2.78,2.84-3.78a1,1,0,0,0-1.09-1,1,1,0,0,0-1,1.15h-.65a1.63,1.63,0,0,1,1.72-1.7A1.53,1.53,0,0,1,400,146c0,1.35-1.92,3-2.76,3.88h2.89v.55h-3.51c-.1,0-.11,0-.11-.12Z"/><path class="cls-3" d="M403.29,144.59a.16.16,0,0,1,.15-.1H404c.12,0,.15,0,.15.15v3.94H405v.55h-.87v1.28h-.62v-1.28H401c-.11,0-.15,0-.15-.15v-.34a.44.44,0,0,1,.07-.22Zm.24,1.34,0-.73-2.06,3.38h2Z"/><path class="cls-3" d="M409.41,146.33h-.82v-.82h.82Zm0,3.27h-.82v-.83h.82Z"/><path class="cls-3" d="M413.07,149.81c.75-.71,2.84-2.78,2.84-3.78a1,1,0,0,0-1.09-1,1.05,1.05,0,0,0-1.05,1.15h-.65a1.63,1.63,0,0,1,1.72-1.7,1.53,1.53,0,0,1,1.72,1.54c0,1.35-1.91,3-2.76,3.88h2.89v.55h-3.51c-.09,0-.11,0-.11-.12Z"/><path class="cls-3" d="M421.48,147.46c0,1.5-.34,3.1-2,3.1s-1.88-1.6-1.88-3.1.31-3.12,1.88-3.12S421.48,146,421.48,147.46Zm-3.17,0c0,.88.09,2.54,1.22,2.54s1.29-1.66,1.29-2.54-.13-2.57-1.29-2.57S418.31,146.57,418.31,147.46Z"/><path class="cls-3" d="M424.65,150.41H424v-5.15a4.26,4.26,0,0,1-1.24.85v-.61a4.15,4.15,0,0,0,1.27-.93h.45c.12,0,.16,0,.16.16Z"/><path class="cls-3" d="M428.78,144.45A1.61,1.61,0,0,1,430.5,146h-.63a1,1,0,0,0-1.08-1c-1.13,0-1.45,1.58-1.46,2.65a1.53,1.53,0,0,1,1.55-1,1.73,1.73,0,0,1,1.71,2,1.81,1.81,0,0,1-1.82,2,1.8,1.8,0,0,1-1.76-1.23,4.57,4.57,0,0,1-.23-1.64C426.78,145.54,427.63,144.45,428.78,144.45Zm-1.29,4c0,.86.48,1.52,1.21,1.52a1.47,1.47,0,1,0-1.21-1.52Z"/><path class="cls-3" d="M37.93,167.65H36.54v.29a2.46,2.46,0,0,0,1.83,2.25l-.4.46a3.88,3.88,0,0,1-1.76-1.53,3.43,3.43,0,0,1-1.75,1.75l-.48-.43a2.74,2.74,0,0,0,1.9-2.52v-.27H34.47v-.53h3.46Zm-2.68,4.91c0-.87,1-1.44,2.41-1.44s2.42.57,2.42,1.44S39.13,174,37.66,174,35.25,173.43,35.25,172.56Zm2.41.94c1,0,1.76-.36,1.76-.93s-.74-.93-1.76-.93-1.73.34-1.73.92S36.69,173.5,37.66,173.5Zm1.67-2.42v-2.15H37.86v-.53h1.47v-1.61H40v4.29Z"/><path class="cls-3" d="M45,167.65H43.59V168a2.12,2.12,0,0,0,.49,1.35,3,3,0,0,0,1.34.9,2.83,2.83,0,0,0-.41.46,4.65,4.65,0,0,1-1-.61,2.79,2.79,0,0,1-.77-.92,2.78,2.78,0,0,1-.66,1,5.08,5.08,0,0,1-1.09.76,3.7,3.7,0,0,0-.5-.43,3.8,3.8,0,0,0,1.47-1.09,2.41,2.41,0,0,0,.45-1.43v-.31H41.53v-.53H45Zm1.85,3.77c.13,0,.17,0,.17.17v2.33h-.63v-2H42.29v-.54ZM47,171h-.62v-2.1H44.9v-.55h1.48v-1.6H47Z"/><path class="cls-3" d="M56.92,171.51H54v2.36h-.64v-2.36H50.42V171h6.5Zm-5.63-4.57h.62v.91h3.5v-.91H56v3c0,.13,0,.17-.16.17H51.46c-.13,0-.17,0-.17-.17Zm.62,2.59h3.5v-1.16h-3.5Z"/><path class="cls-3" d="M61.73,168.61h-4v-.54h4Zm-.24,2.26a1.76,1.76,0,0,1-3.52,0,1.76,1.76,0,0,1,3.52,0Zm-2.88,0a1.12,1.12,0,1,0,1.12-1.15A1.07,1.07,0,0,0,58.61,170.87Zm.08-4h2.08v.52H58.69Zm3.84,7v-7.09h.63v2.88h1v.58h-1v3.63Z"/><path class="cls-3" d="M67.69,172.05c-.12,0-.16,0-.16-.17v-4.77h.64v4.35h.44a14.05,14.05,0,0,0,1.74-.16v.57a15.07,15.07,0,0,1-2.2.18Zm3,1.49v-6.63h.61v2.42h1v-2.54h.62v7.09h-.62v-3.94h-1v3.6Z"/><path class="cls-3" d="M79.52,167c.12,0,.16,0,.16.17a24.5,24.5,0,0,1-.37,3h1.15v.55h-3v3.14h-.64v-3.14H74v-.55h4.73a19.08,19.08,0,0,0,.34-2.6H74.71V167Z"/><path class="cls-3" d="M83.53,167.65A2.55,2.55,0,0,0,85.39,170l-.41.49A3.87,3.87,0,0,1,83.21,169a3.47,3.47,0,0,1-1.76,1.76l-.49-.43a2.84,2.84,0,0,0,1.91-2.56V167h.66Zm1.1,3.5c1.51,0,2.45.57,2.45,1.44S86.14,174,84.63,174s-2.44-.55-2.44-1.42S83.13,171.15,84.63,171.15Zm0,2.35c1,0,1.78-.35,1.78-.91s-.74-.93-1.78-.93-1.78.33-1.78.91S83.59,173.5,84.63,173.5Zm.11-5.37h1.58v-1.34h.62v4.28h-.62v-2.39H84.74Z"/><path class="cls-3" d="M175.31,171.78h6.51v.54h-6.51Z"/><path class="cls-3" d="M280.26,167c.95,0,1.75.85,1.75,2.69s-.8,2.7-1.75,2.7-1.76-.87-1.76-2.7S279.27,167,280.26,167Zm0,4.82c.76,0,1.11-1,1.11-2.13s-.34-2.13-1.11-2.13-1.14,1-1.14,2.13S279.48,171.78,280.26,171.78Zm3.76-5v7.1h-.63v-7.1Z"/><path class="cls-3" d="M285,170.26a2.85,2.85,0,0,0,1.92-2.64V167h.66v.67A2.56,2.56,0,0,0,289.4,170l-.41.5a3.93,3.93,0,0,1-1.76-1.57,3.63,3.63,0,0,1-1.77,1.79Zm1.17,2.33c0-.88,1-1.44,2.39-1.44s2.41.56,2.41,1.44S290,174,288.54,174,286.14,173.46,286.14,172.59Zm2.39.92c1,0,1.75-.35,1.75-.92s-.73-.92-1.75-.92-1.71.33-1.71.92S287.57,173.51,288.53,173.51Zm2.25-6.72v1.65h1V169h-1v2.08h-.62v-4.28Z"/><path class="cls-3" d="M292.5,168.59a1.73,1.73,0,0,1,1.81-1.72,1.77,1.77,0,0,1,1.82,1.49h1.36v-1.57h.63v3.75h-.63v-1.62h-1.38a1.79,1.79,0,0,1-1.8,1.39A1.75,1.75,0,0,1,292.5,168.59Zm1.81,1.17a1.14,1.14,0,0,0,1.19-1.16,1.16,1.16,0,0,0-1.19-1.18,1.18,1.18,0,0,0-1.19,1.18A1.17,1.17,0,0,0,294.31,169.76Zm-.93,1.16H294v.87h1.33v-.87h.59v2.52a2.33,2.33,0,0,0,1.16-2v-.52h.63v.52a2.39,2.39,0,0,0,1.18,2l-.44.41a2.76,2.76,0,0,1-1-1.36,3.14,3.14,0,0,1-1.06,1.37l-.42-.4v.15c0,.13,0,.17-.17.17h-2.16c-.12,0-.16,0-.16-.17Zm1.9,2.38v-1H294v1Z"/><path class="cls-3" d="M305.76,170.59h-6.5v-.53h6.5Zm-3.24-3.86c1.63,0,2.49.58,2.49,1.42s-.84,1.38-2.49,1.38-2.5-.53-2.5-1.38S300.89,166.73,302.52,166.73Zm2.2,4.64c.13,0,.17,0,.17.17v2.08c0,.13,0,.17-.17.17H300.3c-.12,0-.16,0-.16-.17v-2.08c0-.13,0-.17.16-.17Zm-2.2-4.15c-1.1,0-1.82.32-1.82.93s.7.89,1.82.89,1.81-.29,1.81-.89S303.6,167.22,302.52,167.22Zm-1.76,6.05h3.49v-1.38h-3.49Z"/><path class="cls-3" d="M380.63,173.13c-.1,0-.14,0-.14-.15v-5.67c0-.11,0-.15.14-.15h3.3v.55h-2.81v2h2.8v.56h-2.8v2.26h2.94v.55Z"/><path class="cls-3" d="M385.56,173.13c-.11,0-.14,0-.14-.15v-5.82h.63v5.42h2.83v.55Z"/><path class="cls-3" d="M393.4,173.09h-.71l2.19-5.29h-2.94v-.55h3.46c.11,0,.15,0,.15.15v.31a.41.41,0,0,1-.07.22Z"/><path class="cls-3" d="M396.52,172.49c.75-.71,2.84-2.78,2.84-3.78a1,1,0,0,0-1.09-1,1,1,0,0,0-1,1.15h-.65a1.63,1.63,0,0,1,1.72-1.7,1.52,1.52,0,0,1,1.72,1.54c0,1.35-1.92,3-2.76,3.88h2.89v.55h-3.51c-.1,0-.11,0-.11-.12Z"/><path class="cls-3" d="M403.29,167.27a.16.16,0,0,1,.15-.11H404c.12,0,.15,0,.15.16v3.94H405v.55h-.87v1.28h-.62v-1.28H401c-.11,0-.15,0-.15-.15v-.34a.41.41,0,0,1,.07-.22Zm.24,1.34,0-.73-2.06,3.38h2Z"/><path class="cls-3" d="M409.41,169h-.82v-.82h.82Zm0,3.26h-.82v-.82h.82Z"/><path class="cls-3" d="M413.07,172.49c.75-.71,2.84-2.78,2.84-3.78a1,1,0,0,0-1.09-1,1.05,1.05,0,0,0-1.05,1.15h-.65a1.63,1.63,0,0,1,1.72-1.7,1.52,1.52,0,0,1,1.72,1.54c0,1.35-1.91,3-2.76,3.88h2.89v.55h-3.51c-.09,0-.11,0-.11-.12Z"/><path class="cls-3" d="M421.48,170.14c0,1.49-.34,3.1-2,3.1s-1.88-1.61-1.88-3.1S418,167,419.53,167,421.48,168.64,421.48,170.14Zm-3.17,0c0,.88.09,2.54,1.22,2.54s1.29-1.66,1.29-2.54-.13-2.58-1.29-2.58S418.31,169.24,418.31,170.14Z"/><path class="cls-3" d="M424.65,173.09H424v-5.15a4.69,4.69,0,0,1-1.24.85v-.61a4.33,4.33,0,0,0,1.27-.93h.45c.12,0,.16,0,.16.15Z"/><path class="cls-3" d="M428.78,167.12a1.61,1.61,0,0,1,1.72,1.52h-.63a1,1,0,0,0-1.08-1c-1.13,0-1.45,1.58-1.46,2.65a1.53,1.53,0,0,1,1.55-1,1.73,1.73,0,0,1,1.71,2,1.81,1.81,0,0,1-1.82,2A1.78,1.78,0,0,1,427,172a4.54,4.54,0,0,1-.23-1.64C426.78,168.22,427.63,167.12,428.78,167.12Zm-1.29,4c0,.87.48,1.53,1.21,1.53a1.47,1.47,0,1,0-1.21-1.53Z"/><path class="cls-3" d="M39.57,189.67v.52H35.44v1.23h4.2V192H37.5v1h2.93v.55H33.94v-.55h2.91v-1H35c-.14,0-.17,0-.17-.16v-1.95c0-.13,0-.17.17-.17ZM37.18,194c1.64,0,2.54.58,2.54,1.37s-.89,1.37-2.54,1.37-2.54-.58-2.54-1.37S35.54,194,37.18,194Zm0,2.25c1.08,0,1.85-.31,1.85-.89s-.77-.87-1.85-.87-1.85.31-1.85.87S36.07,196.2,37.18,196.2Z"/><path class="cls-3" d="M45,190.33H43.59v.33a2.14,2.14,0,0,0,.49,1.35,3,3,0,0,0,1.34.89,3.35,3.35,0,0,0-.41.47,5.11,5.11,0,0,1-1-.61,2.79,2.79,0,0,1-.77-.92,2.74,2.74,0,0,1-.66,1,4.46,4.46,0,0,1-1.09.76,3.68,3.68,0,0,0-.5-.42,3.73,3.73,0,0,0,1.47-1.1,2.37,2.37,0,0,0,.45-1.43v-.3H41.53v-.54H45Zm1.85,3.77c.13,0,.17,0,.17.16v2.34h-.63v-2H42.29v-.54Zm.17-.38h-.62v-2.1H44.9v-.56h1.48v-1.59H47Z"/><path class="cls-3" d="M56.92,194.18H54v2.37h-.64v-2.37H50.42v-.54h6.5Zm-5.63-4.56h.62v.91h3.5v-.91H56v3c0,.12,0,.16-.16.16H51.46c-.13,0-.17,0-.17-.16Zm.62,2.59h3.5v-1.16h-3.5Z"/><path class="cls-3" d="M61.73,191.29h-4v-.54h4Zm-.24,2.26a1.76,1.76,0,0,1-3.52,0,1.76,1.76,0,0,1,3.52,0Zm-2.88,0a1.12,1.12,0,1,0,2.23,0,1.12,1.12,0,1,0-2.23,0Zm.08-4h2.08v.53H58.69Zm3.84,7v-7.09h.63v2.87h1v.59h-1v3.63Z"/><path class="cls-3" d="M67.69,194.73c-.12,0-.16,0-.16-.17v-4.77h.64v4.35h.44a16.31,16.31,0,0,0,1.74-.16v.56a13.33,13.33,0,0,1-2.2.19Zm3,1.48v-6.62h.61V192h1v-2.54h.62v7.09h-.62v-3.94h-1v3.59Z"/><path class="cls-3" d="M79.52,189.72c.12,0,.16,0,.16.17a24.5,24.5,0,0,1-.37,3h1.15v.55h-3v3.14h-.64v-3.14H74v-.55h4.73a19.08,19.08,0,0,0,.34-2.6H74.71v-.55Z"/><path class="cls-3" d="M83.53,190.33a2.56,2.56,0,0,0,1.86,2.37l-.41.49a3.84,3.84,0,0,1-1.77-1.57,3.49,3.49,0,0,1-1.76,1.77L81,193a2.84,2.84,0,0,0,1.91-2.56v-.76h.66Zm1.1,3.49c1.51,0,2.45.58,2.45,1.44s-.94,1.42-2.45,1.42-2.44-.55-2.44-1.43S83.13,193.82,84.63,193.82Zm0,2.35c1,0,1.78-.34,1.78-.9s-.74-.93-1.78-.93-1.78.33-1.78.91S83.59,196.17,84.63,196.17Zm.11-5.36h1.58v-1.34h.62v4.27h-.62v-2.39H84.74Z"/><path class="cls-3" d="M175.31,194.46h6.51V195h-6.51Z"/><path class="cls-3" d="M280.26,189.63c.95,0,1.75.86,1.75,2.7s-.8,2.69-1.75,2.69-1.76-.86-1.76-2.69S279.27,189.63,280.26,189.63Zm0,4.83c.76,0,1.11-1,1.11-2.13s-.34-2.13-1.11-2.13-1.14,1-1.14,2.13S279.48,194.46,280.26,194.46Zm3.76-5v7.1h-.63v-7.1Z"/><path class="cls-3" d="M285,192.94a2.86,2.86,0,0,0,1.92-2.64v-.66h.66v.67a2.56,2.56,0,0,0,1.85,2.36l-.41.5a3.9,3.9,0,0,1-1.76-1.58,3.59,3.59,0,0,1-1.77,1.79Zm1.17,2.32c0-.87,1-1.43,2.39-1.43s2.41.56,2.41,1.43-.93,1.43-2.4,1.43S286.14,196.13,286.14,195.26Zm2.39.93c1,0,1.75-.35,1.75-.92s-.73-.92-1.75-.92-1.71.33-1.71.91S287.57,196.19,288.53,196.19Zm2.25-6.72v1.65h1v.54h-1v2.08h-.62v-4.27Z"/><path class="cls-3" d="M292.5,191.26a1.73,1.73,0,0,1,1.81-1.71,1.77,1.77,0,0,1,1.82,1.49h1.36v-1.57h.63v3.75h-.63v-1.63h-1.38a1.79,1.79,0,0,1-1.8,1.4A1.76,1.76,0,0,1,292.5,191.26Zm1.81,1.17a1.14,1.14,0,0,0,1.19-1.16,1.16,1.16,0,0,0-1.19-1.17,1.17,1.17,0,1,0,0,2.33Zm-.93,1.17H294v.86h1.33v-.86h.59v2.52a2.34,2.34,0,0,0,1.16-2v-.51h.63v.51a2.36,2.36,0,0,0,1.18,2l-.44.42a2.74,2.74,0,0,1-1-1.37,3.12,3.12,0,0,1-1.06,1.38l-.42-.4v.15c0,.13,0,.17-.17.17h-2.16c-.12,0-.16,0-.16-.17Zm1.9,2.38v-1H294v1Z"/><path class="cls-3" d="M305.76,193.27h-6.5v-.53h6.5Zm-3.24-3.86c1.63,0,2.49.58,2.49,1.41s-.84,1.39-2.49,1.39-2.5-.54-2.5-1.39S300.89,189.41,302.52,189.41Zm2.2,4.64c.13,0,.17,0,.17.17v2.08c0,.13,0,.17-.17.17H300.3c-.12,0-.16,0-.16-.17v-2.08c0-.13,0-.17.16-.17Zm-2.2-4.15c-1.1,0-1.82.32-1.82.92s.7.89,1.82.89,1.81-.29,1.81-.89S303.6,189.9,302.52,189.9Zm-1.76,6h3.49v-1.38h-3.49Z"/><path class="cls-3" d="M380.63,195.81c-.1,0-.14,0-.14-.16V190c0-.12,0-.16.14-.16h3.3v.56h-2.81v2.05h2.8V193h-2.8v2.25h2.94v.56Z"/><path class="cls-3" d="M385.56,195.81c-.11,0-.14,0-.14-.16v-5.82h.63v5.42h2.83v.56Z"/><path class="cls-3" d="M393.4,195.77h-.71l2.19-5.29h-2.94v-.55h3.46c.11,0,.15,0,.15.15v.31a.41.41,0,0,1-.07.22Z"/><path class="cls-3" d="M396.52,195.17c.75-.71,2.84-2.79,2.84-3.78a1,1,0,0,0-1.09-1,1,1,0,0,0-1,1.15h-.65a1.64,1.64,0,0,1,1.72-1.71,1.53,1.53,0,0,1,1.72,1.55c0,1.35-1.92,3-2.76,3.87h2.89v.56h-3.51c-.1,0-.11,0-.11-.12Z"/><path class="cls-3" d="M403.29,190a.16.16,0,0,1,.15-.11H404c.12,0,.15,0,.15.15v3.95H405v.55h-.87v1.28h-.62v-1.28H401c-.11,0-.15,0-.15-.15V194a.41.41,0,0,1,.07-.22Zm.24,1.34,0-.74-2.06,3.39h2Z"/><path class="cls-3" d="M409.41,191.69h-.82v-.83h.82Zm0,3.26h-.82v-.82h.82Z"/><path class="cls-3" d="M413.07,195.17c.75-.71,2.84-2.79,2.84-3.78a1,1,0,0,0-1.09-1,1.05,1.05,0,0,0-1.05,1.15h-.65a1.64,1.64,0,0,1,1.72-1.71,1.53,1.53,0,0,1,1.72,1.55c0,1.35-1.91,3-2.76,3.87h2.89v.56h-3.51c-.09,0-.11,0-.11-.12Z"/><path class="cls-3" d="M421.48,192.82c0,1.49-.34,3.1-2,3.1s-1.88-1.61-1.88-3.1.31-3.13,1.88-3.13S421.48,191.31,421.48,192.82Zm-3.17,0c0,.88.09,2.54,1.22,2.54s1.29-1.66,1.29-2.54-.13-2.58-1.29-2.58S418.31,191.92,418.31,192.82Z"/><path class="cls-3" d="M424.65,195.77H424v-5.15a4.46,4.46,0,0,1-1.24.84v-.6a4.33,4.33,0,0,0,1.27-.93h.45c.12,0,.16,0,.16.15Z"/><path class="cls-3" d="M428.78,189.8a1.61,1.61,0,0,1,1.72,1.52h-.63a1,1,0,0,0-1.08-1c-1.13,0-1.45,1.57-1.46,2.64a1.54,1.54,0,0,1,1.55-1,1.72,1.72,0,0,1,1.71,2,1.84,1.84,0,0,1-3.58.74,4.54,4.54,0,0,1-.23-1.64C426.78,190.9,427.63,189.8,428.78,189.8Zm-1.29,4c0,.86.48,1.53,1.21,1.53a1.48,1.48,0,1,0-1.21-1.53Z"/></g></g></svg>