<svg xmlns="http://www.w3.org/2000/svg" viewBox="0 0 226.77 295.51"><defs><style>.cls-1{fill:none;stroke:#3ab483;stroke-miterlimit:10;stroke-width:0.71px;}.cls-2{fill:#3ab483;}.cls-3{fill:#595757;}</style></defs><g id="레이어_2" data-name="레이어 2"><g id="레이어_1-2" data-name="레이어 1"><line class="cls-1" y1="0.35" x2="65.2" y2="0.35"/><line class="cls-1" x1="65.2" y1="0.35" x2="107.72" y2="0.35"/><line class="cls-1" x1="65.2" y1="22.68" x2="65.2" y2="0.71"/><line class="cls-1" x1="107.72" y1="0.35" x2="153.07" y2="0.35"/><line class="cls-1" x1="107.72" y1="22.68" x2="107.72" y2="0.71"/><line class="cls-1" x1="153.07" y1="0.35" x2="226.77" y2="0.35"/><line class="cls-1" x1="153.07" y1="22.68" x2="153.07" y2="0.71"/><line class="cls-1" y1="23.03" x2="65.2" y2="23.03"/><line class="cls-1" x1="65.2" y1="23.03" x2="107.72" y2="23.03"/><line class="cls-1" x1="65.2" y1="56.69" x2="65.2" y2="23.39"/><line class="cls-1" x1="107.72" y1="23.03" x2="153.07" y2="23.03"/><line class="cls-1" x1="107.72" y1="56.69" x2="107.72" y2="23.39"/><line class="cls-1" x1="153.07" y1="23.03" x2="226.77" y2="23.03"/><line class="cls-1" x1="153.07" y1="56.69" x2="153.07" y2="23.39"/><line class="cls-1" y1="57.05" x2="65.2" y2="57.05"/><line class="cls-1" x1="65.2" y1="57.05" x2="107.72" y2="57.05"/><line class="cls-1" x1="65.2" y1="90.71" x2="65.2" y2="57.4"/><line class="cls-1" x1="107.72" y1="57.05" x2="153.07" y2="57.05"/><line class="cls-1" x1="107.72" y1="90.71" x2="107.72" y2="57.4"/><line class="cls-1" x1="153.07" y1="57.05" x2="226.77" y2="57.05"/><line class="cls-1" x1="153.07" y1="90.71" x2="153.07" y2="57.4"/><line class="cls-1" y1="91.06" x2="65.2" y2="91.06"/><line class="cls-1" x1="65.2" y1="91.06" x2="107.72" y2="91.06"/><line class="cls-1" x1="65.2" y1="124.72" x2="65.2" y2="91.42"/><line class="cls-1" x1="107.72" y1="91.06" x2="153.07" y2="91.06"/><line class="cls-1" x1="107.72" y1="124.72" x2="107.72" y2="91.42"/><line class="cls-1" x1="153.07" y1="91.06" x2="226.77" y2="91.06"/><line class="cls-1" x1="153.07" y1="124.72" x2="153.07" y2="91.42"/><line class="cls-1" y1="125.08" x2="65.2" y2="125.08"/><line class="cls-1" x1="65.2" y1="125.08" x2="107.72" y2="125.08"/><line class="cls-1" x1="65.2" y1="158.74" x2="65.2" y2="125.43"/><line class="cls-1" x1="107.72" y1="125.08" x2="153.07" y2="125.08"/><line class="cls-1" x1="107.72" y1="158.74" x2="107.72" y2="125.43"/><line class="cls-1" x1="153.07" y1="125.08" x2="226.77" y2="125.08"/><line class="cls-1" x1="153.07" y1="158.74" x2="153.07" y2="125.43"/><line class="cls-1" y1="159.09" x2="65.2" y2="159.09"/><line class="cls-1" x1="65.2" y1="159.09" x2="107.72" y2="159.09"/><line class="cls-1" x1="65.2" y1="192.76" x2="65.2" y2="159.45"/><line class="cls-1" x1="107.72" y1="159.09" x2="153.07" y2="159.09"/><line class="cls-1" x1="107.72" y1="192.76" x2="107.72" y2="159.45"/><line class="cls-1" x1="153.07" y1="159.09" x2="226.77" y2="159.09"/><line class="cls-1" x1="153.07" y1="192.76" x2="153.07" y2="159.45"/><line class="cls-1" y1="193.11" x2="65.2" y2="193.11"/><line class="cls-1" x1="65.2" y1="193.11" x2="107.72" y2="193.11"/><line class="cls-1" x1="65.2" y1="226.77" x2="65.2" y2="193.46"/><line class="cls-1" x1="107.72" y1="193.11" x2="153.07" y2="193.11"/><line class="cls-1" x1="107.72" y1="226.77" x2="107.72" y2="193.46"/><line class="cls-1" x1="153.07" y1="193.11" x2="226.77" y2="193.11"/><line class="cls-1" x1="153.07" y1="226.77" x2="153.07" y2="193.46"/><line class="cls-1" y1="227.13" x2="65.2" y2="227.13"/><line class="cls-1" x1="65.2" y1="227.13" x2="107.72" y2="227.13"/><line class="cls-1" x1="65.2" y1="260.79" x2="65.2" y2="227.48"/><line class="cls-1" x1="107.72" y1="227.13" x2="153.07" y2="227.13"/><line class="cls-1" x1="107.72" y1="260.79" x2="107.72" y2="227.48"/><line class="cls-1" x1="153.07" y1="227.13" x2="226.77" y2="227.13"/><line class="cls-1" x1="153.07" y1="260.79" x2="153.07" y2="227.48"/><line class="cls-1" y1="261.14" x2="65.2" y2="261.14"/><line class="cls-1" x1="65.2" y1="261.14" x2="107.72" y2="261.14"/><line class="cls-1" x1="65.2" y1="294.8" x2="65.2" y2="261.5"/><line class="cls-1" x1="107.72" y1="261.14" x2="153.07" y2="261.14"/><line class="cls-1" x1="107.72" y1="294.8" x2="107.72" y2="261.5"/><line class="cls-1" x1="153.07" y1="261.14" x2="226.77" y2="261.14"/><line class="cls-1" x1="153.07" y1="294.8" x2="153.07" y2="261.5"/><line class="cls-1" y1="295.16" x2="65.2" y2="295.16"/><line class="cls-1" x1="65.2" y1="295.16" x2="107.72" y2="295.16"/><line class="cls-1" x1="107.72" y1="295.16" x2="153.07" y2="295.16"/><line class="cls-1" x1="153.07" y1="295.16" x2="226.77" y2="295.16"/><path class="cls-2" d="M23.38,13.68a4.83,4.83,0,0,1-1.58-1.86,4.86,4.86,0,0,1-1.6,2l-.72-.59a3.86,3.86,0,0,0,1.85-3.44V8.27h.91V9.86A3.64,3.64,0,0,0,24,13.07Zm1.25,1.48V8h.87v7.15Z"/><path class="cls-2" d="M26.29,9h4v.65h-4Zm.22,2.05c0-.63.63-1.12,1.79-1.12s1.78.49,1.78,1.12-.64,1.12-1.78,1.12S26.51,11.7,26.51,11.09ZM27.21,8h2.14v.66H27.21Zm4.57,4.7c.16,0,.21.05.21.22v2c0,.17,0,.22-.21.22H27.56c-.16,0-.22-.05-.22-.22v-2c0-.17.06-.22.22-.22ZM27.4,11.09c0,.34.36.49.9.49s.89-.15.89-.49-.36-.51-.89-.51S27.4,10.76,27.4,11.09Zm3.71,3.27v-1H28.22v1Zm-.9-4.15h.92V8H32v4.38h-.86V11h-.92Z"/><path class="cls-2" d="M32.69,9.06h4v.67h-4Zm.21,2c0-.62.64-1.12,1.79-1.12s1.79.5,1.79,1.12-.64,1.13-1.79,1.13S32.9,11.72,32.9,11.1Zm5.36,2.83c0,.8-.83,1.35-2.44,1.35s-2.44-.55-2.44-1.35.84-1.36,2.44-1.36S38.26,13.12,38.26,13.93ZM33.61,8h2.14v.67H33.61Zm.19,3.12c0,.35.36.5.89.5s.9-.15.9-.5-.36-.51-.9-.51S33.8,10.78,33.8,11.1Zm.52,2.83c0,.45.6.67,1.5.67s1.5-.21,1.5-.67-.58-.68-1.5-.68S34.32,13.47,34.32,13.93Zm4.6-3.3H38.1v1.89h-.86V8h.86V9.86h.82Z"/><path class="cls-2" d="M44.19,8.18c.16,0,.22.06.22.23v2.07c0,.17-.06.22-.22.22H42.46v.72h2.72v.79H38.85v-.79h2.72V10.7H39.82c-.16,0-.2,0-.2-.21V8.41c0-.17.05-.23.21-.23Zm0,4.63c.16,0,.21,0,.21.22V15.2h-.88V13.58H39.56v-.77ZM43.55,10v-1H40.48v1Z"/><path class="cls-2" d="M83.77,8.3v.76H81.36v2h.94a16.82,16.82,0,0,0,2.25-.25v.75a13.74,13.74,0,0,1-2.54.28H80.7c-.16,0-.2-.05-.2-.22V8.52c0-.17,0-.22.21-.22ZM81.38,15c-.16,0-.21-.06-.21-.22V12.6h.89v1.66h3.8V15Zm5.17-4.51h-.89v2.67h-.87V8h.87V9.75h.89Z"/><path class="cls-2" d="M86.66,11.87h2a20.71,20.71,0,0,0,2.61-.18v.77a14,14,0,0,1-2,.16V15h-.86V12.64H86.66Zm2.21-3.8a1.6,1.6,0,1,1-1.76,1.59A1.62,1.62,0,0,1,88.87,8.07Zm0,2.47a.88.88,0,1,0-.9-.88A.85.85,0,0,0,88.87,10.54ZM92.37,8v7.15h-.86V8Z"/><path class="cls-2" d="M124.35,8.3c.17,0,.22,0,.22.22-.18,1.51-1.1,2.65-3.07,3.3l-.53-.64c1.48-.4,2.34-1.1,2.59-2.13h-2.19V8.3Zm-2.07,6.82c-.17,0-.22-.06-.22-.23V13.46c0-.17,0-.22.22-.22h3.49v-.5h-3.71V12h4.41c.16,0,.21.05.21.22v1.39c0,.16-.05.22-.21.22H123v.54h3.84v.71ZM126.7,8v3.75h-.86V11h-1.33v-.72h1.33V9.6h-1.2V8.88h1.2V8Z"/><path class="cls-2" d="M127.28,13h1.24V10.67h.86V13c.51,0,1.83-.1,2.39-.19v.76a30.89,30.89,0,0,1-3.65.21h-.84ZM131,8.42c.16,0,.22.05.22.22a27.09,27.09,0,0,1-.29,3.52H130a21.06,21.06,0,0,0,.26-3h-2.66V8.42Zm2.76,3.27h-.92v3.47H132V8h.86v2.89h.92Z"/><path class="cls-2" d="M134.08,9.42h3.74v.77h-1.4v.3a3,3,0,0,0,1.64,2.59l-.6.62A4,4,0,0,1,136,12a4.57,4.57,0,0,1-1.57,1.85l-.7-.62a3.22,3.22,0,0,0,1.79-2.76v-.3h-1.4Zm.8-1.31H137v.73h-2.13Zm4.71-.1v7.15h-.88V8Z"/><path class="cls-2" d="M180.88,13.68a4.83,4.83,0,0,1-1.58-1.86,4.86,4.86,0,0,1-1.6,2l-.72-.59a3.86,3.86,0,0,0,1.85-3.44V8.27h.91V9.86a3.64,3.64,0,0,0,1.78,3.21Zm1.25,1.48V8H183v7.15Z"/><path class="cls-2" d="M183.79,9h4v.65h-4Zm.22,2.05c0-.63.63-1.12,1.79-1.12s1.78.49,1.78,1.12-.64,1.12-1.78,1.12S184,11.7,184,11.09Zm.7-3.11h2.14v.66h-2.14Zm4.57,4.7c.16,0,.21.05.21.22v2c0,.17-.05.22-.21.22h-4.22c-.16,0-.22-.05-.22-.22v-2c0-.17.06-.22.22-.22Zm-4.38-1.59c0,.34.36.49.9.49s.89-.15.89-.49-.36-.51-.89-.51S184.9,10.76,184.9,11.09Zm3.71,3.27v-1h-2.89v1Zm-.9-4.15h.92V8h.86v4.38h-.86V11h-.92Z"/><path class="cls-2" d="M193.58,11.55c0,.17-.05.23-.21.23h-2.85c-.16,0-.21-.06-.21-.23V8.22h.87v1h1.56v-1h.84Zm2.12,2.32c0,.93-1,1.42-2.44,1.42s-2.42-.5-2.42-1.42,1.07-1.43,2.43-1.43S195.7,13,195.7,13.87Zm-3-2.85V10h-1.56v1Zm-1,2.84c0,.43.62.73,1.5.73s1.49-.31,1.49-.73-.58-.71-1.49-.71S191.77,13.42,191.77,13.86ZM195.53,8V9.57h.88v.76h-.88v2.08h-.87V8Z"/><path class="cls-2" d="M196.83,8.22h.86v1h1.53v-1h.86V9.38h1.23V8h.86v3.9h-.86V10.14h-1.23v1.23c0,.17-.05.23-.22.23H197c-.16,0-.21-.06-.21-.23Zm.7,3.95h.85v.72h2.93v-.72h.85v2.7c0,.17,0,.22-.22.22h-4.19c-.16,0-.22-.05-.22-.22Zm1.69-1.33v-.9h-1.53v.9Zm2.09,3.52v-.74h-2.93v.74Z"/><path class="cls-3" d="M9.23,38.39a1.87,1.87,0,1,1,1.86,1.9A1.85,1.85,0,0,1,9.23,38.39Zm3.08,0a1.22,1.22,0,1,0-1.22,1.32A1.22,1.22,0,0,0,12.31,38.39Zm-1.87,4.94c-.12,0-.16,0-.16-.16V41h.64v1.77h4.15v.54Zm3.81-1.73V36.39h.63V41.6Z"/><path class="cls-3" d="M20,37.26H18.6v.22a2.4,2.4,0,0,0,1.83,2.22l-.4.47a3.73,3.73,0,0,1-1.76-1.51,3.44,3.44,0,0,1-1.78,1.72L16,40a2.72,2.72,0,0,0,1.91-2.48v-.21H16.52v-.54H20Zm-2.86,4.91c0-.87,1-1.44,2.41-1.44S22,41.3,22,42.17,21,43.6,19.54,43.6,17.13,43,17.13,42.17Zm2.41.93c1,0,1.76-.36,1.76-.92s-.75-.93-1.76-.93-1.74.33-1.74.92S18.57,43.1,19.54,43.1Zm3.21-4.55h-1V40.7h-.62V36.39h.62V38h1Z"/><path class="cls-3" d="M26.63,36.72c.13,0,.17,0,.17.17a4.22,4.22,0,0,1-3.2,3.61l-.41-.45a3.81,3.81,0,0,0,2.91-2.78H23.57v-.55Zm-2.55,5.46c0-.88,1-1.44,2.4-1.44s2.43.56,2.43,1.44-1,1.43-2.43,1.43S24.08,43.05,24.08,42.18Zm2.4.93c1,0,1.76-.36,1.76-.93s-.74-.92-1.76-.92-1.73.33-1.73.92S25.52,43.11,26.48,43.11Zm2.27-6.72v1.73h1v.55h-1v1.95h-.63V36.39Z"/><path class="cls-3" d="M35.8,36.78v.54H31.6v2.37h4.27v.53h-2.2v1.83H36.6v.54H30.09v-.54H33V40.22h-1.9c-.13,0-.17,0-.17-.16V37c0-.13,0-.17.17-.17Z"/><path class="cls-3" d="M39,36.06h.48a6,6,0,0,0,0,7.67H39a5.35,5.35,0,0,1,0-7.67Z"/><path class="cls-3" d="M40.22,36.8h3c.12,0,.18,0,.18.17a6.07,6.07,0,0,1-3,5l-.51-.44a5.09,5.09,0,0,0,2.85-4.22H40.22Zm6.13,3H45.3v3.67h-.64v-7.1h.64v2.85h1.05Z"/><path class="cls-3" d="M47.8,40.74c-.13,0-.17,0-.17-.17v-2c0-.13,0-.17.17-.17h3.87V37.26H47.61v-.53h4.52c.13,0,.17,0,.17.17v1.91c0,.13,0,.17-.17.17H48.24v1.23h4.28v.53H50.31v1.32h2.94v.54H46.74v-.54h2.92V40.74Z"/><path class="cls-3" d="M54,43.73h-.47a6,6,0,0,0,0-7.67H54a5.33,5.33,0,0,1,0,7.67Z"/><path class="cls-3" d="M76.53,41l.46.88,0-1V36.76h.62v5.82c0,.12,0,.16-.14.16h-.51a.17.17,0,0,1-.16-.11l-2.49-4.16-.45-.87v5.14h-.61V36.91c0-.11,0-.15.13-.15h.51a.16.16,0,0,1,.16.11Z"/><path class="cls-3" d="M81.53,43.69h-.67l2.71-7.55h.63Z"/><path class="cls-3" d="M89.9,40a.9.9,0,0,0-1-.94c-.67,0-1.11.7-1.11,1.64s.44,1.64,1.11,1.64a.94.94,0,0,0,1-1h.66a1.55,1.55,0,0,1-1.65,1.48c-1.23,0-1.81-1-1.81-2.16A1.92,1.92,0,0,1,89,38.55,1.5,1.5,0,0,1,90.55,40Z"/><path class="cls-3" d="M94.06,40.21c0-.79-.25-1.15-.9-1.15s-1,.44-1,1.32v2.36h-.58V38.67h.59v.52a1.43,1.43,0,0,1,1.24-.64,1.13,1.13,0,0,1,1.2.79l.06-.15a1.44,1.44,0,0,1,1.26-.64c.87,0,1.29.52,1.29,1.49v2.7h-.6V40.21c0-.79-.24-1.15-.89-1.15a1.1,1.1,0,0,0-1,1.06v2.62h-.58Z"/><path class="cls-3" d="M100.25,39.77H98.31c-.09,0-.11,0-.11-.11v-.28c.4-.4,1.48-1.45,1.48-2a.43.43,0,0,0-.48-.49c-.29,0-.48.21-.48.6h-.5a1,1,0,0,1,1-1,.88.88,0,0,1,1,.86c0,.76-1,1.61-1.37,2h1.44Z"/><path class="cls-3" d="M123.37,40h-.32c-.12,0-.13,0-.13-.13v-.3c0-.13,0-.16.13-.16h.26c.66,0,1.25-.3,1.25-1a1,1,0,0,0-1.17-1,1.06,1.06,0,0,0-1.16,1.06h-.64a1.63,1.63,0,0,1,1.83-1.61c1,0,1.78.47,1.78,1.57A1.4,1.4,0,0,1,124,39.67a1.47,1.47,0,0,1,1.31,1.48c0,1.18-1,1.68-2,1.68a1.68,1.68,0,0,1-1.87-1.72h.63a1.17,1.17,0,0,0,1.27,1.17,1.14,1.14,0,0,0,1.28-1.2C124.69,40.28,124,40,123.37,40Z"/><path class="cls-3" d="M128.18,36.73a1.61,1.61,0,0,1,1.72,1.52h-.63a1,1,0,0,0-1.08-1c-1.12,0-1.44,1.57-1.45,2.64a1.52,1.52,0,0,1,1.54-1c1.06,0,1.71.77,1.71,2a1.84,1.84,0,0,1-3.58.74,4.8,4.8,0,0,1-.22-1.64C126.19,37.83,127,36.73,128.18,36.73Zm-1.29,4c0,.86.49,1.53,1.21,1.53a1.3,1.3,0,0,0,1.26-1.46,1.29,1.29,0,0,0-1.24-1.45A1.3,1.3,0,0,0,126.89,40.77Z"/><path class="cls-3" d="M133.22,42.7h-.64V37.55a4.46,4.46,0,0,1-1.24.84v-.6a4.33,4.33,0,0,0,1.27-.93h.45c.12,0,.16,0,.16.15Z"/><path class="cls-3" d="M137.19,42.82a1.61,1.61,0,0,1-1.71-1.52h.63a1.06,1.06,0,0,0,1.11,1c1.13,0,1.42-1.43,1.41-2.65a1.48,1.48,0,0,1-1.51,1,1.75,1.75,0,0,1-1.74-2,1.83,1.83,0,0,1,1.84-2c1,0,2,.53,2,2.89C139.18,41.74,138.42,42.82,137.19,42.82Zm1.29-4c0-.86-.5-1.52-1.22-1.52a1.47,1.47,0,0,0,0,2.9A1.3,1.3,0,0,0,138.48,38.78Z"/><path class="cls-3" d="M164.08,42.74c-.11,0-.14,0-.14-.16V36.91c0-.11,0-.15.14-.15h3.3v.55h-2.82v2.06h2.8v.56h-2.8v2.25h2.95v.56Z"/><path class="cls-3" d="M169,42.74c-.1,0-.13,0-.13-.16V36.76h.63v5.42h2.83v.56Z"/><path class="cls-3" d="M176.76,39.43V40h-3.67v-.56Z"/><path class="cls-3" d="M179.09,42.7h-.71l2.19-5.29h-2.93v-.55h3.45c.11,0,.15,0,.15.15v.3a.6.6,0,0,1-.06.23Z"/><path class="cls-3" d="M182.21,42.1c.75-.72,2.84-2.79,2.84-3.79a1,1,0,0,0-1.09-1,1.05,1.05,0,0,0-1,1.16h-.66A1.64,1.64,0,0,1,184,36.72a1.54,1.54,0,0,1,1.73,1.55c0,1.35-1.92,3-2.77,3.87h2.89v.56h-3.5c-.1,0-.12,0-.12-.13Z"/><path class="cls-3" d="M189,36.87a.18.18,0,0,1,.16-.1h.54c.12,0,.16,0,.16.15v3.94h.87v.56h-.87V42.7h-.63V41.42h-2.49c-.11,0-.15,0-.15-.16v-.33a.49.49,0,0,1,.08-.23Zm.25,1.35v-.74l-2.06,3.38h2Z"/><path class="cls-3" d="M195.11,38.62h-.83v-.83h.83Zm0,3.26h-.83v-.82h.83Z"/><path class="cls-3" d="M198.76,42.1c.76-.72,2.84-2.79,2.84-3.79a1,1,0,0,0-1.08-1,1.06,1.06,0,0,0-1.05,1.16h-.66a1.65,1.65,0,0,1,1.72-1.71,1.53,1.53,0,0,1,1.73,1.55c0,1.35-1.92,3-2.77,3.87h2.9v.56h-3.51c-.1,0-.12,0-.12-.13Z"/><path class="cls-3" d="M207.18,39.74c0,1.5-.35,3.11-2,3.11s-1.89-1.61-1.89-3.11.31-3.12,1.89-3.12S207.18,38.24,207.18,39.74Zm-3.18,0c0,.88.09,2.55,1.23,2.55s1.28-1.67,1.28-2.55-.12-2.57-1.28-2.57S204,38.85,204,39.74Z"/><path class="cls-3" d="M210.34,42.7h-.63V37.55a4.68,4.68,0,0,1-1.25.84v-.6a4.2,4.2,0,0,0,1.27-.93h.46c.12,0,.15,0,.15.15Z"/><path class="cls-3" d="M214.48,36.73a1.6,1.6,0,0,1,1.71,1.52h-.63a1,1,0,0,0-1.08-1c-1.12,0-1.44,1.57-1.45,2.64a1.52,1.52,0,0,1,1.54-1c1.06,0,1.71.77,1.71,2a1.84,1.84,0,0,1-3.58.74,4.8,4.8,0,0,1-.22-1.64C212.48,37.83,213.32,36.73,214.48,36.73Zm-1.3,4c0,.86.49,1.53,1.22,1.53a1.48,1.48,0,1,0-1.22-1.53Z"/><path class="cls-3" d="M9.23,72.41a1.87,1.87,0,1,1,1.86,1.89A1.84,1.84,0,0,1,9.23,72.41Zm3.08,0a1.22,1.22,0,1,0-2.43,0,1.22,1.22,0,1,0,2.43,0Zm-1.87,4.94c-.12,0-.16,0-.16-.17V75h.64v1.78h4.15v.54Zm3.81-1.74v-5.2h.63v5.2Z"/><path class="cls-3" d="M20,71.27H18.6v.23a2.4,2.4,0,0,0,1.83,2.22l-.4.46a3.68,3.68,0,0,1-1.76-1.51,3.37,3.37,0,0,1-1.78,1.72L16,74a2.74,2.74,0,0,0,1.91-2.49v-.21H16.52v-.53H20Zm-2.86,4.91c0-.87,1-1.44,2.41-1.44S22,75.31,22,76.18s-.95,1.43-2.42,1.43S17.13,77.05,17.13,76.18Zm2.41.94c1,0,1.76-.36,1.76-.93s-.75-.93-1.76-.93-1.74.34-1.74.92S18.57,77.12,19.54,77.12Zm3.21-4.55h-1v2.15h-.62V70.41h.62V72h1Z"/><path class="cls-3" d="M26.63,70.74c.13,0,.17,0,.17.17a4.22,4.22,0,0,1-3.2,3.61l-.41-.46a3.79,3.79,0,0,0,2.91-2.77H23.57v-.55Zm-2.55,5.45c0-.87,1-1.44,2.4-1.44s2.43.57,2.43,1.44-1,1.43-2.43,1.43S24.08,77.06,24.08,76.19Zm2.4.94c1,0,1.76-.36,1.76-.93s-.74-.93-1.76-.93-1.73.34-1.73.92S25.52,77.13,26.48,77.13Zm2.27-6.72v1.73h1v.54h-1v1.95h-.63V70.41Z"/><path class="cls-3" d="M35.8,70.79v.55H31.6V73.7h4.27v.54h-2.2v1.82H36.6v.55H30.09v-.55H33V74.24h-1.9c-.13,0-.17,0-.17-.16V71c0-.13,0-.17.17-.17Z"/><path class="cls-3" d="M39,70.07h.48a6,6,0,0,0,0,7.68H39a5.36,5.36,0,0,1,0-7.68Z"/><path class="cls-3" d="M41.87,72a3.69,3.69,0,0,0,1.48,3.35l-.47.44a3.75,3.75,0,0,1-1.36-2,4.14,4.14,0,0,1-1.47,2.26l-.56-.42a4.13,4.13,0,0,0,1.72-3.75v-1.2h.66Zm1.94,5.13v-4H42.6v-.6h1.21v-2h.62v6.63Zm1.39.33V70.41h.61v7.08Z"/><path class="cls-3" d="M47.8,74.75c-.13,0-.17,0-.17-.17v-2c0-.13,0-.17.17-.17h3.87V71.27H47.61v-.52h4.52c.13,0,.17,0,.17.16v1.91c0,.13,0,.17-.17.17H48.24v1.23h4.28v.53H50.31v1.32h2.94v.54H46.74v-.54h2.92V74.75Z"/><path class="cls-3" d="M54,77.75h-.47a6,6,0,0,0,0-7.68H54a5.34,5.34,0,0,1,0,7.68Z"/><path class="cls-3" d="M76.53,75l.46.87,0-1V70.78h.62V76.6c0,.11,0,.15-.14.15h-.51a.18.18,0,0,1-.16-.1l-2.49-4.16-.45-.87v5.13h-.61V70.93c0-.11,0-.15.13-.15h.51a.17.17,0,0,1,.16.1Z"/><path class="cls-3" d="M81.53,77.71h-.67l2.71-7.56h.63Z"/><path class="cls-3" d="M89.9,74a.91.91,0,0,0-1-1c-.67,0-1.11.71-1.11,1.64s.44,1.65,1.11,1.65a1,1,0,0,0,1-1h.66a1.56,1.56,0,0,1-1.65,1.48c-1.23,0-1.81-1-1.81-2.16A1.93,1.93,0,0,1,89,72.56,1.51,1.51,0,0,1,90.55,74Z"/><path class="cls-3" d="M94.06,74.22c0-.79-.25-1.15-.9-1.15s-1,.45-1,1.32v2.36h-.58V72.69h.59v.52a1.44,1.44,0,0,1,1.24-.65,1.13,1.13,0,0,1,1.2.79l.06-.14a1.45,1.45,0,0,1,1.26-.65c.87,0,1.29.53,1.29,1.5v2.69h-.6V74.22c0-.79-.24-1.15-.89-1.15a1.1,1.1,0,0,0-1,1.07v2.61h-.58Z"/><path class="cls-3" d="M100.25,73.78H98.31c-.09,0-.11,0-.11-.11v-.28c.4-.4,1.48-1.44,1.48-2A.44.44,0,0,0,99.2,71c-.29,0-.48.21-.48.6h-.5a.94.94,0,0,1,1-1,.88.88,0,0,1,1,.86c0,.75-1,1.61-1.37,2h1.44Z"/><path class="cls-3" d="M122,74.28c-.09,0-.1,0-.1-.12L122,71c0-.12,0-.16.12-.16h3.05v.55h-2.56l-.11,2a1.6,1.6,0,0,1,1.29-.52c.92,0,1.68.64,1.68,2a1.83,1.83,0,0,1-1.84,2,1.66,1.66,0,0,1-1.84-1.56h.63a1.16,1.16,0,0,0,1.23,1c.67,0,1.18-.56,1.18-1.45s-.49-1.48-1.17-1.48a1.08,1.08,0,0,0-1.1.76c0,.09,0,.14-.16.14Z"/><path class="cls-3" d="M128.41,70.89a.18.18,0,0,1,.16-.1h.54c.12,0,.15,0,.15.15v3.94h.88v.55h-.88v1.28h-.62V75.43h-2.49c-.11,0-.15,0-.15-.15v-.34a.41.41,0,0,1,.07-.22Zm.25,1.34V71.5l-2.06,3.38h2Z"/><path class="cls-3" d="M134.64,73.76c0,1.5-.34,3.1-1.95,3.1s-1.89-1.6-1.89-3.1.31-3.13,1.89-3.13S134.64,72.26,134.64,73.76Zm-3.17,0c0,.88.08,2.54,1.22,2.54S134,74.64,134,73.76s-.13-2.57-1.29-2.57S131.47,72.86,131.47,73.76Z"/><path class="cls-3" d="M137.8,76.71h-.63V71.56a4.69,4.69,0,0,1-1.25.85V71.8a3.93,3.93,0,0,0,1.27-.93h.46c.12,0,.15,0,.15.16Z"/><path class="cls-3" d="M164.08,76.75c-.11,0-.14,0-.14-.15V70.93c0-.11,0-.15.14-.15h3.3v.55h-2.82v2h2.8v.56h-2.8V76.2h2.95v.55Z"/><path class="cls-3" d="M169,76.75c-.1,0-.13,0-.13-.15V70.78h.63V76.2h2.83v.55Z"/><path class="cls-3" d="M176.76,73.45V74h-3.67v-.56Z"/><path class="cls-3" d="M179.09,76.71h-.71l2.19-5.28h-2.93v-.56h3.45c.11,0,.15,0,.15.16v.3a.51.51,0,0,1-.06.22Z"/><path class="cls-3" d="M182.21,76.11c.75-.71,2.84-2.78,2.84-3.78a1,1,0,0,0-1.09-1,1,1,0,0,0-1,1.15h-.66a1.63,1.63,0,0,1,1.72-1.7,1.54,1.54,0,0,1,1.73,1.54c0,1.35-1.92,3-2.77,3.88h2.89v.55h-3.5c-.1,0-.12,0-.12-.12Z"/><path class="cls-3" d="M189,70.89a.18.18,0,0,1,.16-.1h.54c.12,0,.16,0,.16.15v3.94h.87v.55h-.87v1.28h-.63V75.43h-2.49c-.11,0-.15,0-.15-.15v-.34a.42.42,0,0,1,.08-.22Zm.25,1.34V71.5l-2.06,3.38h2Z"/><path class="cls-3" d="M195.11,72.63h-.83v-.82h.83Zm0,3.27h-.83v-.83h.83Z"/><path class="cls-3" d="M198.76,76.11c.76-.71,2.84-2.78,2.84-3.78a1,1,0,0,0-1.08-1,1,1,0,0,0-1.05,1.15h-.66a1.64,1.64,0,0,1,1.72-1.7,1.53,1.53,0,0,1,1.73,1.54c0,1.35-1.92,3-2.77,3.88h2.9v.55h-3.51c-.1,0-.12,0-.12-.12Z"/><path class="cls-3" d="M207.18,73.76c0,1.5-.35,3.1-2,3.1s-1.89-1.6-1.89-3.1.31-3.13,1.89-3.13S207.18,72.26,207.18,73.76Zm-3.18,0c0,.88.09,2.54,1.23,2.54s1.28-1.66,1.28-2.54-.12-2.57-1.28-2.57S204,72.86,204,73.76Z"/><path class="cls-3" d="M210.34,76.71h-.63V71.56a4.69,4.69,0,0,1-1.25.85V71.8a4,4,0,0,0,1.27-.93h.46c.12,0,.15,0,.15.16Z"/><path class="cls-3" d="M214.48,70.75a1.6,1.6,0,0,1,1.71,1.52h-.63a1,1,0,0,0-1.08-1c-1.12,0-1.44,1.58-1.45,2.65a1.52,1.52,0,0,1,1.54-1,1.72,1.72,0,0,1,1.71,2,1.84,1.84,0,0,1-3.58.74,4.74,4.74,0,0,1-.22-1.63C212.48,71.84,213.32,70.75,214.48,70.75Zm-1.3,4c0,.87.49,1.53,1.22,1.53a1.47,1.47,0,1,0-1.22-1.53Z"/><path class="cls-3" d="M16.46,108.37a3.93,3.93,0,0,1-1.77-1.65,3.71,3.71,0,0,1-1.76,1.86l-.49-.44a3,3,0,0,0,1.92-2.65v-.89H15v.83a2.72,2.72,0,0,0,1.86,2.44Zm-2.46,3c-.12,0-.16,0-.16-.17v-2.1h.64v1.72h4.15v.55Zm3.79-1.75v-5.19h.63v5.19Z"/><path class="cls-3" d="M23.52,105.29h-1.4v.22A2.43,2.43,0,0,0,24,107.74l-.39.46a3.73,3.73,0,0,1-1.76-1.51A3.4,3.4,0,0,1,20,108.41l-.47-.42a2.74,2.74,0,0,0,1.91-2.49v-.21H20.05v-.54h3.47Zm-2.86,4.91c0-.87,1-1.44,2.41-1.44s2.42.57,2.42,1.44-.95,1.43-2.42,1.43S20.66,111.07,20.66,110.2Zm2.41.94c1,0,1.76-.36,1.76-.93s-.75-.93-1.76-.93-1.74.34-1.74.92S22.1,111.14,23.07,111.14Zm3.21-4.55h-1v2.15h-.62v-4.31h.62V106h1Z"/><path class="cls-3" d="M33.07,108.14H31.33v.68H32c.12,0,.16,0,.16.16v1.2c0,.13,0,.17-.16.17H28.12V111h4.25v.47H27.62c-.13,0-.17,0-.17-.17v-1.21c0-.13,0-.17.17-.17h3.9v-.62H27.45v-.46h.91v-.68H26.59v-.47h6.48Zm-5.45-1c-.13,0-.17,0-.17-.17v-1.17c0-.13,0-.17.17-.17h3.86V105h-4v-.46H32c.13,0,.17,0,.17.17v1.16c0,.13,0,.17-.17.17H28.12v.61h4.19v.46Zm3.08,1.67v-.68H29v.68Z"/><path class="cls-3" d="M35.5,104.09H36a6,6,0,0,0,0,7.68H35.5a5.36,5.36,0,0,1,0-7.68Z"/><path class="cls-3" d="M36.7,104.83h3c.13,0,.18,0,.18.17a6.06,6.06,0,0,1-3,5l-.52-.44a5.08,5.08,0,0,0,2.85-4.21H36.7Zm6.13,3h-1v3.67h-.64v-7.09h.64v2.84h1Z"/><path class="cls-3" d="M44.28,108.77c-.13,0-.17,0-.17-.17v-1.95c0-.13,0-.17.17-.17h3.87v-1.19H44.09v-.53h4.52c.13,0,.17,0,.17.17v1.91c0,.13,0,.17-.17.17H44.72v1.23H49v.53H46.79v1.32h2.94v.54H43.22v-.54h2.92v-1.32Z"/><path class="cls-3" d="M50.52,111.77h-.47a6,6,0,0,0,0-7.68h.47a5.34,5.34,0,0,1,0,7.68Z"/><path class="cls-3" d="M85.93,106.4c0,.83-.44,1.57-1.29,1.57s-1.28-.74-1.28-1.57.44-1.57,1.28-1.57S85.93,105.58,85.93,106.4Zm-2,0c0,.54.15,1.12.69,1.12s.73-.58.73-1.12-.18-1.14-.73-1.14S83.94,105.87,83.94,106.41Zm3.72-1.68h.59l-3.15,6h-.6Zm1.75,4.47a1.41,1.41,0,0,1-1.29,1.58c-.84,0-1.28-.76-1.28-1.58s.44-1.57,1.28-1.57A1.4,1.4,0,0,1,89.41,109.2Zm-2,0c0,.53.16,1.12.7,1.12s.73-.59.73-1.12-.19-1.13-.73-1.13S87.41,108.66,87.41,109.21Z"/><path class="cls-3" d="M126.12,104.91a.16.16,0,0,1,.16-.11h.54c.12,0,.15,0,.15.15v4h.87v.55H127v1.28h-.62v-1.28h-2.49c-.11,0-.15,0-.15-.15V109a.41.41,0,0,1,.07-.22Zm.24,1.34,0-.74-2.06,3.39h2Z"/><path class="cls-3" d="M128.84,108.3c-.1,0-.11,0-.11-.12l.09-3.14c0-.12,0-.15.13-.15H132v.54h-2.56l-.11,2a1.57,1.57,0,0,1,1.29-.53c.92,0,1.68.65,1.68,2a1.83,1.83,0,0,1-1.85,2,1.67,1.67,0,0,1-1.84-1.56h.64a1.17,1.17,0,0,0,1.23,1c.67,0,1.18-.56,1.18-1.46s-.5-1.47-1.18-1.47a1.1,1.1,0,0,0-1.1.76c0,.09,0,.14-.16.14Z"/><path class="cls-3" d="M134.9,110.86a1.61,1.61,0,0,1-1.71-1.52h.63a1.06,1.06,0,0,0,1.11,1c1.13,0,1.42-1.42,1.41-2.65a1.48,1.48,0,0,1-1.51,1,1.75,1.75,0,0,1-1.74-2,1.83,1.83,0,0,1,1.83-2c1,0,2,.53,2,2.89C136.89,109.78,136.13,110.86,134.9,110.86Zm1.29-4c0-.87-.5-1.53-1.23-1.53s-1.24.64-1.24,1.46a1.28,1.28,0,0,0,1.24,1.44A1.3,1.3,0,0,0,136.19,106.82Z"/><path class="cls-3" d="M164.08,110.77c-.11,0-.14,0-.14-.16V105c0-.12,0-.16.14-.16h3.3v.56h-2.82v2.05h2.8V108h-2.8v2.26h2.95v.55Z"/><path class="cls-3" d="M169,110.77c-.1,0-.13,0-.13-.16v-5.82h.63v5.43h2.83v.55Z"/><path class="cls-3" d="M176.76,107.46V108h-3.67v-.57Z"/><path class="cls-3" d="M179.09,110.73h-.71l2.19-5.29h-2.93v-.55h3.45c.11,0,.15,0,.15.15v.31a.51.51,0,0,1-.06.22Z"/><path class="cls-3" d="M182.21,110.13c.75-.71,2.84-2.78,2.84-3.78a1,1,0,0,0-1.09-1,1,1,0,0,0-1,1.15h-.66a1.64,1.64,0,0,1,1.72-1.71,1.54,1.54,0,0,1,1.73,1.55c0,1.35-1.92,3-2.77,3.88h2.89v.55h-3.5c-.1,0-.12,0-.12-.12Z"/><path class="cls-3" d="M189,104.91a.17.17,0,0,1,.16-.11h.54c.12,0,.16,0,.16.15v4h.87v.55h-.87v1.28h-.63v-1.28h-2.49c-.11,0-.15,0-.15-.15V109a.42.42,0,0,1,.08-.22Zm.25,1.34v-.74l-2.06,3.39h2Z"/><path class="cls-3" d="M195.11,106.65h-.83v-.82h.83Zm0,3.26h-.83v-.82h.83Z"/><path class="cls-3" d="M198.76,110.13c.76-.71,2.84-2.78,2.84-3.78a1,1,0,0,0-1.08-1,1,1,0,0,0-1.05,1.15h-.66a1.65,1.65,0,0,1,1.72-1.71,1.53,1.53,0,0,1,1.73,1.55c0,1.35-1.92,3-2.77,3.88h2.9v.55h-3.51c-.1,0-.12,0-.12-.12Z"/><path class="cls-3" d="M207.18,107.78c0,1.49-.35,3.1-2,3.1s-1.89-1.61-1.89-3.1.31-3.13,1.89-3.13S207.18,106.27,207.18,107.78Zm-3.18,0c0,.88.09,2.54,1.23,2.54s1.28-1.66,1.28-2.54-.12-2.58-1.28-2.58S204,106.88,204,107.78Z"/><path class="cls-3" d="M210.34,110.73h-.63v-5.15a4.93,4.93,0,0,1-1.25.85v-.61a4.2,4.2,0,0,0,1.27-.93h.46c.12,0,.15,0,.15.15Z"/><path class="cls-3" d="M214.48,104.76a1.61,1.61,0,0,1,1.71,1.52h-.63a1,1,0,0,0-1.08-1c-1.12,0-1.44,1.57-1.45,2.65a1.52,1.52,0,0,1,1.54-1c1.06,0,1.71.77,1.71,2a1.84,1.84,0,0,1-3.58.74,4.8,4.8,0,0,1-.22-1.64C212.48,105.86,213.32,104.76,214.48,104.76Zm-1.3,4c0,.86.49,1.53,1.22,1.53a1.3,1.3,0,0,0,1.25-1.46,1.28,1.28,0,0,0-1.24-1.44A1.3,1.3,0,0,0,213.18,108.8Z"/><path class="cls-3" d="M16.46,142.38a3.91,3.91,0,0,1-1.77-1.64,3.69,3.69,0,0,1-1.76,1.85l-.49-.44a3,3,0,0,0,1.92-2.64v-.89H15v.83a2.73,2.73,0,0,0,1.86,2.44Zm-2.46,3c-.12,0-.16,0-.16-.17v-2.09h.64v1.72h4.15v.54Zm3.79-1.74v-5.2h.63v5.2Z"/><path class="cls-3" d="M23.52,139.31h-1.4v.22A2.42,2.42,0,0,0,24,141.75l-.39.47a3.7,3.7,0,0,1-1.76-1.52A3.37,3.37,0,0,1,20,142.42l-.47-.42a2.72,2.72,0,0,0,1.91-2.49v-.2H20.05v-.54h3.47Zm-2.86,4.91c0-.88,1-1.44,2.41-1.44s2.42.56,2.42,1.44-.95,1.43-2.42,1.43S20.66,145.09,20.66,144.22Zm2.41.93c1,0,1.76-.36,1.76-.93s-.75-.92-1.76-.92-1.74.33-1.74.92S22.1,145.15,23.07,145.15Zm3.21-4.55h-1v2.15h-.62v-4.31h.62v1.61h1Z"/><path class="cls-3" d="M33.07,142.16H31.33v.67H32c.12,0,.16,0,.16.17v1.2c0,.13,0,.17-.16.17H28.12V145h4.25v.46H27.62c-.13,0-.17,0-.17-.17v-1.2c0-.13,0-.17.17-.17h3.9v-.62H27.45v-.47h.91v-.67H26.59v-.47h6.48Zm-5.45-1c-.13,0-.17,0-.17-.17v-1.16c0-.13,0-.17.17-.17h3.86v-.6h-4v-.47H32c.13,0,.17,0,.17.17v1.17c0,.13,0,.17-.17.17H28.12v.6h4.19v.46Zm3.08,1.67v-.67H29v.67Z"/><path class="cls-3" d="M35.5,138.11H36a6,6,0,0,0,0,7.67H35.5a5.35,5.35,0,0,1,0-7.67Z"/><path class="cls-3" d="M38.35,140.06a3.69,3.69,0,0,0,1.49,3.36l-.48.43a3.76,3.76,0,0,1-1.36-2,4.15,4.15,0,0,1-1.47,2.25L36,143.7a4.16,4.16,0,0,0,1.72-3.76v-1.19h.66Zm1.94,5.13v-4H39.08v-.6h1.21v-2h.62v6.63Zm1.39.34v-7.09h.61v7.09Z"/><path class="cls-3" d="M44.28,142.78c-.13,0-.17,0-.17-.16v-2c0-.12,0-.16.17-.16h3.87v-1.19H44.09v-.53h4.52c.13,0,.17,0,.17.17v1.91c0,.13,0,.17-.17.17H44.72v1.23H49v.52H46.79v1.32h2.94v.55H43.22v-.55h2.92v-1.32Z"/><path class="cls-3" d="M50.52,145.78h-.47a6,6,0,0,0,0-7.67h.47a5.33,5.33,0,0,1,0,7.67Z"/><path class="cls-3" d="M85.93,140.42c0,.82-.44,1.56-1.29,1.56s-1.28-.74-1.28-1.56.44-1.58,1.28-1.58S85.93,139.59,85.93,140.42Zm-2,0c0,.53.15,1.11.69,1.11s.73-.58.73-1.11-.18-1.15-.73-1.15S83.94,139.88,83.94,140.43Zm3.72-1.68h.59l-3.15,6h-.6Zm1.75,4.47a1.4,1.4,0,0,1-1.29,1.57c-.84,0-1.28-.75-1.28-1.57s.44-1.57,1.28-1.57A1.4,1.4,0,0,1,89.41,143.22Zm-2,0c0,.54.16,1.12.7,1.12s.73-.58.73-1.12-.19-1.12-.73-1.12S87.41,142.68,87.41,143.22Z"/><path class="cls-3" d="M126.34,144.74h-.63v-5.15a4.47,4.47,0,0,1-1.25.85v-.61a3.9,3.9,0,0,0,1.27-.92h.46c.12,0,.15,0,.15.15Z"/><path class="cls-3" d="M130.32,144.87a1.6,1.6,0,0,1-1.71-1.52h.63a1,1,0,0,0,1.11,1c1.13,0,1.41-1.42,1.41-2.64a1.48,1.48,0,0,1-1.52,1,1.75,1.75,0,0,1-1.74-2,1.83,1.83,0,0,1,1.84-2c1,0,2,.53,2,2.89C132.31,143.79,131.55,144.87,130.32,144.87Zm1.28-4c0-.86-.49-1.52-1.22-1.52a1.47,1.47,0,0,0,0,2.9A1.3,1.3,0,0,0,131.6,140.83Z"/><path class="cls-3" d="M134.9,144.87a1.6,1.6,0,0,1-1.71-1.52h.63a1.06,1.06,0,0,0,1.11,1c1.13,0,1.42-1.42,1.41-2.64a1.47,1.47,0,0,1-1.51,1,1.74,1.74,0,0,1-1.74-2,1.82,1.82,0,0,1,1.83-2c1,0,2,.53,2,2.89C136.89,143.79,136.13,144.87,134.9,144.87Zm1.29-4c0-.86-.5-1.52-1.23-1.52a1.47,1.47,0,0,0,0,2.9A1.3,1.3,0,0,0,136.19,140.83Z"/><path class="cls-3" d="M164.08,144.78c-.11,0-.14,0-.14-.15V139c0-.11,0-.15.14-.15h3.3v.55h-2.82v2.06h2.8V142h-2.8v2.25h2.95v.55Z"/><path class="cls-3" d="M169,144.78c-.1,0-.13,0-.13-.15v-5.82h.63v5.42h2.83v.55Z"/><path class="cls-3" d="M176.76,141.48V142h-3.67v-.56Z"/><path class="cls-3" d="M179.09,144.74h-.71l2.19-5.28h-2.93v-.55h3.45c.11,0,.15,0,.15.15v.3a.6.6,0,0,1-.06.23Z"/><path class="cls-3" d="M182.21,144.14c.75-.71,2.84-2.78,2.84-3.78a1,1,0,0,0-1.09-1,1.05,1.05,0,0,0-1,1.15h-.66a1.63,1.63,0,0,1,1.72-1.7,1.54,1.54,0,0,1,1.73,1.54c0,1.35-1.92,3-2.77,3.88h2.89v.55h-3.5c-.1,0-.12,0-.12-.12Z"/><path class="cls-3" d="M189,138.92a.18.18,0,0,1,.16-.1h.54c.12,0,.16,0,.16.15v3.94h.87v.55h-.87v1.28h-.63v-1.28h-2.49c-.11,0-.15,0-.15-.15V143a.49.49,0,0,1,.08-.23Zm.25,1.35v-.74l-2.06,3.38h2Z"/><path class="cls-3" d="M195.11,140.66h-.83v-.82h.83Zm0,3.27h-.83v-.83h.83Z"/><path class="cls-3" d="M198.76,144.14c.76-.71,2.84-2.78,2.84-3.78a1,1,0,0,0-1.08-1,1.05,1.05,0,0,0-1.05,1.15h-.66a1.64,1.64,0,0,1,1.72-1.7,1.53,1.53,0,0,1,1.73,1.54c0,1.35-1.92,3-2.77,3.88h2.9v.55h-3.51c-.1,0-.12,0-.12-.12Z"/><path class="cls-3" d="M207.18,141.79c0,1.5-.35,3.11-2,3.11s-1.89-1.61-1.89-3.11.31-3.12,1.89-3.12S207.18,140.29,207.18,141.79Zm-3.18,0c0,.88.09,2.54,1.23,2.54s1.28-1.66,1.28-2.54-.12-2.57-1.28-2.57S204,140.9,204,141.79Z"/><path class="cls-3" d="M210.34,144.74h-.63v-5.15a4.47,4.47,0,0,1-1.25.85v-.61a4,4,0,0,0,1.27-.92h.46c.12,0,.15,0,.15.15Z"/><path class="cls-3" d="M214.48,138.78a1.6,1.6,0,0,1,1.71,1.52h-.63a1,1,0,0,0-1.08-1c-1.12,0-1.44,1.58-1.45,2.65a1.51,1.51,0,0,1,1.54-1,1.72,1.72,0,0,1,1.71,2,1.85,1.85,0,0,1-3.58.75,4.84,4.84,0,0,1-.22-1.64C212.48,139.87,213.32,138.78,214.48,138.78Zm-1.3,4c0,.86.49,1.52,1.22,1.52a1.47,1.47,0,1,0-1.22-1.52Z"/><path class="cls-3" d="M18.77,175.68h.87l0-2.37H19v-.52h3.82v.52h-.67l0,2.34c.44,0,.81-.07,1.19-.12v.52a16.69,16.69,0,0,1-2.51.17h-2Zm3.41,1.18c1.51,0,2.45.55,2.45,1.41s-.94,1.4-2.45,1.4-2.44-.54-2.44-1.41S20.68,176.86,22.18,176.86Zm-1.94-1.18h1.23l.05-2.36H20.2Zm1.94,3.49c1,0,1.78-.33,1.78-.89s-.74-.91-1.78-.91-1.78.31-1.78.88S21.14,179.17,22.18,179.17Zm.64-4.53h1.11V174H22.82v-.51h1.11v-1h.63v4.37h-.63v-1.68H22.82Z"/><path class="cls-3" d="M31.2,172.67c.13,0,.17,0,.17.16a21.69,21.69,0,0,1-.34,2.63h1.08V176H30.47v2.06h-.63V176H28.56v2.06h-.63V176h-2.3v-.54h4.79a19.68,19.68,0,0,0,.3-2.25H26.37v-.54Zm-4.52,6.73c-.13,0-.17,0-.17-.17v-2.12h.61v1.74H31.5v.55Z"/><path class="cls-3" d="M35.61,179.56V177H32.68v-.54h6.48V177H36.27v2.54Zm2.74-6.85v.55H34.16v1.66h4.27v.55H33.7c-.14,0-.17,0-.17-.16v-2.43c0-.13,0-.17.17-.17Z"/><path class="cls-3" d="M41.64,172.93c.13,0,.17,0,.17.17a8.93,8.93,0,0,1-1.53,4.73l-.58-.22a7.28,7.28,0,0,0,1.49-4.14h-1v-.54Zm1.55,0c.13,0,.17,0,.17.17a11.55,11.55,0,0,1-.22,1.92h.91v-2.44h.59v6.63h-.59v-3.65H43a10.17,10.17,0,0,1-1.16,2.63l-.58-.21a7.9,7.9,0,0,0,1.46-4.51H42v-.54Zm2.7-.48v7.1H45.3v-7.1Z"/><path class="cls-3" d="M82.45,176.27c0-.79-.25-1.15-.9-1.15s-1,.45-1,1.32v2.36h-.58v-4.06h.59v.52a1.44,1.44,0,0,1,1.24-.65,1.11,1.11,0,0,1,1.19.79l.07-.14a1.45,1.45,0,0,1,1.25-.65c.88,0,1.3.53,1.3,1.49v2.7H85v-2.53c0-.79-.24-1.15-.9-1.15a1.1,1.1,0,0,0-1,1.06v2.62h-.58Z"/><path class="cls-3" d="M89.66,176.27c0-.79-.25-1.15-.9-1.15s-1.06.45-1.06,1.32v2.36h-.57v-4.06h.59l0,.52a1.47,1.47,0,0,1,1.25-.65,1.12,1.12,0,0,1,1.19.79l.07-.14a1.45,1.45,0,0,1,1.25-.65c.87,0,1.3.53,1.3,1.49v2.7h-.6v-2.53c0-.79-.24-1.15-.9-1.15a1.1,1.1,0,0,0-1,1.06v2.62h-.58Z"/><path class="cls-3" d="M124.23,175.81c0,1.49-.34,3.1-2,3.1s-1.89-1.61-1.89-3.1.32-3.13,1.89-3.13S124.23,174.31,124.23,175.81Zm-3.17,0c0,.88.09,2.54,1.22,2.54s1.29-1.66,1.29-2.54-.13-2.58-1.29-2.58S121.06,174.91,121.06,175.81Z"/><path class="cls-3" d="M126.14,178.94h-.82v-.82h.82Z"/><path class="cls-3" d="M131.3,175.81c0,1.49-.35,3.1-2,3.1s-1.88-1.61-1.88-3.1.31-3.13,1.88-3.13S131.3,174.31,131.3,175.81Zm-3.18,0c0,.88.09,2.54,1.22,2.54s1.29-1.66,1.29-2.54-.13-2.58-1.29-2.58S128.12,174.91,128.12,175.81Z"/><path class="cls-3" d="M133.78,176h-.32c-.12,0-.13,0-.13-.13v-.3c0-.12,0-.16.13-.16h.26c.66,0,1.25-.3,1.25-1a1,1,0,0,0-1.17-1,1.06,1.06,0,0,0-1.17,1H132a1.63,1.63,0,0,1,1.83-1.6c1,0,1.79.47,1.79,1.56a1.42,1.42,0,0,1-1.19,1.39,1.45,1.45,0,0,1,1.32,1.48c0,1.17-1,1.67-2,1.67a1.69,1.69,0,0,1-1.88-1.71h.64a1.16,1.16,0,0,0,1.27,1.16,1.14,1.14,0,0,0,1.28-1.2C135.1,176.34,134.45,176,133.78,176Z"/><path class="cls-3" d="M139,178.76h-.63v-5.15a4.93,4.93,0,0,1-1.25.85v-.61a4.2,4.2,0,0,0,1.27-.93h.46c.12,0,.15,0,.15.15Z"/><path class="cls-3" d="M164.08,178.8c-.11,0-.14,0-.14-.15V173c0-.11,0-.15.14-.15h3.3v.55h-2.82v2.05h2.8V176h-2.8v2.26h2.95v.55Z"/><path class="cls-3" d="M169,178.8c-.1,0-.13,0-.13-.15v-5.82h.63v5.42h2.83v.55Z"/><path class="cls-3" d="M176.76,175.5v.56h-3.67v-.56Z"/><path class="cls-3" d="M179.09,178.76h-.71l2.19-5.29h-2.93v-.55h3.45c.11,0,.15,0,.15.15v.31a.51.51,0,0,1-.06.22Z"/><path class="cls-3" d="M182.21,178.16c.75-.71,2.84-2.78,2.84-3.78a1,1,0,0,0-1.09-1,1,1,0,0,0-1,1.15h-.66a1.63,1.63,0,0,1,1.72-1.7,1.53,1.53,0,0,1,1.73,1.54c0,1.35-1.92,3-2.77,3.88h2.89v.55h-3.5c-.1,0-.12,0-.12-.12Z"/><path class="cls-3" d="M189,172.94a.17.17,0,0,1,.16-.11h.54c.12,0,.16,0,.16.16v3.94h.87v.55h-.87v1.28h-.63v-1.28h-2.49c-.11,0-.15,0-.15-.15V177a.42.42,0,0,1,.08-.22Zm.25,1.34v-.73l-2.06,3.38h2Z"/><path class="cls-3" d="M195.11,174.68h-.83v-.82h.83Zm0,3.26h-.83v-.82h.83Z"/><path class="cls-3" d="M198.76,178.16c.76-.71,2.84-2.78,2.84-3.78a1,1,0,0,0-1.08-1,1,1,0,0,0-1.05,1.15h-.66a1.64,1.64,0,0,1,1.72-1.7,1.53,1.53,0,0,1,1.73,1.54c0,1.35-1.92,3-2.77,3.88h2.9v.55h-3.51c-.1,0-.12,0-.12-.12Z"/><path class="cls-3" d="M207.18,175.81c0,1.49-.35,3.1-2,3.1s-1.89-1.61-1.89-3.1.31-3.13,1.89-3.13S207.18,174.31,207.18,175.81Zm-3.18,0c0,.88.09,2.54,1.23,2.54s1.28-1.66,1.28-2.54-.12-2.58-1.28-2.58S204,174.91,204,175.81Z"/><path class="cls-3" d="M210.34,178.76h-.63v-5.15a4.93,4.93,0,0,1-1.25.85v-.61a4.2,4.2,0,0,0,1.27-.93h.46c.12,0,.15,0,.15.15Z"/><path class="cls-3" d="M214.48,172.79a1.61,1.61,0,0,1,1.71,1.52h-.63a1,1,0,0,0-1.08-1c-1.12,0-1.44,1.58-1.45,2.65a1.52,1.52,0,0,1,1.54-1,1.72,1.72,0,0,1,1.71,2,1.84,1.84,0,0,1-3.58.74,4.8,4.8,0,0,1-.22-1.64C212.48,173.89,213.32,172.79,214.48,172.79Zm-1.3,4c0,.87.49,1.53,1.22,1.53a1.3,1.3,0,0,0,1.25-1.46,1.28,1.28,0,0,0-1.24-1.44A1.3,1.3,0,0,0,213.18,176.83Z"/><path class="cls-3" d="M25.63,210h1.78v-1c-.68-.26-1-.68-1-1.14,0-.75.84-1.35,2.48-1.35s2.49.61,2.49,1.36c0,.46-.34.87-1,1.13v1h1.76v.54H25.63Zm3.25,1.11c1.7,0,2.53.56,2.53,1.32s-.82,1.31-2.53,1.31-2.54-.57-2.54-1.32S27.19,211.07,28.88,211.07Zm0,2.14c1.13,0,1.83-.31,1.83-.82s-.69-.85-1.83-.85-1.84.31-1.84.84S27.72,213.21,28.88,213.21Zm0-4.57c1.05,0,1.81-.35,1.81-.86s-.7-.87-1.81-.87-1.81.35-1.81.86S27.8,208.64,28.88,208.64Zm.87,1.32v-.9a4.08,4.08,0,0,1-.87.08,4.32,4.32,0,0,1-.84-.07V210Z"/><path class="cls-3" d="M36.08,206.75c.13,0,.17,0,.17.16v1.71c0,.13,0,.17-.17.17H33.67v1.07h.61a18.9,18.9,0,0,0,3-.26v.54a19.75,19.75,0,0,1-3.2.26h-.89c-.13,0-.17,0-.17-.17v-1.78c0-.13,0-.17.17-.17h2.42v-1H33.05v-.52ZM36,211c1.59,0,2.42.55,2.42,1.34s-.83,1.32-2.42,1.32-2.43-.56-2.43-1.32S34.42,211,36,211Zm0,2.17c1,0,1.74-.3,1.74-.83s-.71-.84-1.74-.84-1.76.29-1.76.84S35,213.2,36,213.2Zm3.23-5.37h-1v1.11h1v.55h-1v1.45h-.62v-4.47h.62v.82h1Z"/><path class="cls-3" d="M85.14,212.81c-.1,0-.14,0-.14-.15v-5.82h.64v5.42h2.83v.55Z"/><path class="cls-3" d="M122.81,212.77h-.63v-5.15a4.47,4.47,0,0,1-1.25.85v-.61a4.12,4.12,0,0,0,1.27-.92h.46c.12,0,.15,0,.15.15Z"/><path class="cls-3" d="M126.45,212.77h-.71l2.19-5.28H125v-.55h3.46c.11,0,.15,0,.15.15v.3a.6.6,0,0,1-.06.23Z"/><path class="cls-3" d="M130.73,213h-.82v-.83h.82Z"/><path class="cls-3" d="M134,206.81a1.62,1.62,0,0,1,1.72,1.52h-.63a1,1,0,0,0-1.08-1c-1.13,0-1.45,1.57-1.46,2.64a1.51,1.51,0,0,1,1.54-1,1.73,1.73,0,0,1,1.72,2,1.85,1.85,0,0,1-3.59.74A4.8,4.8,0,0,1,132,210C132,207.91,132.86,206.81,134,206.81Zm-1.3,4c0,.86.49,1.52,1.22,1.52a1.47,1.47,0,0,0,0-2.9A1.3,1.3,0,0,0,132.71,210.85Z"/><path class="cls-3" d="M140.46,209.82c0,1.5-.34,3.11-2,3.11s-1.89-1.61-1.89-3.11.32-3.12,1.89-3.12S140.46,208.32,140.46,209.82Zm-3.17,0c0,.88.09,2.55,1.22,2.55s1.29-1.67,1.29-2.55-.13-2.57-1.29-2.57S137.29,208.93,137.29,209.82Z"/><path class="cls-3" d="M165.2,212.81c-.11,0-.14,0-.14-.15V207c0-.11,0-.15.14-.15h3.3v.55h-2.82v2.06h2.8V210h-2.8v2.25h2.95v.55Z"/><path class="cls-3" d="M170.12,212.81c-.1,0-.13,0-.13-.15v-5.82h.63v5.42h2.83v.55Z"/><path class="cls-3" d="M178,212.77h-.71l2.19-5.28h-2.93v-.55H180c.12,0,.16,0,.16.15v.3a.62.62,0,0,1-.07.23Z"/><path class="cls-3" d="M181.09,212.17c.75-.71,2.83-2.78,2.83-3.78a1,1,0,0,0-1.08-1,1.05,1.05,0,0,0-1.05,1.15h-.66a1.64,1.64,0,0,1,1.72-1.7,1.53,1.53,0,0,1,1.73,1.54c0,1.36-1.92,3-2.77,3.88h2.9v.55H181.2c-.1,0-.11,0-.11-.12Z"/><path class="cls-3" d="M187.85,207a.18.18,0,0,1,.16-.1h.55c.12,0,.15,0,.15.15v3.94h.87v.55h-.87v1.28h-.63v-1.28H185.6c-.11,0-.15,0-.15-.15V211a.48.48,0,0,1,.07-.23Zm.25,1.35,0-.74-2.07,3.38h2Z"/><path class="cls-3" d="M194,208.7h-.82v-.83H194Zm0,3.26h-.82v-.82H194Z"/><path class="cls-3" d="M197.64,212.17c.75-.71,2.84-2.78,2.84-3.78a1,1,0,0,0-1.09-1,1.05,1.05,0,0,0-1,1.15h-.66a1.64,1.64,0,0,1,1.72-1.7,1.53,1.53,0,0,1,1.73,1.54c0,1.36-1.92,3-2.77,3.88h2.9v.55h-3.51c-.1,0-.11,0-.11-.12Z"/><path class="cls-3" d="M206.05,209.82c0,1.5-.34,3.11-2,3.11s-1.89-1.61-1.89-3.11.31-3.12,1.89-3.12S206.05,208.32,206.05,209.82Zm-3.17,0c0,.88.08,2.55,1.22,2.55s1.29-1.67,1.29-2.55-.13-2.57-1.29-2.57S202.88,208.93,202.88,209.82Z"/><path class="cls-3" d="M209.21,212.77h-.63v-5.15a4.47,4.47,0,0,1-1.25.85v-.61a3.9,3.9,0,0,0,1.27-.92h.46c.12,0,.15,0,.15.15Z"/><path class="cls-3" d="M213.35,206.81a1.62,1.62,0,0,1,1.72,1.52h-.63a1,1,0,0,0-1.08-1c-1.13,0-1.45,1.57-1.46,2.64a1.51,1.51,0,0,1,1.54-1c1.06,0,1.71.77,1.71,2a1.84,1.84,0,0,1-3.58.74,4.8,4.8,0,0,1-.22-1.64C211.35,207.91,212.2,206.81,213.35,206.81Zm-1.3,4c0,.86.49,1.52,1.22,1.52a1.47,1.47,0,0,0,0-2.9A1.3,1.3,0,0,0,212.05,210.85Z"/><path class="cls-3" d="M9.59,241.35H8.2v.29A2.44,2.44,0,0,0,10,243.89l-.4.46a3.79,3.79,0,0,1-1.76-1.53,3.45,3.45,0,0,1-1.76,1.75l-.47-.43a2.74,2.74,0,0,0,1.89-2.52v-.27H6.13v-.53H9.59Zm-2.68,4.91c0-.87,1-1.44,2.41-1.44s2.42.57,2.42,1.44-1,1.43-2.42,1.43S6.91,247.13,6.91,246.26Zm2.41.94c1,0,1.75-.36,1.75-.93s-.74-.93-1.75-.93-1.74.34-1.74.92S8.35,247.2,9.32,247.2ZM11,244.78v-2.15H9.52v-.53H11v-1.61h.62v4.29Z"/><path class="cls-3" d="M16.64,241.35h-1.4v.33a2.12,2.12,0,0,0,.49,1.35,3,3,0,0,0,1.35.9,2.92,2.92,0,0,0-.42.46,4.27,4.27,0,0,1-1-.61,3,3,0,0,1-.77-.92,2.89,2.89,0,0,1-.65,1,5.4,5.4,0,0,1-1.1.76,4.29,4.29,0,0,0-.49-.43,3.58,3.58,0,0,0,1.46-1.09,2.42,2.42,0,0,0,.46-1.43v-.31H13.18v-.53h3.46Zm1.84,3.77c.13,0,.17,0,.17.17v2.33H18v-2H14v-.54Zm.18-.38H18v-2.1H16.56v-.55H18v-1.6h.63Z"/><path class="cls-3" d="M28.57,245.21h-2.9v2.36H25v-2.36h-3v-.55h6.49Zm-5.63-4.57h.62v.91h3.51v-.91h.63v3c0,.13,0,.17-.17.17H23.11c-.13,0-.17,0-.17-.17Zm.62,2.59h3.51v-1.16H23.56Z"/><path class="cls-3" d="M33.39,242.31h-4v-.54h4Zm-.25,2.26a1.76,1.76,0,0,1-3.52,0,1.76,1.76,0,0,1,3.52,0Zm-2.87,0a1.11,1.11,0,1,0,1.11-1.15A1.06,1.06,0,0,0,30.27,244.57Zm.07-3.95h2.08v.53H30.34Zm3.85,7v-7.09h.62v2.88h1.06V244H34.81v3.63Z"/><path class="cls-3" d="M39.35,245.75c-.13,0-.17,0-.17-.17v-4.77h.64v4.35h.44A13.86,13.86,0,0,0,42,245v.57a15.07,15.07,0,0,1-2.2.18Zm3,1.49v-6.63H43V243h1v-2.54h.61v7.09H44v-3.94H43v3.6Z"/><path class="cls-3" d="M51.17,240.74c.13,0,.17,0,.17.17a27.09,27.09,0,0,1-.38,3h1.15v.54h-3v3.14h-.64v-3.14H45.6v-.54h4.73a19.43,19.43,0,0,0,.34-2.61H46.36v-.55Z"/><path class="cls-3" d="M55.19,241.35A2.55,2.55,0,0,0,57,243.72l-.4.5a4,4,0,0,1-1.78-1.57,3.47,3.47,0,0,1-1.76,1.76l-.49-.43a2.84,2.84,0,0,0,1.91-2.56v-.76h.67Zm1.09,3.5c1.51,0,2.45.57,2.45,1.44s-.94,1.41-2.45,1.41-2.44-.55-2.44-1.42S54.79,244.85,56.28,244.85Zm0,2.35c1,0,1.79-.35,1.79-.91s-.75-.93-1.79-.93-1.77.33-1.77.91S55.24,247.2,56.28,247.2Zm.12-5.37H58v-1.34h.62v4.28H58v-2.39H56.4Z"/><path class="cls-3" d="M83.18,245.48h6.51V246H83.18Z"/><path class="cls-3" d="M118.68,240.66c.95,0,1.75.85,1.75,2.69s-.79,2.7-1.75,2.7-1.76-.87-1.76-2.7S117.7,240.66,118.68,240.66Zm0,4.82c.77,0,1.12-1,1.12-2.13s-.34-2.13-1.12-2.13-1.14,1-1.14,2.13S117.9,245.48,118.68,245.48Zm3.77-5v7.1h-.64v-7.1Z"/><path class="cls-3" d="M123.39,244a2.85,2.85,0,0,0,1.92-2.64v-.66H126v.67a2.57,2.57,0,0,0,1.84,2.37l-.4.49a3.83,3.83,0,0,1-1.76-1.57,3.69,3.69,0,0,1-1.78,1.79Zm1.18,2.33c0-.88,1-1.43,2.39-1.43s2.41.55,2.41,1.43-.93,1.42-2.4,1.42S124.57,247.16,124.57,246.29Zm2.39.92c1,0,1.74-.35,1.74-.92s-.73-.92-1.74-.92-1.72.33-1.72.92S126,247.21,127,247.21Zm2.25-6.72v1.65h1v.55h-1v2.08h-.63v-4.28Z"/><path class="cls-3" d="M130.92,242.29a1.74,1.74,0,0,1,1.82-1.72,1.77,1.77,0,0,1,1.81,1.49h1.37v-1.57h.62v3.75h-.62v-1.62h-1.38a1.79,1.79,0,0,1-1.8,1.4A1.76,1.76,0,0,1,130.92,242.29Zm1.82,1.17a1.14,1.14,0,0,0,1.19-1.16,1.17,1.17,0,0,0-1.19-1.18,1.19,1.19,0,0,0-1.2,1.18A1.17,1.17,0,0,0,132.74,243.46Zm-.94,1.16h.58v.87h1.32v-.87h.6v2.52a2.35,2.35,0,0,0,1.15-2v-.52h.64v.52a2.4,2.4,0,0,0,1.17,2l-.44.41a2.88,2.88,0,0,1-1-1.36,3.2,3.2,0,0,1-1.05,1.37l-.42-.4v.15c0,.13,0,.17-.17.17H132c-.13,0-.17,0-.17-.17Zm1.9,2.39v-1h-1.32v1Z"/><path class="cls-3" d="M144.18,244.29h-6.49v-.53h6.49Zm-3.24-3.86c1.64,0,2.49.58,2.49,1.42s-.84,1.38-2.49,1.38-2.49-.53-2.49-1.38S139.31,240.43,140.94,240.43Zm2.2,4.64c.13,0,.17,0,.17.17v2.09c0,.12,0,.16-.17.16h-4.41c-.13,0-.17,0-.17-.16v-2.09c0-.13,0-.17.17-.17Zm-2.2-4.15c-1.09,0-1.81.32-1.81.93s.69.89,1.81.89,1.81-.29,1.81-.89S142,240.92,140.94,240.92ZM139.18,247h3.49v-1.38h-3.49Z"/><path class="cls-3" d="M165.2,246.83c-.11,0-.14,0-.14-.15V241c0-.11,0-.15.14-.15h3.3v.55h-2.82v2.05h2.8V244h-2.8v2.26h2.95v.55Z"/><path class="cls-3" d="M170.12,246.83c-.1,0-.13,0-.13-.15v-5.82h.63v5.42h2.83v.55Z"/><path class="cls-3" d="M178,246.79h-.71l2.19-5.29h-2.93V241H180c.12,0,.16,0,.16.16v.3a.52.52,0,0,1-.07.22Z"/><path class="cls-3" d="M181.09,246.19c.75-.71,2.83-2.78,2.83-3.78a1,1,0,0,0-1.08-1,1,1,0,0,0-1.05,1.15h-.66a1.64,1.64,0,0,1,1.72-1.7,1.53,1.53,0,0,1,1.73,1.54c0,1.35-1.92,3-2.77,3.88h2.9v.55H181.2c-.1,0-.11,0-.11-.12Z"/><path class="cls-3" d="M187.85,241a.19.19,0,0,1,.16-.11h.55c.12,0,.15,0,.15.16V245h.87v.55h-.87v1.28h-.63v-1.28H185.6c-.11,0-.15,0-.15-.15V245a.41.41,0,0,1,.07-.22Zm.25,1.34,0-.73L186.05,245h2Z"/><path class="cls-3" d="M194,242.71h-.82v-.82H194Zm0,3.26h-.82v-.82H194Z"/><path class="cls-3" d="M197.64,246.19c.75-.71,2.84-2.78,2.84-3.78a1,1,0,0,0-1.09-1,1,1,0,0,0-1,1.15h-.66a1.64,1.64,0,0,1,1.72-1.7,1.53,1.53,0,0,1,1.73,1.54c0,1.35-1.92,3-2.77,3.88h2.9v.55h-3.51c-.1,0-.11,0-.11-.12Z"/><path class="cls-3" d="M206.05,243.84c0,1.49-.34,3.1-2,3.1s-1.89-1.61-1.89-3.1.31-3.13,1.89-3.13S206.05,242.34,206.05,243.84Zm-3.17,0c0,.88.08,2.54,1.22,2.54s1.29-1.66,1.29-2.54-.13-2.58-1.29-2.58S202.88,242.94,202.88,243.84Z"/><path class="cls-3" d="M209.21,246.79h-.63v-5.15a4.93,4.93,0,0,1-1.25.85v-.61a4.08,4.08,0,0,0,1.27-.93h.46c.12,0,.15,0,.15.16Z"/><path class="cls-3" d="M213.35,240.82a1.62,1.62,0,0,1,1.72,1.52h-.63a1,1,0,0,0-1.08-1c-1.13,0-1.45,1.58-1.46,2.65a1.52,1.52,0,0,1,1.54-1,1.72,1.72,0,0,1,1.71,2,1.84,1.84,0,0,1-3.58.74,4.78,4.78,0,0,1-.22-1.63C211.35,241.92,212.2,240.82,213.35,240.82Zm-1.3,4c0,.87.49,1.53,1.22,1.53a1.47,1.47,0,0,0,0-2.9A1.3,1.3,0,0,0,212.05,244.86Z"/><path class="cls-3" d="M11.23,274.71v.52H7.09v1.23H11.3V277H9.16v1h2.92v.54H5.59V278H8.51v-1H6.63c-.14,0-.17,0-.17-.16v-1.95c0-.13,0-.17.17-.17ZM8.84,279c1.63,0,2.54.58,2.54,1.37s-.9,1.37-2.54,1.37-2.55-.58-2.55-1.37S7.2,279,8.84,279Zm0,2.25c1.07,0,1.84-.31,1.84-.89s-.77-.87-1.84-.87-1.85.31-1.85.87S7.72,281.24,8.84,281.24Z"/><path class="cls-3" d="M16.64,275.37h-1.4v.33a2.14,2.14,0,0,0,.49,1.35,3,3,0,0,0,1.35.89,3.47,3.47,0,0,0-.42.47,5.11,5.11,0,0,1-1-.61,3,3,0,0,1-.77-.92,2.85,2.85,0,0,1-.65,1,4.71,4.71,0,0,1-1.1.76,4.26,4.26,0,0,0-.49-.42,3.7,3.7,0,0,0,1.46-1.1,2.37,2.37,0,0,0,.46-1.43v-.3H13.18v-.54h3.46Zm1.84,3.76c.13,0,.17,0,.17.17v2.34H18v-2H14v-.55Zm.18-.37H18v-2.1H16.56v-.56H18v-1.6h.63Z"/><path class="cls-3" d="M28.57,279.22h-2.9v2.37H25v-2.37h-3v-.54h6.49Zm-5.63-4.56h.62v.91h3.51v-.91h.63v2.95c0,.13,0,.17-.17.17H23.11c-.13,0-.17,0-.17-.17Zm.62,2.59h3.51v-1.16H23.56Z"/><path class="cls-3" d="M33.39,276.33h-4v-.55h4Zm-.25,2.26a1.76,1.76,0,0,1-3.52,0,1.76,1.76,0,0,1,3.52,0Zm-2.87,0a1.11,1.11,0,1,0,2.22,0,1.11,1.11,0,1,0-2.22,0Zm.07-4h2.08v.53H30.34Zm3.85,7v-7.1h.62v2.88h1.06V278H34.81v3.63Z"/><path class="cls-3" d="M39.35,279.77c-.13,0-.17,0-.17-.17v-4.78h.64v4.35h.44A13.86,13.86,0,0,0,42,279v.57a13.33,13.33,0,0,1-2.2.19Zm3,1.48v-6.63H43v2.43h1V274.5h.61v7.1H44v-3.94H43v3.59Z"/><path class="cls-3" d="M51.17,274.76c.13,0,.17,0,.17.17a26.6,26.6,0,0,1-.38,3h1.15v.54h-3v3.15h-.64v-3.15H45.6v-.54h4.73a19,19,0,0,0,.34-2.61H46.36v-.54Z"/><path class="cls-3" d="M55.19,275.37A2.56,2.56,0,0,0,57,277.74l-.4.49a3.86,3.86,0,0,1-1.78-1.57,3.49,3.49,0,0,1-1.76,1.77l-.49-.43a2.85,2.85,0,0,0,1.91-2.56v-.76h.67Zm1.09,3.49c1.51,0,2.45.58,2.45,1.44s-.94,1.42-2.45,1.42-2.44-.56-2.44-1.43S54.79,278.86,56.28,278.86Zm0,2.35c1,0,1.79-.34,1.79-.9s-.75-.94-1.79-.94-1.77.34-1.77.92S55.24,281.21,56.28,281.21Zm.12-5.36H58V274.5h.62v4.28H58v-2.39H56.4Z"/><path class="cls-3" d="M83.18,279.49h6.51V280H83.18Z"/><path class="cls-3" d="M118.68,274.67c.95,0,1.75.86,1.75,2.7s-.79,2.69-1.75,2.69-1.76-.86-1.76-2.69S117.7,274.67,118.68,274.67Zm0,4.82c.77,0,1.12-1,1.12-2.12s-.34-2.13-1.12-2.13-1.14,1-1.14,2.13S117.9,279.49,118.68,279.49Zm3.77-5v7.11h-.64V274.5Z"/><path class="cls-3" d="M123.39,278a2.86,2.86,0,0,0,1.92-2.64v-.66H126v.66a2.55,2.55,0,0,0,1.84,2.37l-.4.5a3.8,3.8,0,0,1-1.76-1.58,3.69,3.69,0,0,1-1.78,1.79Zm1.18,2.32c0-.87,1-1.43,2.39-1.43s2.41.56,2.41,1.43-.93,1.43-2.4,1.43S124.57,281.17,124.57,280.3Zm2.39.93c1,0,1.74-.35,1.74-.92s-.73-.92-1.74-.92-1.72.33-1.72.91S126,281.23,127,281.23Zm2.25-6.73v1.66h1v.54h-1v2.08h-.63V274.5Z"/><path class="cls-3" d="M130.92,276.3a1.74,1.74,0,0,1,1.82-1.72,1.77,1.77,0,0,1,1.81,1.5h1.37V274.5h.62v3.75h-.62v-1.62h-1.38a1.79,1.79,0,0,1-1.8,1.4A1.76,1.76,0,0,1,130.92,276.3Zm1.82,1.17a1.14,1.14,0,0,0,1.19-1.16,1.16,1.16,0,0,0-1.19-1.17,1.17,1.17,0,1,0,0,2.33Zm-.94,1.17h.58v.86h1.32v-.86h.6v2.52a2.35,2.35,0,0,0,1.15-2v-.51h.64v.51a2.37,2.37,0,0,0,1.17,2l-.44.42a2.86,2.86,0,0,1-1-1.37,3.17,3.17,0,0,1-1.05,1.38l-.42-.4v.15c0,.13,0,.17-.17.17H132c-.13,0-.17,0-.17-.17Zm1.9,2.38v-1h-1.32v1Z"/><path class="cls-3" d="M144.18,278.31h-6.49v-.53h6.49Zm-3.24-3.86c1.64,0,2.49.57,2.49,1.41s-.84,1.39-2.49,1.39-2.49-.54-2.49-1.39S139.31,274.45,140.94,274.45Zm2.2,4.64c.13,0,.17,0,.17.16v2.09c0,.13,0,.17-.17.17h-4.41c-.13,0-.17,0-.17-.17v-2.09c0-.12,0-.16.17-.16Zm-2.2-4.15c-1.09,0-1.81.32-1.81.92s.69.89,1.81.89,1.81-.29,1.81-.89S142,274.94,140.94,274.94ZM139.18,281h3.49v-1.38h-3.49Z"/><path class="cls-3" d="M165.2,280.85c-.11,0-.14,0-.14-.16V275c0-.11,0-.15.14-.15h3.3v.55h-2.82v2.06h2.8V278h-2.8v2.25h2.95v.56Z"/><path class="cls-3" d="M170.12,280.85c-.1,0-.13,0-.13-.16v-5.82h.63v5.42h2.83v.56Z"/><path class="cls-3" d="M178,280.81h-.71l2.19-5.29h-2.93V275H180c.12,0,.16,0,.16.15v.3a.62.62,0,0,1-.07.23Z"/><path class="cls-3" d="M181.09,280.21c.75-.72,2.83-2.79,2.83-3.79a1,1,0,0,0-1.08-1,1.06,1.06,0,0,0-1.05,1.16h-.66a1.65,1.65,0,0,1,1.72-1.71,1.53,1.53,0,0,1,1.73,1.55c0,1.35-1.92,3-2.77,3.87h2.9v.56H181.2c-.1,0-.11,0-.11-.12Z"/><path class="cls-3" d="M187.85,275a.18.18,0,0,1,.16-.1h.55c.12,0,.15,0,.15.15V279h.87v.56h-.87v1.28h-.63v-1.28H185.6c-.11,0-.15,0-.15-.16V279a.48.48,0,0,1,.07-.23Zm.25,1.35,0-.74L186.05,279h2Z"/><path class="cls-3" d="M194,276.73h-.82v-.83H194Zm0,3.26h-.82v-.82H194Z"/><path class="cls-3" d="M197.64,280.21c.75-.72,2.84-2.79,2.84-3.79a1,1,0,0,0-1.09-1,1.06,1.06,0,0,0-1,1.16h-.66a1.65,1.65,0,0,1,1.72-1.71,1.53,1.53,0,0,1,1.73,1.55c0,1.35-1.92,3-2.77,3.87h2.9v.56h-3.51c-.1,0-.11,0-.11-.12Z"/><path class="cls-3" d="M206.05,277.86c0,1.49-.34,3.1-2,3.1s-1.89-1.61-1.89-3.1.31-3.13,1.89-3.13S206.05,276.35,206.05,277.86Zm-3.17,0c0,.87.08,2.54,1.22,2.54s1.29-1.67,1.29-2.54-.13-2.58-1.29-2.58S202.88,277,202.88,277.86Z"/><path class="cls-3" d="M209.21,280.81h-.63v-5.15a4.68,4.68,0,0,1-1.25.84v-.6a4.08,4.08,0,0,0,1.27-.93h.46c.12,0,.15,0,.15.15Z"/><path class="cls-3" d="M213.35,274.84a1.62,1.62,0,0,1,1.72,1.52h-.63a1,1,0,0,0-1.08-1c-1.13,0-1.45,1.57-1.46,2.64a1.52,1.52,0,0,1,1.54-1c1.06,0,1.71.77,1.71,2a1.84,1.84,0,0,1-3.58.74,4.8,4.8,0,0,1-.22-1.64C211.35,275.94,212.2,274.84,213.35,274.84Zm-1.3,4c0,.86.49,1.53,1.22,1.53a1.48,1.48,0,1,0-1.22-1.53Z"/></g></g></svg>