<svg xmlns="http://www.w3.org/2000/svg" viewBox="0 0 53.83 60.34"><defs><style>.cls-1{fill:#37a781;}.cls-2{fill:#39a07d;}</style></defs><g id="레이어_2" data-name="레이어 2"><g id="Layer_1" data-name="Layer 1"><path class="cls-1" d="M24.61,53h-.42V46.09a5,5,0,0,0-1.47-3.55l-9.06-9.06a.71.71,0,0,0-1,0,4.68,4.68,0,0,0-.5.6V31.32a4.55,4.55,0,0,0-2.93-4.23.69.69,0,0,0-.65.09.28.28,0,0,0-.1.09,4.54,4.54,0,0,0-2.72-1.16,4.54,4.54,0,0,0-2.61-.84.7.7,0,0,0-.7.71v.43A4.46,4.46,0,0,0,.83,26.1a.7.7,0,0,0-.71.7V39.92a.71.71,0,0,0,.21.5L11.46,51.54V53h-1a.7.7,0,0,0-.7.71v5.84a.7.7,0,0,0,.7.7h14.1a.7.7,0,0,0,.71-.7V53.67a.71.71,0,0,0-.71-.71M9.69,29a3.13,3.13,0,0,1,1.08,2.35v4.92l-.8-.79V30.6A4.33,4.33,0,0,0,9.68,29a.13.13,0,0,0,0-.06M3.86,26.76a3,3,0,0,1,1.06.48.83.83,0,0,0,.28.21,3.09,3.09,0,0,1,1.06,2.33v6.71a.67.67,0,0,0,.21.5l2.75,2.76a.72.72,0,0,0,1,0,.72.72,0,0,0,0-1L7.67,36.2V29.78a4.67,4.67,0,0,0-.31-1.63A3.12,3.12,0,0,1,8.57,30.6v5.14a.7.7,0,0,0,.2.5l3.51,3.5a5.58,5.58,0,0,0,.39.46l2.16,2.15-2.18,0A4.51,4.51,0,0,1,9.36,41l-4-4V30.6a4.5,4.5,0,0,0-1.48-3.32Zm8.8,24L1.53,39.63V27.58a3.12,3.12,0,0,1,2.4,3v6.71a.67.67,0,0,0,.21.5L8.36,42a6,6,0,0,0,4.31,1.75l3.84,0a.7.7,0,0,0,.49-1.2l-2.89-2.89a.57.57,0,0,0-.12-.18l-.63-.64a3.33,3.33,0,0,1-.14-3.8l8.5,8.5a3.57,3.57,0,0,1,1.07,2.56V53H12.86V51.25a.74.74,0,0,0-.2-.5m11.25,8.06H11.21V54.37h12.7Z"/><path class="cls-2" d="M24.61,60.34H10.51a.83.83,0,0,1-.83-.83V53.67a.83.83,0,0,1,.83-.83h.82V51.6L.24,40.51A.87.87,0,0,1,0,39.92V26.8A.83.83,0,0,1,.83,26a4.55,4.55,0,0,1,1.5.26V26a.83.83,0,0,1,.83-.83A4.61,4.61,0,0,1,5.81,26,4.56,4.56,0,0,1,8.48,27.1l0,0A.82.82,0,0,1,9.28,27a4.65,4.65,0,0,1,3,4.34v2.39a2.92,2.92,0,0,1,.28-.32.85.85,0,0,1,1.17,0l9.06,9.06a5.11,5.11,0,0,1,1.51,3.64v6.75h.29a.83.83,0,0,1,.83.83v5.84A.83.83,0,0,1,24.61,60.34Zm-14.1-7.25a.58.58,0,0,0-.58.58v5.84a.58.58,0,0,0,.58.58h14.1a.58.58,0,0,0,.58-.58V53.67a.58.58,0,0,0-.58-.58h-.54v-7a4.87,4.87,0,0,0-1.44-3.47l-9-9a.59.59,0,0,0-.82,0,4.15,4.15,0,0,0-.49.58l-.22.32V31.32a4.41,4.41,0,0,0-2.86-4.11.59.59,0,0,0-.53.07l-.08.07-.09.09-.09-.08a4.28,4.28,0,0,0-2.64-1.12h0l0,0a4.35,4.35,0,0,0-2.53-.81.58.58,0,0,0-.58.58v.61l-.17-.07a4.34,4.34,0,0,0-1.58-.3.58.58,0,0,0-.58.58V39.92a.57.57,0,0,0,.17.41L11.58,51.49v1.6ZM24,58.93H11.09V54.24H24Zm-12.7-.25H23.79V54.49H11.34Zm11.57-5.59H12.74V51.25a.63.63,0,0,0-.17-.41L1.41,39.68V27.43l.15,0A3.21,3.21,0,0,1,4.05,30.6v6.71a.57.57,0,0,0,.17.41L8.45,42a5.83,5.83,0,0,0,4.1,1.71h.11l3.85,0a.56.56,0,0,0,.53-.36.55.55,0,0,0-.13-.62L14,39.7a.5.5,0,0,0-.1-.14l-.63-.64a3.47,3.47,0,0,1-.16-4l.09-.13,8.61,8.61a3.72,3.72,0,0,1,1.1,2.65ZM13,52.84h9.67V46.09a3.47,3.47,0,0,0-1-2.47l-8.4-8.39a3.24,3.24,0,0,0,.22,3.53l.62.62a.8.8,0,0,1,.13.19l2.88,2.88a.82.82,0,0,1,.18.9.8.8,0,0,1-.75.51l-4,0a6.1,6.1,0,0,1-4.28-1.79L4.05,37.9a.83.83,0,0,1-.25-.59V30.6a3,3,0,0,0-2.14-2.86V39.58L12.74,50.67a.79.79,0,0,1,.25.58Zm-.45-10.33a4.65,4.65,0,0,1-3.27-1.38L5.21,37.08V30.6a4.39,4.39,0,0,0-1.43-3.23l0,0V26.6l.15,0a3.21,3.21,0,0,1,1.1.5l0,0a.51.51,0,0,0,.22.17l0,0a3.24,3.24,0,0,1,1.1,2.43v6.71a.57.57,0,0,0,.17.41l2.76,2.76a.59.59,0,0,0,.82,0,.58.58,0,0,0,.17-.41.57.57,0,0,0-.17-.41L7.54,36.25V29.78a4.3,4.3,0,0,0-.3-1.58l-.16-.42.35.27A3.21,3.21,0,0,1,8.69,30.6v5.14a.57.57,0,0,0,.17.41l3.5,3.5c.15.19.28.33.4.46l2.37,2.37ZM5.46,37l4,4a4.43,4.43,0,0,0,3.1,1.31l2,0-1.95-1.95a3.88,3.88,0,0,1-.4-.46l-3.5-3.49a.87.87,0,0,1-.24-.59V30.6a2.92,2.92,0,0,0-.82-2,4.6,4.6,0,0,1,.17,1.22v6.37l2.51,2.51a.83.83,0,0,1,.25.59.79.79,0,0,1-.25.58.83.83,0,0,1-1.17,0L6.38,37.08a.83.83,0,0,1-.25-.59V29.78a2.94,2.94,0,0,0-1-2.22.89.89,0,0,1-.29-.22A3.06,3.06,0,0,0,4,26.92v.3A4.68,4.68,0,0,1,5.46,30.6Zm5.43-.42-1-1V30.6a4.54,4.54,0,0,0-.28-1.53v0l0-.32.19.15a3.25,3.25,0,0,1,1.12,2.44ZM10.1,35.4l.54.54V31.32a2.92,2.92,0,0,0-.71-1.92,4.46,4.46,0,0,1,.17,1.2Z"/><path class="cls-1" d="M53,26.1a4.37,4.37,0,0,0-1.62.31V26a.71.71,0,0,0-.71-.71,4.48,4.48,0,0,0-2.6.84,4.49,4.49,0,0,0-2.72,1.16.87.87,0,0,0-.11-.09.67.67,0,0,0-.64-.09,4.54,4.54,0,0,0-2.94,4.23v2.76a4.68,4.68,0,0,0-.5-.6.71.71,0,0,0-1,0l-9.06,9.06a5,5,0,0,0-1.47,3.55V53h-.42a.7.7,0,0,0-.7.71v5.84a.7.7,0,0,0,.7.7h14.1a.7.7,0,0,0,.71-.7V53.67a.71.71,0,0,0-.71-.71h-.94V51.54L53.5,40.42a.71.71,0,0,0,.21-.5V26.8a.7.7,0,0,0-.71-.7m-6.52,2a4.46,4.46,0,0,0-.31,1.63V36.2l-2.55,2.55a.7.7,0,0,0,.49,1.2.74.74,0,0,0,.5-.2L47.37,37a.7.7,0,0,0,.2-.5V29.78a3.1,3.1,0,0,1,1.07-2.33.79.79,0,0,0,.27-.21A3.09,3.09,0,0,1,50,26.76v.52A4.49,4.49,0,0,0,48.5,30.6V37l-4,4a4.59,4.59,0,0,1-3.24,1.34h-.06l-2.18,0,2.16-2.15a5.72,5.72,0,0,0,.4-.46l3.5-3.5a.71.71,0,0,0,.21-.5V30.6a3.09,3.09,0,0,1,1.21-2.45m-3.41,3.17A3.12,3.12,0,0,1,44.14,29s0,0,0,.06a4.33,4.33,0,0,0-.29,1.57v4.85l-.79.79Zm-.45,23v4.44H29.92V54.37h12.7ZM52.3,39.63,41.18,50.75a.7.7,0,0,0-.21.5V53H31.05V46.09a3.56,3.56,0,0,1,1.06-2.56L40.61,35a3.36,3.36,0,0,1-.13,3.81l-.64.64a.57.57,0,0,0-.12.18l-2.89,2.89a.71.71,0,0,0,.49,1.2l3.85,0A6,6,0,0,0,45.47,42l4.23-4.23a.7.7,0,0,0,.2-.5V30.6a3.12,3.12,0,0,1,2.4-3Z"/><path class="cls-2" d="M43.32,60.34H29.22a.83.83,0,0,1-.83-.83V53.67a.83.83,0,0,1,.83-.83h.3V46.09A5.1,5.1,0,0,1,31,42.45l9.06-9.06a.85.85,0,0,1,1.17,0c.1.1.19.2.29.32V31.32a4.64,4.64,0,0,1,3-4.34.82.82,0,0,1,.76.09l0,0A4.65,4.65,0,0,1,48,26a4.61,4.61,0,0,1,2.65-.84.83.83,0,0,1,.83.83v.25A4.6,4.6,0,0,1,53,26a.83.83,0,0,1,.83.83V39.92a.82.82,0,0,1-.24.59L42.5,51.6v1.24h.82a.83.83,0,0,1,.83.83v5.84A.83.83,0,0,1,43.32,60.34Zm-14.1-7.25a.58.58,0,0,0-.58.58v5.84a.58.58,0,0,0,.58.58h14.1a.58.58,0,0,0,.58-.58V53.67a.58.58,0,0,0-.58-.58H42.25v-1.6L53.41,40.33a.58.58,0,0,0,.17-.41V26.8a.58.58,0,0,0-.58-.58,4.38,4.38,0,0,0-1.58.3l-.17.07V26a.58.58,0,0,0-.58-.58,4.35,4.35,0,0,0-2.53.81l0,0h0a4.36,4.36,0,0,0-2.64,1.12l-.09.08-.08-.08-.09-.08a.58.58,0,0,0-.53-.07,4.4,4.4,0,0,0-2.85,4.11v3.14l-.23-.31a3.64,3.64,0,0,0-.49-.58.58.58,0,0,0-.81,0l-9.06,9a4.9,4.9,0,0,0-1.43,3.47v7Zm13.53,5.84H29.8V54.24h13Zm-12.7-.25H42.5V54.49H30.05ZM41.1,53.09H30.92v-7A3.72,3.72,0,0,1,32,43.44l8.61-8.61.09.13a3.48,3.48,0,0,1-.14,3.95l-.65.65a.5.5,0,0,0-.1.14l0,0-2.89,2.9a.55.55,0,0,0-.13.62.6.6,0,0,0,.53.37l4,0A5.83,5.83,0,0,0,45.38,42l4.23-4.23a.57.57,0,0,0,.17-.41V30.6a3.21,3.21,0,0,1,2.49-3.14l.16,0V39.68L41.27,50.84a.58.58,0,0,0-.17.41Zm-9.93-.25h9.68V51.25a.78.78,0,0,1,.24-.58L52.18,39.58V27.74A3,3,0,0,0,50,30.6v6.71a.83.83,0,0,1-.25.59l-4.22,4.22a6.08,6.08,0,0,1-4.27,1.79l-4,0a.84.84,0,0,1-.76-.52.82.82,0,0,1,.18-.9l2.88-2.88a.8.8,0,0,1,.13-.19l.64-.64a3.2,3.2,0,0,0,.2-3.51L32.2,43.62a3.48,3.48,0,0,0-1,2.47ZM41.24,42.51h-.06l-2.47,0,2.36-2.37a4.34,4.34,0,0,0,.39-.44L45,36.15a.57.57,0,0,0,.17-.41V30.6a3.21,3.21,0,0,1,1.26-2.55l.36-.27-.17.42a4.3,4.3,0,0,0-.3,1.58v6.47L43.7,38.84a.57.57,0,0,0-.17.41.58.58,0,0,0,.17.41.59.59,0,0,0,.82,0l2.76-2.76a.58.58,0,0,0,.17-.41V29.78a3.24,3.24,0,0,1,1.1-2.43l0,0a.51.51,0,0,0,.22-.17l0,0a3.29,3.29,0,0,1,1.1-.5l.16,0v.73l0,0a4.36,4.36,0,0,0-1.44,3.23v6.48l-4.06,4.05A4.69,4.69,0,0,1,41.24,42.51Zm-1.94-.28,1.94,0A4.49,4.49,0,0,0,44.39,41l4-4V30.6a4.65,4.65,0,0,1,1.48-3.38v-.3a3.11,3.11,0,0,0-.86.42.89.89,0,0,1-.29.22,2.94,2.94,0,0,0-1,2.22v6.71a.87.87,0,0,1-.24.59L44.7,39.83a.83.83,0,0,1-1.17,0,.79.79,0,0,1-.25-.58.83.83,0,0,1,.25-.59L46,36.15V29.78a4.6,4.6,0,0,1,.17-1.22,2.92,2.92,0,0,0-.82,2v5.14a.87.87,0,0,1-.24.59l-3.51,3.5a3.51,3.51,0,0,1-.39.45Zm3.64-5.68V31.32a3.25,3.25,0,0,1,1.12-2.44l.19-.16V29h0v.08A4.32,4.32,0,0,0,44,30.6v4.9Zm1-7.15a2.92,2.92,0,0,0-.71,1.92v4.62l.54-.54V30.6A4.46,4.46,0,0,1,43.9,29.4Z"/><path class="cls-1" d="M43.76,17A16.85,16.85,0,1,0,26.92,33.81,16.87,16.87,0,0,0,43.76,17m-2.46,5.6H36.39A27.17,27.17,0,0,0,37,17a27.48,27.48,0,0,0-.63-5.86H41.2a15.48,15.48,0,0,1,.1,11.46m-23-5.6a26,26,0,0,1,.65-5.86h7.29V22.57H18.86a26.28,26.28,0,0,1-.59-5.6M27.62,1.59c3,.43,5.57,3.6,6.92,8.11H27.62Zm-1.41,0V9.7H19.29C20.64,5.19,23.21,2,26.21,1.59m0,22.39v8.37c-3.05-.44-5.66-3.73-7-8.37Zm1.41,8.37V24h7c-1.33,4.64-3.94,7.93-7,8.37m0-9.78V11.11h7.29A26,26,0,0,1,35.56,17a26.28,26.28,0,0,1-.59,5.6ZM40.53,9.7H36a16.5,16.5,0,0,0-4.06-7.33A15.5,15.5,0,0,1,40.53,9.7M21.92,2.37A16.42,16.42,0,0,0,17.85,9.7H13.3a15.52,15.52,0,0,1,8.62-7.33m-9.28,8.74h4.85A27.49,27.49,0,0,0,16.87,17a27.18,27.18,0,0,0,.57,5.6h-4.9a15.35,15.35,0,0,1,.1-11.46M13.17,24h4.61a16.69,16.69,0,0,0,4.14,7.59A15.46,15.46,0,0,1,13.17,24m18.75,7.59A16.68,16.68,0,0,0,36.05,24h4.61a15.47,15.47,0,0,1-8.74,7.59"/><path class="cls-2" d="M26.92,33.94a17,17,0,1,1,17-17A17,17,0,0,1,26.92,33.94Zm0-33.69A16.72,16.72,0,1,0,43.63,17,16.74,16.74,0,0,0,26.92.25Zm.57,32.25V23.85h7.29l-.05.16c-1.39,4.86-4,8-7.09,8.47Zm.25-8.4v8.11c2.82-.5,5.37-3.58,6.71-8.11Zm-1.4,8.4-.15,0C23.14,32,20.49,28.87,19.1,24l-.05-.16h7.29Zm-7-8.4c1.34,4.53,3.89,7.61,6.71,8.11V24.1Zm12,7.77.41-.39A16.73,16.73,0,0,0,35.93,24l0-.1h4.91l-.09.19A15.78,15.78,0,0,1,32,31.69Zm4.73-7.77a17.15,17.15,0,0,1-3.76,7.16,15.52,15.52,0,0,0,8.07-7.16ZM22.41,31.87l-.53-.18A15.75,15.75,0,0,1,13.06,24l-.1-.19h4.92l0,.1A16.73,16.73,0,0,0,22,31.48Zm-9-7.77a15.52,15.52,0,0,0,8.07,7.16,17,17,0,0,1-3.75-7.16Zm28-1.4H36.24l0-.15A27.09,27.09,0,0,0,36.84,17a27.19,27.19,0,0,0-.62-5.83l0-.16h5.1l0,.08a15.48,15.48,0,0,1,.1,11.56Zm-4.83-.25h4.66a15.25,15.25,0,0,0-.1-11.22H36.49a27.06,27.06,0,0,1,.6,5.74A27.53,27.53,0,0,1,36.55,22.45Zm-1.48.25H27.49V11H35l0,.1A25.87,25.87,0,0,1,35.69,17a26,26,0,0,1-.6,5.63Zm-7.33-.25h7.13A26.67,26.67,0,0,0,35.44,17a25.76,25.76,0,0,0-.63-5.74H27.74Zm-1.4.25H18.76l0-.1a27.08,27.08,0,0,1,.06-11.52l0-.1h7.52ZM19,22.45h7.13V11.23H19A26.36,26.36,0,0,0,18.4,17,26.67,26.67,0,0,0,19,22.45Zm-1.37.25H12.45l0-.08a15.48,15.48,0,0,1,.1-11.56l0-.08h5.1l0,.16A26.57,26.57,0,0,0,17,17a27.09,27.09,0,0,0,.57,5.58Zm-5-.25h4.67a27.67,27.67,0,0,1,.05-11.22H12.72a15.25,15.25,0,0,0-.1,11.22ZM40.74,9.83H35.89l0-.09a16.29,16.29,0,0,0-4-7.28l-.41-.39.54.18a15.58,15.58,0,0,1,8.68,7.39Zm-4.66-.25h4.24a15.33,15.33,0,0,0-7.93-6.91A17.1,17.1,0,0,1,36.08,9.58Zm-1.37.25H27.49V1.44l.15,0c3,.44,5.61,3.5,7,8.21Zm-7-.25h6.63C33,5.14,30.54,2.22,27.74,1.73Zm-1.4.25H19.12l.05-.16c1.41-4.71,4-7.77,7-8.21l.15,0Zm-6.88-.25h6.63V1.73C23.29,2.22,20.83,5.14,19.46,9.58Zm-1.52.25H13.09l.1-.19a15.56,15.56,0,0,1,8.69-7.39l.53-.18L22,2.46a16.35,16.35,0,0,0-4,7.28Zm-4.43-.25h4.25a17,17,0,0,1,3.68-6.91A15.33,15.33,0,0,0,13.51,9.58Z"/></g></g></svg>