<svg xmlns="http://www.w3.org/2000/svg" viewBox="0 0 50.67 46.89"><defs><style>.cls-1{fill:#37a781;}.cls-2{fill:#39a07d;}</style></defs><g id="레이어_2" data-name="레이어 2"><g id="Layer_1" data-name="Layer 1"><path class="cls-1" d="M46.48,28.26l.33-.23a.71.71,0,0,0,.18-1,5.12,5.12,0,0,0-3.4-2.15,5.23,5.23,0,0,0-4,.93l-9.2,7.21H30A5.41,5.41,0,0,0,31.76,29a.7.7,0,0,0-.71-.7H27.41V23l1.33-.53A8.6,8.6,0,0,0,34,24.38a8.24,8.24,0,0,0,1.84-.21,8.41,8.41,0,0,0,5.7-5,.71.71,0,0,0,.11-.25.78.78,0,0,0-.09-.54h0a.64.64,0,0,0-.1-.13s0,0,0,0a8.16,8.16,0,0,0-13.11,2.91l-.92.37V16.76a2.63,2.63,0,0,0,1.18-1.18,2.23,2.23,0,0,0,2.31.21,2.23,2.23,0,0,0,1-2.1,2.27,2.27,0,0,0,2.1-1,2.21,2.21,0,0,0-.21-2.31,2.2,2.2,0,0,0,1.33-1.89,2.2,2.2,0,0,0-1.33-1.89A2.21,2.21,0,0,0,34,4.32a2.22,2.22,0,0,0-2.1-1,2.23,2.23,0,0,0-1-2.1,2.21,2.21,0,0,0-2.31.21A2.22,2.22,0,0,0,26.7.12a2.22,2.22,0,0,0-1.89,1.34,2.21,2.21,0,0,0-2.31-.21,2.23,2.23,0,0,0-1,2.1,2.24,2.24,0,0,0-2.1,1,2.23,2.23,0,0,0,.21,2.31,2.2,2.2,0,0,0-1.33,1.89,2.2,2.2,0,0,0,1.33,1.89,2.23,2.23,0,0,0-.21,2.31,2.24,2.24,0,0,0,2.1,1,2.23,2.23,0,0,0,1,2.1,2.23,2.23,0,0,0,2.31-.21A2.53,2.53,0,0,0,26,16.76V21.5l-.93-.37a8.38,8.38,0,0,0-5.64-4.86A8.41,8.41,0,0,0,12,18.22l0,0a.7.7,0,0,0-.21.67.58.58,0,0,0,.12.25,8.37,8.37,0,0,0,5.69,5,8.27,8.27,0,0,0,1.85.21,8.6,8.6,0,0,0,5.28-1.9L26,23v5.26H15.66A5.86,5.86,0,0,0,11.48,30L6.24,35.25v-.39a2.3,2.3,0,0,0-2.31-2.3H.83a.72.72,0,0,0-.71.71v12.8a.7.7,0,0,0,.71.7H3.92a2.3,2.3,0,0,0,2.3-2.21H12l.13,0,24-4.63a.82.82,0,0,0,.24-.1l13.88-8.5a.69.69,0,0,0,.33-.52.71.71,0,0,0-.2-.58,6.47,6.47,0,0,0-3.86-1.94M30.05,21.7a15.33,15.33,0,0,1,4.76-2,15.32,15.32,0,0,1,5.12-.42,6.65,6.65,0,0,1-9.88,2.39m8-3.85a19.65,19.65,0,0,0-7,1.69,6.53,6.53,0,0,1,7-1.69M17.87,22.8a6.87,6.87,0,0,1-4.39-3.49,15.32,15.32,0,0,1,5.12.42,15.23,15.23,0,0,1,4.76,2,6.86,6.86,0,0,1-5.49,1.1m1.24-5.16a6.57,6.57,0,0,1,3.25,1.9,18.67,18.67,0,0,0-3.43-1.17,18.54,18.54,0,0,0-3.57-.52,6.58,6.58,0,0,1,3.75-.21M40.44,27a3.82,3.82,0,0,1,2.91-.65,3.77,3.77,0,0,1,2,1l-1.47,1a.69.69,0,0,0-.26.35c-.23.1-.45.21-.68.33l-8.19,4H32.66ZM23.21,14.57c-.24-.14-.38-.71-.18-1.53l.25-1.1-1.1.25c-.82.19-1.39.06-1.53-.18s0-.79.61-1.42L22,9.77,21,9.44c-.81-.25-1.24-.65-1.24-.92s.43-.68,1.24-.92L22,7.27l-.77-.83c-.58-.62-.75-1.18-.61-1.41s.71-.38,1.53-.18l1.1.25L23,4c-.2-.83-.06-1.4.18-1.53s.79,0,1.41.61l.83.77.33-1.08c.25-.81.65-1.24.92-1.24s.68.43.92,1.24L28,3.85l.83-.77c.62-.58,1.18-.75,1.42-.61s.37.7.17,1.53l-.25,1.1,1.1-.25c.83-.2,1.4-.06,1.53.18s0,.79-.61,1.41l-.77.83,1.08.33c.81.24,1.24.65,1.24.92s-.43.67-1.24.92l-1.08.33.77.82c.58.63.75,1.19.61,1.42s-.7.37-1.53.18l-1.1-.25.25,1.1c.2.82.06,1.39-.17,1.53s-.8,0-1.42-.61L28,13.19l-.33,1.08c-.24.81-.65,1.24-.92,1.24s-.67-.43-.92-1.24l-.33-1.08-.83.77c-.62.58-1.18.75-1.41.61M1.53,34H3.94a.93.93,0,0,1,.64.27.88.88,0,0,1,.26.63l0,9.6h0a.9.9,0,0,1-.9.9H1.53ZM35.7,38.54l-23.8,4.6H6.23v-5.9L12.48,31a4.47,4.47,0,0,1,3.18-1.32H30.29a4.08,4.08,0,0,1-4.1,3.37H20.51a.7.7,0,0,0-.7.7.71.71,0,0,0,.7.71H34.94a.68.68,0,0,0,.31-.08l8.37-4.1,0,0a4.36,4.36,0,0,1,5,.35Z"/><path class="cls-2" d="M3.92,46.89H.83A.83.83,0,0,1,0,46.06V33.26a.85.85,0,0,1,.24-.59.82.82,0,0,1,.59-.24H3.94a2.44,2.44,0,0,1,2.43,2.43v.08l5-5a6,6,0,0,1,4.26-1.77H25.88v-5l-1.19-.47a8.67,8.67,0,0,1-5.3,1.88,8.41,8.41,0,0,1-1.88-.22,8.54,8.54,0,0,1-5.78-5.06.67.67,0,0,1-.12-.27.83.83,0,0,1,.24-.79s0,0,0,0a8.8,8.8,0,0,1,5.7-2.2,7.86,7.86,0,0,1,1.88.22A8.49,8.49,0,0,1,25.17,21l.71.28V16.85a2.74,2.74,0,0,1-1.12-1.1,2.32,2.32,0,0,1-2.32.15,2.31,2.31,0,0,1-1-2.08,2.31,2.31,0,0,1-2.08-1,2.3,2.3,0,0,1,.14-2.32,2.31,2.31,0,0,1-1.28-1.94,2.3,2.3,0,0,1,1.29-1.94,2.28,2.28,0,0,1-.15-2.32,2.31,2.31,0,0,1,2.08-1,2.31,2.31,0,0,1,1-2.08,2.3,2.3,0,0,1,2.32.14,2.11,2.11,0,0,1,3.88,0A2.3,2.3,0,0,1,31,1.14a2.29,2.29,0,0,1,1,2.08,2.31,2.31,0,0,1,2.08,1,2.3,2.3,0,0,1-.14,2.32,2.29,2.29,0,0,1,1.28,1.94,2.29,2.29,0,0,1-1.28,1.94,2.3,2.3,0,0,1,.14,2.32,2.33,2.33,0,0,1-2.08,1,2.31,2.31,0,0,1-1,2.09,2.28,2.28,0,0,1-2.32-.15,2.8,2.8,0,0,1-1.1,1.09v4.48l.7-.28a8.49,8.49,0,0,1,5.7-4.89,8,8,0,0,1,1.88-.22,8.8,8.8,0,0,1,5.7,2.2l0,0a.64.64,0,0,1,.13.15.85.85,0,0,1,.11.64.84.84,0,0,1-.13.29,8.5,8.5,0,0,1-5.77,5,8.39,8.39,0,0,1-1.87.22,8.67,8.67,0,0,1-5.31-1.88l-1.18.47v5h3.51a.83.83,0,0,1,.83.83,5.51,5.51,0,0,1-1.61,3.94h.06l9.18-7.18a5.37,5.37,0,0,1,4.1-.95A5.26,5.26,0,0,1,47.09,27a.83.83,0,0,1-.21,1.14l-.07.05a6.61,6.61,0,0,1,3.62,1.94.82.82,0,0,1,.24.68.87.87,0,0,1-.39.61l-13.89,8.5a.9.9,0,0,1-.27.11l-24,4.64H6.34A2.43,2.43,0,0,1,3.92,46.89ZM.83,32.68a.58.58,0,0,0-.41.17.57.57,0,0,0-.17.41v12.8a.58.58,0,0,0,.58.58H3.92v0a2.16,2.16,0,0,0,2.17-2.1v-.12h6l24-4.64a.62.62,0,0,0,.19-.07l13.88-8.51a.54.54,0,0,0,.28-.42.58.58,0,0,0-.17-.48,6.34,6.34,0,0,0-3.79-1.91l-.33,0,.6-.42a.58.58,0,0,0,.15-.8A5,5,0,0,0,43.57,25a5.1,5.1,0,0,0-3.91.9l-9.24,7.23h-.8l.25-.21a5.26,5.26,0,0,0,1.76-4,.58.58,0,0,0-.58-.58H27.29V22.93l1.47-.59.06.05A8.47,8.47,0,0,0,34,24.26,7.35,7.35,0,0,0,35.84,24a8.24,8.24,0,0,0,5.61-4.91.68.68,0,0,0,.11-.23.57.57,0,0,0-.08-.44l-.09-.11,0,0a8.58,8.58,0,0,0-5.54-2.14,7.94,7.94,0,0,0-1.82.21,8.26,8.26,0,0,0-5.55,4.8l0,0-1.14.45v-5l.07,0a2.42,2.42,0,0,0,1.12-1.12l.07-.11.11.07a2.13,2.13,0,0,0,2.18.2,2.12,2.12,0,0,0,.91-2v-.13h.13a2.12,2.12,0,0,0,2-.92,2.09,2.09,0,0,0-.2-2.17l-.07-.11.11-.07A2.1,2.1,0,0,0,35,8.52,2.09,2.09,0,0,0,33.7,6.74l-.11-.07.07-.11a2.11,2.11,0,0,0,.2-2.18,2.07,2.07,0,0,0-1.92-.91h-.2V3.35a2.11,2.11,0,0,0-.91-2,2.13,2.13,0,0,0-2.18.2l-.11.07-.07-.11A2.09,2.09,0,0,0,26.7.25a2.1,2.1,0,0,0-1.78,1.27l-.07.11-.11-.07a2.12,2.12,0,0,0-2.17-.2,2.11,2.11,0,0,0-.92,2v.13h-.2a2.1,2.1,0,0,0-1.92.91,2.11,2.11,0,0,0,.2,2.18l.07.11-.11.07a2.09,2.09,0,0,0-1.27,1.78A2.1,2.1,0,0,0,19.7,10.3l.11.07-.07.11a2.09,2.09,0,0,0-.2,2.17,2.08,2.08,0,0,0,1.92.92h.2v.13a2.12,2.12,0,0,0,.92,2,2.12,2.12,0,0,0,2.17-.2l.11-.07.07.11a2.43,2.43,0,0,0,1.14,1.13l.07,0v5L25,21.23l0,0a8.26,8.26,0,0,0-5.55-4.8,7.88,7.88,0,0,0-1.82-.21,8.58,8.58,0,0,0-5.54,2.14l0,0a.57.57,0,0,0-.18.55.51.51,0,0,0,.1.21A8.26,8.26,0,0,0,17.57,24a7.37,7.37,0,0,0,1.82.22,8.42,8.42,0,0,0,5.2-1.87l.06-.05,1.48.59V28.4H15.66a5.73,5.73,0,0,0-4.09,1.7L6.12,35.55v-.69a2.19,2.19,0,0,0-2.18-2.18Zm3.09,12.8H1.41V33.84H3.94a1,1,0,0,1,.72.3,1,1,0,0,1,.3.72v9.6A1,1,0,0,1,3.92,45.48Zm-2.26-.25H3.92a.77.77,0,0,0,.78-.77v-9.6a.77.77,0,0,0-.22-.54.76.76,0,0,0-.55-.23H1.66Zm4.57-2H6.11V37.19l6.27-6.28a4.59,4.59,0,0,1,3.27-1.35H30.44l0,.14a4.22,4.22,0,0,1-4.22,3.47H20.51a.58.58,0,0,0,0,1.16H34.94a.62.62,0,0,0,.26-.06l8.39-4.13a4.62,4.62,0,0,1,2.3-.64,4.79,4.79,0,0,1,2.84,1l.15.11-13.16,8-23.8,4.6ZM6.36,43H11.9l23.75-4.59,12.78-7.83a4.26,4.26,0,0,0-4.71-.23l0,0L35.31,34.5a1,1,0,0,1-.37.08H20.51a.83.83,0,0,1,0-1.66h5.68a4,4,0,0,0,3.95-3.11H15.66a4.31,4.31,0,0,0-3.09,1.28l-6.2,6.2Zm28.45-9.84H32.29l8.07-6.32a4,4,0,0,1,5.1.37l.11.11L44,28.45a.5.5,0,0,0-.21.28l0,.05,0,0a5.85,5.85,0,0,0-.66.32ZM33,32.92h1.73l8.17-4a4.63,4.63,0,0,1,.63-.31.79.79,0,0,1,.29-.36l1.34-.94a3.8,3.8,0,0,0-4.67-.25Zm1-9.82A7.24,7.24,0,0,1,30,21.8l-.15-.1.15-.11a15.65,15.65,0,0,1,4.8-2A15.25,15.25,0,0,1,40,19.19l.18,0-.09.16a6.94,6.94,0,0,1-4.47,3.55A6.53,6.53,0,0,1,34,23.1Zm-3.76-1.4a6.8,6.8,0,0,0,5.23,1,6.69,6.69,0,0,0,4.22-3.27,15.78,15.78,0,0,0-4.89.44A15.47,15.47,0,0,0,30.28,21.7ZM19.37,23.1a6.53,6.53,0,0,1-1.53-.18,6.94,6.94,0,0,1-4.47-3.55l-.09-.16.18,0a15.51,15.51,0,0,1,5.17.42,15.65,15.65,0,0,1,4.8,2l.15.11-.15.1A7.24,7.24,0,0,1,19.37,23.1Zm-5.69-3.69a6.69,6.69,0,0,0,4.22,3.27,6.79,6.79,0,0,0,5.23-1,15.47,15.47,0,0,0-4.56-1.85A15.78,15.78,0,0,0,13.68,19.41Zm16.83.52.45-.47a6.65,6.65,0,0,1,7.14-1.73l.61.22-.65,0a18.91,18.91,0,0,0-3.55.52,18,18,0,0,0-3.41,1.17Zm5.3-2.34a6.11,6.11,0,0,0-1.48.17,6.38,6.38,0,0,0-2.68,1.39,20,20,0,0,1,2.8-.91,20.2,20.2,0,0,1,2.89-.47A6.6,6.6,0,0,0,35.81,17.59ZM22.9,19.93l-.59-.27a17.77,17.77,0,0,0-3.41-1.17A18.79,18.79,0,0,0,15.35,18l-.65,0,.61-.22a6.78,6.78,0,0,1,3.83-.21,6.68,6.68,0,0,1,3.31,1.94Zm-6.83-2.16a19.37,19.37,0,0,1,5.7,1.38,6.42,6.42,0,0,0-2.69-1.39A6.51,6.51,0,0,0,16.07,17.77ZM26.7,15.63c-.38,0-.8-.54-1-1.33l-.27-.88-.68.63c-.59.55-1.24.81-1.57.63s-.42-.86-.23-1.67l.21-.91-.91.21c-.79.19-1.48.08-1.67-.23s.06-1,.63-1.57l.64-.68-.89-.27c-.8-.24-1.33-.66-1.33-1s.53-.8,1.33-1l.89-.27-.64-.68c-.57-.61-.82-1.24-.63-1.57s.88-.42,1.67-.24l.91.22L22.91,4c-.19-.81-.1-1.48.23-1.67s1,.07,1.57.63l.68.63.27-.89c.24-.78.66-1.32,1-1.32s.81.54,1,1.32l.27.89L28.69,3c.59-.55,1.24-.81,1.57-.63s.42.86.24,1.67l-.22.91.91-.22c.8-.18,1.49-.08,1.67.24s-.06,1-.63,1.57l-.63.68.89.27c.79.24,1.32.66,1.32,1s-.53.8-1.32,1l-.89.27.63.68c.57.61.82,1.24.63,1.57s-.87.42-1.67.23l-.91-.21.22.91c.18.81.09,1.48-.24,1.67s-1-.08-1.57-.63L28,13.41l-.27.89C27.51,15.09,27.08,15.63,26.7,15.63ZM25.51,13l.39,1.27c.24.79.61,1.15.8,1.15s.56-.35.8-1.15L27.89,13l1,.91c.61.57,1.11.69,1.27.59s.31-.59.12-1.39l-.3-1.3,1.3.3a3,3,0,0,0,.7.09c.4,0,.63-.11.69-.21s0-.66-.59-1.27l-.91-1,1.27-.39c.8-.24,1.15-.61,1.15-.8s-.35-.56-1.15-.8l-1.27-.39.91-1c.57-.61.69-1.11.59-1.27s-.29-.21-.69-.21a3,3,0,0,0-.7.09l-1.3.3.3-1.3c.19-.8.05-1.3-.12-1.39s-.66,0-1.27.59l-1,.91L27.5,2.81c-.24-.8-.61-1.15-.8-1.15s-.56.35-.8,1.15l-.39,1.27-1-.91c-.61-.57-1.11-.69-1.27-.59S23,3.17,23.15,4l.3,1.3L22.16,5a3.14,3.14,0,0,0-.71-.09c-.39,0-.63.1-.69.21s0,.66.59,1.27l.91,1L21,7.72c-.8.24-1.15.61-1.15.8s.35.56,1.15.8l1.27.39-.91,1c-.56.61-.69,1.11-.59,1.27s.3.21.69.21a3.14,3.14,0,0,0,.71-.09l1.29-.3-.3,1.3c-.19.8,0,1.3.12,1.39s.66,0,1.27-.59Z"/><path class="cls-1" d="M29.15,8.52A2.45,2.45,0,1,0,26.7,11a2.45,2.45,0,0,0,2.45-2.45m-2.45-1a1,1,0,1,1,0,2.09,1,1,0,0,1,0-2.09"/><path class="cls-2" d="M26.7,11.1a2.58,2.58,0,1,1,2.58-2.58A2.59,2.59,0,0,1,26.7,11.1Zm0-4.91A2.33,2.33,0,1,0,29,8.52,2.34,2.34,0,0,0,26.7,6.19Zm0,3.5a1.17,1.17,0,1,1,0-2.34,1.17,1.17,0,1,1,0,2.34Zm0-2.09a.92.92,0,1,0,.92.92A.92.92,0,0,0,26.7,7.6Z"/></g></g></svg>