<svg xmlns="http://www.w3.org/2000/svg" viewBox="0 0 56.23 52.67"><defs><style>.cls-1{fill:#37a781;}.cls-2{fill:#39a07d;}</style></defs><g id="레이어_2" data-name="레이어 2"><g id="Layer_1" data-name="Layer 1"><path class="cls-1" d="M12.91,3.47a6.62,6.62,0,0,1,9.1-.2l4.88,4.87L22.05,13a13.53,13.53,0,0,1-6.9,3.72l.32,1.37A14.8,14.8,0,0,0,23,14l4.84-4.85,4.91,4.91h0a15.77,15.77,0,0,0,11.28,4.52A18.4,18.4,0,0,0,47,18.34l.51-.08.08-.5A16.18,16.18,0,0,0,43.29,3.54,14.67,14.67,0,0,0,41.6,2.09a10.11,10.11,0,0,0-6-2h-18v0a8.14,8.14,0,0,0-5.64,2.32,17.45,17.45,0,0,0-4.85,9.89l1.39.2a16.12,16.12,0,0,1,4.45-9.1M32,11.28l3.31-4.2L40.26,12l-2.89,3.63a13.68,13.68,0,0,1-3.48-2.47h0Zm6.69,5L41.26,13l4.1,4.1a15.36,15.36,0,0,1-6.66-.89m7.66-.1-5.54-5.54h5a15.64,15.64,0,0,1,.54,5.54m-1-6.95H39.41L34.73,4.51h7.54l0,0a13.91,13.91,0,0,1,3.05,4.64M35.59,1.53a8.78,8.78,0,0,1,5,1.57H33.33l-.63-.62-.34-.32a7.79,7.79,0,0,0-.79-.63Zm-8.45,0A6.26,6.26,0,0,1,31.41,3.2l.32.29,2.59,2.59L31,10.28l-8-8a7.08,7.08,0,0,0-.9-.74Z"/><path class="cls-2" d="M44.05,18.71a15.91,15.91,0,0,1-11.37-4.56l-.09-.09h0L27.88,9.32c-1.39,1.39-4.71,4.72-4.75,4.75a15,15,0,0,1-7.63,4.14l-.13,0L15,16.62l.12,0A13.34,13.34,0,0,0,22,12.9l4.75-4.76L21.92,3.36a5.93,5.93,0,0,0-4.26-1.68A6.61,6.61,0,0,0,13,3.56a16,16,0,0,0-4.41,9l0,.13-1.64-.24,0-.12a17.63,17.63,0,0,1,4.88-10A8.3,8.3,0,0,1,17.44,0V0H35.59a10.29,10.29,0,0,1,6.09,2,15.86,15.86,0,0,1,1.7,1.47A16.29,16.29,0,0,1,47.7,17.78l-.1.59-.59.1A18.56,18.56,0,0,1,44.05,18.71ZM33,14.06a15.65,15.65,0,0,0,11.1,4.4A18.07,18.07,0,0,0,47,18.22l.42-.06.06-.42A16,16,0,0,0,43.2,3.63a14.26,14.26,0,0,0-1.67-1.44A10.05,10.05,0,0,0,35.59.25H17.69v0h-.13A8,8,0,0,0,12,2.57a17.36,17.36,0,0,0-4.8,9.69l1.15.16a16.19,16.19,0,0,1,4.46-9,6.86,6.86,0,0,1,4.84-2A6.21,6.21,0,0,1,22.1,3.18l5,5L27,8.23c-1.27,1.28-4.59,4.61-4.84,4.85a13.56,13.56,0,0,1-6.83,3.73l.26,1.12a14.7,14.7,0,0,0,7.39-4l4.84-4.85L27.88,9,33,14.05ZM44.06,17.3a15.2,15.2,0,0,1-5.4-1l-.16-.06,2.75-3.44,4.39,4.39-.27,0C44.93,17.28,44.49,17.3,44.06,17.3Zm-5.15-1.13a15.46,15.46,0,0,0,6.17.85l-3.81-3.81Zm7.55.24-6-5.94h5.41l0,.09a15.75,15.75,0,0,1,.54,5.58Zm-5.34-5.69,5.13,5.13a15.65,15.65,0,0,0-.52-5.13ZM37.4,15.8l-.09,0a14.06,14.06,0,0,1-3.51-2.49l-.09-.09h0l-1.87-1.88L35.31,6.9,40.43,12Zm-3.33-2.62a13.66,13.66,0,0,0,3.26,2.31L40.09,12,35.33,7.27l-3.15,4,1.9,1.9ZM31,10.47,22.91,2.36A7,7,0,0,0,22,1.63l-.32-.22h5.43a6.38,6.38,0,0,1,4.35,1.7l.32.29,2.68,2.67ZM22.48,1.66a5.4,5.4,0,0,1,.61.53L31,10.09l3.15-4L31.64,3.58l-.32-.29a6.15,6.15,0,0,0-4.18-1.63ZM45.53,9.31H39.36L34.43,4.38h7.89l.07.07a13.83,13.83,0,0,1,3.07,4.69Zm-6.07-.25h5.7a13.46,13.46,0,0,0-2.94-4.43H35ZM41,3.23H33.27l-.66-.66-.33-.32a8.41,8.41,0,0,0-.79-.62l-.32-.22h4.42A8.89,8.89,0,0,1,40.67,3ZM33.38,3h6.8a8.61,8.61,0,0,0-4.59-1.32H32c.18.14.35.27.5.41l.34.32Z"/><path class="cls-1" d="M54.48,25.64a6.59,6.59,0,0,1-4.32,8l-6.65,1.83-1.65-6-.17-.63a14.17,14.17,0,0,1,.69-9.35L41.06,19a15.66,15.66,0,0,0-.72,10.22l.17.63c.86,3.12,1.38,5,1.64,6l-6.69,1.84v0A16.18,16.18,0,0,0,24.7,47.9l-.18.48.39.31a16.76,16.76,0,0,0,10.48,3.85,14.86,14.86,0,0,0,6.1-1.28A10.11,10.11,0,0,0,46.17,47l4.18-7.34h0l4.74-8.33,0,0a8.17,8.17,0,0,0,.78-6A17.57,17.57,0,0,0,50,16.48h0l-.39-.31h0l-.43.56-.44.55.09.07a16.11,16.11,0,0,1,5.62,8.3M35.67,39.06v0l2.57-.71,2,5-6.74,1.84-1.72-4.3a13.69,13.69,0,0,1,3.87-1.81m-5,2.68,1.52,3.81-5.6,1.54a15.52,15.52,0,0,1,4.08-5.35m3.85,4.63L32,50.72a15.55,15.55,0,0,1-5.07-2.28Zm-1,4.63,2.94-5.16,6.38-1.75-3.73,6.55h0a13.69,13.69,0,0,1-5.55.35M45,46.3a8.73,8.73,0,0,1-3.84,3.58l3.6-6.32.84-.23.45-.14a9.71,9.71,0,0,0,.94-.38ZM49.13,39a6.32,6.32,0,0,1-3.56,2.88l-.42.13-3.53,1-2-5,10.92-3a7.89,7.89,0,0,0,1.09-.41Z"/><path class="cls-2" d="M35.39,52.67a16.74,16.74,0,0,1-10.55-3.88l-.47-.37.21-.56A16.28,16.28,0,0,1,35.42,37.54l.12,0v0L42,35.75c-.27-1-.79-2.86-1.61-5.85l-.18-.63A15.74,15.74,0,0,1,41,19l0-.12,1.55.59,0,.11a14.06,14.06,0,0,0-.68,9.27l.3,1.1c.4,1.43,1.12,4.07,1.49,5.38l6.53-1.79a6.06,6.06,0,0,0,3.64-3,6.65,6.65,0,0,0,.59-4.85,16,16,0,0,0-5.57-8.23l-.2-.16,1-1.31.1.1.5.4h0A17.63,17.63,0,0,1,56,25.23a8.26,8.26,0,0,1-.74,6l0,0-4.69,8.24h.08l-.2.21-4.17,7.32a10.3,10.3,0,0,1-4.74,4.31,15.6,15.6,0,0,1-2.11.76A15.3,15.3,0,0,1,35.39,52.67ZM24.67,48.34l.32.26a16.54,16.54,0,0,0,10.4,3.82,14.6,14.6,0,0,0,6-1.28,10.07,10.07,0,0,0,4.63-4.2l8.85-15.56,0,0,.06-.11a8,8,0,0,0,.76-5.95A17.35,17.35,0,0,0,50,16.58l-.11-.09h0l-.19-.15-.72.91A16.19,16.19,0,0,1,54.6,25.6a6.87,6.87,0,0,1-.61,5,6.29,6.29,0,0,1-3.8,3.13l-6.77,1.86,0-.12c-.35-1.27-1.11-4-1.52-5.5l-.3-1.1a14.22,14.22,0,0,1,.65-9.31l-1.08-.41a15.45,15.45,0,0,0-.68,10l.17.63c.86,3.11,1.38,5,1.64,6l0,.12-6.94,1.9v0A16.09,16.09,0,0,0,24.81,47.94Zm10.74,2.92a14.21,14.21,0,0,1-1.95-.14l-.19,0,3.06-5.37,6.72-1.84-3.91,6.86h-.09A13.89,13.89,0,0,1,35.41,51.26Zm-1.74-.36A13.73,13.73,0,0,0,39,50.53l3.55-6.24-6,1.66Zm-1.59,0-.09,0a15.5,15.5,0,0,1-5.12-2.3l-.23-.15,8.11-2.22Zm-4.85-2.37A15.37,15.37,0,0,0,32,50.57l2.28-4ZM40.8,50.16l3.82-6.7.9-.25.44-.14a8.94,8.94,0,0,0,.93-.37l.35-.17-2.18,3.83A9,9,0,0,1,41.16,50Zm4-6.49-3.37,5.92a8.67,8.67,0,0,0,3.42-3.35l1.8-3.16-.6.23-.45.14ZM26.34,47.28l.11-.25a15.54,15.54,0,0,1,4.11-5.38l.13-.12,1.64,4.1ZM30.59,42a15.24,15.24,0,0,0-3.79,4.94L32,45.47Zm2.86,3.37-1.8-4.5.08,0a13.76,13.76,0,0,1,3.9-1.83l.12,0v0l2.57-.71,2.11,5.19ZM32,40.92,33.6,45l6.49-1.78-1.92-4.72-2.58.71h0A13.31,13.31,0,0,0,32,40.92Zm9.59,2.18-2.11-5.19,11.06-3a7,7,0,0,0,1.07-.41l.35-.16L49.23,39A6.37,6.37,0,0,1,45.61,42l-.42.13Zm-1.77-5L41.7,42.8l3.42-.94.41-.13A6.19,6.19,0,0,0,49,38.91l2.3-4.06a6.32,6.32,0,0,1-.76.27Z"/><path class="cls-1" d="M5.7,39.76h0l4.77,8.31,0,0,.05.11a8.25,8.25,0,0,0,4.77,3.63,17,17,0,0,0,4.33.56,18,18,0,0,0,6.66-1.29l-.52-1.3a16.2,16.2,0,0,1-10.1.67,6.77,6.77,0,0,1-3.94-3A6.06,6.06,0,0,1,11,42.64L12.78,36l6.36,1.71.25.07a13.49,13.49,0,0,1,6.6,4l1-1a14.72,14.72,0,0,0-7.25-4.45l-.25-.07-6.37-1.71L15,27.93h0A16.15,16.15,0,0,0,11.6,13.47l-.32-.4-.47.18A16.19,16.19,0,0,0,.61,24.05a16.58,16.58,0,0,0-.42,2.19,10.11,10.11,0,0,0,1.3,6.2l4.2,7.32h0m3.92,2.52a7.35,7.35,0,0,0-.2,1.14L6.91,39.06a6.28,6.28,0,0,1-.68-4.53l.1-.43,1-3.53,5.28.77ZM9.48,22.46l4.58.7a13.8,13.8,0,0,1-.41,4.24h0L12.94,30,7.65,29.2Zm.36-1.37,1.52-5.6a15.51,15.51,0,0,1,2.54,6.22Zm.16-6L8,22.69l-2.5-4.34A15.77,15.77,0,0,1,10,15.12m-8,9.3a13.77,13.77,0,0,1,2.51-5l3,5.15L5.71,31,2,24.46a.06.06,0,0,1,0,0m-.4,2.19,3.62,6.3L5,33.76l-.11.46a8.62,8.62,0,0,0-.15,1l-2-3.48a8.77,8.77,0,0,1-1.14-5.13"/><path class="cls-2" d="M19.65,52.48a17.1,17.1,0,0,1-4.36-.57,8.35,8.35,0,0,1-4.84-3.69h0l-9-15.73A10.25,10.25,0,0,1,.07,26.23,14.86,14.86,0,0,1,.49,24,16.28,16.28,0,0,1,10.76,13.14l.56-.21.38.46A16.3,16.3,0,0,1,15.09,28l0,.12h0L13.3,34.54l6.24,1.68.25.07a15,15,0,0,1,7.32,4.48l.08.09L26,42l-.08-.09a13.31,13.31,0,0,0-6.54-4l-.25-.07-6.24-1.68L11.1,42.68a5.92,5.92,0,0,0,.76,4.68,6.69,6.69,0,0,0,3.86,3,15.15,15.15,0,0,0,3.94.51,16.6,16.6,0,0,0,6.08-1.18l.12,0,.61,1.54-.11,0A18.28,18.28,0,0,1,19.65,52.48Zm-9.11-4.6.09.16,0,.05a8,8,0,0,0,4.69,3.57,16.27,16.27,0,0,0,4.3.57A18,18,0,0,0,26.15,51l-.43-1.07a16.71,16.71,0,0,1-6.06,1.15,15.13,15.13,0,0,1-4-.52,6.9,6.9,0,0,1-4-3.06,6.15,6.15,0,0,1-.79-4.88l1.83-6.78.12,0,6.36,1.71.25.07a13.47,13.47,0,0,1,6.57,4l.85-.79a14.66,14.66,0,0,0-7.12-4.32l-.25-.07-6.36-1.71-.12,0,1.88-6.95h0A16.05,16.05,0,0,0,11.5,13.55l-.26-.33-.39.15A16.06,16.06,0,0,0,.73,24.09a15.41,15.41,0,0,0-.42,2.17A10.09,10.09,0,0,0,1.6,32.38L10.52,47.9Zm-1-4.06L6.8,39.12a6.47,6.47,0,0,1-.69-4.62l.1-.42,1-3.65,5.54.81-3,11.07a6.68,6.68,0,0,0-.19,1.12ZM7.38,30.71l-.93,3.43-.09.42A6.12,6.12,0,0,0,7,39l2.32,4a6.13,6.13,0,0,1,.16-.79l2.92-10.79ZM4.8,35.63,2.6,31.8a8.82,8.82,0,0,1-1.15-5.2l0-.39L5.33,32.9l-.24.9L5,34.25a7.35,7.35,0,0,0-.14,1ZM1.67,27a8.63,8.63,0,0,0,1.15,4.64l1.81,3.16c0-.23.07-.44.11-.64l.1-.45.22-.81Zm4.09,4.29L1.82,24.48l0-.05s0,0,0,0a13.88,13.88,0,0,1,2.53-5l.12-.14,3.07,5.35ZM2.09,24.44l3.58,6.23,1.63-6L4.46,19.69A13.68,13.68,0,0,0,2.09,24.44Zm11,5.68L7.5,29.3l1.88-7,4.8.73v.1a14.06,14.06,0,0,1-.4,4.29l0,.12h0Zm-5.23-1,5,.74.7-2.59h0a13.63,13.63,0,0,0,.38-4L9.57,22.6ZM8,23,5.31,18.33l.06-.07A16,16,0,0,1,10,15l.24-.11ZM5.62,18.37l2.29,4,1.9-7A15.43,15.43,0,0,0,5.62,18.37Zm8.43,3.49-4.36-.67,1.62-6,.15.22A15.39,15.39,0,0,1,14,21.69ZM10,21l3.75.57a15.39,15.39,0,0,0-2.34-5.77Z"/></g></g></svg>