<svg xmlns="http://www.w3.org/2000/svg" viewBox="0 0 50.6 65.85"><defs><style>.cls-1{fill:#37a781;}.cls-2{fill:#39a07d;}</style></defs><g id="레이어_2" data-name="레이어 2"><g id="Layer_1" data-name="Layer 1"><path class="cls-1" d="M22.26,7.54a2.27,2.27,0,0,0-1.52-1.73V.12h-7V5.81A2.27,2.27,0,0,0,12.19,8V20.1L3,29.28a9.8,9.8,0,0,0-2.89,7V61.34a3.3,3.3,0,0,0,3.3,3.3H25.3a3.13,3.13,0,0,0,.43,0,18.4,18.4,0,1,0,.72-34.82Zm9.8,22.77a17,17,0,1,1,0,34,17.37,17.37,0,0,1-6.21-1.18,17,17,0,0,1-.47-31.46c.43-.18.88-.35,1.33-.5a16.94,16.94,0,0,1,5.35-.87M15.17,1.53h4.17V5.69H15.17ZM3.42,63.23a1.89,1.89,0,0,1-1.89-1.89V36.25a8.4,8.4,0,0,1,2.48-6l9.59-9.59V8a.87.87,0,0,1,.87-.87H20a.88.88,0,0,1,.86.71l4.23,22.47a18.4,18.4,0,0,0-2.28,33Z"/><path class="cls-2" d="M32.06,65.85a18.45,18.45,0,0,1-6.34-1.12l-.42,0H3.42A3.42,3.42,0,0,1,0,61.34V36.25a9.91,9.91,0,0,1,2.93-7.06l9.14-9.14V8a2.38,2.38,0,0,1,1.57-2.24V0h7.23V5.72a2.41,2.41,0,0,1,1.51,1.8l4.16,22.1a18.54,18.54,0,1,1,5.52,36.23Zm-6.31-1.37h0a18.1,18.1,0,0,0,6.28,1.11,18.29,18.29,0,1,0-5.57-35.7l-.14.05,0-.14L22.13,7.56A2.14,2.14,0,0,0,20.7,5.93l-.08,0V.25H13.89V5.9l-.09,0a2.13,2.13,0,0,0-1.48,2V20.15L3.1,29.37A9.66,9.66,0,0,0,.25,36.25V61.34a3.17,3.17,0,0,0,3.17,3.17H25.3l.42,0Zm6.31,0a16.92,16.92,0,0,1-4.52-.61,14.79,14.79,0,0,1-1.74-.58,17.12,17.12,0,0,1-.47-31.68c.42-.18.87-.35,1.34-.51a17.13,17.13,0,1,1,5.39,33.38Zm0-34a16.87,16.87,0,0,0-5.31.86c-.46.15-.91.32-1.33.5A16.87,16.87,0,0,0,25.89,63a16.48,16.48,0,0,0,1.72.57,16.88,16.88,0,1,0,4.45-33.15ZM23.29,63.36H3.42a2,2,0,0,1-2-2V36.25a8.53,8.53,0,0,1,2.51-6.07l9.55-9.55V8a1,1,0,0,1,1-1H20a1,1,0,0,1,1,.81l4.25,22.57-.09,0a18.27,18.27,0,0,0-2.27,32.73ZM14.47,7.22a.75.75,0,0,0-.75.74V20.73L4.1,30.36a8.25,8.25,0,0,0-2.44,5.89V61.34a1.76,1.76,0,0,0,1.76,1.77h19A18.53,18.53,0,0,1,25,30.2L20.75,7.82a.73.73,0,0,0-.73-.6Zm5-1.41H15.05V1.41h4.41ZM15.3,5.56h3.91V1.66H15.3Z"/><path class="cls-1" d="M17.38,25.2a3.22,3.22,0,0,0-4.19.33L5.31,33.41a3.23,3.23,0,0,0-.95,2.29v7.74a3.24,3.24,0,0,0,6.13,1.46l7.88-15.62a3.21,3.21,0,0,0-1-4.08m-.26,3.45L9.24,44.26a1.85,1.85,0,0,1-2.07,1,1.83,1.83,0,0,1-1.4-1.78V35.7a1.86,1.86,0,0,1,.53-1.3l7.88-7.87a1.83,1.83,0,0,1,1.3-.54,1.78,1.78,0,0,1,1.07.35,1.82,1.82,0,0,1,.57,2.31"/><path class="cls-2" d="M7.6,46.8a3.46,3.46,0,0,1-.78-.09,3.36,3.36,0,0,1-2.59-3.27V35.7a3.34,3.34,0,0,1,1-2.38l7.88-7.88a3.34,3.34,0,0,1,2.38-1,3.28,3.28,0,0,1,2,.65,3.34,3.34,0,0,1,1,4.24L10.61,45A3.36,3.36,0,0,1,7.6,46.8Zm7.88-22.1a3.1,3.1,0,0,0-2.2.92L5.4,33.5a3.1,3.1,0,0,0-.92,2.2v7.74a3.11,3.11,0,0,0,2.4,3,3.53,3.53,0,0,0,.72.08,3.09,3.09,0,0,0,2.78-1.71l7.88-15.61a3.12,3.12,0,0,0-2.78-4.53ZM7.59,45.4a1.61,1.61,0,0,1-.44-.06,2,2,0,0,1-1.51-1.9V35.7a2,2,0,0,1,.57-1.39l7.88-7.87a1.93,1.93,0,0,1,1.39-.58,2,2,0,0,1,1.15.37,2,2,0,0,1,.6,2.47L9.35,44.32A2,2,0,0,1,7.59,45.4Zm7.89-19.29a1.7,1.7,0,0,0-1.21.5L6.39,34.49a1.7,1.7,0,0,0-.5,1.21v7.74A1.7,1.7,0,0,0,7.2,45.1a1.7,1.7,0,0,0,1.93-.89L17,28.59a1.7,1.7,0,0,0-.53-2.15A1.64,1.64,0,0,0,15.48,26.11Z"/><path class="cls-1" d="M26.23,36.22l1.15,1.13-.79.79L22.43,42.3a7.41,7.41,0,0,0,0,10.46l4.46,4.45v2.12H39.17l-2-2,4.53-4.53h0a7.41,7.41,0,0,0,0-10.46l-4-4v-3H25.29Zm10,.49v7.41L36.1,44l-.7-.7-6,6,0,.05-.15.15-.61-.61-1.41-1.4-.24-.24,0,7.19v.85l0,0-3.47-3.46a6,6,0,0,1,0-8.47l3.49-3.48,1.2-1.2,1.27-1.27-.64-.63h7.52Zm4.44,6.6a6,6,0,0,1,0,8.46v0l.51.5-.5-.5-5.49,5.5,0,0,.6.6H28.32V50.59l.25.25.22.23.39.38,1.13-1.13,4.45-4.45h0l0,0-.45-.45.45.45,0,0,.63-.63,2.26,2.27V40.26Z"/><path class="cls-2" d="M39.47,59.45H26.78V57.26l-4.43-4.42a7.53,7.53,0,0,1,0-10.63l4.86-4.86L25,35.18h12.8v3l4,4a7.52,7.52,0,0,1,.07,10.56h0l-.08.1-4.44,4.44ZM27,59.2H38.87L37,57.32l4.61-4.63a7.27,7.27,0,0,0,0-10.29l-4.07-4.07v-2.9H25.6l2,1.92-5,5a7.27,7.27,0,0,0,0,10.28L27,57.16Zm9.06-1.15H28.19l0-7.76,1,1,5.4-5.4-.41-.41.18-.18.4.41.63-.62,2.14,2.14V40l3.25,3.26a6.11,6.11,0,0,1,.08,8.56l.42.42-.18.18L40.7,52l-5.35,5.35Zm-7.64-.25h7L35,57.32l5.52-5.53h0l.08-.09a5.88,5.88,0,0,0,0-8.31l-2.83-2.82v7.24L35.4,45.42l-6.2,6.2-.74-.73ZM27,55.55l-3.7-3.7a6.11,6.11,0,0,1,0-8.65l5.86-5.86-.77-.76h8v7.83l-1-1-6.2,6.21-2.13-2.13Zm2-18.72.52.51-6,6a5.88,5.88,0,0,0,0,8.29L26.79,55l0-8,2.38,2.37,6.2-6.2.73.74v-7Z"/></g></g></svg>